G04 #@! TF.FileFunction,Soldermask,Bot*
%FSLAX46Y46*%
G04 Gerber Fmt 4.6, Leading zero omitted, Abs format (unit mm)*
G04 Created by KiCad (PCBNEW 4.0.7) date 11/29/17 21:47:09*
%MOMM*%
%LPD*%
G01*
G04 APERTURE LIST*
%ADD10C,0.100000*%
%ADD11C,3.580000*%
%ADD12R,1.580000X1.280000*%
%ADD13R,1.580000X1.130000*%
%ADD14R,1.480000X1.480000*%
%ADD15R,1.280000X1.180000*%
%ADD16R,1.280000X1.580000*%
%ADD17R,1.880000X0.980000*%
%ADD18R,1.130000X1.580000*%
%ADD19R,1.680000X2.980000*%
%ADD20R,0.980000X1.180000*%
%ADD21R,1.180000X0.980000*%
%ADD22C,1.180000*%
%ADD23C,1.269000*%
%ADD24R,2.880000X1.080000*%
%ADD25R,2.880000X0.780000*%
%ADD26R,2.380000X2.880000*%
%ADD27R,1.880000X2.780000*%
%ADD28R,1.680000X1.180000*%
%ADD29R,1.680000X2.180000*%
%ADD30R,0.830000X1.830000*%
%ADD31R,2.880000X2.380000*%
%ADD32C,2.580000*%
%ADD33C,2.380000*%
%ADD34R,2.080000X2.080000*%
%ADD35O,2.080000X2.080000*%
%ADD36R,1.880000X1.680000*%
%ADD37C,1.000000*%
G04 APERTURE END LIST*
D10*
D11*
X55500000Y-114490000D03*
X131500000Y-114490000D03*
X131500000Y-38490000D03*
D12*
X84426700Y-87744300D03*
X86626700Y-87744300D03*
D13*
X70965100Y-106346342D03*
X69065100Y-106346342D03*
X79644200Y-97581430D03*
X81544200Y-97581430D03*
X84602320Y-37787580D03*
X82702320Y-37787580D03*
D14*
X98094800Y-104121300D03*
X98094800Y-106921300D03*
D15*
X79558900Y-106657100D03*
X79558900Y-108557100D03*
X77558900Y-107607100D03*
X101416100Y-109801700D03*
X101416100Y-107901700D03*
X103416100Y-108851700D03*
D16*
X79565500Y-110350300D03*
X79565500Y-112550300D03*
D12*
X71199100Y-109394342D03*
X68999100Y-109394342D03*
X66291100Y-117395342D03*
X68491100Y-117395342D03*
X68915100Y-103933342D03*
X71115100Y-103933342D03*
X105199000Y-110007400D03*
X107399000Y-110007400D03*
X62903100Y-113712342D03*
X60703100Y-113712342D03*
D16*
X53416200Y-102730300D03*
X53416200Y-104930300D03*
X77812900Y-98966200D03*
X77812900Y-96766200D03*
D12*
X81694200Y-96057430D03*
X79494200Y-96057430D03*
D16*
X87515700Y-78966240D03*
X87515700Y-76766240D03*
X85991700Y-76778940D03*
X85991700Y-78978940D03*
D17*
X60805100Y-111553342D03*
X60805100Y-110283342D03*
X60805100Y-109013342D03*
X60805100Y-107743342D03*
X60805100Y-106473342D03*
X60805100Y-105203342D03*
X60805100Y-103933342D03*
X60805100Y-102663342D03*
X66205100Y-102663342D03*
X66205100Y-103933342D03*
X66205100Y-105203342D03*
X66205100Y-106473342D03*
X66205100Y-107743342D03*
X66205100Y-109013342D03*
X66205100Y-110283342D03*
X66205100Y-111553342D03*
D18*
X66205100Y-113397342D03*
X66205100Y-115297342D03*
D19*
X90687160Y-73434260D03*
X88687160Y-73434260D03*
X86687160Y-73434260D03*
X84687160Y-73434260D03*
X82687160Y-73434260D03*
X80687160Y-73434260D03*
X78687160Y-73434260D03*
X76687160Y-73434260D03*
X76687160Y-40434260D03*
X78687160Y-40434260D03*
X80687160Y-40434260D03*
X82687160Y-40434260D03*
X84687160Y-40434260D03*
X86687160Y-40434260D03*
X88687160Y-40434260D03*
X90687160Y-40434260D03*
D16*
X80675480Y-76016760D03*
X80675480Y-78216760D03*
D20*
X80976100Y-108699300D03*
X82676100Y-108699300D03*
D21*
X82613500Y-105677600D03*
X82613500Y-107377600D03*
D20*
X70445100Y-107870342D03*
X68745100Y-107870342D03*
X62737100Y-115363342D03*
X61037100Y-115363342D03*
X56719100Y-104060342D03*
X58419100Y-104060342D03*
D21*
X79451200Y-92921430D03*
X79451200Y-94621430D03*
D20*
X79617200Y-99105430D03*
X81317200Y-99105430D03*
D22*
X134278000Y-53555900D03*
X133008000Y-53555900D03*
X131738000Y-53555900D03*
X130468000Y-53555900D03*
X134278000Y-54825900D03*
X131738000Y-54825900D03*
X133008000Y-54825900D03*
X130468000Y-54825900D03*
X134278000Y-56095900D03*
X133008000Y-56095900D03*
X131738000Y-56095900D03*
X130468000Y-56095900D03*
X134278000Y-57365900D03*
X133008000Y-57365900D03*
X131738000Y-57365900D03*
X130468000Y-57365900D03*
X134278000Y-58635900D03*
X133008000Y-58635900D03*
X131738000Y-58635900D03*
X130468000Y-58635900D03*
X134278000Y-59905900D03*
X133008000Y-59905900D03*
X131738000Y-59905900D03*
X130468000Y-59905900D03*
X134278000Y-61175900D03*
X133008000Y-61175900D03*
X131738000Y-61175900D03*
X130468000Y-61175900D03*
X134278000Y-62445900D03*
X133008000Y-62445900D03*
X131738000Y-62445900D03*
X130468000Y-62445900D03*
X134278000Y-63715900D03*
X133008000Y-63715900D03*
X131738000Y-63715900D03*
X130468000Y-63715900D03*
X134278000Y-64985900D03*
X133008000Y-64985900D03*
X131738000Y-64985900D03*
X130468000Y-64985900D03*
X134278000Y-66255900D03*
X133008000Y-66255900D03*
X131738000Y-66255900D03*
X130468000Y-66255900D03*
X134278000Y-67525900D03*
X133008000Y-67525900D03*
X131738000Y-67525900D03*
X130468000Y-67525900D03*
X134278000Y-68795900D03*
X133008000Y-68795900D03*
X131738000Y-68795900D03*
X130468000Y-68795900D03*
X134278000Y-70065900D03*
X133008000Y-70065900D03*
X131738000Y-70065900D03*
X130468000Y-70065900D03*
X134278000Y-71335900D03*
X133008000Y-71335900D03*
X131738000Y-71335900D03*
X130468000Y-71335900D03*
X134278000Y-72605900D03*
X133008000Y-72605900D03*
X131738000Y-72605900D03*
X130468000Y-72605900D03*
X134278000Y-73875900D03*
X133008000Y-73875900D03*
X131738000Y-73875900D03*
X130468000Y-73875900D03*
X134278000Y-75145900D03*
X133008000Y-75145900D03*
X131738000Y-75145900D03*
X130468000Y-75145900D03*
X134278000Y-76415900D03*
X133008000Y-76415900D03*
X131738000Y-76415900D03*
X130468000Y-76415900D03*
X134278000Y-77685900D03*
X133008000Y-77685900D03*
X131738000Y-77685900D03*
X130468000Y-77685900D03*
X134278000Y-78955900D03*
X133008000Y-78955900D03*
X131738000Y-78955900D03*
X130468000Y-78955900D03*
X134278000Y-80225900D03*
X133008000Y-80225900D03*
X131738000Y-80225900D03*
X130468000Y-80225900D03*
X134278000Y-81495900D03*
X133008000Y-81495900D03*
X131738000Y-81495900D03*
X130468000Y-81495900D03*
X134278000Y-82765900D03*
X133008000Y-82765900D03*
X130468000Y-82765900D03*
X131738000Y-82765900D03*
X134278000Y-84035900D03*
X133008000Y-84035900D03*
X131738000Y-84035900D03*
X130468000Y-84035900D03*
X134278000Y-85305900D03*
X133008000Y-85305900D03*
X131738000Y-85305900D03*
X130468000Y-85305900D03*
X134278000Y-86575900D03*
X133008000Y-86575900D03*
X131738000Y-86575900D03*
X130468000Y-86575900D03*
X134278000Y-87845900D03*
X133008000Y-87845900D03*
X131738000Y-87845900D03*
X130468000Y-87845900D03*
X134278000Y-89115900D03*
X133008000Y-89115900D03*
X131738000Y-89115900D03*
X130468000Y-89115900D03*
X134278000Y-90385900D03*
X133008000Y-90385900D03*
X131738000Y-90385900D03*
X130468000Y-90385900D03*
D23*
X132373000Y-54190900D03*
X132373000Y-54190900D03*
X132373000Y-54190900D03*
X132373000Y-54190900D03*
X132373000Y-89750900D03*
D24*
X132376610Y-84035900D03*
X132376610Y-85305900D03*
X132376610Y-81495900D03*
X130471610Y-85305900D03*
X130471610Y-81495900D03*
X130471610Y-84035900D03*
X130471610Y-82765900D03*
X134281610Y-73875900D03*
X134281610Y-75145900D03*
X134281610Y-71335900D03*
X134281610Y-72605900D03*
X134281610Y-76415900D03*
X134281610Y-77685900D03*
X134281610Y-80225900D03*
X134281610Y-81495900D03*
X134281610Y-84035900D03*
X134281610Y-78955900D03*
X134281610Y-82765900D03*
X134281610Y-85305900D03*
X134281610Y-89115900D03*
X134281610Y-90385900D03*
X134281610Y-87845900D03*
X134281610Y-86575900D03*
X130471610Y-90385900D03*
X130471610Y-86575900D03*
D25*
X132503610Y-90512900D03*
D24*
X132376610Y-86575900D03*
X132376610Y-87845900D03*
D25*
X132503610Y-88988900D03*
D24*
X130471610Y-87845900D03*
X130471610Y-89115900D03*
X132376610Y-72605900D03*
X130471610Y-71335900D03*
X132376610Y-75145900D03*
X132376610Y-71335900D03*
X132376610Y-73875900D03*
X130471610Y-72605900D03*
X130471610Y-75145900D03*
X130471610Y-73875900D03*
X132376610Y-78955900D03*
X132376610Y-80225900D03*
X130471610Y-80225900D03*
X132376610Y-76415900D03*
X132376610Y-77685900D03*
X130471610Y-78955900D03*
X130471610Y-76415900D03*
X130471610Y-77685900D03*
D25*
X132376610Y-53428900D03*
D24*
X130471610Y-54825900D03*
X130471610Y-53555900D03*
D25*
X132503610Y-54952900D03*
D24*
X132376610Y-56095900D03*
X130471610Y-57365900D03*
X132376610Y-57365900D03*
X130471610Y-56095900D03*
X132376610Y-67525900D03*
X132376610Y-66255900D03*
X130471610Y-67525900D03*
X130471610Y-66255900D03*
X132376610Y-64985900D03*
X132376610Y-63715900D03*
X130471610Y-64985900D03*
X130471610Y-63715900D03*
X134281610Y-53555900D03*
X134281610Y-54825900D03*
X134281610Y-57365900D03*
X134281610Y-58635900D03*
X134281610Y-56095900D03*
X134281610Y-62445900D03*
X134281610Y-64985900D03*
X134281610Y-63715900D03*
X134281610Y-61175900D03*
X134281610Y-59905900D03*
X130471610Y-68795900D03*
X134281610Y-67525900D03*
X134281610Y-70065900D03*
X134281610Y-66255900D03*
X134281610Y-68795900D03*
X132376610Y-70065900D03*
X132376610Y-68795900D03*
X130471610Y-70065900D03*
X130471610Y-62445900D03*
X132376610Y-58635900D03*
X132376610Y-59905900D03*
X132376610Y-62445900D03*
X132376610Y-61175900D03*
X130471610Y-61175900D03*
X130471610Y-59905900D03*
X130471610Y-58635900D03*
X132376610Y-82765900D03*
D22*
X56278000Y-53555900D03*
X55008000Y-53555900D03*
X53738000Y-53555900D03*
X52468000Y-53555900D03*
X56278000Y-54825900D03*
X53738000Y-54825900D03*
X55008000Y-54825900D03*
X52468000Y-54825900D03*
X56278000Y-56095900D03*
X55008000Y-56095900D03*
X53738000Y-56095900D03*
X52468000Y-56095900D03*
X56278000Y-57365900D03*
X55008000Y-57365900D03*
X53738000Y-57365900D03*
X52468000Y-57365900D03*
X56278000Y-58635900D03*
X55008000Y-58635900D03*
X53738000Y-58635900D03*
X52468000Y-58635900D03*
X56278000Y-59905900D03*
X55008000Y-59905900D03*
X53738000Y-59905900D03*
X52468000Y-59905900D03*
X56278000Y-61175900D03*
X55008000Y-61175900D03*
X53738000Y-61175900D03*
X52468000Y-61175900D03*
X56278000Y-62445900D03*
X55008000Y-62445900D03*
X53738000Y-62445900D03*
X52468000Y-62445900D03*
X56278000Y-63715900D03*
X55008000Y-63715900D03*
X53738000Y-63715900D03*
X52468000Y-63715900D03*
X56278000Y-64985900D03*
X55008000Y-64985900D03*
X53738000Y-64985900D03*
X52468000Y-64985900D03*
X56278000Y-66255900D03*
X55008000Y-66255900D03*
X53738000Y-66255900D03*
X52468000Y-66255900D03*
X56278000Y-67525900D03*
X55008000Y-67525900D03*
X53738000Y-67525900D03*
X52468000Y-67525900D03*
X56278000Y-68795900D03*
X55008000Y-68795900D03*
X53738000Y-68795900D03*
X52468000Y-68795900D03*
X56278000Y-70065900D03*
X55008000Y-70065900D03*
X53738000Y-70065900D03*
X52468000Y-70065900D03*
X56278000Y-71335900D03*
X55008000Y-71335900D03*
X53738000Y-71335900D03*
X52468000Y-71335900D03*
X56278000Y-72605900D03*
X55008000Y-72605900D03*
X53738000Y-72605900D03*
X52468000Y-72605900D03*
X56278000Y-73875900D03*
X55008000Y-73875900D03*
X53738000Y-73875900D03*
X52468000Y-73875900D03*
X56278000Y-75145900D03*
X55008000Y-75145900D03*
X53738000Y-75145900D03*
X52468000Y-75145900D03*
X56278000Y-76415900D03*
X55008000Y-76415900D03*
X53738000Y-76415900D03*
X52468000Y-76415900D03*
X56278000Y-77685900D03*
X55008000Y-77685900D03*
X53738000Y-77685900D03*
X52468000Y-77685900D03*
X56278000Y-78955900D03*
X55008000Y-78955900D03*
X53738000Y-78955900D03*
X52468000Y-78955900D03*
X56278000Y-80225900D03*
X55008000Y-80225900D03*
X53738000Y-80225900D03*
X52468000Y-80225900D03*
X56278000Y-81495900D03*
X55008000Y-81495900D03*
X53738000Y-81495900D03*
X52468000Y-81495900D03*
X56278000Y-82765900D03*
X55008000Y-82765900D03*
X52468000Y-82765900D03*
X53738000Y-82765900D03*
X56278000Y-84035900D03*
X55008000Y-84035900D03*
X53738000Y-84035900D03*
X52468000Y-84035900D03*
X56278000Y-85305900D03*
X55008000Y-85305900D03*
X53738000Y-85305900D03*
X52468000Y-85305900D03*
X56278000Y-86575900D03*
X55008000Y-86575900D03*
X53738000Y-86575900D03*
X52468000Y-86575900D03*
X56278000Y-87845900D03*
X55008000Y-87845900D03*
X53738000Y-87845900D03*
X52468000Y-87845900D03*
X56278000Y-89115900D03*
X55008000Y-89115900D03*
X53738000Y-89115900D03*
X52468000Y-89115900D03*
X56278000Y-90385900D03*
X55008000Y-90385900D03*
X53738000Y-90385900D03*
X52468000Y-90385900D03*
D23*
X54373000Y-54190900D03*
X54373000Y-54190900D03*
X54373000Y-54190900D03*
X54373000Y-54190900D03*
X54373000Y-89750900D03*
D24*
X54376610Y-84035900D03*
X54376610Y-85305900D03*
X54376610Y-81495900D03*
X52471610Y-85305900D03*
X52471610Y-81495900D03*
X52471610Y-84035900D03*
X52471610Y-82765900D03*
X56281610Y-73875900D03*
X56281610Y-75145900D03*
X56281610Y-71335900D03*
X56281610Y-72605900D03*
X56281610Y-76415900D03*
X56281610Y-77685900D03*
X56281610Y-80225900D03*
X56281610Y-81495900D03*
X56281610Y-84035900D03*
X56281610Y-78955900D03*
X56281610Y-82765900D03*
X56281610Y-85305900D03*
X56281610Y-89115900D03*
X56281610Y-90385900D03*
X56281610Y-87845900D03*
X56281610Y-86575900D03*
X52471610Y-90385900D03*
X52471610Y-86575900D03*
D25*
X54503610Y-90512900D03*
D24*
X54376610Y-86575900D03*
X54376610Y-87845900D03*
D25*
X54503610Y-88988900D03*
D24*
X52471610Y-87845900D03*
X52471610Y-89115900D03*
X54376610Y-72605900D03*
X52471610Y-71335900D03*
X54376610Y-75145900D03*
X54376610Y-71335900D03*
X54376610Y-73875900D03*
X52471610Y-72605900D03*
X52471610Y-75145900D03*
X52471610Y-73875900D03*
X54376610Y-78955900D03*
X54376610Y-80225900D03*
X52471610Y-80225900D03*
X54376610Y-76415900D03*
X54376610Y-77685900D03*
X52471610Y-78955900D03*
X52471610Y-76415900D03*
X52471610Y-77685900D03*
D25*
X54376610Y-53428900D03*
D24*
X52471610Y-54825900D03*
X52471610Y-53555900D03*
D25*
X54503610Y-54952900D03*
D24*
X54376610Y-56095900D03*
X52471610Y-57365900D03*
X54376610Y-57365900D03*
X52471610Y-56095900D03*
X54376610Y-67525900D03*
X54376610Y-66255900D03*
X52471610Y-67525900D03*
X52471610Y-66255900D03*
X54376610Y-64985900D03*
X54376610Y-63715900D03*
X52471610Y-64985900D03*
X52471610Y-63715900D03*
X56281610Y-53555900D03*
X56281610Y-54825900D03*
X56281610Y-57365900D03*
X56281610Y-58635900D03*
X56281610Y-56095900D03*
X56281610Y-62445900D03*
X56281610Y-64985900D03*
X56281610Y-63715900D03*
X56281610Y-61175900D03*
X56281610Y-59905900D03*
X52471610Y-68795900D03*
X56281610Y-67525900D03*
X56281610Y-70065900D03*
X56281610Y-66255900D03*
X56281610Y-68795900D03*
X54376610Y-70065900D03*
X54376610Y-68795900D03*
X52471610Y-70065900D03*
X52471610Y-62445900D03*
X54376610Y-58635900D03*
X54376610Y-59905900D03*
X54376610Y-62445900D03*
X54376610Y-61175900D03*
X52471610Y-61175900D03*
X52471610Y-59905900D03*
X52471610Y-58635900D03*
X54376610Y-82765900D03*
D11*
X55500000Y-38490000D03*
D26*
X62202560Y-37665660D03*
X66202560Y-37665660D03*
X69416160Y-37614860D03*
X73416160Y-37614860D03*
X67064120Y-41140380D03*
X71064120Y-41140380D03*
D18*
X71838820Y-48699800D03*
X71838820Y-50599800D03*
D13*
X71694120Y-56111600D03*
X69794120Y-56111600D03*
D18*
X71800720Y-54270100D03*
X71800720Y-52370100D03*
D27*
X61284220Y-57470500D03*
X66784220Y-57470500D03*
D12*
X66689880Y-43629580D03*
X68889880Y-43629580D03*
X69578220Y-57572100D03*
X71778220Y-57572100D03*
X70340220Y-46688200D03*
X72540220Y-46688200D03*
D16*
X68714620Y-53218900D03*
X68714620Y-51018900D03*
X70289420Y-51028700D03*
X70289420Y-53228700D03*
D28*
X61716920Y-49952100D03*
D29*
X66916920Y-48652100D03*
X65616920Y-48652100D03*
X61716920Y-48652100D03*
X63016920Y-48652100D03*
D30*
X61396920Y-45702100D03*
X62046920Y-45702100D03*
X62696920Y-45702100D03*
X63346920Y-45702100D03*
X63986920Y-45702100D03*
X64646920Y-45702100D03*
X65286920Y-45702100D03*
X65936920Y-45702100D03*
X66586920Y-45702100D03*
X67236920Y-45702100D03*
X67236920Y-51602100D03*
X66586920Y-51602100D03*
X65936920Y-51602100D03*
X65286920Y-51602100D03*
X64646920Y-51602100D03*
X63986920Y-51602100D03*
X63346920Y-51602100D03*
X62696920Y-51602100D03*
X62046920Y-51602100D03*
X61396920Y-51602100D03*
D29*
X64316920Y-48652100D03*
D28*
X61716920Y-47352100D03*
X63016920Y-47352100D03*
X64316920Y-47352100D03*
X65616920Y-47352100D03*
X66916920Y-47352100D03*
X66916920Y-49952100D03*
X65616920Y-49952100D03*
X64316920Y-49952100D03*
X63016920Y-49952100D03*
D13*
X126362500Y-115684300D03*
X124462500Y-115684300D03*
D18*
X130276600Y-109865200D03*
X130276600Y-107965200D03*
D13*
X117216000Y-98513900D03*
X115316000Y-98513900D03*
X107701000Y-97764600D03*
X109601000Y-97764600D03*
D26*
X116548400Y-39310784D03*
X120548400Y-39310784D03*
X116523000Y-35932584D03*
X120523000Y-35932584D03*
D31*
X124404120Y-41114980D03*
X124404120Y-45114980D03*
D18*
X124899420Y-54914880D03*
X124899420Y-53014880D03*
X126880620Y-49067680D03*
X126880620Y-50967680D03*
X128303020Y-49108280D03*
X128303020Y-51008280D03*
D13*
X104871440Y-37350700D03*
X106771440Y-37350700D03*
D20*
X117133900Y-106426000D03*
X118833900Y-106426000D03*
X115787700Y-97091500D03*
X117487700Y-97091500D03*
X117499500Y-94094300D03*
X115799500Y-94094300D03*
X109384200Y-94780100D03*
X107684200Y-94780100D03*
D27*
X115710520Y-55605680D03*
X121210520Y-55605680D03*
D15*
X101412800Y-105940900D03*
X101412800Y-104040900D03*
X103412800Y-104990900D03*
D12*
X126309300Y-117119400D03*
X124109300Y-117119400D03*
X105448100Y-102349300D03*
X107648100Y-102349300D03*
X118773300Y-108864400D03*
X116573300Y-108864400D03*
X105478400Y-103987600D03*
X107678400Y-103987600D03*
D16*
X128790700Y-107947100D03*
X128790700Y-110147100D03*
D12*
X117203400Y-95580200D03*
X115003400Y-95580200D03*
X121249800Y-97104200D03*
X119049800Y-97104200D03*
X109880400Y-96304100D03*
X107680400Y-96304100D03*
D16*
X102323900Y-79242920D03*
X102323900Y-77042920D03*
X100617020Y-77042920D03*
X100617020Y-79242920D03*
D12*
X123575720Y-47198280D03*
X125775720Y-47198280D03*
D16*
X126867920Y-52910380D03*
X126867920Y-55110380D03*
X123413520Y-52994380D03*
X123413520Y-55194380D03*
X124874020Y-51163580D03*
X124874020Y-48963580D03*
X123337320Y-48955780D03*
X123337320Y-51155780D03*
D17*
X121010700Y-114058700D03*
X121010700Y-112788700D03*
X121010700Y-111518700D03*
X121010700Y-110248700D03*
X121010700Y-108978700D03*
X121010700Y-107708700D03*
X121010700Y-106438700D03*
X121010700Y-105168700D03*
X126410700Y-105168700D03*
X126410700Y-106438700D03*
X126410700Y-107708700D03*
X126410700Y-108978700D03*
X126410700Y-110248700D03*
X126410700Y-111518700D03*
X126410700Y-112788700D03*
X126410700Y-114058700D03*
D28*
X116004820Y-47964880D03*
D29*
X121204820Y-46664880D03*
X119904820Y-46664880D03*
X116004820Y-46664880D03*
X117304820Y-46664880D03*
D30*
X115684820Y-43714880D03*
X116334820Y-43714880D03*
X116984820Y-43714880D03*
X117634820Y-43714880D03*
X118274820Y-43714880D03*
X118934820Y-43714880D03*
X119574820Y-43714880D03*
X120224820Y-43714880D03*
X120874820Y-43714880D03*
X121524820Y-43714880D03*
X121524820Y-49614880D03*
X120874820Y-49614880D03*
X120224820Y-49614880D03*
X119574820Y-49614880D03*
X118934820Y-49614880D03*
X118274820Y-49614880D03*
X117634820Y-49614880D03*
X116984820Y-49614880D03*
X116334820Y-49614880D03*
X115684820Y-49614880D03*
D29*
X118604820Y-46664880D03*
D28*
X116004820Y-45364880D03*
X117304820Y-45364880D03*
X118604820Y-45364880D03*
X119904820Y-45364880D03*
X121204820Y-45364880D03*
X121204820Y-47964880D03*
X119904820Y-47964880D03*
X118604820Y-47964880D03*
X117304820Y-47964880D03*
D19*
X110565200Y-73525700D03*
X108565200Y-73525700D03*
X106565200Y-73525700D03*
X104565200Y-73525700D03*
X102565200Y-73525700D03*
X100565200Y-73525700D03*
X98565200Y-73525700D03*
X96565200Y-73525700D03*
X96565200Y-40525700D03*
X98565200Y-40525700D03*
X100565200Y-40525700D03*
X102565200Y-40525700D03*
X104565200Y-40525700D03*
X106565200Y-40525700D03*
X108565200Y-40525700D03*
X110565200Y-40525700D03*
D13*
X85577600Y-103784400D03*
X87477600Y-103784400D03*
D18*
X118300500Y-101147800D03*
X118300500Y-103047800D03*
D20*
X87298000Y-105308400D03*
X85598000Y-105308400D03*
X85612500Y-106768900D03*
X87312500Y-106768900D03*
X121321300Y-100177600D03*
X119621300Y-100177600D03*
X119634900Y-101612700D03*
X121334900Y-101612700D03*
D12*
X85569700Y-108292900D03*
X87769700Y-108292900D03*
X83372600Y-102260400D03*
X85572600Y-102260400D03*
X105305500Y-106184700D03*
X107505500Y-106184700D03*
X105280100Y-107759500D03*
X107480100Y-107759500D03*
X116547900Y-102133400D03*
X114347900Y-102133400D03*
X121450100Y-98653600D03*
X119250100Y-98653600D03*
D32*
X91046300Y-77609700D03*
X91046300Y-82689700D03*
X96126300Y-82689700D03*
X96126300Y-77609700D03*
D33*
X93586300Y-80149700D03*
D32*
X91059000Y-86093300D03*
X91059000Y-91173300D03*
X96139000Y-91173300D03*
X96139000Y-86093300D03*
D33*
X93599000Y-88633300D03*
D34*
X94996000Y-99021900D03*
D35*
X94996000Y-101561900D03*
X94996000Y-104101900D03*
D36*
X112684500Y-106456500D03*
X115384500Y-106456500D03*
D37*
X91897500Y-114469500D03*
X59004500Y-48810500D03*
X127838500Y-42968500D03*
M02*
