G04 #@! TF.FileFunction,Legend,Bot*
%FSLAX46Y46*%
G04 Gerber Fmt 4.6, Leading zero omitted, Abs format (unit mm)*
G04 Created by KiCad (PCBNEW 4.0.6) date 11/20/17 22:27:29*
%MOMM*%
%LPD*%
G01*
G04 APERTURE LIST*
%ADD10C,0.100000*%
%ADD11C,0.300000*%
%ADD12C,0.120000*%
%ADD13C,0.150000*%
%ADD14C,3.580000*%
%ADD15R,1.580000X1.280000*%
%ADD16R,1.580000X1.130000*%
%ADD17R,1.480000X1.480000*%
%ADD18R,1.280000X1.180000*%
%ADD19R,1.280000X1.580000*%
%ADD20R,1.880000X0.980000*%
%ADD21R,1.130000X1.580000*%
%ADD22R,1.680000X2.980000*%
%ADD23R,0.980000X1.180000*%
%ADD24R,1.180000X0.980000*%
%ADD25C,1.180000*%
%ADD26C,1.269000*%
%ADD27R,2.880000X1.080000*%
%ADD28R,2.880000X0.780000*%
%ADD29R,2.380000X2.880000*%
%ADD30R,1.880000X2.780000*%
%ADD31R,1.680000X1.180000*%
%ADD32R,1.680000X2.180000*%
%ADD33R,0.830000X1.830000*%
%ADD34R,2.880000X2.380000*%
%ADD35C,2.580000*%
%ADD36C,2.380000*%
%ADD37R,2.080000X2.080000*%
%ADD38O,2.080000X2.080000*%
%ADD39R,1.880000X1.680000*%
G04 APERTURE END LIST*
D10*
D11*
X97657357Y-94022215D02*
X97728786Y-94236501D01*
X97800214Y-94307929D01*
X97943071Y-94379358D01*
X98157357Y-94379358D01*
X98300214Y-94307929D01*
X98371643Y-94236501D01*
X98443071Y-94093643D01*
X98443071Y-93522215D01*
X96943071Y-93522215D01*
X96943071Y-94022215D01*
X97014500Y-94165072D01*
X97085929Y-94236501D01*
X97228786Y-94307929D01*
X97371643Y-94307929D01*
X97514500Y-94236501D01*
X97585929Y-94165072D01*
X97657357Y-94022215D01*
X97657357Y-93522215D01*
X97443071Y-95665072D02*
X98443071Y-95665072D01*
X97443071Y-95022215D02*
X98228786Y-95022215D01*
X98371643Y-95093643D01*
X98443071Y-95236501D01*
X98443071Y-95450786D01*
X98371643Y-95593643D01*
X98300214Y-95665072D01*
X98443071Y-96379358D02*
X97443071Y-96379358D01*
X97728786Y-96379358D02*
X97585929Y-96450786D01*
X97514500Y-96522215D01*
X97443071Y-96665072D01*
X97443071Y-96807929D01*
X97443071Y-97307929D02*
X98443071Y-97307929D01*
X97585929Y-97307929D02*
X97514500Y-97379357D01*
X97443071Y-97522215D01*
X97443071Y-97736500D01*
X97514500Y-97879357D01*
X97657357Y-97950786D01*
X98443071Y-97950786D01*
X97443071Y-98522215D02*
X98443071Y-98807929D01*
X97728786Y-99093643D01*
X98443071Y-99379358D01*
X97443071Y-99665072D01*
X98443071Y-100236501D02*
X97443071Y-100236501D01*
X96943071Y-100236501D02*
X97014500Y-100165072D01*
X97085929Y-100236501D01*
X97014500Y-100307929D01*
X96943071Y-100236501D01*
X97085929Y-100236501D01*
X98443071Y-100950787D02*
X97443071Y-100950787D01*
X97728786Y-100950787D02*
X97585929Y-101022215D01*
X97514500Y-101093644D01*
X97443071Y-101236501D01*
X97443071Y-101379358D01*
X98371643Y-102450786D02*
X98443071Y-102307929D01*
X98443071Y-102022215D01*
X98371643Y-101879358D01*
X98228786Y-101807929D01*
X97657357Y-101807929D01*
X97514500Y-101879358D01*
X97443071Y-102022215D01*
X97443071Y-102307929D01*
X97514500Y-102450786D01*
X97657357Y-102522215D01*
X97800214Y-102522215D01*
X97943071Y-101807929D01*
X90803071Y-93256500D02*
X92303071Y-93756500D01*
X90803071Y-94256500D01*
X91517357Y-95256500D02*
X91588786Y-95470786D01*
X91660214Y-95542214D01*
X91803071Y-95613643D01*
X92017357Y-95613643D01*
X92160214Y-95542214D01*
X92231643Y-95470786D01*
X92303071Y-95327928D01*
X92303071Y-94756500D01*
X90803071Y-94756500D01*
X90803071Y-95256500D01*
X90874500Y-95399357D01*
X90945929Y-95470786D01*
X91088786Y-95542214D01*
X91231643Y-95542214D01*
X91374500Y-95470786D01*
X91445929Y-95399357D01*
X91517357Y-95256500D01*
X91517357Y-94756500D01*
X91874500Y-96185071D02*
X91874500Y-96899357D01*
X92303071Y-96042214D02*
X90803071Y-96542214D01*
X92303071Y-97042214D01*
X90803071Y-97327928D02*
X90803071Y-98185071D01*
X92303071Y-97756500D02*
X90803071Y-97756500D01*
X90731643Y-99756499D02*
X92660214Y-98470785D01*
X90803071Y-100113643D02*
X92303071Y-100470786D01*
X91231643Y-100756500D01*
X92303071Y-101042214D01*
X90803071Y-101399357D01*
X92303071Y-101970786D02*
X90803071Y-101970786D01*
X92303071Y-103542215D02*
X91588786Y-103042215D01*
X92303071Y-102685072D02*
X90803071Y-102685072D01*
X90803071Y-103256500D01*
X90874500Y-103399358D01*
X90945929Y-103470786D01*
X91088786Y-103542215D01*
X91303071Y-103542215D01*
X91445929Y-103470786D01*
X91517357Y-103399358D01*
X91588786Y-103256500D01*
X91588786Y-102685072D01*
X91517357Y-104185072D02*
X91517357Y-104685072D01*
X92303071Y-104899358D02*
X92303071Y-104185072D01*
X90803071Y-104185072D01*
X90803071Y-104899358D01*
X92303071Y-106327929D02*
X92303071Y-105470786D01*
X92303071Y-105899358D02*
X90803071Y-105899358D01*
X91017357Y-105756501D01*
X91160214Y-105613643D01*
X91231643Y-105470786D01*
X90731643Y-108042214D02*
X92660214Y-106756500D01*
X90803071Y-108399358D02*
X92303071Y-108756501D01*
X91231643Y-109042215D01*
X92303071Y-109327929D01*
X90803071Y-109685072D01*
X92303071Y-110256501D02*
X90803071Y-110256501D01*
X92303071Y-111827930D02*
X91588786Y-111327930D01*
X92303071Y-110970787D02*
X90803071Y-110970787D01*
X90803071Y-111542215D01*
X90874500Y-111685073D01*
X90945929Y-111756501D01*
X91088786Y-111827930D01*
X91303071Y-111827930D01*
X91445929Y-111756501D01*
X91517357Y-111685073D01*
X91588786Y-111542215D01*
X91588786Y-110970787D01*
X91517357Y-112470787D02*
X91517357Y-112970787D01*
X92303071Y-113185073D02*
X92303071Y-112470787D01*
X90803071Y-112470787D01*
X90803071Y-113185073D01*
X90945929Y-113756501D02*
X90874500Y-113827930D01*
X90803071Y-113970787D01*
X90803071Y-114327930D01*
X90874500Y-114470787D01*
X90945929Y-114542216D01*
X91088786Y-114613644D01*
X91231643Y-114613644D01*
X91445929Y-114542216D01*
X92303071Y-113685073D01*
X92303071Y-114613644D01*
X104403071Y-82466500D02*
X103688785Y-82466500D01*
X104545928Y-82895071D02*
X104045928Y-81395071D01*
X103545928Y-82895071D01*
X103045928Y-82895071D02*
X103045928Y-81395071D01*
X102188785Y-82895071D01*
X102188785Y-81395071D01*
X101688785Y-81395071D02*
X100831642Y-81395071D01*
X101260213Y-82895071D02*
X101260213Y-81395071D01*
X100403071Y-81537929D02*
X100331642Y-81466500D01*
X100188785Y-81395071D01*
X99831642Y-81395071D01*
X99688785Y-81466500D01*
X99617356Y-81537929D01*
X99545928Y-81680786D01*
X99545928Y-81823643D01*
X99617356Y-82037929D01*
X100474499Y-82895071D01*
X99545928Y-82895071D01*
X103203071Y-89986500D02*
X102488785Y-89986500D01*
X103345928Y-90415071D02*
X102845928Y-88915071D01*
X102345928Y-90415071D01*
X101845928Y-90415071D02*
X101845928Y-88915071D01*
X100988785Y-90415071D01*
X100988785Y-88915071D01*
X100488785Y-88915071D02*
X99631642Y-88915071D01*
X100060213Y-90415071D02*
X100060213Y-88915071D01*
X98345928Y-90415071D02*
X99203071Y-90415071D01*
X98774499Y-90415071D02*
X98774499Y-88915071D01*
X98917356Y-89129357D01*
X99060214Y-89272214D01*
X99203071Y-89343643D01*
D12*
X86026700Y-87064300D02*
X85026700Y-87064300D01*
X85026700Y-88424300D02*
X86026700Y-88424300D01*
X70365100Y-105746342D02*
X69665100Y-105746342D01*
X69665100Y-106946342D02*
X70365100Y-106946342D01*
X80244200Y-98181430D02*
X80944200Y-98181430D01*
X80944200Y-96981430D02*
X80244200Y-96981430D01*
X84002320Y-37187580D02*
X83302320Y-37187580D01*
X83302320Y-38387580D02*
X84002320Y-38387580D01*
X97094800Y-103321300D02*
X99094800Y-103321300D01*
X99094800Y-103321300D02*
X99094800Y-107171300D01*
X97094800Y-103321300D02*
X97094800Y-107171300D01*
X77798900Y-109187100D02*
X77798900Y-108257100D01*
X77798900Y-106027100D02*
X77798900Y-106957100D01*
X77798900Y-106027100D02*
X79958900Y-106027100D01*
X77798900Y-109187100D02*
X79258900Y-109187100D01*
X103176100Y-107271700D02*
X103176100Y-108201700D01*
X103176100Y-110431700D02*
X103176100Y-109501700D01*
X103176100Y-110431700D02*
X101016100Y-110431700D01*
X103176100Y-107271700D02*
X101716100Y-107271700D01*
X80245500Y-111950300D02*
X80245500Y-110950300D01*
X78885500Y-110950300D02*
X78885500Y-111950300D01*
X69599100Y-110074342D02*
X70599100Y-110074342D01*
X70599100Y-108714342D02*
X69599100Y-108714342D01*
X67891100Y-116715342D02*
X66891100Y-116715342D01*
X66891100Y-118075342D02*
X67891100Y-118075342D01*
X70515100Y-103253342D02*
X69515100Y-103253342D01*
X69515100Y-104613342D02*
X70515100Y-104613342D01*
X106799000Y-109327400D02*
X105799000Y-109327400D01*
X105799000Y-110687400D02*
X106799000Y-110687400D01*
X61303100Y-114392342D02*
X62303100Y-114392342D01*
X62303100Y-113032342D02*
X61303100Y-113032342D01*
X54096200Y-104330300D02*
X54096200Y-103330300D01*
X52736200Y-103330300D02*
X52736200Y-104330300D01*
X77132900Y-97366200D02*
X77132900Y-98366200D01*
X78492900Y-98366200D02*
X78492900Y-97366200D01*
X80094200Y-96737430D02*
X81094200Y-96737430D01*
X81094200Y-95377430D02*
X80094200Y-95377430D01*
X86835700Y-77366240D02*
X86835700Y-78366240D01*
X88195700Y-78366240D02*
X88195700Y-77366240D01*
X86671700Y-78378940D02*
X86671700Y-77378940D01*
X85311700Y-77378940D02*
X85311700Y-78378940D01*
D13*
X61430100Y-112183342D02*
X61430100Y-112158342D01*
X65580100Y-112183342D02*
X65580100Y-112078342D01*
X65580100Y-102033342D02*
X65580100Y-102138342D01*
X61430100Y-102033342D02*
X61430100Y-102138342D01*
X61430100Y-112183342D02*
X65580100Y-112183342D01*
X61430100Y-102033342D02*
X65580100Y-102033342D01*
X61430100Y-112158342D02*
X60055100Y-112158342D01*
D12*
X65605100Y-113997342D02*
X65605100Y-114697342D01*
X66805100Y-114697342D02*
X66805100Y-113997342D01*
X81355480Y-77616760D02*
X81355480Y-76616760D01*
X79995480Y-76616760D02*
X79995480Y-77616760D01*
X80526100Y-109269300D02*
X80526100Y-108129300D01*
X80526100Y-108129300D02*
X82626100Y-108129300D01*
X80526100Y-109269300D02*
X82626100Y-109269300D01*
X82043500Y-105227600D02*
X83183500Y-105227600D01*
X83183500Y-105227600D02*
X83183500Y-107327600D01*
X82043500Y-105227600D02*
X82043500Y-107327600D01*
X70895100Y-107300342D02*
X70895100Y-108440342D01*
X70895100Y-108440342D02*
X68795100Y-108440342D01*
X70895100Y-107300342D02*
X68795100Y-107300342D01*
X63187100Y-114793342D02*
X63187100Y-115933342D01*
X63187100Y-115933342D02*
X61087100Y-115933342D01*
X63187100Y-114793342D02*
X61087100Y-114793342D01*
X56269100Y-104630342D02*
X56269100Y-103490342D01*
X56269100Y-103490342D02*
X58369100Y-103490342D01*
X56269100Y-104630342D02*
X58369100Y-104630342D01*
X78881200Y-92471430D02*
X80021200Y-92471430D01*
X80021200Y-92471430D02*
X80021200Y-94571430D01*
X78881200Y-92471430D02*
X78881200Y-94571430D01*
X79167200Y-99675430D02*
X79167200Y-98535430D01*
X79167200Y-98535430D02*
X81267200Y-98535430D01*
X79167200Y-99675430D02*
X81267200Y-99675430D01*
X65202560Y-39145660D02*
X63202560Y-39145660D01*
X63202560Y-36185660D02*
X65202560Y-36185660D01*
X72416160Y-39094860D02*
X70416160Y-39094860D01*
X70416160Y-36134860D02*
X72416160Y-36134860D01*
X70064120Y-42620380D02*
X68064120Y-42620380D01*
X68064120Y-39660380D02*
X70064120Y-39660380D01*
X71238820Y-49299800D02*
X71238820Y-49999800D01*
X72438820Y-49999800D02*
X72438820Y-49299800D01*
X71094120Y-55511600D02*
X70394120Y-55511600D01*
X70394120Y-56711600D02*
X71094120Y-56711600D01*
X72400720Y-53670100D02*
X72400720Y-52970100D01*
X71200720Y-52970100D02*
X71200720Y-53670100D01*
X67334220Y-55970500D02*
X67334220Y-54270500D01*
X67334220Y-54270500D02*
X60734220Y-54270500D01*
X60734220Y-54270500D02*
X60734220Y-55970500D01*
X60734220Y-58970500D02*
X60734220Y-60670500D01*
X60734220Y-60670500D02*
X67334220Y-60670500D01*
X67334220Y-60670500D02*
X67334220Y-58970500D01*
X68289880Y-42949580D02*
X67289880Y-42949580D01*
X67289880Y-44309580D02*
X68289880Y-44309580D01*
X71178220Y-56892100D02*
X70178220Y-56892100D01*
X70178220Y-58252100D02*
X71178220Y-58252100D01*
X71940220Y-46008200D02*
X70940220Y-46008200D01*
X70940220Y-47368200D02*
X71940220Y-47368200D01*
X68034620Y-51618900D02*
X68034620Y-52618900D01*
X69394620Y-52618900D02*
X69394620Y-51618900D01*
X70969420Y-52628700D02*
X70969420Y-51628700D01*
X69609420Y-51628700D02*
X69609420Y-52628700D01*
X67766920Y-46422100D02*
X67766920Y-50882100D01*
X60866920Y-44902100D02*
X60866920Y-50882100D01*
X125762500Y-115084300D02*
X125062500Y-115084300D01*
X125062500Y-116284300D02*
X125762500Y-116284300D01*
X130876600Y-109265200D02*
X130876600Y-108565200D01*
X129676600Y-108565200D02*
X129676600Y-109265200D01*
X116616000Y-97913900D02*
X115916000Y-97913900D01*
X115916000Y-99113900D02*
X116616000Y-99113900D01*
X108301000Y-98364600D02*
X109001000Y-98364600D01*
X109001000Y-97164600D02*
X108301000Y-97164600D01*
X119548400Y-40790784D02*
X117548400Y-40790784D01*
X117548400Y-37830784D02*
X119548400Y-37830784D01*
X119523000Y-37412584D02*
X117523000Y-37412584D01*
X117523000Y-34452584D02*
X119523000Y-34452584D01*
X122924120Y-44114980D02*
X122924120Y-42114980D01*
X125884120Y-42114980D02*
X125884120Y-44114980D01*
X125499420Y-54314880D02*
X125499420Y-53614880D01*
X124299420Y-53614880D02*
X124299420Y-54314880D01*
X126280620Y-49667680D02*
X126280620Y-50367680D01*
X127480620Y-50367680D02*
X127480620Y-49667680D01*
X127703020Y-49708280D02*
X127703020Y-50408280D01*
X128903020Y-50408280D02*
X128903020Y-49708280D01*
X105471440Y-37950700D02*
X106171440Y-37950700D01*
X106171440Y-36750700D02*
X105471440Y-36750700D01*
X116683900Y-106996000D02*
X116683900Y-105856000D01*
X116683900Y-105856000D02*
X118783900Y-105856000D01*
X116683900Y-106996000D02*
X118783900Y-106996000D01*
X115337700Y-97661500D02*
X115337700Y-96521500D01*
X115337700Y-96521500D02*
X117437700Y-96521500D01*
X115337700Y-97661500D02*
X117437700Y-97661500D01*
X117949500Y-93524300D02*
X117949500Y-94664300D01*
X117949500Y-94664300D02*
X115849500Y-94664300D01*
X117949500Y-93524300D02*
X115849500Y-93524300D01*
X109834200Y-94210100D02*
X109834200Y-95350100D01*
X109834200Y-95350100D02*
X107734200Y-95350100D01*
X109834200Y-94210100D02*
X107734200Y-94210100D01*
X121760520Y-54105680D02*
X121760520Y-52405680D01*
X121760520Y-52405680D02*
X115160520Y-52405680D01*
X115160520Y-52405680D02*
X115160520Y-54105680D01*
X115160520Y-57105680D02*
X115160520Y-58805680D01*
X115160520Y-58805680D02*
X121760520Y-58805680D01*
X121760520Y-58805680D02*
X121760520Y-57105680D01*
X103172800Y-103410900D02*
X103172800Y-104340900D01*
X103172800Y-106570900D02*
X103172800Y-105640900D01*
X103172800Y-106570900D02*
X101012800Y-106570900D01*
X103172800Y-103410900D02*
X101712800Y-103410900D01*
X124709300Y-117799400D02*
X125709300Y-117799400D01*
X125709300Y-116439400D02*
X124709300Y-116439400D01*
X107048100Y-101669300D02*
X106048100Y-101669300D01*
X106048100Y-103029300D02*
X107048100Y-103029300D01*
X117173300Y-109544400D02*
X118173300Y-109544400D01*
X118173300Y-108184400D02*
X117173300Y-108184400D01*
X107078400Y-103307600D02*
X106078400Y-103307600D01*
X106078400Y-104667600D02*
X107078400Y-104667600D01*
X129470700Y-109547100D02*
X129470700Y-108547100D01*
X128110700Y-108547100D02*
X128110700Y-109547100D01*
X115603400Y-96260200D02*
X116603400Y-96260200D01*
X116603400Y-94900200D02*
X115603400Y-94900200D01*
X119649800Y-97784200D02*
X120649800Y-97784200D01*
X120649800Y-96424200D02*
X119649800Y-96424200D01*
X108280400Y-96984100D02*
X109280400Y-96984100D01*
X109280400Y-95624100D02*
X108280400Y-95624100D01*
X101643900Y-77642920D02*
X101643900Y-78642920D01*
X103003900Y-78642920D02*
X103003900Y-77642920D01*
X101297020Y-78642920D02*
X101297020Y-77642920D01*
X99937020Y-77642920D02*
X99937020Y-78642920D01*
X125175720Y-46518280D02*
X124175720Y-46518280D01*
X124175720Y-47878280D02*
X125175720Y-47878280D01*
X127547920Y-54510380D02*
X127547920Y-53510380D01*
X126187920Y-53510380D02*
X126187920Y-54510380D01*
X124093520Y-54594380D02*
X124093520Y-53594380D01*
X122733520Y-53594380D02*
X122733520Y-54594380D01*
X124194020Y-49563580D02*
X124194020Y-50563580D01*
X125554020Y-50563580D02*
X125554020Y-49563580D01*
X124017320Y-50555780D02*
X124017320Y-49555780D01*
X122657320Y-49555780D02*
X122657320Y-50555780D01*
D13*
X121635700Y-114688700D02*
X121635700Y-114663700D01*
X125785700Y-114688700D02*
X125785700Y-114583700D01*
X125785700Y-104538700D02*
X125785700Y-104643700D01*
X121635700Y-104538700D02*
X121635700Y-104643700D01*
X121635700Y-114688700D02*
X125785700Y-114688700D01*
X121635700Y-104538700D02*
X125785700Y-104538700D01*
X121635700Y-114663700D02*
X120260700Y-114663700D01*
D12*
X122054820Y-44434880D02*
X122054820Y-48894880D01*
X115154820Y-42914880D02*
X115154820Y-48894880D01*
X86177600Y-104384400D02*
X86877600Y-104384400D01*
X86877600Y-103184400D02*
X86177600Y-103184400D01*
X117700500Y-101747800D02*
X117700500Y-102447800D01*
X118900500Y-102447800D02*
X118900500Y-101747800D01*
X87748000Y-104738400D02*
X87748000Y-105878400D01*
X87748000Y-105878400D02*
X85648000Y-105878400D01*
X87748000Y-104738400D02*
X85648000Y-104738400D01*
X85162500Y-107338900D02*
X85162500Y-106198900D01*
X85162500Y-106198900D02*
X87262500Y-106198900D01*
X85162500Y-107338900D02*
X87262500Y-107338900D01*
X121771300Y-99607600D02*
X121771300Y-100747600D01*
X121771300Y-100747600D02*
X119671300Y-100747600D01*
X121771300Y-99607600D02*
X119671300Y-99607600D01*
X119184900Y-102182700D02*
X119184900Y-101042700D01*
X119184900Y-101042700D02*
X121284900Y-101042700D01*
X119184900Y-102182700D02*
X121284900Y-102182700D01*
X87169700Y-107612900D02*
X86169700Y-107612900D01*
X86169700Y-108972900D02*
X87169700Y-108972900D01*
X84972600Y-101580400D02*
X83972600Y-101580400D01*
X83972600Y-102940400D02*
X84972600Y-102940400D01*
X106905500Y-105504700D02*
X105905500Y-105504700D01*
X105905500Y-106864700D02*
X106905500Y-106864700D01*
X106880100Y-107079500D02*
X105880100Y-107079500D01*
X105880100Y-108439500D02*
X106880100Y-108439500D01*
X114947900Y-102813400D02*
X115947900Y-102813400D01*
X115947900Y-101453400D02*
X114947900Y-101453400D01*
X119850100Y-99333600D02*
X120850100Y-99333600D01*
X120850100Y-97973600D02*
X119850100Y-97973600D01*
X92586300Y-83449700D02*
X94586300Y-83449700D01*
X92586300Y-76849700D02*
X94586300Y-76849700D01*
X96886300Y-81149700D02*
X96886300Y-79149700D01*
X90286300Y-81149700D02*
X90286300Y-79149700D01*
X92599000Y-91933300D02*
X94599000Y-91933300D01*
X92599000Y-85333300D02*
X94599000Y-85333300D01*
X96899000Y-89633300D02*
X96899000Y-87633300D01*
X90299000Y-89633300D02*
X90299000Y-87633300D01*
X96326000Y-105431900D02*
X93666000Y-105431900D01*
X96326000Y-100291900D02*
X96326000Y-105431900D01*
X93666000Y-100291900D02*
X93666000Y-105431900D01*
X96326000Y-100291900D02*
X93666000Y-100291900D01*
X96326000Y-99021900D02*
X96326000Y-97691900D01*
X96326000Y-97691900D02*
X94996000Y-97691900D01*
X114634500Y-105576500D02*
X113434500Y-105576500D01*
X113434500Y-107336500D02*
X114634500Y-107336500D01*
%LPC*%
D14*
X55500000Y-114490000D03*
X131500000Y-114490000D03*
X131500000Y-38490000D03*
D15*
X84426700Y-87744300D03*
X86626700Y-87744300D03*
D16*
X70965100Y-106346342D03*
X69065100Y-106346342D03*
X79644200Y-97581430D03*
X81544200Y-97581430D03*
X84602320Y-37787580D03*
X82702320Y-37787580D03*
D17*
X98094800Y-104121300D03*
X98094800Y-106921300D03*
D18*
X79558900Y-106657100D03*
X79558900Y-108557100D03*
X77558900Y-107607100D03*
X101416100Y-109801700D03*
X101416100Y-107901700D03*
X103416100Y-108851700D03*
D19*
X79565500Y-110350300D03*
X79565500Y-112550300D03*
D15*
X71199100Y-109394342D03*
X68999100Y-109394342D03*
X66291100Y-117395342D03*
X68491100Y-117395342D03*
X68915100Y-103933342D03*
X71115100Y-103933342D03*
X105199000Y-110007400D03*
X107399000Y-110007400D03*
X62903100Y-113712342D03*
X60703100Y-113712342D03*
D19*
X53416200Y-102730300D03*
X53416200Y-104930300D03*
X77812900Y-98966200D03*
X77812900Y-96766200D03*
D15*
X81694200Y-96057430D03*
X79494200Y-96057430D03*
D19*
X87515700Y-78966240D03*
X87515700Y-76766240D03*
X85991700Y-76778940D03*
X85991700Y-78978940D03*
D20*
X60805100Y-111553342D03*
X60805100Y-110283342D03*
X60805100Y-109013342D03*
X60805100Y-107743342D03*
X60805100Y-106473342D03*
X60805100Y-105203342D03*
X60805100Y-103933342D03*
X60805100Y-102663342D03*
X66205100Y-102663342D03*
X66205100Y-103933342D03*
X66205100Y-105203342D03*
X66205100Y-106473342D03*
X66205100Y-107743342D03*
X66205100Y-109013342D03*
X66205100Y-110283342D03*
X66205100Y-111553342D03*
D21*
X66205100Y-113397342D03*
X66205100Y-115297342D03*
D22*
X90687160Y-73434260D03*
X88687160Y-73434260D03*
X86687160Y-73434260D03*
X84687160Y-73434260D03*
X82687160Y-73434260D03*
X80687160Y-73434260D03*
X78687160Y-73434260D03*
X76687160Y-73434260D03*
X76687160Y-40434260D03*
X78687160Y-40434260D03*
X80687160Y-40434260D03*
X82687160Y-40434260D03*
X84687160Y-40434260D03*
X86687160Y-40434260D03*
X88687160Y-40434260D03*
X90687160Y-40434260D03*
D19*
X80675480Y-76016760D03*
X80675480Y-78216760D03*
D23*
X80976100Y-108699300D03*
X82676100Y-108699300D03*
D24*
X82613500Y-105677600D03*
X82613500Y-107377600D03*
D23*
X70445100Y-107870342D03*
X68745100Y-107870342D03*
X62737100Y-115363342D03*
X61037100Y-115363342D03*
X56719100Y-104060342D03*
X58419100Y-104060342D03*
D24*
X79451200Y-92921430D03*
X79451200Y-94621430D03*
D23*
X79617200Y-99105430D03*
X81317200Y-99105430D03*
D25*
X134278000Y-53555900D03*
X133008000Y-53555900D03*
X131738000Y-53555900D03*
X130468000Y-53555900D03*
X134278000Y-54825900D03*
X131738000Y-54825900D03*
X133008000Y-54825900D03*
X130468000Y-54825900D03*
X134278000Y-56095900D03*
X133008000Y-56095900D03*
X131738000Y-56095900D03*
X130468000Y-56095900D03*
X134278000Y-57365900D03*
X133008000Y-57365900D03*
X131738000Y-57365900D03*
X130468000Y-57365900D03*
X134278000Y-58635900D03*
X133008000Y-58635900D03*
X131738000Y-58635900D03*
X130468000Y-58635900D03*
X134278000Y-59905900D03*
X133008000Y-59905900D03*
X131738000Y-59905900D03*
X130468000Y-59905900D03*
X134278000Y-61175900D03*
X133008000Y-61175900D03*
X131738000Y-61175900D03*
X130468000Y-61175900D03*
X134278000Y-62445900D03*
X133008000Y-62445900D03*
X131738000Y-62445900D03*
X130468000Y-62445900D03*
X134278000Y-63715900D03*
X133008000Y-63715900D03*
X131738000Y-63715900D03*
X130468000Y-63715900D03*
X134278000Y-64985900D03*
X133008000Y-64985900D03*
X131738000Y-64985900D03*
X130468000Y-64985900D03*
X134278000Y-66255900D03*
X133008000Y-66255900D03*
X131738000Y-66255900D03*
X130468000Y-66255900D03*
X134278000Y-67525900D03*
X133008000Y-67525900D03*
X131738000Y-67525900D03*
X130468000Y-67525900D03*
X134278000Y-68795900D03*
X133008000Y-68795900D03*
X131738000Y-68795900D03*
X130468000Y-68795900D03*
X134278000Y-70065900D03*
X133008000Y-70065900D03*
X131738000Y-70065900D03*
X130468000Y-70065900D03*
X134278000Y-71335900D03*
X133008000Y-71335900D03*
X131738000Y-71335900D03*
X130468000Y-71335900D03*
X134278000Y-72605900D03*
X133008000Y-72605900D03*
X131738000Y-72605900D03*
X130468000Y-72605900D03*
X134278000Y-73875900D03*
X133008000Y-73875900D03*
X131738000Y-73875900D03*
X130468000Y-73875900D03*
X134278000Y-75145900D03*
X133008000Y-75145900D03*
X131738000Y-75145900D03*
X130468000Y-75145900D03*
X134278000Y-76415900D03*
X133008000Y-76415900D03*
X131738000Y-76415900D03*
X130468000Y-76415900D03*
X134278000Y-77685900D03*
X133008000Y-77685900D03*
X131738000Y-77685900D03*
X130468000Y-77685900D03*
X134278000Y-78955900D03*
X133008000Y-78955900D03*
X131738000Y-78955900D03*
X130468000Y-78955900D03*
X134278000Y-80225900D03*
X133008000Y-80225900D03*
X131738000Y-80225900D03*
X130468000Y-80225900D03*
X134278000Y-81495900D03*
X133008000Y-81495900D03*
X131738000Y-81495900D03*
X130468000Y-81495900D03*
X134278000Y-82765900D03*
X133008000Y-82765900D03*
X130468000Y-82765900D03*
X131738000Y-82765900D03*
X134278000Y-84035900D03*
X133008000Y-84035900D03*
X131738000Y-84035900D03*
X130468000Y-84035900D03*
X134278000Y-85305900D03*
X133008000Y-85305900D03*
X131738000Y-85305900D03*
X130468000Y-85305900D03*
X134278000Y-86575900D03*
X133008000Y-86575900D03*
X131738000Y-86575900D03*
X130468000Y-86575900D03*
X134278000Y-87845900D03*
X133008000Y-87845900D03*
X131738000Y-87845900D03*
X130468000Y-87845900D03*
X134278000Y-89115900D03*
X133008000Y-89115900D03*
X131738000Y-89115900D03*
X130468000Y-89115900D03*
X134278000Y-90385900D03*
X133008000Y-90385900D03*
X131738000Y-90385900D03*
X130468000Y-90385900D03*
D26*
X132373000Y-54190900D03*
X132373000Y-54190900D03*
X132373000Y-54190900D03*
X132373000Y-54190900D03*
X132373000Y-89750900D03*
D27*
X132376610Y-84035900D03*
X132376610Y-85305900D03*
X132376610Y-81495900D03*
X130471610Y-85305900D03*
X130471610Y-81495900D03*
X130471610Y-84035900D03*
X130471610Y-82765900D03*
X134281610Y-73875900D03*
X134281610Y-75145900D03*
X134281610Y-71335900D03*
X134281610Y-72605900D03*
X134281610Y-76415900D03*
X134281610Y-77685900D03*
X134281610Y-80225900D03*
X134281610Y-81495900D03*
X134281610Y-84035900D03*
X134281610Y-78955900D03*
X134281610Y-82765900D03*
X134281610Y-85305900D03*
X134281610Y-89115900D03*
X134281610Y-90385900D03*
X134281610Y-87845900D03*
X134281610Y-86575900D03*
X130471610Y-90385900D03*
X130471610Y-86575900D03*
D28*
X132503610Y-90512900D03*
D27*
X132376610Y-86575900D03*
X132376610Y-87845900D03*
D28*
X132503610Y-88988900D03*
D27*
X130471610Y-87845900D03*
X130471610Y-89115900D03*
X132376610Y-72605900D03*
X130471610Y-71335900D03*
X132376610Y-75145900D03*
X132376610Y-71335900D03*
X132376610Y-73875900D03*
X130471610Y-72605900D03*
X130471610Y-75145900D03*
X130471610Y-73875900D03*
X132376610Y-78955900D03*
X132376610Y-80225900D03*
X130471610Y-80225900D03*
X132376610Y-76415900D03*
X132376610Y-77685900D03*
X130471610Y-78955900D03*
X130471610Y-76415900D03*
X130471610Y-77685900D03*
D28*
X132376610Y-53428900D03*
D27*
X130471610Y-54825900D03*
X130471610Y-53555900D03*
D28*
X132503610Y-54952900D03*
D27*
X132376610Y-56095900D03*
X130471610Y-57365900D03*
X132376610Y-57365900D03*
X130471610Y-56095900D03*
X132376610Y-67525900D03*
X132376610Y-66255900D03*
X130471610Y-67525900D03*
X130471610Y-66255900D03*
X132376610Y-64985900D03*
X132376610Y-63715900D03*
X130471610Y-64985900D03*
X130471610Y-63715900D03*
X134281610Y-53555900D03*
X134281610Y-54825900D03*
X134281610Y-57365900D03*
X134281610Y-58635900D03*
X134281610Y-56095900D03*
X134281610Y-62445900D03*
X134281610Y-64985900D03*
X134281610Y-63715900D03*
X134281610Y-61175900D03*
X134281610Y-59905900D03*
X130471610Y-68795900D03*
X134281610Y-67525900D03*
X134281610Y-70065900D03*
X134281610Y-66255900D03*
X134281610Y-68795900D03*
X132376610Y-70065900D03*
X132376610Y-68795900D03*
X130471610Y-70065900D03*
X130471610Y-62445900D03*
X132376610Y-58635900D03*
X132376610Y-59905900D03*
X132376610Y-62445900D03*
X132376610Y-61175900D03*
X130471610Y-61175900D03*
X130471610Y-59905900D03*
X130471610Y-58635900D03*
X132376610Y-82765900D03*
D25*
X56278000Y-53555900D03*
X55008000Y-53555900D03*
X53738000Y-53555900D03*
X52468000Y-53555900D03*
X56278000Y-54825900D03*
X53738000Y-54825900D03*
X55008000Y-54825900D03*
X52468000Y-54825900D03*
X56278000Y-56095900D03*
X55008000Y-56095900D03*
X53738000Y-56095900D03*
X52468000Y-56095900D03*
X56278000Y-57365900D03*
X55008000Y-57365900D03*
X53738000Y-57365900D03*
X52468000Y-57365900D03*
X56278000Y-58635900D03*
X55008000Y-58635900D03*
X53738000Y-58635900D03*
X52468000Y-58635900D03*
X56278000Y-59905900D03*
X55008000Y-59905900D03*
X53738000Y-59905900D03*
X52468000Y-59905900D03*
X56278000Y-61175900D03*
X55008000Y-61175900D03*
X53738000Y-61175900D03*
X52468000Y-61175900D03*
X56278000Y-62445900D03*
X55008000Y-62445900D03*
X53738000Y-62445900D03*
X52468000Y-62445900D03*
X56278000Y-63715900D03*
X55008000Y-63715900D03*
X53738000Y-63715900D03*
X52468000Y-63715900D03*
X56278000Y-64985900D03*
X55008000Y-64985900D03*
X53738000Y-64985900D03*
X52468000Y-64985900D03*
X56278000Y-66255900D03*
X55008000Y-66255900D03*
X53738000Y-66255900D03*
X52468000Y-66255900D03*
X56278000Y-67525900D03*
X55008000Y-67525900D03*
X53738000Y-67525900D03*
X52468000Y-67525900D03*
X56278000Y-68795900D03*
X55008000Y-68795900D03*
X53738000Y-68795900D03*
X52468000Y-68795900D03*
X56278000Y-70065900D03*
X55008000Y-70065900D03*
X53738000Y-70065900D03*
X52468000Y-70065900D03*
X56278000Y-71335900D03*
X55008000Y-71335900D03*
X53738000Y-71335900D03*
X52468000Y-71335900D03*
X56278000Y-72605900D03*
X55008000Y-72605900D03*
X53738000Y-72605900D03*
X52468000Y-72605900D03*
X56278000Y-73875900D03*
X55008000Y-73875900D03*
X53738000Y-73875900D03*
X52468000Y-73875900D03*
X56278000Y-75145900D03*
X55008000Y-75145900D03*
X53738000Y-75145900D03*
X52468000Y-75145900D03*
X56278000Y-76415900D03*
X55008000Y-76415900D03*
X53738000Y-76415900D03*
X52468000Y-76415900D03*
X56278000Y-77685900D03*
X55008000Y-77685900D03*
X53738000Y-77685900D03*
X52468000Y-77685900D03*
X56278000Y-78955900D03*
X55008000Y-78955900D03*
X53738000Y-78955900D03*
X52468000Y-78955900D03*
X56278000Y-80225900D03*
X55008000Y-80225900D03*
X53738000Y-80225900D03*
X52468000Y-80225900D03*
X56278000Y-81495900D03*
X55008000Y-81495900D03*
X53738000Y-81495900D03*
X52468000Y-81495900D03*
X56278000Y-82765900D03*
X55008000Y-82765900D03*
X52468000Y-82765900D03*
X53738000Y-82765900D03*
X56278000Y-84035900D03*
X55008000Y-84035900D03*
X53738000Y-84035900D03*
X52468000Y-84035900D03*
X56278000Y-85305900D03*
X55008000Y-85305900D03*
X53738000Y-85305900D03*
X52468000Y-85305900D03*
X56278000Y-86575900D03*
X55008000Y-86575900D03*
X53738000Y-86575900D03*
X52468000Y-86575900D03*
X56278000Y-87845900D03*
X55008000Y-87845900D03*
X53738000Y-87845900D03*
X52468000Y-87845900D03*
X56278000Y-89115900D03*
X55008000Y-89115900D03*
X53738000Y-89115900D03*
X52468000Y-89115900D03*
X56278000Y-90385900D03*
X55008000Y-90385900D03*
X53738000Y-90385900D03*
X52468000Y-90385900D03*
D26*
X54373000Y-54190900D03*
X54373000Y-54190900D03*
X54373000Y-54190900D03*
X54373000Y-54190900D03*
X54373000Y-89750900D03*
D27*
X54376610Y-84035900D03*
X54376610Y-85305900D03*
X54376610Y-81495900D03*
X52471610Y-85305900D03*
X52471610Y-81495900D03*
X52471610Y-84035900D03*
X52471610Y-82765900D03*
X56281610Y-73875900D03*
X56281610Y-75145900D03*
X56281610Y-71335900D03*
X56281610Y-72605900D03*
X56281610Y-76415900D03*
X56281610Y-77685900D03*
X56281610Y-80225900D03*
X56281610Y-81495900D03*
X56281610Y-84035900D03*
X56281610Y-78955900D03*
X56281610Y-82765900D03*
X56281610Y-85305900D03*
X56281610Y-89115900D03*
X56281610Y-90385900D03*
X56281610Y-87845900D03*
X56281610Y-86575900D03*
X52471610Y-90385900D03*
X52471610Y-86575900D03*
D28*
X54503610Y-90512900D03*
D27*
X54376610Y-86575900D03*
X54376610Y-87845900D03*
D28*
X54503610Y-88988900D03*
D27*
X52471610Y-87845900D03*
X52471610Y-89115900D03*
X54376610Y-72605900D03*
X52471610Y-71335900D03*
X54376610Y-75145900D03*
X54376610Y-71335900D03*
X54376610Y-73875900D03*
X52471610Y-72605900D03*
X52471610Y-75145900D03*
X52471610Y-73875900D03*
X54376610Y-78955900D03*
X54376610Y-80225900D03*
X52471610Y-80225900D03*
X54376610Y-76415900D03*
X54376610Y-77685900D03*
X52471610Y-78955900D03*
X52471610Y-76415900D03*
X52471610Y-77685900D03*
D28*
X54376610Y-53428900D03*
D27*
X52471610Y-54825900D03*
X52471610Y-53555900D03*
D28*
X54503610Y-54952900D03*
D27*
X54376610Y-56095900D03*
X52471610Y-57365900D03*
X54376610Y-57365900D03*
X52471610Y-56095900D03*
X54376610Y-67525900D03*
X54376610Y-66255900D03*
X52471610Y-67525900D03*
X52471610Y-66255900D03*
X54376610Y-64985900D03*
X54376610Y-63715900D03*
X52471610Y-64985900D03*
X52471610Y-63715900D03*
X56281610Y-53555900D03*
X56281610Y-54825900D03*
X56281610Y-57365900D03*
X56281610Y-58635900D03*
X56281610Y-56095900D03*
X56281610Y-62445900D03*
X56281610Y-64985900D03*
X56281610Y-63715900D03*
X56281610Y-61175900D03*
X56281610Y-59905900D03*
X52471610Y-68795900D03*
X56281610Y-67525900D03*
X56281610Y-70065900D03*
X56281610Y-66255900D03*
X56281610Y-68795900D03*
X54376610Y-70065900D03*
X54376610Y-68795900D03*
X52471610Y-70065900D03*
X52471610Y-62445900D03*
X54376610Y-58635900D03*
X54376610Y-59905900D03*
X54376610Y-62445900D03*
X54376610Y-61175900D03*
X52471610Y-61175900D03*
X52471610Y-59905900D03*
X52471610Y-58635900D03*
X54376610Y-82765900D03*
D14*
X55500000Y-38490000D03*
D29*
X62202560Y-37665660D03*
X66202560Y-37665660D03*
X69416160Y-37614860D03*
X73416160Y-37614860D03*
X67064120Y-41140380D03*
X71064120Y-41140380D03*
D21*
X71838820Y-48699800D03*
X71838820Y-50599800D03*
D16*
X71694120Y-56111600D03*
X69794120Y-56111600D03*
D21*
X71800720Y-54270100D03*
X71800720Y-52370100D03*
D30*
X61284220Y-57470500D03*
X66784220Y-57470500D03*
D15*
X66689880Y-43629580D03*
X68889880Y-43629580D03*
X69578220Y-57572100D03*
X71778220Y-57572100D03*
X70340220Y-46688200D03*
X72540220Y-46688200D03*
D19*
X68714620Y-53218900D03*
X68714620Y-51018900D03*
X70289420Y-51028700D03*
X70289420Y-53228700D03*
D31*
X61716920Y-49952100D03*
D32*
X66916920Y-48652100D03*
X65616920Y-48652100D03*
X61716920Y-48652100D03*
X63016920Y-48652100D03*
D33*
X61396920Y-45702100D03*
X62046920Y-45702100D03*
X62696920Y-45702100D03*
X63346920Y-45702100D03*
X63986920Y-45702100D03*
X64646920Y-45702100D03*
X65286920Y-45702100D03*
X65936920Y-45702100D03*
X66586920Y-45702100D03*
X67236920Y-45702100D03*
X67236920Y-51602100D03*
X66586920Y-51602100D03*
X65936920Y-51602100D03*
X65286920Y-51602100D03*
X64646920Y-51602100D03*
X63986920Y-51602100D03*
X63346920Y-51602100D03*
X62696920Y-51602100D03*
X62046920Y-51602100D03*
X61396920Y-51602100D03*
D32*
X64316920Y-48652100D03*
D31*
X61716920Y-47352100D03*
X63016920Y-47352100D03*
X64316920Y-47352100D03*
X65616920Y-47352100D03*
X66916920Y-47352100D03*
X66916920Y-49952100D03*
X65616920Y-49952100D03*
X64316920Y-49952100D03*
X63016920Y-49952100D03*
D16*
X126362500Y-115684300D03*
X124462500Y-115684300D03*
D21*
X130276600Y-109865200D03*
X130276600Y-107965200D03*
D16*
X117216000Y-98513900D03*
X115316000Y-98513900D03*
X107701000Y-97764600D03*
X109601000Y-97764600D03*
D29*
X116548400Y-39310784D03*
X120548400Y-39310784D03*
X116523000Y-35932584D03*
X120523000Y-35932584D03*
D34*
X124404120Y-41114980D03*
X124404120Y-45114980D03*
D21*
X124899420Y-54914880D03*
X124899420Y-53014880D03*
X126880620Y-49067680D03*
X126880620Y-50967680D03*
X128303020Y-49108280D03*
X128303020Y-51008280D03*
D16*
X104871440Y-37350700D03*
X106771440Y-37350700D03*
D23*
X117133900Y-106426000D03*
X118833900Y-106426000D03*
X115787700Y-97091500D03*
X117487700Y-97091500D03*
X117499500Y-94094300D03*
X115799500Y-94094300D03*
X109384200Y-94780100D03*
X107684200Y-94780100D03*
D30*
X115710520Y-55605680D03*
X121210520Y-55605680D03*
D18*
X101412800Y-105940900D03*
X101412800Y-104040900D03*
X103412800Y-104990900D03*
D15*
X126309300Y-117119400D03*
X124109300Y-117119400D03*
X105448100Y-102349300D03*
X107648100Y-102349300D03*
X118773300Y-108864400D03*
X116573300Y-108864400D03*
X105478400Y-103987600D03*
X107678400Y-103987600D03*
D19*
X128790700Y-107947100D03*
X128790700Y-110147100D03*
D15*
X117203400Y-95580200D03*
X115003400Y-95580200D03*
X121249800Y-97104200D03*
X119049800Y-97104200D03*
X109880400Y-96304100D03*
X107680400Y-96304100D03*
D19*
X102323900Y-79242920D03*
X102323900Y-77042920D03*
X100617020Y-77042920D03*
X100617020Y-79242920D03*
D15*
X123575720Y-47198280D03*
X125775720Y-47198280D03*
D19*
X126867920Y-52910380D03*
X126867920Y-55110380D03*
X123413520Y-52994380D03*
X123413520Y-55194380D03*
X124874020Y-51163580D03*
X124874020Y-48963580D03*
X123337320Y-48955780D03*
X123337320Y-51155780D03*
D20*
X121010700Y-114058700D03*
X121010700Y-112788700D03*
X121010700Y-111518700D03*
X121010700Y-110248700D03*
X121010700Y-108978700D03*
X121010700Y-107708700D03*
X121010700Y-106438700D03*
X121010700Y-105168700D03*
X126410700Y-105168700D03*
X126410700Y-106438700D03*
X126410700Y-107708700D03*
X126410700Y-108978700D03*
X126410700Y-110248700D03*
X126410700Y-111518700D03*
X126410700Y-112788700D03*
X126410700Y-114058700D03*
D31*
X116004820Y-47964880D03*
D32*
X121204820Y-46664880D03*
X119904820Y-46664880D03*
X116004820Y-46664880D03*
X117304820Y-46664880D03*
D33*
X115684820Y-43714880D03*
X116334820Y-43714880D03*
X116984820Y-43714880D03*
X117634820Y-43714880D03*
X118274820Y-43714880D03*
X118934820Y-43714880D03*
X119574820Y-43714880D03*
X120224820Y-43714880D03*
X120874820Y-43714880D03*
X121524820Y-43714880D03*
X121524820Y-49614880D03*
X120874820Y-49614880D03*
X120224820Y-49614880D03*
X119574820Y-49614880D03*
X118934820Y-49614880D03*
X118274820Y-49614880D03*
X117634820Y-49614880D03*
X116984820Y-49614880D03*
X116334820Y-49614880D03*
X115684820Y-49614880D03*
D32*
X118604820Y-46664880D03*
D31*
X116004820Y-45364880D03*
X117304820Y-45364880D03*
X118604820Y-45364880D03*
X119904820Y-45364880D03*
X121204820Y-45364880D03*
X121204820Y-47964880D03*
X119904820Y-47964880D03*
X118604820Y-47964880D03*
X117304820Y-47964880D03*
D22*
X110565200Y-73525700D03*
X108565200Y-73525700D03*
X106565200Y-73525700D03*
X104565200Y-73525700D03*
X102565200Y-73525700D03*
X100565200Y-73525700D03*
X98565200Y-73525700D03*
X96565200Y-73525700D03*
X96565200Y-40525700D03*
X98565200Y-40525700D03*
X100565200Y-40525700D03*
X102565200Y-40525700D03*
X104565200Y-40525700D03*
X106565200Y-40525700D03*
X108565200Y-40525700D03*
X110565200Y-40525700D03*
D16*
X85577600Y-103784400D03*
X87477600Y-103784400D03*
D21*
X118300500Y-101147800D03*
X118300500Y-103047800D03*
D23*
X87298000Y-105308400D03*
X85598000Y-105308400D03*
X85612500Y-106768900D03*
X87312500Y-106768900D03*
X121321300Y-100177600D03*
X119621300Y-100177600D03*
X119634900Y-101612700D03*
X121334900Y-101612700D03*
D15*
X85569700Y-108292900D03*
X87769700Y-108292900D03*
X83372600Y-102260400D03*
X85572600Y-102260400D03*
X105305500Y-106184700D03*
X107505500Y-106184700D03*
X105280100Y-107759500D03*
X107480100Y-107759500D03*
X116547900Y-102133400D03*
X114347900Y-102133400D03*
X121450100Y-98653600D03*
X119250100Y-98653600D03*
D35*
X91046300Y-77609700D03*
X91046300Y-82689700D03*
X96126300Y-82689700D03*
X96126300Y-77609700D03*
D36*
X93586300Y-80149700D03*
D35*
X91059000Y-86093300D03*
X91059000Y-91173300D03*
X96139000Y-91173300D03*
X96139000Y-86093300D03*
D36*
X93599000Y-88633300D03*
D37*
X94996000Y-99021900D03*
D38*
X94996000Y-101561900D03*
X94996000Y-104101900D03*
D39*
X112684500Y-106456500D03*
X115384500Y-106456500D03*
M02*
