M48
;DRILL file {KiCad 4.0.7} date 11/29/17 21:47:11
;FORMAT={-:-/ absolute / inch / decimal}
FMAT,2
INCH,TZ
T1C0.012
T2C0.039
T3C0.059
T4C0.067
%
G90
G05
M72
T1
X2.035Y-1.365
X2.035Y-1.4474
X2.035Y-1.5298
X2.035Y-1.6122
X2.035Y-1.6946
X2.035Y-1.7771
X2.035Y-1.8595
X2.035Y-1.9419
X2.035Y-2.0243
X2.035Y-3.6725
X2.035Y-3.7549
X2.035Y-3.8373
X2.035Y-3.9198
X2.035Y-4.0022
X2.035Y-4.0846
X2.035Y-4.167
X2.035Y-4.3318
X2.035Y-4.4142
X2.035Y-4.4966
X2.035Y-4.579
X2.035Y-4.6615
X2.065Y-4.131
X2.0657Y-2.1085
X2.0657Y-2.1585
X2.0657Y-2.2085
X2.0657Y-2.2585
X2.0657Y-2.3085
X2.0657Y-2.3585
X2.0657Y-2.4085
X2.0657Y-2.4585
X2.0657Y-2.5085
X2.0657Y-2.5585
X2.0657Y-2.6085
X2.0657Y-2.6585
X2.0657Y-2.7085
X2.0657Y-2.7585
X2.0657Y-2.8085
X2.0657Y-2.8585
X2.0657Y-2.9085
X2.0657Y-2.9585
X2.0657Y-3.0085
X2.0657Y-3.0585
X2.0657Y-3.1085
X2.0657Y-3.1585
X2.0657Y-3.2085
X2.0657Y-3.2585
X2.0657Y-3.3085
X2.0657Y-3.3585
X2.0657Y-3.4085
X2.0657Y-3.4585
X2.0657Y-3.5085
X2.0657Y-3.5585
X2.0714Y-3.9504
X2.0899Y-1.6946
X2.0899Y-1.7771
X2.0899Y-1.8595
X2.0899Y-1.9419
X2.0899Y-2.0243
X2.103Y-3.951
X2.1157Y-2.1085
X2.1157Y-2.1585
X2.1157Y-2.2085
X2.1157Y-2.2585
X2.1157Y-2.3085
X2.1157Y-2.3585
X2.1157Y-2.4085
X2.1157Y-2.4585
X2.1157Y-2.5085
X2.1157Y-2.5585
X2.1157Y-2.6085
X2.1157Y-2.6585
X2.1157Y-2.7085
X2.1157Y-2.7585
X2.1157Y-2.8085
X2.1157Y-2.8585
X2.1157Y-2.9085
X2.1157Y-2.9585
X2.1157Y-3.0085
X2.1157Y-3.0585
X2.1157Y-3.1085
X2.1157Y-3.1585
X2.1157Y-3.2085
X2.1157Y-3.2585
X2.1157Y-3.3085
X2.1157Y-3.3585
X2.1157Y-3.4085
X2.1157Y-3.4585
X2.1157Y-3.5085
X2.1157Y-3.5585
X2.1174Y-1.365
X2.1174Y-4.6615
X2.124Y-4.327
X2.127Y-3.858
X2.1635Y-4.339
X2.1657Y-2.1085
X2.1657Y-2.1585
X2.1657Y-2.2085
X2.1657Y-2.2585
X2.1657Y-2.3085
X2.1657Y-2.3585
X2.1657Y-2.4085
X2.1657Y-2.4585
X2.1657Y-2.5085
X2.1657Y-2.5585
X2.1657Y-2.6085
X2.1657Y-2.6585
X2.1657Y-2.7085
X2.1657Y-2.7585
X2.1657Y-2.8085
X2.1657Y-2.8585
X2.1657Y-2.9085
X2.1657Y-2.9585
X2.1657Y-3.0085
X2.1657Y-3.0585
X2.1657Y-3.1085
X2.1657Y-3.1585
X2.1657Y-3.2085
X2.1657Y-3.2585
X2.1657Y-3.3085
X2.1657Y-3.3585
X2.1657Y-3.4085
X2.1657Y-3.4585
X2.1657Y-3.5085
X2.1657Y-3.5585
X2.1998Y-1.365
X2.1998Y-4.6615
X2.2112Y-4.0404
X2.2157Y-2.1085
X2.2157Y-2.1585
X2.2157Y-2.2085
X2.2157Y-2.2585
X2.2157Y-2.3085
X2.2157Y-2.3585
X2.2157Y-2.4085
X2.2157Y-2.4585
X2.2157Y-2.5085
X2.2157Y-2.5585
X2.2157Y-2.6085
X2.2157Y-2.6585
X2.2157Y-2.7085
X2.2157Y-2.7585
X2.2157Y-2.8085
X2.2157Y-2.8585
X2.2157Y-2.9085
X2.2157Y-2.9585
X2.2157Y-3.0085
X2.2157Y-3.0585
X2.2157Y-3.1085
X2.2157Y-3.1585
X2.2157Y-3.2085
X2.2157Y-3.2585
X2.2157Y-3.3085
X2.2157Y-3.3585
X2.2157Y-3.4085
X2.2157Y-3.4585
X2.2157Y-3.5085
X2.2157Y-3.5585
X2.2822Y-1.365
X2.2822Y-4.6615
X2.2837Y-4.285
X2.2895Y-3.9065
X2.319Y-4.216
X2.3199Y-3.7621
X2.323Y-4.2635
X2.3248Y-4.0121
X2.3372Y-1.4199
X2.3646Y-1.365
X2.3646Y-4.6615
X2.3774Y-2.4117
X2.4041Y-2.3428
X2.405Y-4.583
X2.409Y-2.7085
X2.4298Y-1.8643
X2.4298Y-1.9154
X2.4298Y-1.9666
X2.445Y-4.3915
X2.4471Y-1.365
X2.4471Y-4.6615
X2.449Y-1.4125
X2.453Y-4.0485
X2.4548Y-1.7177
X2.481Y-1.8643
X2.481Y-1.9154
X2.481Y-1.9666
X2.481Y-4.0995
X2.491Y-3.9565
X2.509Y-2.7085
X2.509Y-2.7985
X2.509Y-2.8985
X2.509Y-4.3585
X2.5192Y-1.7471
X2.5295Y-4.6615
X2.5322Y-1.8643
X2.5322Y-1.9154
X2.5322Y-1.9666
X2.539Y-2.7585
X2.542Y-4.1935
X2.5454Y-1.4818
X2.5509Y-1.6197
X2.553Y-4.2395
X2.555Y-4.3435
X2.5565Y-2.3
X2.568Y-4.5375
X2.569Y-2.8585
X2.5714Y-1.7435
X2.5833Y-1.8643
X2.5833Y-1.9154
X2.5833Y-1.9666
X2.622Y-3.632
X2.6345Y-1.8643
X2.6345Y-1.9154
X2.6345Y-1.9666
X2.6366Y-2.1699
X2.6667Y-2.6329
X2.6892Y-3.8664
X2.692Y-3.7496
X2.6943Y-1.365
X2.704Y-1.9609
X2.716Y-4.4795
X2.7232Y-1.8393
X2.727Y-3.627
X2.7634Y-1.7181
X2.7767Y-1.365
X2.7767Y-4.6615
X2.794Y-4.1465
X2.8037Y-1.4818
X2.8065Y-3.347
X2.814Y-4.4085
X2.835Y-1.7005
X2.8498Y-3.0888
X2.8502Y-3.014
X2.8591Y-1.365
X2.8591Y-4.6615
X2.872Y-3.787
X2.8773Y-2.8794
X2.9151Y-2.8794
X2.918Y-1.5972
X2.9415Y-1.365
X2.9415Y-4.6615
X2.9566Y-1.8999
X2.9676Y-1.8703
X2.9803Y-3.22
X3.003Y-4.2935
X3.011Y-2.5942
X3.019Y-2.8145
X3.0198Y-1.7521
X3.0225Y-1.473
X3.0239Y-1.365
X3.0239Y-4.6615
X3.0724Y-2.7003
X3.0726Y-3.0313
X3.0986Y-2.9648
X3.099Y-2.8027
X3.0996Y-1.5172
X3.1063Y-1.365
X3.1063Y-4.6615
X3.1124Y-3.0061
X3.1184Y-3.1557
X3.128Y-3.6268
X3.131Y-4.4785
X3.1446Y-2.7669
X3.171Y-1.6673
X3.181Y-4.2325
X3.1888Y-1.365
X3.1888Y-4.6615
X3.1992Y-3.6267
X3.1994Y-1.8927
X3.203Y-3.9368
X3.233Y-3.507
X3.2352Y-3.6923
X3.249Y-3.446
X3.2554Y-2.9753
X3.2616Y-3.6333
X3.2712Y-1.365
X3.2712Y-4.6615
X3.2944Y-3.6185
X3.3089Y-3.8326
X3.319Y-3.401
X3.3308Y-1.4329
X3.337Y-1.7946
X3.35Y-2.6495
X3.3536Y-1.365
X3.3536Y-4.6615
X3.36Y-3.1629
X3.3635Y-3.757
X3.369Y-3.79
X3.371Y-3.978
X3.372Y-3.662
X3.3808Y-1.6755
X3.4018Y-2.6503
X3.4085Y-1.4199
X3.4148Y-2.8129
X3.4215Y-3.2995
X3.436Y-1.365
X3.436Y-4.6615
X3.445Y-3.1565
X3.478Y-4.1475
X3.48Y-3.8515
X3.4806Y-3.8831
X3.486Y-3.5593
X3.487Y-3.022
X3.4909Y-1.4199
X3.4962Y-1.9271
X3.501Y-3.9455
X3.509Y-4.3685
X3.513Y-3.9142
X3.5184Y-1.365
X3.5184Y-4.6615
X3.544Y-4.0915
X3.547Y-4.0135
X3.5733Y-1.4199
X3.5733Y-1.9144
X3.5733Y-1.9968
X3.5733Y-2.0792
X3.5733Y-2.1616
X3.5733Y-2.2441
X3.5733Y-2.3265
X3.5733Y-2.4089
X3.5733Y-2.4913
X3.5733Y-2.5737
X3.5885Y-2.811
X3.6008Y-1.365
X3.6008Y-4.6615
X3.611Y-3.7875
X3.639Y-3.685
X3.654Y-4.388
X3.6558Y-1.4199
X3.6558Y-1.5024
X3.6558Y-1.6672
X3.6558Y-1.7496
X3.6558Y-1.832
X3.6558Y-1.9144
X3.6558Y-1.9968
X3.6558Y-2.0792
X3.6558Y-2.1616
X3.6558Y-2.2441
X3.6558Y-2.3265
X3.6558Y-2.4089
X3.6558Y-2.4913
X3.6558Y-2.5737
X3.6558Y-2.6561
X3.6558Y-2.7385
X3.6832Y-1.365
X3.6832Y-4.6615
X3.6986Y-1.4199
X3.6986Y-1.5027
X3.6986Y-1.6676
X3.6986Y-1.75
X3.6986Y-1.8324
X3.6986Y-1.9148
X3.6986Y-1.9972
X3.6986Y-2.0796
X3.6986Y-2.162
X3.6986Y-2.2444
X3.6986Y-2.3269
X3.6986Y-2.4093
X3.6986Y-2.4917
X3.6986Y-2.5741
X3.6986Y-2.6565
X3.6986Y-2.7389
X3.704Y-4.3095
X3.747Y-3.748
X3.7656Y-1.365
X3.7656Y-4.6615
X3.781Y-1.4203
X3.781Y-1.75
X3.781Y-1.8324
X3.781Y-1.9148
X3.781Y-1.9972
X3.781Y-2.0796
X3.781Y-2.162
X3.781Y-2.2444
X3.781Y-2.3269
X3.781Y-2.4093
X3.781Y-2.4917
X3.781Y-2.5741
X3.781Y-2.8213
X3.813Y-2.6087
X3.8481Y-1.365
X3.8481Y-4.6615
X3.8634Y-1.4203
X3.864Y-3.905
X3.88Y-1.5222
X3.88Y-2.8218
X3.8812Y-1.7439
X3.9305Y-1.365
X3.9305Y-4.6615
X3.9458Y-1.4203
X3.9464Y-1.6961
X3.9545Y-3.6136
X4.0129Y-1.365
X4.0129Y-4.6615
X4.0146Y-3.6258
X4.0282Y-1.4203
X4.0284Y-2.6117
X4.0326Y-2.8095
X4.0336Y-3.7506
X4.038Y-4.243
X4.0403Y-4.0202
X4.047Y-1.6813
X4.052Y-3.7075
X4.0726Y-2.7605
X4.076Y-3.8045
X4.094Y-3.6255
X4.0953Y-1.365
X4.0953Y-4.6615
X4.097Y-4.1955
X4.1Y-1.93
X4.1008Y-1.7461
X4.1035Y-4.1326
X4.113Y-3.806
X4.1134Y-2.6097
X4.115Y-1.6699
X4.1254Y-2.8067
X4.1342Y-3.0293
X4.1462Y-3.0907
X4.1777Y-1.365
X4.1777Y-4.6615
X4.1842Y-1.7437
X4.2315Y-3.155
X4.233Y-4.2875
X4.2378Y-3.8857
X4.2395Y-3.6905
X4.2601Y-1.365
X4.2601Y-4.6615
X4.2675Y-3.156
X4.3305Y-1.929
X4.3344Y-2.6173
X4.3425Y-1.365
X4.3425Y-4.6615
X4.3552Y-2.9668
X4.3624Y-3.6463
X4.3625Y-3.848
X4.3632Y-3.7854
X4.3668Y-3.0195
X4.3718Y-2.7605
X4.3825Y-4.0213
X4.4056Y-1.7409
X4.4058Y-2.6067
X4.4115Y-4.286
X4.4144Y-4.4406
X4.419Y-3.9935
X4.421Y-4.5183
X4.4249Y-1.365
X4.4249Y-4.6615
X4.4332Y-3.797
X4.4351Y-4.0851
X4.4357Y-3.9075
X4.4845Y-4.582
X4.4872Y-2.9384
X4.4876Y-3.0215
X4.4876Y-3.0715
X4.4953Y-3.8791
X4.5073Y-1.365
X4.5073Y-4.6615
X4.523Y-3.704
X4.5234Y-2.8031
X4.524Y-3.8238
X4.5348Y-2.8914
X4.5348Y-3.0715
X4.5454Y-3.9217
X4.5574Y-2.8165
X4.5671Y-1.786
X4.5671Y-1.8372
X4.5671Y-1.8884
X4.5715Y-4.6005
X4.584Y-3.633
X4.5898Y-4.6615
X4.5928Y-3.0507
X4.5936Y-1.642
X4.5962Y-2.8916
X4.5962Y-2.9381
X4.6038Y-2.1247
X4.6115Y-4.2405
X4.6125Y-3.3905
X4.6183Y-1.786
X4.6183Y-1.8372
X4.6183Y-1.8884
X4.6326Y-2.5981
X4.643Y-3.9245
X4.6515Y-4.618
X4.6566Y-4.104
X4.6691Y-1.6299
X4.6695Y-1.786
X4.6695Y-1.8372
X4.6695Y-1.8884
X4.6722Y-4.6615
X4.687Y-4.332
X4.6963Y-2.4377
X4.6982Y-3.5058
X4.706Y-2.0115
X4.7077Y-1.6748
X4.7168Y-2.2725
X4.7207Y-1.786
X4.7207Y-1.8372
X4.7207Y-1.8884
X4.723Y-3.764
X4.723Y-4.057
X4.725Y-3.67
X4.7336Y-1.6747
X4.744Y-4.5765
X4.749Y-2.7285
X4.749Y-2.8285
X4.752Y-3.027
X4.7528Y-2.9282
X4.7546Y-4.6615
X4.7718Y-1.786
X4.7718Y-1.8372
X4.7718Y-1.8884
X4.8068Y-1.4124
X4.8126Y-1.5246
X4.8188Y-1.9253
X4.8206Y-2.0863
X4.828Y-4.1405
X4.832Y-4.0566
X4.837Y-1.365
X4.841Y-3.9435
X4.844Y-3.8035
X4.846Y-4.474
X4.8488Y-4.422
X4.8524Y-1.4203
X4.8545Y-4.327
X4.864Y-4.051
X4.8645Y-4.361
X4.867Y-2.728
X4.8676Y-4.512
X4.872Y-3.8305
X4.886Y-1.971
X4.9025Y-3.856
X4.9045Y-2.54
X4.9055Y-4.213
X4.9145Y-3.892
X4.9194Y-1.365
X4.922Y-4.3445
X4.9348Y-1.4203
X4.9382Y-4.0554
X4.9395Y-3.274
X4.954Y-3.9345
X4.9554Y-1.9273
X4.9716Y-1.7774
X4.989Y-3.638
X5.0002Y-1.8565
X5.0018Y-1.365
X5.002Y-3.5765
X5.0172Y-1.4203
X5.0513Y-2.0575
X5.058Y-4.6135
X5.066Y-4.3905
X5.0842Y-1.365
X5.0842Y-4.6615
X5.0961Y-4.3807
X5.0985Y-3.9925
X5.1365Y-2.1085
X5.1365Y-2.1585
X5.1365Y-2.2085
X5.1365Y-2.2585
X5.1365Y-2.3085
X5.1365Y-2.3585
X5.1365Y-2.4085
X5.1365Y-2.4585
X5.1365Y-2.5085
X5.1365Y-2.5585
X5.1365Y-2.6085
X5.1365Y-2.6585
X5.1365Y-2.7085
X5.1365Y-2.7585
X5.1365Y-2.8085
X5.1365Y-2.8585
X5.1365Y-2.9085
X5.1365Y-2.9585
X5.1365Y-3.0085
X5.1365Y-3.0585
X5.1365Y-3.1085
X5.1365Y-3.1585
X5.1365Y-3.2085
X5.1365Y-3.2585
X5.1365Y-3.3085
X5.1365Y-3.3585
X5.1365Y-3.4085
X5.1365Y-3.4585
X5.1365Y-3.5085
X5.1365Y-3.5585
X5.1666Y-1.365
X5.1666Y-4.6615
X5.1725Y-4.155
X5.1865Y-2.1085
X5.1865Y-2.1585
X5.1865Y-2.2085
X5.1865Y-2.2585
X5.1865Y-2.3085
X5.1865Y-2.3585
X5.1865Y-2.4085
X5.1865Y-2.4585
X5.1865Y-2.5085
X5.1865Y-2.5585
X5.1865Y-2.6085
X5.1865Y-2.6585
X5.1865Y-2.7085
X5.1865Y-2.7585
X5.1865Y-2.8085
X5.1865Y-2.8585
X5.1865Y-2.9085
X5.1865Y-2.9585
X5.1865Y-3.0085
X5.1865Y-3.0585
X5.1865Y-3.1085
X5.1865Y-3.1585
X5.1865Y-3.2085
X5.1865Y-3.2585
X5.1865Y-3.3085
X5.1865Y-3.3585
X5.1865Y-3.4085
X5.1865Y-3.4585
X5.1865Y-3.5085
X5.1865Y-3.5585
X5.2365Y-2.1085
X5.2365Y-2.1585
X5.2365Y-2.2085
X5.2365Y-2.2585
X5.2365Y-2.3085
X5.2365Y-2.3585
X5.2365Y-2.4085
X5.2365Y-2.4585
X5.2365Y-2.5085
X5.2365Y-2.5585
X5.2365Y-2.6085
X5.2365Y-2.6585
X5.2365Y-2.7085
X5.2365Y-2.7585
X5.2365Y-2.8085
X5.2365Y-2.8585
X5.2365Y-2.9085
X5.2365Y-2.9585
X5.2365Y-3.0085
X5.2365Y-3.0585
X5.2365Y-3.1085
X5.2365Y-3.1585
X5.2365Y-3.2085
X5.2365Y-3.2585
X5.2365Y-3.3085
X5.2365Y-3.3585
X5.2365Y-3.4085
X5.2365Y-3.4585
X5.2365Y-3.5085
X5.2365Y-3.5585
X5.249Y-1.365
X5.249Y-4.6615
X5.2644Y-1.6676
X5.2644Y-1.75
X5.2644Y-1.8324
X5.2644Y-1.9148
X5.2644Y-1.9972
X5.2775Y-4.1195
X5.2865Y-2.1085
X5.2865Y-2.1585
X5.2865Y-2.2085
X5.2865Y-2.2585
X5.2865Y-2.3085
X5.2865Y-2.3585
X5.2865Y-2.4085
X5.2865Y-2.4585
X5.2865Y-2.5085
X5.2865Y-2.5585
X5.2865Y-2.6085
X5.2865Y-2.6585
X5.2865Y-2.7085
X5.2865Y-2.7585
X5.2865Y-2.8085
X5.2865Y-2.8585
X5.2865Y-2.9085
X5.2865Y-2.9585
X5.2865Y-3.0085
X5.2865Y-3.0585
X5.2865Y-3.1085
X5.2865Y-3.1585
X5.2865Y-3.2085
X5.2865Y-3.2585
X5.2865Y-3.3085
X5.2865Y-3.3585
X5.2865Y-3.4085
X5.2865Y-3.4585
X5.2865Y-3.5085
X5.2865Y-3.5585
X5.2962Y-3.9632
X5.3315Y-1.365
X5.3315Y-1.4474
X5.3315Y-1.5298
X5.3315Y-1.6122
X5.3315Y-1.6946
X5.3315Y-1.7771
X5.3315Y-1.8595
X5.3315Y-1.9419
X5.3315Y-2.0243
X5.3315Y-3.6725
X5.3315Y-3.7549
X5.3315Y-3.8373
X5.3315Y-3.9198
X5.3315Y-4.0846
X5.3315Y-4.167
X5.3315Y-4.2494
X5.3315Y-4.3318
X5.3315Y-4.4142
X5.3315Y-4.4966
X5.3315Y-4.579
X5.3315Y-4.6615
T2
X3.74Y-3.8985
X3.74Y-3.9985
X3.74Y-4.0985
T3
X3.6845Y-3.1555
X3.685Y-3.4895
T4
X3.5845Y-3.0555
X3.5845Y-3.2555
X3.585Y-3.3895
X3.585Y-3.5895
X3.7845Y-3.0555
X3.7845Y-3.2555
X3.785Y-3.3895
X3.785Y-3.5895
T0
M30
