M48
;DRILL file {KiCad 4.0.6} date 11/17/17 15:38:08
;FORMAT={-:-/ absolute / metric / decimal}
FMAT,2
METRIC,TZ
T1C0.300
T2C1.000
T3C1.500
T4C1.700
%
G90
G05
M71
T1
X51.689Y-34.671
X51.689Y-36.764
X51.689Y-38.858
X51.689Y-40.951
X51.689Y-43.044
X51.689Y-45.137
X51.689Y-47.23
X51.689Y-49.324
X51.689Y-51.417
X51.689Y-93.282
X51.689Y-95.375
X51.689Y-97.468
X51.689Y-99.562
X51.689Y-101.655
X51.689Y-103.748
X51.689Y-105.841
X51.689Y-110.028
X51.689Y-112.121
X51.689Y-114.215
X51.689Y-116.308
X51.689Y-118.401
X52.451Y-104.927
X52.468Y-53.556
X52.468Y-54.826
X52.468Y-56.096
X52.468Y-57.366
X52.468Y-58.636
X52.468Y-59.906
X52.468Y-61.176
X52.468Y-62.446
X52.468Y-63.716
X52.468Y-64.986
X52.468Y-66.256
X52.468Y-67.526
X52.468Y-68.796
X52.468Y-70.066
X52.468Y-71.336
X52.468Y-72.606
X52.468Y-73.876
X52.468Y-75.146
X52.468Y-76.416
X52.468Y-77.686
X52.468Y-78.956
X52.468Y-80.226
X52.468Y-81.496
X52.468Y-82.766
X52.468Y-84.036
X52.468Y-85.306
X52.468Y-86.576
X52.468Y-87.846
X52.468Y-89.116
X52.468Y-90.386
X52.613Y-100.341
X53.084Y-43.044
X53.084Y-45.137
X53.084Y-47.23
X53.084Y-49.324
X53.084Y-51.417
X53.416Y-100.355
X53.738Y-53.556
X53.738Y-54.826
X53.738Y-56.096
X53.738Y-57.366
X53.738Y-58.636
X53.738Y-59.906
X53.738Y-61.176
X53.738Y-62.446
X53.738Y-63.716
X53.738Y-64.986
X53.738Y-66.256
X53.738Y-67.526
X53.738Y-68.796
X53.738Y-70.066
X53.738Y-71.336
X53.738Y-72.606
X53.738Y-73.876
X53.738Y-75.146
X53.738Y-76.416
X53.738Y-77.686
X53.738Y-78.956
X53.738Y-80.226
X53.738Y-81.496
X53.738Y-82.766
X53.738Y-84.036
X53.738Y-85.306
X53.738Y-86.576
X53.738Y-87.846
X53.738Y-89.116
X53.738Y-90.386
X53.782Y-34.671
X53.782Y-118.401
X53.95Y-109.906
X54.026Y-97.993
X54.953Y-110.211
X55.008Y-53.556
X55.008Y-54.826
X55.008Y-56.096
X55.008Y-57.366
X55.008Y-58.636
X55.008Y-59.906
X55.008Y-61.176
X55.008Y-62.446
X55.008Y-63.716
X55.008Y-64.986
X55.008Y-66.256
X55.008Y-67.526
X55.008Y-68.796
X55.008Y-70.066
X55.008Y-71.336
X55.008Y-72.606
X55.008Y-73.876
X55.008Y-75.146
X55.008Y-76.416
X55.008Y-77.686
X55.008Y-78.956
X55.008Y-80.226
X55.008Y-81.496
X55.008Y-82.766
X55.008Y-84.036
X55.008Y-85.306
X55.008Y-86.576
X55.008Y-87.846
X55.008Y-89.116
X55.008Y-90.386
X55.875Y-34.671
X55.875Y-118.401
X56.164Y-102.626
X56.278Y-53.556
X56.278Y-54.826
X56.278Y-56.096
X56.278Y-57.366
X56.278Y-58.636
X56.278Y-59.906
X56.278Y-61.176
X56.278Y-62.446
X56.278Y-63.716
X56.278Y-64.986
X56.278Y-66.256
X56.278Y-67.526
X56.278Y-68.796
X56.278Y-70.066
X56.278Y-71.336
X56.278Y-72.606
X56.278Y-73.876
X56.278Y-75.146
X56.278Y-76.416
X56.278Y-77.686
X56.278Y-78.956
X56.278Y-80.226
X56.278Y-81.496
X56.278Y-82.766
X56.278Y-84.036
X56.278Y-85.306
X56.278Y-86.576
X56.278Y-87.846
X56.278Y-89.116
X56.278Y-90.386
X57.969Y-34.671
X57.969Y-118.401
X58.006Y-108.84
X58.153Y-99.225
X58.903Y-107.086
X58.924Y-95.556
X59.004Y-108.293
X59.05Y-101.906
X59.364Y-36.066
X60.062Y-34.671
X60.062Y-118.401
X60.386Y-61.257
X61.064Y-59.508
X61.087Y-116.408
X61.189Y-68.796
X61.717Y-47.352
X61.717Y-48.652
X61.717Y-49.952
X62.103Y-111.544
X62.155Y-34.671
X62.155Y-118.401
X62.204Y-35.877
X62.306Y-102.832
X62.352Y-43.63
X63.017Y-47.352
X63.017Y-48.652
X63.017Y-49.952
X63.017Y-104.127
X63.271Y-100.495
X63.729Y-68.796
X63.729Y-71.082
X63.729Y-73.622
X63.729Y-110.706
X63.987Y-44.376
X64.248Y-118.401
X64.317Y-47.352
X64.317Y-48.652
X64.317Y-49.952
X64.491Y-70.066
X64.567Y-106.515
X64.653Y-37.638
X64.794Y-41.14
X64.846Y-107.683
X64.897Y-110.325
X64.935Y-58.42
X65.227Y-115.252
X65.253Y-72.606
X65.314Y-44.285
X65.617Y-47.352
X65.617Y-48.652
X65.617Y-49.952
X66.599Y-92.253
X66.917Y-47.352
X66.917Y-48.652
X66.917Y-49.952
X66.97Y-55.115
X67.734Y-66.876
X68.304Y-98.206
X68.377Y-95.239
X68.435Y-34.671
X68.682Y-49.807
X68.986Y-113.779
X69.169Y-46.718
X69.266Y-92.126
X70.19Y-43.64
X70.528Y-34.671
X70.528Y-118.401
X70.968Y-105.321
X71.215Y-37.636
X71.285Y-85.014
X71.476Y-111.976
X72.009Y-43.193
X72.385Y-78.456
X72.394Y-76.556
X72.621Y-34.671
X72.621Y-118.401
X72.949Y-96.19
X73.084Y-73.136
X74.044Y-73.136
X74.117Y-40.568
X74.715Y-34.671
X74.715Y-118.401
X75.098Y-48.257
X75.378Y-47.505
X75.699Y-81.788
X76.276Y-109.055
X76.479Y-65.893
X76.683Y-71.488
X76.703Y-44.503
X76.772Y-37.414
X76.808Y-34.671
X76.808Y-118.401
X78.039Y-68.588
X78.044Y-76.995
X78.704Y-75.306
X78.715Y-71.189
X78.73Y-38.537
X78.901Y-34.671
X78.901Y-118.401
X79.055Y-76.355
X79.207Y-80.155
X79.451Y-92.12
X79.527Y-113.754
X79.873Y-70.279
X80.543Y-42.349
X80.797Y-107.505
X80.995Y-34.671
X80.995Y-118.401
X81.261Y-92.118
X81.265Y-48.075
X81.356Y-99.994
X82.118Y-89.078
X82.173Y-93.785
X82.525Y-87.528
X82.687Y-75.573
X82.846Y-92.287
X83.088Y-34.671
X83.088Y-118.401
X83.678Y-91.91
X84.047Y-97.349
X84.303Y-86.385
X84.602Y-36.397
X84.76Y-45.583
X85.09Y-67.297
X85.181Y-34.671
X85.181Y-118.401
X85.344Y-80.338
X85.433Y-95.428
X85.573Y-96.266
X85.622Y-101.042
X85.649Y-93.015
X85.872Y-42.558
X86.406Y-67.318
X86.576Y-36.066
X86.736Y-71.448
X86.906Y-83.807
X87.274Y-34.671
X87.274Y-118.401
X87.503Y-80.175
X88.341Y-105.346
X88.392Y-97.828
X88.406Y-98.631
X88.544Y-90.406
X88.57Y-76.759
X88.67Y-36.066
X88.803Y-48.948
X88.925Y-100.216
X89.129Y-110.96
X89.23Y-99.422
X89.367Y-34.671
X89.367Y-118.401
X90.018Y-103.924
X90.094Y-101.943
X90.763Y-36.066
X90.763Y-48.626
X90.763Y-50.719
X90.763Y-52.812
X90.763Y-54.906
X90.763Y-56.999
X90.763Y-59.092
X90.763Y-61.185
X90.763Y-63.279
X90.763Y-65.372
X91.461Y-34.671
X91.461Y-118.401
X91.719Y-96.203
X92.431Y-93.599
X92.812Y-111.455
X92.856Y-36.066
X92.856Y-38.16
X92.856Y-42.346
X92.856Y-44.439
X92.856Y-46.533
X92.856Y-48.626
X92.856Y-50.719
X92.856Y-52.812
X92.856Y-54.906
X92.856Y-56.999
X92.856Y-59.092
X92.856Y-61.185
X92.856Y-63.279
X92.856Y-65.372
X92.856Y-67.465
X92.856Y-69.558
X93.554Y-34.671
X93.554Y-118.401
X93.944Y-36.066
X93.944Y-38.17
X93.944Y-42.356
X93.944Y-44.45
X93.944Y-46.543
X93.944Y-48.636
X93.944Y-50.729
X93.944Y-52.822
X93.944Y-54.916
X93.944Y-57.009
X93.944Y-59.102
X93.944Y-61.195
X93.944Y-63.289
X93.944Y-65.382
X93.944Y-67.475
X93.944Y-69.569
X94.082Y-109.461
X95.174Y-95.199
X95.647Y-34.671
X95.647Y-118.401
X96.038Y-36.076
X96.038Y-44.45
X96.038Y-46.543
X96.038Y-48.636
X96.038Y-50.729
X96.038Y-52.822
X96.038Y-54.916
X96.038Y-57.009
X96.038Y-59.102
X96.038Y-61.195
X96.038Y-63.289
X96.038Y-65.382
X96.038Y-71.662
X96.85Y-66.261
X97.74Y-34.671
X97.74Y-118.401
X98.131Y-36.076
X98.144Y-99.186
X98.552Y-38.664
X98.552Y-71.674
X98.582Y-44.295
X99.834Y-34.671
X99.834Y-118.401
X100.224Y-36.076
X100.239Y-43.081
X100.444Y-91.786
X101.927Y-34.671
X101.927Y-118.401
X101.972Y-92.096
X102.317Y-36.076
X102.321Y-66.337
X102.428Y-71.361
X102.454Y-95.266
X102.565Y-107.772
X102.624Y-102.112
X102.794Y-42.705
X102.921Y-94.17
X103.444Y-70.117
X103.53Y-96.634
X103.988Y-92.088
X104.02Y-34.671
X104.02Y-118.401
X104.064Y-106.566
X104.14Y-49.022
X104.16Y-44.351
X104.23Y-104.967
X104.47Y-96.672
X104.48Y-66.286
X104.521Y-42.415
X104.785Y-71.29
X105.009Y-76.944
X105.313Y-78.504
X106.114Y-34.671
X106.114Y-118.401
X106.279Y-44.29
X107.48Y-80.137
X107.518Y-108.902
X107.641Y-98.696
X107.683Y-93.739
X108.207Y-34.671
X108.207Y-118.401
X108.394Y-80.162
X109.995Y-48.997
X110.094Y-66.479
X110.3Y-34.671
X110.3Y-118.401
X110.622Y-75.357
X110.804Y-92.617
X110.807Y-97.739
X110.825Y-96.15
X110.917Y-76.695
X111.044Y-70.117
X111.316Y-102.141
X111.902Y-44.219
X111.907Y-66.21
X112.052Y-108.864
X112.126Y-112.791
X112.243Y-101.435
X112.293Y-114.765
X112.393Y-34.671
X112.393Y-118.401
X112.604Y-96.444
X112.651Y-103.761
X112.666Y-99.25
X113.906Y-116.383
X113.974Y-74.636
X113.984Y-76.746
X113.984Y-78.016
X114.181Y-98.528
X114.486Y-34.671
X114.486Y-118.401
X114.884Y-94.082
X114.894Y-71.199
X114.91Y-97.125
X115.184Y-73.442
X115.184Y-78.016
X115.453Y-99.611
X115.758Y-71.539
X116.005Y-45.365
X116.005Y-46.665
X116.005Y-47.965
X116.116Y-116.853
X116.434Y-92.278
X116.58Y-118.401
X116.657Y-77.488
X116.677Y-41.706
X116.744Y-73.447
X116.744Y-74.626
X116.937Y-53.967
X117.132Y-107.709
X117.157Y-86.119
X117.305Y-45.365
X117.305Y-46.665
X117.305Y-47.965
X117.668Y-65.992
X117.932Y-99.682
X118.148Y-117.297
X118.278Y-104.242
X118.596Y-41.399
X118.605Y-45.365
X118.605Y-46.665
X118.605Y-47.965
X118.673Y-118.401
X119.05Y-110.033
X119.286Y-61.917
X119.334Y-89.048
X119.532Y-51.092
X119.575Y-42.54
X119.807Y-57.721
X119.905Y-45.365
X119.905Y-46.665
X119.905Y-47.965
X119.964Y-95.606
X119.964Y-103.048
X120.015Y-93.218
X120.233Y-42.537
X120.498Y-116.243
X120.625Y-69.304
X120.625Y-71.844
X120.701Y-76.886
X120.721Y-74.376
X120.766Y-118.401
X121.205Y-45.365
X121.205Y-46.665
X121.205Y-47.965
X122.093Y-35.875
X122.24Y-38.725
X122.398Y-48.903
X122.443Y-52.992
X122.631Y-105.169
X122.733Y-103.038
X122.859Y-34.671
X122.961Y-100.165
X123.038Y-96.609
X123.088Y-113.64
X123.159Y-112.319
X123.25Y-36.076
X123.304Y-109.906
X123.546Y-102.895
X123.558Y-110.769
X123.622Y-69.291
X123.638Y-114.605
X123.749Y-97.295
X124.104Y-50.063
X124.523Y-97.942
X124.574Y-64.516
X124.6Y-107.01
X124.828Y-98.857
X124.953Y-34.671
X125.019Y-110.35
X125.343Y-36.076
X125.43Y-103.007
X125.463Y-83.16
X125.832Y-99.936
X125.867Y-48.953
X126.279Y-45.146
X126.721Y-92.405
X127.005Y-47.155
X127.046Y-34.671
X127.051Y-90.843
X127.436Y-36.076
X128.303Y-52.261
X128.473Y-117.183
X128.676Y-111.519
X129.139Y-34.671
X129.139Y-118.401
X129.44Y-111.269
X129.502Y-101.409
X130.468Y-53.556
X130.468Y-54.826
X130.468Y-56.096
X130.468Y-57.366
X130.468Y-58.636
X130.468Y-59.906
X130.468Y-61.176
X130.468Y-62.446
X130.468Y-63.716
X130.468Y-64.986
X130.468Y-66.256
X130.468Y-67.526
X130.468Y-68.796
X130.468Y-70.066
X130.468Y-71.336
X130.468Y-72.606
X130.468Y-73.876
X130.468Y-75.146
X130.468Y-76.416
X130.468Y-77.686
X130.468Y-78.956
X130.468Y-80.226
X130.468Y-81.496
X130.468Y-82.766
X130.468Y-84.036
X130.468Y-85.306
X130.468Y-86.576
X130.468Y-87.846
X130.468Y-89.116
X130.468Y-90.386
X131.232Y-34.671
X131.232Y-118.401
X131.381Y-105.537
X131.738Y-53.556
X131.738Y-54.826
X131.738Y-56.096
X131.738Y-57.366
X131.738Y-58.636
X131.738Y-59.906
X131.738Y-61.176
X131.738Y-62.446
X131.738Y-63.716
X131.738Y-64.986
X131.738Y-66.256
X131.738Y-67.526
X131.738Y-68.796
X131.738Y-70.066
X131.738Y-71.336
X131.738Y-72.606
X131.738Y-73.876
X131.738Y-75.146
X131.738Y-76.416
X131.738Y-77.686
X131.738Y-78.956
X131.738Y-80.226
X131.738Y-81.496
X131.738Y-82.766
X131.738Y-84.036
X131.738Y-85.306
X131.738Y-86.576
X131.738Y-87.846
X131.738Y-89.116
X131.738Y-90.386
X133.008Y-53.556
X133.008Y-54.826
X133.008Y-56.096
X133.008Y-57.366
X133.008Y-58.636
X133.008Y-59.906
X133.008Y-61.176
X133.008Y-62.446
X133.008Y-63.716
X133.008Y-64.986
X133.008Y-66.256
X133.008Y-67.526
X133.008Y-68.796
X133.008Y-70.066
X133.008Y-71.336
X133.008Y-72.606
X133.008Y-73.876
X133.008Y-75.146
X133.008Y-76.416
X133.008Y-77.686
X133.008Y-78.956
X133.008Y-80.226
X133.008Y-81.496
X133.008Y-82.766
X133.008Y-84.036
X133.008Y-85.306
X133.008Y-86.576
X133.008Y-87.846
X133.008Y-89.116
X133.008Y-90.386
X133.326Y-34.671
X133.326Y-118.401
X133.716Y-42.356
X133.716Y-44.45
X133.716Y-46.543
X133.716Y-48.636
X133.716Y-50.729
X134.048Y-104.635
X134.278Y-53.556
X134.278Y-54.826
X134.278Y-56.096
X134.278Y-57.366
X134.278Y-58.636
X134.278Y-59.906
X134.278Y-61.176
X134.278Y-62.446
X134.278Y-63.716
X134.278Y-64.986
X134.278Y-66.256
X134.278Y-67.526
X134.278Y-68.796
X134.278Y-70.066
X134.278Y-71.336
X134.278Y-72.606
X134.278Y-73.876
X134.278Y-75.146
X134.278Y-76.416
X134.278Y-77.686
X134.278Y-78.956
X134.278Y-80.226
X134.278Y-81.496
X134.278Y-82.766
X134.278Y-84.036
X134.278Y-85.306
X134.278Y-86.576
X134.278Y-87.846
X134.278Y-89.116
X134.278Y-90.386
X134.523Y-100.665
X135.419Y-34.671
X135.419Y-36.764
X135.419Y-38.858
X135.419Y-40.951
X135.419Y-43.044
X135.419Y-45.137
X135.419Y-47.23
X135.419Y-49.324
X135.419Y-51.417
X135.419Y-93.282
X135.419Y-95.375
X135.419Y-97.468
X135.419Y-99.562
X135.419Y-103.748
X135.419Y-105.841
X135.419Y-107.935
X135.419Y-110.028
X135.419Y-112.121
X135.419Y-114.215
X135.419Y-116.308
X135.419Y-118.401
T2
X94.996Y-99.022
X94.996Y-101.562
X94.996Y-104.102
T3
X93.586Y-80.15
X93.599Y-88.633
T4
X91.046Y-77.61
X91.046Y-82.69
X91.059Y-86.093
X91.059Y-91.173
X96.126Y-77.61
X96.126Y-82.69
X96.139Y-86.093
X96.139Y-91.173
T0
M30
