G04 #@! TF.FileFunction,Legend,Top*
%FSLAX46Y46*%
G04 Gerber Fmt 4.6, Leading zero omitted, Abs format (unit mm)*
G04 Created by KiCad (PCBNEW 4.0.6) date 11/17/17 15:38:04*
%MOMM*%
%LPD*%
G01*
G04 APERTURE LIST*
%ADD10C,0.100000*%
%ADD11C,0.200000*%
%ADD12C,0.300000*%
%ADD13C,0.120000*%
%ADD14C,0.150000*%
%ADD15C,3.580000*%
%ADD16R,2.380000X2.880000*%
%ADD17R,2.880000X2.380000*%
%ADD18R,1.580000X1.130000*%
%ADD19R,1.130000X1.580000*%
%ADD20R,0.880000X0.880000*%
%ADD21R,1.480000X1.480000*%
%ADD22R,1.580000X1.280000*%
%ADD23R,1.180000X1.280000*%
%ADD24R,1.280000X1.580000*%
%ADD25R,0.930000X1.880000*%
%ADD26R,1.880000X0.930000*%
%ADD27R,0.740000X1.780000*%
%ADD28R,0.980000X1.180000*%
%ADD29R,1.180000X0.980000*%
%ADD30C,1.180000*%
%ADD31C,1.269000*%
%ADD32R,2.880000X1.080000*%
%ADD33R,2.880000X0.780000*%
%ADD34R,1.280000X1.180000*%
%ADD35R,1.680000X1.180000*%
%ADD36R,1.680000X2.180000*%
%ADD37R,1.780000X0.740000*%
%ADD38C,2.580000*%
%ADD39C,2.380000*%
%ADD40R,2.080000X2.080000*%
%ADD41O,2.080000X2.080000*%
%ADD42R,2.480000X2.080000*%
%ADD43R,2.080000X2.480000*%
%ADD44R,1.880000X1.680000*%
G04 APERTURE END LIST*
D10*
D11*
X114834500Y-57326500D02*
X101544500Y-57306500D01*
X114834500Y-64476500D02*
X114834500Y-57326500D01*
X101504500Y-64476500D02*
X114834500Y-64476500D01*
X101504500Y-57356500D02*
X101504500Y-64476500D01*
D12*
X98257357Y-61345071D02*
X98257357Y-59845071D01*
X98971643Y-61345071D02*
X98971643Y-59845071D01*
X99328786Y-59845071D01*
X99543071Y-59916500D01*
X99685929Y-60059357D01*
X99757357Y-60202214D01*
X99828786Y-60487929D01*
X99828786Y-60702214D01*
X99757357Y-60987929D01*
X99685929Y-61130786D01*
X99543071Y-61273643D01*
X99328786Y-61345071D01*
X98971643Y-61345071D01*
X100471643Y-61202214D02*
X100543071Y-61273643D01*
X100471643Y-61345071D01*
X100400214Y-61273643D01*
X100471643Y-61202214D01*
X100471643Y-61345071D01*
X100471643Y-60416500D02*
X100543071Y-60487929D01*
X100471643Y-60559357D01*
X100400214Y-60487929D01*
X100471643Y-60416500D01*
X100471643Y-60559357D01*
X101680214Y-50125071D02*
X102537357Y-50125071D01*
X102108786Y-51625071D02*
X102108786Y-50125071D01*
X103037357Y-50125071D02*
X103037357Y-51339357D01*
X103108785Y-51482214D01*
X103180214Y-51553643D01*
X103323071Y-51625071D01*
X103608785Y-51625071D01*
X103751643Y-51553643D01*
X103823071Y-51482214D01*
X103894500Y-51339357D01*
X103894500Y-50125071D01*
X105608786Y-50125071D02*
X105965929Y-51625071D01*
X106251643Y-50553643D01*
X106537357Y-51625071D01*
X106894500Y-50125071D01*
X107465929Y-51625071D02*
X107465929Y-50125071D01*
X108180215Y-50839357D02*
X108680215Y-50839357D01*
X108894501Y-51625071D02*
X108180215Y-51625071D01*
X108180215Y-50125071D01*
X108894501Y-50125071D01*
X109537358Y-51625071D02*
X109537358Y-50125071D01*
X110394501Y-51625071D01*
X110394501Y-50125071D01*
X99573072Y-54103643D02*
X99787358Y-54175071D01*
X100144501Y-54175071D01*
X100287358Y-54103643D01*
X100358787Y-54032214D01*
X100430215Y-53889357D01*
X100430215Y-53746500D01*
X100358787Y-53603643D01*
X100287358Y-53532214D01*
X100144501Y-53460786D01*
X99858787Y-53389357D01*
X99715929Y-53317929D01*
X99644501Y-53246500D01*
X99573072Y-53103643D01*
X99573072Y-52960786D01*
X99644501Y-52817929D01*
X99715929Y-52746500D01*
X99858787Y-52675071D01*
X100215929Y-52675071D01*
X100430215Y-52746500D01*
X101073072Y-54175071D02*
X101073072Y-52675071D01*
X101644500Y-52675071D01*
X101787358Y-52746500D01*
X101858786Y-52817929D01*
X101930215Y-52960786D01*
X101930215Y-53175071D01*
X101858786Y-53317929D01*
X101787358Y-53389357D01*
X101644500Y-53460786D01*
X101073072Y-53460786D01*
X102501643Y-53746500D02*
X103215929Y-53746500D01*
X102358786Y-54175071D02*
X102858786Y-52675071D01*
X103358786Y-54175071D01*
X104715929Y-54032214D02*
X104644500Y-54103643D01*
X104430214Y-54175071D01*
X104287357Y-54175071D01*
X104073072Y-54103643D01*
X103930214Y-53960786D01*
X103858786Y-53817929D01*
X103787357Y-53532214D01*
X103787357Y-53317929D01*
X103858786Y-53032214D01*
X103930214Y-52889357D01*
X104073072Y-52746500D01*
X104287357Y-52675071D01*
X104430214Y-52675071D01*
X104644500Y-52746500D01*
X104715929Y-52817929D01*
X105358786Y-53389357D02*
X105858786Y-53389357D01*
X106073072Y-54175071D02*
X105358786Y-54175071D01*
X105358786Y-52675071D01*
X106073072Y-52675071D01*
X107644500Y-52675071D02*
X108501643Y-52675071D01*
X108073072Y-54175071D02*
X108073072Y-52675071D01*
X109001643Y-53389357D02*
X109501643Y-53389357D01*
X109715929Y-54175071D02*
X109001643Y-54175071D01*
X109001643Y-52675071D01*
X109715929Y-52675071D01*
X110287357Y-53746500D02*
X111001643Y-53746500D01*
X110144500Y-54175071D02*
X110644500Y-52675071D01*
X111144500Y-54175071D01*
X111644500Y-54175071D02*
X111644500Y-52675071D01*
X112144500Y-53746500D01*
X112644500Y-52675071D01*
X112644500Y-54175071D01*
X101073072Y-56725071D02*
X100573072Y-56010786D01*
X100215929Y-56725071D02*
X100215929Y-55225071D01*
X100787357Y-55225071D01*
X100930215Y-55296500D01*
X101001643Y-55367929D01*
X101073072Y-55510786D01*
X101073072Y-55725071D01*
X101001643Y-55867929D01*
X100930215Y-55939357D01*
X100787357Y-56010786D01*
X100215929Y-56010786D01*
X101644500Y-56296500D02*
X102358786Y-56296500D01*
X101501643Y-56725071D02*
X102001643Y-55225071D01*
X102501643Y-56725071D01*
X103001643Y-56725071D02*
X103001643Y-55225071D01*
X103358786Y-55225071D01*
X103573071Y-55296500D01*
X103715929Y-55439357D01*
X103787357Y-55582214D01*
X103858786Y-55867929D01*
X103858786Y-56082214D01*
X103787357Y-56367929D01*
X103715929Y-56510786D01*
X103573071Y-56653643D01*
X103358786Y-56725071D01*
X103001643Y-56725071D01*
X104501643Y-56725071D02*
X104501643Y-55225071D01*
X105501643Y-55225071D02*
X105787357Y-55225071D01*
X105930215Y-55296500D01*
X106073072Y-55439357D01*
X106144500Y-55725071D01*
X106144500Y-56225071D01*
X106073072Y-56510786D01*
X105930215Y-56653643D01*
X105787357Y-56725071D01*
X105501643Y-56725071D01*
X105358786Y-56653643D01*
X105215929Y-56510786D01*
X105144500Y-56225071D01*
X105144500Y-55725071D01*
X105215929Y-55439357D01*
X105358786Y-55296500D01*
X105501643Y-55225071D01*
X107715929Y-55225071D02*
X108215929Y-56725071D01*
X108715929Y-55225071D01*
X110001643Y-56725071D02*
X109144500Y-56725071D01*
X109573072Y-56725071D02*
X109573072Y-55225071D01*
X109430215Y-55439357D01*
X109287357Y-55582214D01*
X109144500Y-55653643D01*
X110644500Y-56582214D02*
X110715928Y-56653643D01*
X110644500Y-56725071D01*
X110573071Y-56653643D01*
X110644500Y-56582214D01*
X110644500Y-56725071D01*
X111644500Y-55225071D02*
X111787357Y-55225071D01*
X111930214Y-55296500D01*
X112001643Y-55367929D01*
X112073072Y-55510786D01*
X112144500Y-55796500D01*
X112144500Y-56153643D01*
X112073072Y-56439357D01*
X112001643Y-56582214D01*
X111930214Y-56653643D01*
X111787357Y-56725071D01*
X111644500Y-56725071D01*
X111501643Y-56653643D01*
X111430214Y-56582214D01*
X111358786Y-56439357D01*
X111287357Y-56153643D01*
X111287357Y-55796500D01*
X111358786Y-55510786D01*
X111430214Y-55367929D01*
X111501643Y-55296500D01*
X111644500Y-55225071D01*
X129994501Y-52112214D02*
X129923072Y-52183643D01*
X129708786Y-52255071D01*
X129565929Y-52255071D01*
X129351644Y-52183643D01*
X129208786Y-52040786D01*
X129137358Y-51897929D01*
X129065929Y-51612214D01*
X129065929Y-51397929D01*
X129137358Y-51112214D01*
X129208786Y-50969357D01*
X129351644Y-50826500D01*
X129565929Y-50755071D01*
X129708786Y-50755071D01*
X129923072Y-50826500D01*
X129994501Y-50897929D01*
X130565929Y-50897929D02*
X130637358Y-50826500D01*
X130780215Y-50755071D01*
X131137358Y-50755071D01*
X131280215Y-50826500D01*
X131351644Y-50897929D01*
X131423072Y-51040786D01*
X131423072Y-51183643D01*
X131351644Y-51397929D01*
X130494501Y-52255071D01*
X131423072Y-52255071D01*
X55647358Y-51442214D02*
X55575929Y-51513643D01*
X55361643Y-51585071D01*
X55218786Y-51585071D01*
X55004501Y-51513643D01*
X54861643Y-51370786D01*
X54790215Y-51227929D01*
X54718786Y-50942214D01*
X54718786Y-50727929D01*
X54790215Y-50442214D01*
X54861643Y-50299357D01*
X55004501Y-50156500D01*
X55218786Y-50085071D01*
X55361643Y-50085071D01*
X55575929Y-50156500D01*
X55647358Y-50227929D01*
X57075929Y-51585071D02*
X56218786Y-51585071D01*
X56647358Y-51585071D02*
X56647358Y-50085071D01*
X56504501Y-50299357D01*
X56361643Y-50442214D01*
X56218786Y-50513643D01*
X57718786Y-51442214D02*
X57790214Y-51513643D01*
X57718786Y-51585071D01*
X57647357Y-51513643D01*
X57718786Y-51442214D01*
X57718786Y-51585071D01*
D13*
X69999100Y-113414342D02*
X71999100Y-113414342D01*
X71999100Y-110454342D02*
X69999100Y-110454342D01*
X59632400Y-107235500D02*
X59632400Y-109235500D01*
X62592400Y-109235500D02*
X62592400Y-107235500D01*
X66195700Y-114331300D02*
X64195700Y-114331300D01*
X64195700Y-117291300D02*
X66195700Y-117291300D01*
X57972400Y-110353400D02*
X57272400Y-110353400D01*
X57272400Y-109153400D02*
X57972400Y-109153400D01*
X65932800Y-101107800D02*
X65232800Y-101107800D01*
X65232800Y-99907800D02*
X65932800Y-99907800D01*
X66059800Y-93741800D02*
X65359800Y-93741800D01*
X65359800Y-92541800D02*
X66059800Y-92541800D01*
X68853800Y-91201800D02*
X68153800Y-91201800D01*
X68153800Y-90001800D02*
X68853800Y-90001800D01*
X69865800Y-93934800D02*
X69865800Y-94634800D01*
X68665800Y-94634800D02*
X68665800Y-93934800D01*
X88515900Y-103258100D02*
X88515900Y-102558100D01*
X89715900Y-102558100D02*
X89715900Y-103258100D01*
X90596200Y-94237100D02*
X89896200Y-94237100D01*
X89896200Y-93037100D02*
X90596200Y-93037100D01*
X55523000Y-105842700D02*
X55523000Y-107542700D01*
X55523000Y-107542700D02*
X58073000Y-107542700D01*
X55523000Y-105842700D02*
X58073000Y-105842700D01*
X59112600Y-72621900D02*
X59112600Y-74621900D01*
X59112600Y-74621900D02*
X62962600Y-74621900D01*
X59112600Y-72621900D02*
X62962600Y-72621900D01*
X59112600Y-70081900D02*
X59112600Y-72081900D01*
X59112600Y-72081900D02*
X62962600Y-72081900D01*
X59112600Y-70081900D02*
X62962600Y-70081900D01*
X59112600Y-67795900D02*
X59112600Y-69795900D01*
X59112600Y-69795900D02*
X62962600Y-69795900D01*
X59112600Y-67795900D02*
X62962600Y-67795900D01*
X125494600Y-72843900D02*
X125494600Y-70843900D01*
X125494600Y-70843900D02*
X121644600Y-70843900D01*
X125494600Y-72843900D02*
X121644600Y-72843900D01*
X125488600Y-75383900D02*
X125488600Y-73383900D01*
X125488600Y-73383900D02*
X121638600Y-73383900D01*
X125488600Y-75383900D02*
X121638600Y-75383900D01*
X125488600Y-77923900D02*
X125488600Y-75923900D01*
X125488600Y-75923900D02*
X121638600Y-75923900D01*
X125488600Y-77923900D02*
X121638600Y-77923900D01*
X125488600Y-70303900D02*
X125488600Y-68303900D01*
X125488600Y-68303900D02*
X121638600Y-68303900D01*
X125488600Y-70303900D02*
X121638600Y-70303900D01*
X93298900Y-95891900D02*
X92298900Y-95891900D01*
X92298900Y-94531900D02*
X93298900Y-94531900D01*
X85181320Y-70158640D02*
X86111320Y-70158640D01*
X88341320Y-70158640D02*
X87411320Y-70158640D01*
X88341320Y-70158640D02*
X88341320Y-67998640D01*
X85181320Y-70158640D02*
X85181320Y-68698640D01*
X90327600Y-44591700D02*
X89397600Y-44591700D01*
X87167600Y-44591700D02*
X88097600Y-44591700D01*
X87167600Y-44591700D02*
X87167600Y-46751700D01*
X90327600Y-44591700D02*
X90327600Y-46051700D01*
X81884640Y-45116720D02*
X80954640Y-45116720D01*
X78724640Y-45116720D02*
X79654640Y-45116720D01*
X78724640Y-45116720D02*
X78724640Y-47276720D01*
X81884640Y-45116720D02*
X81884640Y-46576720D01*
X84282400Y-76892880D02*
X83352400Y-76892880D01*
X81122400Y-76892880D02*
X82052400Y-76892880D01*
X81122400Y-76892880D02*
X81122400Y-79052880D01*
X84282400Y-76892880D02*
X84282400Y-78352880D01*
X77454600Y-69400200D02*
X78384600Y-69400200D01*
X80614600Y-69400200D02*
X79684600Y-69400200D01*
X80614600Y-69400200D02*
X80614600Y-67240200D01*
X77454600Y-69400200D02*
X77454600Y-67940200D01*
X59039200Y-104680300D02*
X58039200Y-104680300D01*
X58039200Y-103320300D02*
X59039200Y-103320300D01*
X96020000Y-108819400D02*
X97020000Y-108819400D01*
X97020000Y-110179400D02*
X96020000Y-110179400D01*
X62769200Y-108157900D02*
X62769200Y-107157900D01*
X64129200Y-107157900D02*
X64129200Y-108157900D01*
X54063700Y-109430100D02*
X53063700Y-109430100D01*
X53063700Y-108070100D02*
X54063700Y-108070100D01*
X70617800Y-87842800D02*
X70617800Y-86842800D01*
X71977800Y-86842800D02*
X71977800Y-87842800D01*
X90785400Y-101612500D02*
X90785400Y-100612500D01*
X92145400Y-100612500D02*
X92145400Y-101612500D01*
X82115100Y-80898280D02*
X81115100Y-80898280D01*
X81115100Y-79538280D02*
X82115100Y-79538280D01*
X79581300Y-65448900D02*
X80581300Y-65448900D01*
X80581300Y-66808900D02*
X79581300Y-66808900D01*
X85140600Y-66821600D02*
X84140600Y-66821600D01*
X84140600Y-65461600D02*
X85140600Y-65461600D01*
X88188600Y-48571700D02*
X87188600Y-48571700D01*
X87188600Y-47211700D02*
X88188600Y-47211700D01*
X83626240Y-46154720D02*
X83626240Y-47154720D01*
X82266240Y-47154720D02*
X82266240Y-46154720D01*
X80804300Y-76936980D02*
X80804300Y-77936980D01*
X79444300Y-77936980D02*
X79444300Y-76936980D01*
X80904800Y-69379900D02*
X80904800Y-68379900D01*
X82264800Y-68379900D02*
X82264800Y-69379900D01*
X88956600Y-69963920D02*
X88956600Y-68963920D01*
X90316600Y-68963920D02*
X90316600Y-69963920D01*
X86874900Y-44597700D02*
X86874900Y-45597700D01*
X85514900Y-45597700D02*
X85514900Y-44597700D01*
X78431940Y-45133820D02*
X78431940Y-46133820D01*
X77071940Y-46133820D02*
X77071940Y-45133820D01*
X85973200Y-77406880D02*
X85973200Y-78406880D01*
X84613200Y-78406880D02*
X84613200Y-77406880D01*
X75799400Y-68922700D02*
X75799400Y-67922700D01*
X77159400Y-67922700D02*
X77159400Y-68922700D01*
X83515920Y-69646240D02*
X83515920Y-68646240D01*
X84875920Y-68646240D02*
X84875920Y-69646240D01*
X88481100Y-42182500D02*
X89481100Y-42182500D01*
X89481100Y-43542500D02*
X88481100Y-43542500D01*
X80050840Y-42685420D02*
X81050840Y-42685420D01*
X81050840Y-44045420D02*
X80050840Y-44045420D01*
D14*
X86473800Y-91046800D02*
X85898800Y-91046800D01*
X86473800Y-105396800D02*
X85798800Y-105396800D01*
X72123800Y-105396800D02*
X72798800Y-105396800D01*
X72123800Y-91046800D02*
X72798800Y-91046800D01*
X86473800Y-91046800D02*
X86473800Y-91721800D01*
X72123800Y-91046800D02*
X72123800Y-91721800D01*
X72123800Y-105396800D02*
X72123800Y-104721800D01*
X86473800Y-105396800D02*
X86473800Y-104721800D01*
X85898800Y-91046800D02*
X85898800Y-89771800D01*
D13*
X72853000Y-76235000D02*
X72853000Y-75235000D01*
X74213000Y-75235000D02*
X74213000Y-76235000D01*
X53678300Y-98604300D02*
X53678300Y-99744300D01*
X53678300Y-99744300D02*
X55778300Y-99744300D01*
X53678300Y-98604300D02*
X55778300Y-98604300D01*
X70343800Y-86253800D02*
X69203800Y-86253800D01*
X69203800Y-86253800D02*
X69203800Y-88353800D01*
X70343800Y-86253800D02*
X70343800Y-88353800D01*
X66712880Y-57894380D02*
X66712880Y-56964380D01*
X66712880Y-54734380D02*
X66712880Y-55664380D01*
X66712880Y-54734380D02*
X64552880Y-54734380D01*
X66712880Y-57894380D02*
X65252880Y-57894380D01*
X61653980Y-54582780D02*
X62653980Y-54582780D01*
X62653980Y-55942780D02*
X61653980Y-55942780D01*
X62663780Y-57936680D02*
X61663780Y-57936680D01*
X61663780Y-56576680D02*
X62663780Y-56576680D01*
X127983800Y-106562400D02*
X127983800Y-108562400D01*
X130943800Y-108562400D02*
X130943800Y-106562400D01*
X127222700Y-111636300D02*
X127222700Y-109636300D01*
X124262700Y-109636300D02*
X124262700Y-111636300D01*
X125790200Y-115664800D02*
X123790200Y-115664800D01*
X123790200Y-118624800D02*
X125790200Y-118624800D01*
X119892600Y-116170000D02*
X119192600Y-116170000D01*
X119192600Y-114970000D02*
X119892600Y-114970000D01*
X104104500Y-101236500D02*
X104104500Y-101936500D01*
X102904500Y-101936500D02*
X102904500Y-101236500D01*
X100064500Y-93416500D02*
X99364500Y-93416500D01*
X99364500Y-92216500D02*
X100064500Y-92216500D01*
X124860800Y-102606400D02*
X124160800Y-102606400D01*
X124160800Y-101406400D02*
X124860800Y-101406400D01*
X104549500Y-93861100D02*
X104549500Y-94561100D01*
X103349500Y-94561100D02*
X103349500Y-93861100D01*
X124873500Y-93005200D02*
X124173500Y-93005200D01*
X124173500Y-91805200D02*
X124873500Y-91805200D01*
X131897600Y-102757200D02*
X131897600Y-103897200D01*
X131897600Y-103897200D02*
X133997600Y-103897200D01*
X131897600Y-102757200D02*
X133997600Y-102757200D01*
X115116500Y-109409000D02*
X115116500Y-108269000D01*
X115116500Y-108269000D02*
X113016500Y-108269000D01*
X115116500Y-109409000D02*
X113016500Y-109409000D01*
X134224800Y-106865000D02*
X133084800Y-106865000D01*
X133084800Y-106865000D02*
X133084800Y-108965000D01*
X134224800Y-106865000D02*
X134224800Y-108965000D01*
X120615600Y-114692200D02*
X120615600Y-113552200D01*
X120615600Y-113552200D02*
X118515600Y-113552200D01*
X120615600Y-114692200D02*
X118515600Y-114692200D01*
X118651500Y-116714500D02*
X118651500Y-117854500D01*
X118651500Y-117854500D02*
X120751500Y-117854500D01*
X118651500Y-116714500D02*
X120751500Y-116714500D01*
X116498500Y-116394600D02*
X116498500Y-114694600D01*
X116498500Y-114694600D02*
X113948500Y-114694600D01*
X116498500Y-116394600D02*
X113948500Y-116394600D01*
X125155400Y-91535800D02*
X124155400Y-91535800D01*
X124155400Y-90175800D02*
X125155400Y-90175800D01*
X130296700Y-103944500D02*
X130296700Y-103014500D01*
X130296700Y-100784500D02*
X130296700Y-101714500D01*
X130296700Y-100784500D02*
X128136700Y-100784500D01*
X130296700Y-103944500D02*
X128836700Y-103944500D01*
X116466780Y-68344000D02*
X115536780Y-68344000D01*
X113306780Y-68344000D02*
X114236780Y-68344000D01*
X113306780Y-68344000D02*
X113306780Y-70504000D01*
X116466780Y-68344000D02*
X116466780Y-69804000D01*
X110617120Y-46056520D02*
X109687120Y-46056520D01*
X107457120Y-46056520D02*
X108387120Y-46056520D01*
X107457120Y-46056520D02*
X107457120Y-48216520D01*
X110617120Y-46056520D02*
X110617120Y-47516520D01*
X103009820Y-46097160D02*
X102079820Y-46097160D01*
X99849820Y-46097160D02*
X100779820Y-46097160D01*
X99849820Y-46097160D02*
X99849820Y-48257160D01*
X103009820Y-46097160D02*
X103009820Y-47557160D01*
X101300400Y-68259420D02*
X100370400Y-68259420D01*
X98140400Y-68259420D02*
X99070400Y-68259420D01*
X98140400Y-68259420D02*
X98140400Y-70419420D01*
X101300400Y-68259420D02*
X101300400Y-69719420D01*
X108961040Y-68291680D02*
X108031040Y-68291680D01*
X105801040Y-68291680D02*
X106731040Y-68291680D01*
X105801040Y-68291680D02*
X105801040Y-70451680D01*
X108961040Y-68291680D02*
X108961040Y-69751680D01*
X116001680Y-54709600D02*
X116931680Y-54709600D01*
X119161680Y-54709600D02*
X118231680Y-54709600D01*
X119161680Y-54709600D02*
X119161680Y-52549600D01*
X116001680Y-54709600D02*
X116001680Y-53249600D01*
X133926200Y-102356200D02*
X132926200Y-102356200D01*
X132926200Y-100996200D02*
X133926200Y-100996200D01*
X112489700Y-112178900D02*
X112489700Y-111178900D01*
X113849700Y-111178900D02*
X113849700Y-112178900D01*
X131209500Y-108734300D02*
X131209500Y-107734300D01*
X132569500Y-107734300D02*
X132569500Y-108734300D01*
X123134500Y-114102600D02*
X124134500Y-114102600D01*
X124134500Y-115462600D02*
X123134500Y-115462600D01*
X118437100Y-109684100D02*
X117437100Y-109684100D01*
X117437100Y-108324100D02*
X118437100Y-108324100D01*
X115513400Y-111166200D02*
X115513400Y-112166200D01*
X114153400Y-112166200D02*
X114153400Y-111166200D01*
X125112400Y-95472800D02*
X124112400Y-95472800D01*
X124112400Y-94112800D02*
X125112400Y-94112800D01*
X101707400Y-69270320D02*
X101707400Y-68270320D01*
X103067400Y-68270320D02*
X103067400Y-69270320D01*
X109393440Y-69305880D02*
X109393440Y-68305880D01*
X110753440Y-68305880D02*
X110753440Y-69305880D01*
X117010900Y-69384800D02*
X117010900Y-68384800D01*
X118370900Y-68384800D02*
X118370900Y-69384800D01*
X111151120Y-47096120D02*
X111151120Y-46096120D01*
X112511120Y-46096120D02*
X112511120Y-47096120D01*
X103493020Y-47098660D02*
X103493020Y-46098660D01*
X104853020Y-46098660D02*
X104853020Y-47098660D01*
X107140032Y-76221938D02*
X108140032Y-76221938D01*
X108140032Y-77581938D02*
X107140032Y-77581938D01*
X97593700Y-68235120D02*
X97593700Y-69235120D01*
X96233700Y-69235120D02*
X96233700Y-68235120D01*
X105203540Y-68308780D02*
X105203540Y-69308780D01*
X103843540Y-69308780D02*
X103843540Y-68308780D01*
X112724480Y-68354500D02*
X112724480Y-69354500D01*
X111364480Y-69354500D02*
X111364480Y-68354500D01*
X106948520Y-46048220D02*
X106948520Y-47048220D01*
X105588520Y-47048220D02*
X105588520Y-46048220D01*
X99265020Y-46076160D02*
X99265020Y-47076160D01*
X97905020Y-47076160D02*
X97905020Y-46076160D01*
X108178132Y-79194838D02*
X107178132Y-79194838D01*
X107178132Y-77834838D02*
X108178132Y-77834838D01*
X100152000Y-67210220D02*
X99152000Y-67210220D01*
X99152000Y-65850220D02*
X100152000Y-65850220D01*
X106792140Y-65834980D02*
X107792140Y-65834980D01*
X107792140Y-67194980D02*
X106792140Y-67194980D01*
X114330680Y-65906100D02*
X115330680Y-65906100D01*
X115330680Y-67266100D02*
X114330680Y-67266100D01*
X108557620Y-43587120D02*
X109557620Y-43587120D01*
X109557620Y-44947120D02*
X108557620Y-44947120D01*
X100848720Y-43640460D02*
X101848720Y-43640460D01*
X101848720Y-45000460D02*
X100848720Y-45000460D01*
X114496300Y-76225200D02*
X114496300Y-75225200D01*
X115856300Y-75225200D02*
X115856300Y-76225200D01*
X119543280Y-53941600D02*
X119543280Y-52941600D01*
X120903280Y-52941600D02*
X120903280Y-53941600D01*
X118181680Y-55822300D02*
X119181680Y-55822300D01*
X119181680Y-57182300D02*
X118181680Y-57182300D01*
D14*
X120814600Y-91224600D02*
X120239600Y-91224600D01*
X120814600Y-105574600D02*
X120139600Y-105574600D01*
X106464600Y-105574600D02*
X107139600Y-105574600D01*
X106464600Y-91224600D02*
X107139600Y-91224600D01*
X120814600Y-91224600D02*
X120814600Y-91899600D01*
X106464600Y-91224600D02*
X106464600Y-91899600D01*
X106464600Y-105574600D02*
X106464600Y-104899600D01*
X120814600Y-105574600D02*
X120814600Y-104899600D01*
X120239600Y-91224600D02*
X120239600Y-89949600D01*
D13*
X103144100Y-110421500D02*
X103144100Y-109491500D01*
X103144100Y-107261500D02*
X103144100Y-108191500D01*
X103144100Y-107261500D02*
X100984100Y-107261500D01*
X103144100Y-110421500D02*
X101684100Y-110421500D01*
X103131400Y-106593800D02*
X103131400Y-105663800D01*
X103131400Y-103433800D02*
X103131400Y-104363800D01*
X103131400Y-103433800D02*
X100971400Y-103433800D01*
X103131400Y-106593800D02*
X101671400Y-106593800D01*
X97925000Y-110813300D02*
X98925000Y-110813300D01*
X98925000Y-112173300D02*
X97925000Y-112173300D01*
X103154100Y-112236800D02*
X102154100Y-112236800D01*
X102154100Y-110876800D02*
X103154100Y-110876800D01*
X99425000Y-103235400D02*
X97425000Y-103235400D01*
X97425000Y-103235400D02*
X97425000Y-107085400D01*
X99425000Y-103235400D02*
X99425000Y-107085400D01*
X59854500Y-94476500D02*
X59854500Y-94176500D01*
X59854500Y-94176500D02*
X67254500Y-94176500D01*
X67254500Y-94176500D02*
X67254500Y-94476500D01*
X59354500Y-99276500D02*
X59854500Y-99276500D01*
X59854500Y-99276500D02*
X59854500Y-99576500D01*
X59854500Y-99576500D02*
X67254500Y-99576500D01*
X67254500Y-99576500D02*
X67254500Y-99276500D01*
X59354500Y-97176500D02*
X59854500Y-97176500D01*
X59854500Y-97176500D02*
X59854500Y-96576500D01*
X67254500Y-96576500D02*
X67254500Y-97176500D01*
X97104500Y-101626500D02*
X96804500Y-101626500D01*
X96804500Y-101626500D02*
X96804500Y-94226500D01*
X96804500Y-94226500D02*
X97104500Y-94226500D01*
X101904500Y-102126500D02*
X101904500Y-101626500D01*
X101904500Y-101626500D02*
X102204500Y-101626500D01*
X102204500Y-101626500D02*
X102204500Y-94226500D01*
X102204500Y-94226500D02*
X101904500Y-94226500D01*
X99804500Y-102126500D02*
X99804500Y-101626500D01*
X99804500Y-101626500D02*
X99204500Y-101626500D01*
X99204500Y-94226500D02*
X99804500Y-94226500D01*
X58254500Y-101426500D02*
X59454500Y-101426500D01*
X59454500Y-103186500D02*
X58254500Y-103186500D01*
%LPC*%
D15*
X55500000Y-114490000D03*
X131500000Y-114490000D03*
X131500000Y-38490000D03*
D16*
X72999100Y-111934342D03*
X68999100Y-111934342D03*
D17*
X61112400Y-110235500D03*
X61112400Y-106235500D03*
D16*
X63195700Y-115811300D03*
X67195700Y-115811300D03*
D18*
X58572400Y-109753400D03*
X56672400Y-109753400D03*
X66532800Y-100507800D03*
X64632800Y-100507800D03*
X66659800Y-93141800D03*
X64759800Y-93141800D03*
X69453800Y-90601800D03*
X67553800Y-90601800D03*
D19*
X69265800Y-93334800D03*
X69265800Y-95234800D03*
X89115900Y-103858100D03*
X89115900Y-101958100D03*
D18*
X91196200Y-93637100D03*
X89296200Y-93637100D03*
D20*
X55923000Y-106692700D03*
X58123000Y-106692700D03*
D21*
X59912600Y-73621900D03*
X62712600Y-73621900D03*
X59912600Y-71081900D03*
X62712600Y-71081900D03*
X59912600Y-68795900D03*
X62712600Y-68795900D03*
X124694600Y-71843900D03*
X121894600Y-71843900D03*
X124688600Y-74383900D03*
X121888600Y-74383900D03*
X124688600Y-76923900D03*
X121888600Y-76923900D03*
X124688600Y-69303900D03*
X121888600Y-69303900D03*
D22*
X91698900Y-95211900D03*
X93898900Y-95211900D03*
D23*
X87711320Y-68398640D03*
X85811320Y-68398640D03*
X86761320Y-70398640D03*
X87797600Y-46351700D03*
X89697600Y-46351700D03*
X88747600Y-44351700D03*
X79354640Y-46876720D03*
X81254640Y-46876720D03*
X80304640Y-44876720D03*
X81752400Y-78652880D03*
X83652400Y-78652880D03*
X82702400Y-76652880D03*
X79984600Y-67640200D03*
X78084600Y-67640200D03*
X79034600Y-69640200D03*
D22*
X57439200Y-104000300D03*
X59639200Y-104000300D03*
X97620000Y-109499400D03*
X95420000Y-109499400D03*
D24*
X63449200Y-106557900D03*
X63449200Y-108757900D03*
D22*
X52463700Y-108750100D03*
X54663700Y-108750100D03*
D24*
X71297800Y-86242800D03*
X71297800Y-88442800D03*
X91465400Y-100012500D03*
X91465400Y-102212500D03*
D22*
X80515100Y-80218280D03*
X82715100Y-80218280D03*
X81181300Y-66128900D03*
X78981300Y-66128900D03*
X83540600Y-66141600D03*
X85740600Y-66141600D03*
X86588600Y-47891700D03*
X88788600Y-47891700D03*
D24*
X82946240Y-47754720D03*
X82946240Y-45554720D03*
X80124300Y-78536980D03*
X80124300Y-76336980D03*
X81584800Y-67779900D03*
X81584800Y-69979900D03*
X89636600Y-68363920D03*
X89636600Y-70563920D03*
X86194900Y-46197700D03*
X86194900Y-43997700D03*
X77751940Y-46733820D03*
X77751940Y-44533820D03*
X85293200Y-79006880D03*
X85293200Y-76806880D03*
X76479400Y-67322700D03*
X76479400Y-69522700D03*
X84195920Y-68046240D03*
X84195920Y-70246240D03*
D22*
X90081100Y-42862500D03*
X87881100Y-42862500D03*
X81650840Y-43365420D03*
X79450840Y-43365420D03*
D25*
X85298800Y-90521800D03*
X84498800Y-90521800D03*
X83698800Y-90521800D03*
X82898800Y-90521800D03*
X82098800Y-90521800D03*
X81298800Y-90521800D03*
X80498800Y-90521800D03*
X79698800Y-90521800D03*
X78898800Y-90521800D03*
X78098800Y-90521800D03*
X77298800Y-90521800D03*
X76498800Y-90521800D03*
X75698800Y-90521800D03*
X74898800Y-90521800D03*
X74098800Y-90521800D03*
X73298800Y-90521800D03*
D26*
X71598800Y-92221800D03*
X71598800Y-93021800D03*
X71598800Y-93821800D03*
X71598800Y-94621800D03*
X71598800Y-95421800D03*
X71598800Y-96221800D03*
X71598800Y-97021800D03*
X71598800Y-97821800D03*
X71598800Y-98621800D03*
X71598800Y-99421800D03*
X71598800Y-100221800D03*
X71598800Y-101021800D03*
X71598800Y-101821800D03*
X71598800Y-102621800D03*
X71598800Y-103421800D03*
X71598800Y-104221800D03*
D25*
X73298800Y-105921800D03*
X74098800Y-105921800D03*
X74898800Y-105921800D03*
X75698800Y-105921800D03*
X76498800Y-105921800D03*
X77298800Y-105921800D03*
X78098800Y-105921800D03*
X78898800Y-105921800D03*
X79698800Y-105921800D03*
X80498800Y-105921800D03*
X81298800Y-105921800D03*
X82098800Y-105921800D03*
X82898800Y-105921800D03*
X83698800Y-105921800D03*
X84498800Y-105921800D03*
X85298800Y-105921800D03*
D26*
X86998800Y-104221800D03*
X86998800Y-103421800D03*
X86998800Y-102621800D03*
X86998800Y-101821800D03*
X86998800Y-101021800D03*
X86998800Y-100221800D03*
X86998800Y-99421800D03*
X86998800Y-98621800D03*
X86998800Y-97821800D03*
X86998800Y-97021800D03*
X86998800Y-96221800D03*
X86998800Y-95421800D03*
X86998800Y-94621800D03*
X86998800Y-93821800D03*
X86998800Y-93021800D03*
X86998800Y-92221800D03*
D24*
X73533000Y-74635000D03*
X73533000Y-76835000D03*
D27*
X54695400Y-101739700D03*
X54045400Y-101739700D03*
X53395400Y-101739700D03*
X52745400Y-101739700D03*
X52745400Y-106769700D03*
X53395400Y-106769700D03*
X54045400Y-106769700D03*
X54695400Y-106769700D03*
D28*
X54128300Y-99174300D03*
X55828300Y-99174300D03*
D29*
X69773800Y-86703800D03*
X69773800Y-88403800D03*
D30*
X134278000Y-53555900D03*
X133008000Y-53555900D03*
X131738000Y-53555900D03*
X130468000Y-53555900D03*
X134278000Y-54825900D03*
X131738000Y-54825900D03*
X133008000Y-54825900D03*
X130468000Y-54825900D03*
X134278000Y-56095900D03*
X133008000Y-56095900D03*
X131738000Y-56095900D03*
X130468000Y-56095900D03*
X134278000Y-57365900D03*
X133008000Y-57365900D03*
X131738000Y-57365900D03*
X130468000Y-57365900D03*
X134278000Y-58635900D03*
X133008000Y-58635900D03*
X131738000Y-58635900D03*
X130468000Y-58635900D03*
X134278000Y-59905900D03*
X133008000Y-59905900D03*
X131738000Y-59905900D03*
X130468000Y-59905900D03*
X134278000Y-61175900D03*
X133008000Y-61175900D03*
X131738000Y-61175900D03*
X130468000Y-61175900D03*
X134278000Y-62445900D03*
X133008000Y-62445900D03*
X131738000Y-62445900D03*
X130468000Y-62445900D03*
X134278000Y-63715900D03*
X133008000Y-63715900D03*
X131738000Y-63715900D03*
X130468000Y-63715900D03*
X134278000Y-64985900D03*
X133008000Y-64985900D03*
X131738000Y-64985900D03*
X130468000Y-64985900D03*
X134278000Y-66255900D03*
X133008000Y-66255900D03*
X131738000Y-66255900D03*
X130468000Y-66255900D03*
X134278000Y-67525900D03*
X133008000Y-67525900D03*
X131738000Y-67525900D03*
X130468000Y-67525900D03*
X134278000Y-68795900D03*
X133008000Y-68795900D03*
X131738000Y-68795900D03*
X130468000Y-68795900D03*
X134278000Y-70065900D03*
X133008000Y-70065900D03*
X131738000Y-70065900D03*
X130468000Y-70065900D03*
X134278000Y-71335900D03*
X133008000Y-71335900D03*
X131738000Y-71335900D03*
X130468000Y-71335900D03*
X134278000Y-72605900D03*
X133008000Y-72605900D03*
X131738000Y-72605900D03*
X130468000Y-72605900D03*
X134278000Y-73875900D03*
X133008000Y-73875900D03*
X131738000Y-73875900D03*
X130468000Y-73875900D03*
X134278000Y-75145900D03*
X133008000Y-75145900D03*
X131738000Y-75145900D03*
X130468000Y-75145900D03*
X134278000Y-76415900D03*
X133008000Y-76415900D03*
X131738000Y-76415900D03*
X130468000Y-76415900D03*
X134278000Y-77685900D03*
X133008000Y-77685900D03*
X131738000Y-77685900D03*
X130468000Y-77685900D03*
X134278000Y-78955900D03*
X133008000Y-78955900D03*
X131738000Y-78955900D03*
X130468000Y-78955900D03*
X134278000Y-80225900D03*
X133008000Y-80225900D03*
X131738000Y-80225900D03*
X130468000Y-80225900D03*
X134278000Y-81495900D03*
X133008000Y-81495900D03*
X131738000Y-81495900D03*
X130468000Y-81495900D03*
X134278000Y-82765900D03*
X133008000Y-82765900D03*
X130468000Y-82765900D03*
X131738000Y-82765900D03*
X134278000Y-84035900D03*
X133008000Y-84035900D03*
X131738000Y-84035900D03*
X130468000Y-84035900D03*
X134278000Y-85305900D03*
X133008000Y-85305900D03*
X131738000Y-85305900D03*
X130468000Y-85305900D03*
X134278000Y-86575900D03*
X133008000Y-86575900D03*
X131738000Y-86575900D03*
X130468000Y-86575900D03*
X134278000Y-87845900D03*
X133008000Y-87845900D03*
X131738000Y-87845900D03*
X130468000Y-87845900D03*
X134278000Y-89115900D03*
X133008000Y-89115900D03*
X131738000Y-89115900D03*
X130468000Y-89115900D03*
X134278000Y-90385900D03*
X133008000Y-90385900D03*
X131738000Y-90385900D03*
X130468000Y-90385900D03*
D31*
X132373000Y-54190900D03*
X132373000Y-54190900D03*
X132373000Y-54190900D03*
X132373000Y-54190900D03*
X132373000Y-89750900D03*
D32*
X134278000Y-53555900D03*
X134278000Y-54825900D03*
X134278000Y-56095900D03*
X134278000Y-57365900D03*
X134278000Y-58635900D03*
X134278000Y-59905900D03*
X134278000Y-61175900D03*
X134278000Y-62445900D03*
X134278000Y-63715900D03*
X134278000Y-64985900D03*
X134278000Y-66255900D03*
X134278000Y-67525900D03*
X134278000Y-68795900D03*
X134278000Y-70065900D03*
X134278000Y-71335900D03*
X134278000Y-72605900D03*
X134278000Y-73875900D03*
X134278000Y-75145900D03*
X134278000Y-76415900D03*
X134278000Y-77685900D03*
X134278000Y-78955900D03*
X134278000Y-80225900D03*
X134278000Y-81495900D03*
X134278000Y-82765900D03*
X134278000Y-84035900D03*
X134278000Y-85305900D03*
X134278000Y-86575900D03*
X134278000Y-87845900D03*
X134278000Y-89115900D03*
X134278000Y-90385900D03*
X130468000Y-53555900D03*
X130468000Y-54825900D03*
X130468000Y-56095900D03*
X130468000Y-57365900D03*
X130468000Y-58635900D03*
X130468000Y-59905900D03*
X130468000Y-61175900D03*
X130468000Y-62445900D03*
X130468000Y-63715900D03*
X130468000Y-64985900D03*
X130468000Y-66255900D03*
X130468000Y-67525900D03*
X130468000Y-68795900D03*
X130468000Y-70065900D03*
X130468000Y-71335900D03*
X130468000Y-72605900D03*
X130468000Y-73875900D03*
X130468000Y-75145900D03*
X130468000Y-76415900D03*
X130468000Y-77685900D03*
X130468000Y-78955900D03*
X130468000Y-80225900D03*
X130468000Y-81495900D03*
X130468000Y-82765900D03*
X130468000Y-84035900D03*
X130468000Y-85305900D03*
X130468000Y-86575900D03*
X130468000Y-87845900D03*
X130468000Y-89115900D03*
X130468000Y-90385900D03*
X132373000Y-56095900D03*
X132373000Y-57365900D03*
X132373000Y-58635900D03*
X132373000Y-59905900D03*
X132373000Y-61175900D03*
X132373000Y-62445900D03*
X132373000Y-63715900D03*
X132373000Y-64985900D03*
X132373000Y-66255900D03*
X132373000Y-67525900D03*
X132373000Y-68795900D03*
X132373000Y-70065900D03*
X132373000Y-71335900D03*
X132373000Y-72605900D03*
X132373000Y-73875900D03*
X132373000Y-75145900D03*
X132373000Y-76415900D03*
X132373000Y-77685900D03*
X132373000Y-78955900D03*
X132373000Y-80225900D03*
X132373000Y-81495900D03*
X132373000Y-82765900D03*
X132373000Y-84035900D03*
X132373000Y-85305900D03*
X132373000Y-86575900D03*
X132373000Y-87845900D03*
D33*
X132373000Y-53428900D03*
X132246000Y-90512900D03*
X132246000Y-88988900D03*
X132246000Y-54952900D03*
D30*
X56278000Y-53555900D03*
X55008000Y-53555900D03*
X53738000Y-53555900D03*
X52468000Y-53555900D03*
X56278000Y-54825900D03*
X53738000Y-54825900D03*
X55008000Y-54825900D03*
X52468000Y-54825900D03*
X56278000Y-56095900D03*
X55008000Y-56095900D03*
X53738000Y-56095900D03*
X52468000Y-56095900D03*
X56278000Y-57365900D03*
X55008000Y-57365900D03*
X53738000Y-57365900D03*
X52468000Y-57365900D03*
X56278000Y-58635900D03*
X55008000Y-58635900D03*
X53738000Y-58635900D03*
X52468000Y-58635900D03*
X56278000Y-59905900D03*
X55008000Y-59905900D03*
X53738000Y-59905900D03*
X52468000Y-59905900D03*
X56278000Y-61175900D03*
X55008000Y-61175900D03*
X53738000Y-61175900D03*
X52468000Y-61175900D03*
X56278000Y-62445900D03*
X55008000Y-62445900D03*
X53738000Y-62445900D03*
X52468000Y-62445900D03*
X56278000Y-63715900D03*
X55008000Y-63715900D03*
X53738000Y-63715900D03*
X52468000Y-63715900D03*
X56278000Y-64985900D03*
X55008000Y-64985900D03*
X53738000Y-64985900D03*
X52468000Y-64985900D03*
X56278000Y-66255900D03*
X55008000Y-66255900D03*
X53738000Y-66255900D03*
X52468000Y-66255900D03*
X56278000Y-67525900D03*
X55008000Y-67525900D03*
X53738000Y-67525900D03*
X52468000Y-67525900D03*
X56278000Y-68795900D03*
X55008000Y-68795900D03*
X53738000Y-68795900D03*
X52468000Y-68795900D03*
X56278000Y-70065900D03*
X55008000Y-70065900D03*
X53738000Y-70065900D03*
X52468000Y-70065900D03*
X56278000Y-71335900D03*
X55008000Y-71335900D03*
X53738000Y-71335900D03*
X52468000Y-71335900D03*
X56278000Y-72605900D03*
X55008000Y-72605900D03*
X53738000Y-72605900D03*
X52468000Y-72605900D03*
X56278000Y-73875900D03*
X55008000Y-73875900D03*
X53738000Y-73875900D03*
X52468000Y-73875900D03*
X56278000Y-75145900D03*
X55008000Y-75145900D03*
X53738000Y-75145900D03*
X52468000Y-75145900D03*
X56278000Y-76415900D03*
X55008000Y-76415900D03*
X53738000Y-76415900D03*
X52468000Y-76415900D03*
X56278000Y-77685900D03*
X55008000Y-77685900D03*
X53738000Y-77685900D03*
X52468000Y-77685900D03*
X56278000Y-78955900D03*
X55008000Y-78955900D03*
X53738000Y-78955900D03*
X52468000Y-78955900D03*
X56278000Y-80225900D03*
X55008000Y-80225900D03*
X53738000Y-80225900D03*
X52468000Y-80225900D03*
X56278000Y-81495900D03*
X55008000Y-81495900D03*
X53738000Y-81495900D03*
X52468000Y-81495900D03*
X56278000Y-82765900D03*
X55008000Y-82765900D03*
X52468000Y-82765900D03*
X53738000Y-82765900D03*
X56278000Y-84035900D03*
X55008000Y-84035900D03*
X53738000Y-84035900D03*
X52468000Y-84035900D03*
X56278000Y-85305900D03*
X55008000Y-85305900D03*
X53738000Y-85305900D03*
X52468000Y-85305900D03*
X56278000Y-86575900D03*
X55008000Y-86575900D03*
X53738000Y-86575900D03*
X52468000Y-86575900D03*
X56278000Y-87845900D03*
X55008000Y-87845900D03*
X53738000Y-87845900D03*
X52468000Y-87845900D03*
X56278000Y-89115900D03*
X55008000Y-89115900D03*
X53738000Y-89115900D03*
X52468000Y-89115900D03*
X56278000Y-90385900D03*
X55008000Y-90385900D03*
X53738000Y-90385900D03*
X52468000Y-90385900D03*
D31*
X54373000Y-54190900D03*
X54373000Y-54190900D03*
X54373000Y-54190900D03*
X54373000Y-54190900D03*
X54373000Y-89750900D03*
D32*
X56278000Y-53555900D03*
X56278000Y-54825900D03*
X56278000Y-56095900D03*
X56278000Y-57365900D03*
X56278000Y-58635900D03*
X56278000Y-59905900D03*
X56278000Y-61175900D03*
X56278000Y-62445900D03*
X56278000Y-63715900D03*
X56278000Y-64985900D03*
X56278000Y-66255900D03*
X56278000Y-67525900D03*
X56278000Y-68795900D03*
X56278000Y-70065900D03*
X56278000Y-71335900D03*
X56278000Y-72605900D03*
X56278000Y-73875900D03*
X56278000Y-75145900D03*
X56278000Y-76415900D03*
X56278000Y-77685900D03*
X56278000Y-78955900D03*
X56278000Y-80225900D03*
X56278000Y-81495900D03*
X56278000Y-82765900D03*
X56278000Y-84035900D03*
X56278000Y-85305900D03*
X56278000Y-86575900D03*
X56278000Y-87845900D03*
X56278000Y-89115900D03*
X56278000Y-90385900D03*
X52468000Y-53555900D03*
X52468000Y-54825900D03*
X52468000Y-56095900D03*
X52468000Y-57365900D03*
X52468000Y-58635900D03*
X52468000Y-59905900D03*
X52468000Y-61175900D03*
X52468000Y-62445900D03*
X52468000Y-63715900D03*
X52468000Y-64985900D03*
X52468000Y-66255900D03*
X52468000Y-67525900D03*
X52468000Y-68795900D03*
X52468000Y-70065900D03*
X52468000Y-71335900D03*
X52468000Y-72605900D03*
X52468000Y-73875900D03*
X52468000Y-75145900D03*
X52468000Y-76415900D03*
X52468000Y-77685900D03*
X52468000Y-78955900D03*
X52468000Y-80225900D03*
X52468000Y-81495900D03*
X52468000Y-82765900D03*
X52468000Y-84035900D03*
X52468000Y-85305900D03*
X52468000Y-86575900D03*
X52468000Y-87845900D03*
X52468000Y-89115900D03*
X52468000Y-90385900D03*
X54373000Y-56095900D03*
X54373000Y-57365900D03*
X54373000Y-58635900D03*
X54373000Y-59905900D03*
X54373000Y-61175900D03*
X54373000Y-62445900D03*
X54373000Y-63715900D03*
X54373000Y-64985900D03*
X54373000Y-66255900D03*
X54373000Y-67525900D03*
X54373000Y-68795900D03*
X54373000Y-70065900D03*
X54373000Y-71335900D03*
X54373000Y-72605900D03*
X54373000Y-73875900D03*
X54373000Y-75145900D03*
X54373000Y-76415900D03*
X54373000Y-77685900D03*
X54373000Y-78955900D03*
X54373000Y-80225900D03*
X54373000Y-81495900D03*
X54373000Y-82765900D03*
X54373000Y-84035900D03*
X54373000Y-85305900D03*
X54373000Y-86575900D03*
X54373000Y-87845900D03*
D33*
X54373000Y-53428900D03*
X54246000Y-90512900D03*
X54246000Y-88988900D03*
X54246000Y-54952900D03*
D15*
X55500000Y-38490000D03*
D34*
X64952880Y-55364380D03*
X64952880Y-57264380D03*
X66952880Y-56314380D03*
D22*
X63253980Y-55262780D03*
X61053980Y-55262780D03*
X61063780Y-57256680D03*
X63263780Y-57256680D03*
D35*
X61716920Y-49952100D03*
D36*
X66916920Y-48652100D03*
X65616920Y-48652100D03*
X61716920Y-48652100D03*
X63016920Y-48652100D03*
X64316920Y-48652100D03*
D35*
X61716920Y-47352100D03*
X63016920Y-47352100D03*
X64316920Y-47352100D03*
X65616920Y-47352100D03*
X66916920Y-47352100D03*
X66916920Y-49952100D03*
X65616920Y-49952100D03*
X64316920Y-49952100D03*
X63016920Y-49952100D03*
D17*
X129463800Y-109562400D03*
X129463800Y-105562400D03*
X125742700Y-108636300D03*
X125742700Y-112636300D03*
D16*
X122790200Y-117144800D03*
X126790200Y-117144800D03*
D18*
X120492600Y-115570000D03*
X118592600Y-115570000D03*
D19*
X103504500Y-100636500D03*
X103504500Y-102536500D03*
D18*
X100664500Y-92816500D03*
X98764500Y-92816500D03*
X125460800Y-102006400D03*
X123560800Y-102006400D03*
D19*
X103949500Y-93261100D03*
X103949500Y-95161100D03*
D18*
X125473500Y-92405200D03*
X123573500Y-92405200D03*
D28*
X132347600Y-103327200D03*
X134047600Y-103327200D03*
X114666500Y-108839000D03*
X112966500Y-108839000D03*
D29*
X133654800Y-107315000D03*
X133654800Y-109015000D03*
D28*
X120165600Y-114122200D03*
X118465600Y-114122200D03*
X119101500Y-117284500D03*
X120801500Y-117284500D03*
D20*
X116098500Y-115544600D03*
X113898500Y-115544600D03*
D22*
X123555400Y-90855800D03*
X125755400Y-90855800D03*
D34*
X128536700Y-101414500D03*
X128536700Y-103314500D03*
X130536700Y-102364500D03*
D23*
X113936780Y-70104000D03*
X115836780Y-70104000D03*
X114886780Y-68104000D03*
X108087120Y-47816520D03*
X109987120Y-47816520D03*
X109037120Y-45816520D03*
X100479820Y-47857160D03*
X102379820Y-47857160D03*
X101429820Y-45857160D03*
X98770400Y-70019420D03*
X100670400Y-70019420D03*
X99720400Y-68019420D03*
X106431040Y-70051680D03*
X108331040Y-70051680D03*
X107381040Y-68051680D03*
X118531680Y-52949600D03*
X116631680Y-52949600D03*
X117581680Y-54949600D03*
D22*
X132326200Y-101676200D03*
X134526200Y-101676200D03*
D24*
X113169700Y-110578900D03*
X113169700Y-112778900D03*
X131889500Y-107134300D03*
X131889500Y-109334300D03*
D22*
X124734500Y-114782600D03*
X122534500Y-114782600D03*
X116837100Y-109004100D03*
X119037100Y-109004100D03*
D24*
X114833400Y-112766200D03*
X114833400Y-110566200D03*
D22*
X123512400Y-94792800D03*
X125712400Y-94792800D03*
D24*
X102387400Y-67670320D03*
X102387400Y-69870320D03*
X110073440Y-67705880D03*
X110073440Y-69905880D03*
X117690900Y-67784800D03*
X117690900Y-69984800D03*
X111831120Y-45496120D03*
X111831120Y-47696120D03*
X104173020Y-45498660D03*
X104173020Y-47698660D03*
D22*
X108740032Y-76901938D03*
X106540032Y-76901938D03*
D24*
X96913700Y-69835120D03*
X96913700Y-67635120D03*
X104523540Y-69908780D03*
X104523540Y-67708780D03*
X112044480Y-69954500D03*
X112044480Y-67754500D03*
X106268520Y-47648220D03*
X106268520Y-45448220D03*
X98585020Y-47676160D03*
X98585020Y-45476160D03*
D22*
X106578132Y-78514838D03*
X108778132Y-78514838D03*
X98552000Y-66530220D03*
X100752000Y-66530220D03*
X108392140Y-66514980D03*
X106192140Y-66514980D03*
X115930680Y-66586100D03*
X113730680Y-66586100D03*
X110157620Y-44267120D03*
X107957620Y-44267120D03*
X102448720Y-44320460D03*
X100248720Y-44320460D03*
D24*
X115176300Y-74625200D03*
X115176300Y-76825200D03*
X120223280Y-52341600D03*
X120223280Y-54541600D03*
D22*
X119781680Y-56502300D03*
X117581680Y-56502300D03*
D37*
X121856500Y-112636300D03*
X121856500Y-111986300D03*
X121856500Y-111336300D03*
X121856500Y-110686300D03*
X116826500Y-110686300D03*
X116826500Y-111336300D03*
X116826500Y-111986300D03*
X116826500Y-112636300D03*
D25*
X119639600Y-90699600D03*
X118839600Y-90699600D03*
X118039600Y-90699600D03*
X117239600Y-90699600D03*
X116439600Y-90699600D03*
X115639600Y-90699600D03*
X114839600Y-90699600D03*
X114039600Y-90699600D03*
X113239600Y-90699600D03*
X112439600Y-90699600D03*
X111639600Y-90699600D03*
X110839600Y-90699600D03*
X110039600Y-90699600D03*
X109239600Y-90699600D03*
X108439600Y-90699600D03*
X107639600Y-90699600D03*
D26*
X105939600Y-92399600D03*
X105939600Y-93199600D03*
X105939600Y-93999600D03*
X105939600Y-94799600D03*
X105939600Y-95599600D03*
X105939600Y-96399600D03*
X105939600Y-97199600D03*
X105939600Y-97999600D03*
X105939600Y-98799600D03*
X105939600Y-99599600D03*
X105939600Y-100399600D03*
X105939600Y-101199600D03*
X105939600Y-101999600D03*
X105939600Y-102799600D03*
X105939600Y-103599600D03*
X105939600Y-104399600D03*
D25*
X107639600Y-106099600D03*
X108439600Y-106099600D03*
X109239600Y-106099600D03*
X110039600Y-106099600D03*
X110839600Y-106099600D03*
X111639600Y-106099600D03*
X112439600Y-106099600D03*
X113239600Y-106099600D03*
X114039600Y-106099600D03*
X114839600Y-106099600D03*
X115639600Y-106099600D03*
X116439600Y-106099600D03*
X117239600Y-106099600D03*
X118039600Y-106099600D03*
X118839600Y-106099600D03*
X119639600Y-106099600D03*
D26*
X121339600Y-104399600D03*
X121339600Y-103599600D03*
X121339600Y-102799600D03*
X121339600Y-101999600D03*
X121339600Y-101199600D03*
X121339600Y-100399600D03*
X121339600Y-99599600D03*
X121339600Y-98799600D03*
X121339600Y-97999600D03*
X121339600Y-97199600D03*
X121339600Y-96399600D03*
X121339600Y-95599600D03*
X121339600Y-94799600D03*
X121339600Y-93999600D03*
X121339600Y-93199600D03*
X121339600Y-92399600D03*
D35*
X116004820Y-47964880D03*
D36*
X121204820Y-46664880D03*
X119904820Y-46664880D03*
X116004820Y-46664880D03*
X117304820Y-46664880D03*
X118604820Y-46664880D03*
D35*
X116004820Y-45364880D03*
X117304820Y-45364880D03*
X118604820Y-45364880D03*
X119904820Y-45364880D03*
X121204820Y-45364880D03*
X121204820Y-47964880D03*
X119904820Y-47964880D03*
X118604820Y-47964880D03*
X117304820Y-47964880D03*
D34*
X101384100Y-107891500D03*
X101384100Y-109791500D03*
X103384100Y-108841500D03*
X101371400Y-104063800D03*
X101371400Y-105963800D03*
X103371400Y-105013800D03*
D22*
X99525000Y-111493300D03*
X97325000Y-111493300D03*
X101554100Y-111556800D03*
X103754100Y-111556800D03*
D21*
X98425000Y-104035400D03*
X98425000Y-106835400D03*
D38*
X91046300Y-77609700D03*
X91046300Y-82689700D03*
X96126300Y-82689700D03*
X96126300Y-77609700D03*
D39*
X93586300Y-80149700D03*
D38*
X91059000Y-86093300D03*
X91059000Y-91173300D03*
X96139000Y-91173300D03*
X96139000Y-86093300D03*
D39*
X93599000Y-88633300D03*
D40*
X94996000Y-99021900D03*
D41*
X94996000Y-101561900D03*
X94996000Y-104101900D03*
D42*
X60604500Y-98226500D03*
X66504500Y-98226500D03*
X66504500Y-95526500D03*
X60604500Y-95526500D03*
D43*
X100854500Y-100876500D03*
X100854500Y-94976500D03*
X98154500Y-94976500D03*
X98154500Y-100876500D03*
D44*
X60204500Y-102306500D03*
X57504500Y-102306500D03*
M02*
