<?xml version="1.0" standalone="no"?>
 <!DOCTYPE svg PUBLIC "-//W3C//DTD SVG 1.1//EN" 
 "http://www.w3.org/Graphics/SVG/1.1/DTD/svg11.dtd"> 
<svg xmlns="http://www.w3.org/2000/svg" version="1.1" 
    width="12.3469cm" height="10.6223cm" viewBox="0 0 48610 41820 ">
<title>SVG Picture created as cubesatFunkmodul-brd.svg date 2017/12/19 00:51:28 </title>
  <desc>Picture generated by PCBNEW </desc>
<g style="fill:#000000; fill-opacity:1;stroke:#000000; stroke-opacity:1;
stroke-linecap:round; stroke-linejoin:round; "
 transform="translate(0 0) scale(1 1)">
</g>
<g style="fill:#000000; fill-opacity:0.0; 
stroke:#000000; stroke-width:-0.000393701; stroke-opacity:1; 
stroke-linecap:round; stroke-linejoin:round;">
</g>
<g style="fill:#000000; fill-opacity:0.0; 
stroke:#000000; stroke-width:78.7402; stroke-opacity:1; 
stroke-linecap:round; stroke-linejoin:round;">
<path d="M34915 9784
L29682 9776
" />
<path d="M34915 12599
L34915 9784
" />
<path d="M29667 12599
L34915 12599
" />
<path d="M29667 9796
L29667 12599
" />
</g>
<g style="fill:#000000; fill-opacity:0.0; 
stroke:#000000; stroke-width:118.11; stroke-opacity:1; 
stroke-linecap:round; stroke-linejoin:round;">
<path d="M28388 11366
L28388 10776
" />
<path d="M28669 11366
L28669 10776
L28810 10776
L28894 10804
L28951 10860
L28979 10916
L29007 11029
L29007 11113
L28979 11226
L28951 11282
L28894 11338
L28810 11366
L28669 11366
" />
<path d="M29260 11310
L29288 11338
L29260 11366
L29232 11338
L29260 11310
L29260 11366
" />
<path d="M29260 11001
L29288 11029
L29260 11057
L29232 11029
L29260 11001
L29260 11057
" />
<path d="M29736 6949
L30073 6949
" />
<path d="M29905 7539
L29905 6949
" />
<path d="M30270 6949
L30270 7427
L30298 7483
L30326 7511
L30383 7539
L30495 7539
L30551 7511
L30579 7483
L30608 7427
L30608 6949
" />
<path d="M31282 6949
L31423 7539
L31536 7118
L31648 7539
L31789 6949
" />
<path d="M32014 7539
L32014 6949
" />
<path d="M32295 7230
L32492 7230
" />
<path d="M32576 7539
L32295 7539
L32295 6949
L32576 6949
" />
<path d="M32829 7539
L32829 6949
L33167 7539
L33167 6949
" />
<path d="M28906 8515
L28991 8543
L29131 8543
L29187 8515
L29216 8487
L29244 8431
L29244 8375
L29216 8318
L29187 8290
L29131 8262
L29019 8234
L28962 8206
L28934 8178
L28906 8122
L28906 8065
L28934 8009
L28962 7981
L29019 7953
L29159 7953
L29244 7981
" />
<path d="M29497 8543
L29497 7953
L29722 7953
L29778 7981
L29806 8009
L29834 8065
L29834 8150
L29806 8206
L29778 8234
L29722 8262
L29497 8262
" />
<path d="M30059 8375
L30340 8375
" />
<path d="M30003 8543
L30200 7953
L30397 8543
" />
<path d="M30931 8487
L30903 8515
L30818 8543
L30762 8543
L30678 8515
L30622 8459
L30594 8403
L30565 8290
L30565 8206
L30594 8093
L30622 8037
L30678 7981
L30762 7953
L30818 7953
L30903 7981
L30931 8009
" />
<path d="M31184 8234
L31381 8234
" />
<path d="M31465 8543
L31184 8543
L31184 7953
L31465 7953
" />
<path d="M32084 7953
L32421 7953
" />
<path d="M32253 8543
L32253 7953
" />
<path d="M32618 8234
L32815 8234
" />
<path d="M32899 8543
L32618 8543
L32618 7953
L32899 7953
" />
<path d="M33124 8375
L33406 8375
" />
<path d="M33068 8543
L33265 7953
L33462 8543
" />
<path d="M33659 8543
L33659 7953
L33856 8375
L34052 7953
L34052 8543
" />
<path d="M29497 9547
L29300 9266
" />
<path d="M29159 9547
L29159 8957
L29384 8957
L29441 8985
L29469 9013
L29497 9069
L29497 9154
L29469 9210
L29441 9238
L29384 9266
L29159 9266
" />
<path d="M29722 9379
L30003 9379
" />
<path d="M29666 9547
L29862 8957
L30059 9547
" />
<path d="M30256 9547
L30256 8957
L30397 8957
L30481 8985
L30537 9041
L30565 9097
L30594 9210
L30594 9294
L30565 9407
L30537 9463
L30481 9519
L30397 9547
L30256 9547
" />
<path d="M30847 9547
L30847 8957
" />
<path d="M31240 8957
L31353 8957
L31409 8985
L31465 9041
L31493 9154
L31493 9350
L31465 9463
L31409 9519
L31353 9547
L31240 9547
L31184 9519
L31128 9463
L31100 9350
L31100 9154
L31128 9041
L31184 8985
L31240 8957
" />
<path d="M32112 8957
L32309 9547
L32506 8957
" />
<path d="M33012 9547
L32674 9547
" />
<path d="M32843 9547
L32843 8957
L32787 9041
L32731 9097
L32674 9126
" />
<path d="M33265 9491
L33293 9519
L33265 9547
L33237 9519
L33265 9491
L33265 9547
" />
<path d="M33659 8957
L33715 8957
L33771 8985
L33799 9013
L33827 9069
L33856 9182
L33856 9322
L33827 9435
L33799 9491
L33771 9519
L33715 9547
L33659 9547
L33603 9519
L33574 9491
L33546 9435
L33518 9322
L33518 9182
L33546 9069
L33574 9013
L33603 8985
L33659 8957
" />
<path d="M40883 7731
L40855 7759
L40771 7787
L40714 7787
L40630 7759
L40574 7703
L40546 7647
L40518 7534
L40518 7450
L40546 7338
L40574 7281
L40630 7225
L40714 7197
L40771 7197
L40855 7225
L40883 7253
" />
<path d="M41108 7253
L41136 7225
L41192 7197
L41333 7197
L41389 7225
L41417 7253
L41446 7309
L41446 7366
L41417 7450
L41080 7787
L41446 7787
" />
<path d="M11613 7467
L11585 7496
L11500 7524
L11444 7524
L11360 7496
L11303 7439
L11275 7383
L11247 7271
L11247 7186
L11275 7074
L11303 7018
L11360 6961
L11444 6933
L11500 6933
L11585 6961
L11613 6989
" />
<path d="M12175 7524
L11838 7524
" />
<path d="M12006 7524
L12006 6933
L11950 7018
L11894 7074
L11838 7102
" />
<path d="M12428 7467
L12456 7496
L12428 7524
L12400 7496
L12428 7467
L12428 7524
" />
</g>
<g style="fill:#000000; fill-opacity:0.0; 
stroke:#000000; stroke-width:47.2441; stroke-opacity:1; 
stroke-linecap:round; stroke-linejoin:round;">
<path d="M17263 31866
L18050 31866
" />
<path d="M18050 30701
L17263 30701
" />
<path d="M13182 29433
L13182 30221
" />
<path d="M14347 30221
L14347 29433
" />
<path d="M15766 32227
L14978 32227
" />
<path d="M14978 33392
L15766 33392
" />
<path d="M12528 30661
L12252 30661
" />
<path d="M12252 30188
L12528 30188
" />
<path d="M15662 27021
L15386 27021
" />
<path d="M15386 26548
L15662 26548
" />
<path d="M15712 24121
L15436 24121
" />
<path d="M15436 23648
L15712 23648
" />
<path d="M16812 23121
L16536 23121
" />
<path d="M16536 22648
L16812 22648
" />
<path d="M17210 24197
L17210 24472
" />
<path d="M16738 24472
L16738 24197
" />
<path d="M24553 27867
L24553 27592
" />
<path d="M25025 27592
L25025 27867
" />
<path d="M25372 24316
L25096 24316
" />
<path d="M25096 23843
L25372 23843
" />
<path d="M11564 28885
L11564 29554
" />
<path d="M11564 29554
L12568 29554
" />
<path d="M11564 28885
L12568 28885
" />
<path d="M12977 15806
L12977 16593
" />
<path d="M12977 16593
L14493 16593
" />
<path d="M12977 15806
L14493 15806
" />
<path d="M12977 14806
L12977 15593
" />
<path d="M12977 15593
L14493 15593
" />
<path d="M12977 14806
L14493 14806
" />
<path d="M12977 13906
L12977 14693
" />
<path d="M12977 14693
L14493 14693
" />
<path d="M12977 13906
L14493 13906
" />
<path d="M39112 15893
L39112 15106
" />
<path d="M39112 15106
L37596 15106
" />
<path d="M39112 15893
L37596 15893
" />
<path d="M39109 16893
L39109 16106
" />
<path d="M39109 16106
L37593 16106
" />
<path d="M39109 16893
L37593 16893
" />
<path d="M39109 17893
L39109 17106
" />
<path d="M39109 17106
L37593 17106
" />
<path d="M39109 17893
L37593 17893
" />
<path d="M39109 14893
L39109 14106
" />
<path d="M39109 14106
L37593 14106
" />
<path d="M39109 14893
L37593 14893
" />
<path d="M26436 24967
L26042 24967
" />
<path d="M26042 24432
L26436 24432
" />
<path d="M23240 14836
L23606 14836
" />
<path d="M24484 14836
L24118 14836
" />
<path d="M24484 14836
L24484 13986
" />
<path d="M23240 14836
L23240 14261
" />
<path d="M25266 4770
L24900 4770
" />
<path d="M24022 4770
L24388 4770
" />
<path d="M24022 4770
L24022 5621
" />
<path d="M25266 4770
L25266 5345
" />
<path d="M21942 4977
L21576 4977
" />
<path d="M20698 4977
L21064 4977
" />
<path d="M20698 4977
L20698 5828
" />
<path d="M21942 4977
L21942 5552
" />
<path d="M22886 17487
L22520 17487
" />
<path d="M21642 17487
L22008 17487
" />
<path d="M21642 17487
L21642 18338
" />
<path d="M22886 17487
L22886 18062
" />
<path d="M20198 14538
L20564 14538
" />
<path d="M21442 14538
L21076 14538
" />
<path d="M21442 14538
L21442 13687
" />
<path d="M20198 14538
L20198 13963
" />
<path d="M12948 28427
L12554 28427
" />
<path d="M12554 27892
L12948 27892
" />
<path d="M27507 30057
L27901 30057
" />
<path d="M27901 30592
L27507 30592
" />
<path d="M14417 29796
L14417 29403
" />
<path d="M14952 29403
L14952 29796
" />
<path d="M10989 30297
L10595 30297
" />
<path d="M10595 29762
L10989 29762
" />
<path d="M17507 21798
L17507 21405
" />
<path d="M18042 21405
L18042 21798
" />
<path d="M25447 27220
L25447 26826
" />
<path d="M25982 26826
L25982 27220
" />
<path d="M22033 19064
L21639 19064
" />
<path d="M21639 18529
L22033 18529
" />
<path d="M21035 12982
L21429 12982
" />
<path d="M21429 13517
L21035 13517
" />
<path d="M23224 13522
L22830 13522
" />
<path d="M22830 12987
L23224 12987
" />
<path d="M24424 6337
L24030 6337
" />
<path d="M24030 5802
L24424 5802
" />
<path d="M22628 5386
L22628 5779
" />
<path d="M22093 5779
L22093 5386
" />
<path d="M21517 17505
L21517 17898
" />
<path d="M20982 17898
L20982 17505
" />
<path d="M21557 14530
L21557 14136
" />
<path d="M22092 14136
L22092 14530
" />
<path d="M24727 14759
L24727 14366
" />
<path d="M25262 14366
L25262 14759
" />
<path d="M23907 4773
L23907 5166
" />
<path d="M23372 5166
L23372 4773
" />
<path d="M20583 4984
L20583 5378
" />
<path d="M20048 5378
L20048 4984
" />
<path d="M23552 17690
L23552 18083
" />
<path d="M23017 18083
L23017 17690
" />
<path d="M19547 14350
L19547 13956
" />
<path d="M20082 13956
L20082 14350
" />
<path d="M22585 14634
L22585 14241
" />
<path d="M23120 14241
L23120 14634
" />
<path d="M24539 3822
L24933 3822
" />
<path d="M24933 4357
L24539 4357
" />
<path d="M21220 4020
L21614 4020
" />
<path d="M21614 4555
L21220 4555
" />
</g>
<g style="fill:#000000; fill-opacity:0.0; 
stroke:#000000; stroke-width:59.0551; stroke-opacity:1; 
stroke-linecap:round; stroke-linejoin:round;">
<path d="M23749 23060
L23523 23060
" />
<path d="M23749 28709
L23483 28709
" />
<path d="M18099 28709
L18365 28709
" />
<path d="M18099 23060
L18365 23060
" />
<path d="M23749 23060
L23749 23326
" />
<path d="M18099 23060
L18099 23326
" />
<path d="M18099 28709
L18099 28444
" />
<path d="M23749 28709
L23749 28444
" />
<path d="M23523 23060
L23523 22558
" />
</g>
<g style="fill:#000000; fill-opacity:0.0; 
stroke:#000000; stroke-width:47.2441; stroke-opacity:1; 
stroke-linecap:round; stroke-linejoin:round;">
<path d="M18387 17228
L18387 16835
" />
<path d="M18922 16835
L18922 17228
" />
<path d="M10837 26035
L10837 26484
" />
<path d="M10837 26484
L11664 26484
" />
<path d="M10837 26035
L11664 26035
" />
<path d="M17399 21173
L16950 21173
" />
<path d="M16950 21173
L16950 22000
" />
<path d="M17399 21173
L17399 22000
" />
<path d="M15969 10008
L15969 9642
" />
<path d="M15969 8764
L15969 9130
" />
<path d="M15969 8764
L15119 8764
" />
<path d="M15969 10008
L15394 10008
" />
<path d="M13977 8704
L14371 8704
" />
<path d="M14371 9239
L13977 9239
" />
<path d="M14375 10024
L13981 10024
" />
<path d="M13981 9489
L14375 9489
" />
<path d="M40092 29168
L40092 29956
" />
<path d="M41257 29956
L41257 29168
" />
<path d="M39792 31166
L39792 30379
" />
<path d="M38627 30379
L38627 31166
" />
<path d="M39228 32752
L38441 32752
" />
<path d="M38441 33917
L39228 33917
" />
<path d="M36906 32951
L36630 32951
" />
<path d="M36630 32478
L36906 32478
" />
<path d="M30690 27072
L30690 27347
" />
<path d="M30218 27347
L30218 27072
" />
<path d="M29100 23993
L28824 23993
" />
<path d="M28824 23520
L29100 23520
" />
<path d="M38862 27611
L38586 27611
" />
<path d="M38586 27138
L38862 27138
" />
<path d="M30865 24168
L30865 24443
" />
<path d="M30393 24443
L30393 24168
" />
<path d="M38867 23831
L38591 23831
" />
<path d="M38591 23358
L38867 23358
" />
<path d="M41632 27670
L41632 28119
" />
<path d="M41632 28119
L42459 28119
" />
<path d="M41632 27670
L42459 27670
" />
<path d="M35026 30289
L35026 29840
" />
<path d="M35026 29840
L34199 29840
" />
<path d="M35026 30289
L34199 30289
" />
<path d="M42549 29287
L42100 29287
" />
<path d="M42100 29287
L42100 30114
" />
<path d="M42549 29287
L42549 30114
" />
<path d="M37191 32369
L37191 31920
" />
<path d="M37191 31920
L36364 31920
" />
<path d="M37191 32369
L36364 32369
" />
<path d="M36417 33165
L36417 33614
" />
<path d="M36417 33614
L37244 33614
" />
<path d="M36417 33165
L37244 33165
" />
<path d="M35570 33039
L35570 32370
" />
<path d="M35570 32370
L34566 32370
" />
<path d="M35570 33039
L34566 33039
" />
<path d="M38978 23252
L38584 23252
" />
<path d="M38584 22717
L38978 22717
" />
<path d="M41002 28138
L41002 27772
" />
<path d="M41002 26894
L41002 27260
" />
<path d="M41002 26894
L40152 26894
" />
<path d="M41002 28138
L40427 28138
" />
<path d="M35557 14122
L35191 14122
" />
<path d="M34313 14122
L34679 14122
" />
<path d="M34313 14122
L34313 14972
" />
<path d="M35557 14122
L35557 14697
" />
<path d="M33254 5347
L32888 5347
" />
<path d="M32010 5347
L32376 5347
" />
<path d="M32010 5347
L32010 6198
" />
<path d="M33254 5347
L33254 5922
" />
<path d="M30259 5363
L29893 5363
" />
<path d="M29015 5363
L29381 5363
" />
<path d="M29015 5363
L29015 6214
" />
<path d="M30259 5363
L30259 5938
" />
<path d="M29586 14088
L29220 14088
" />
<path d="M28342 14088
L28708 14088
" />
<path d="M28342 14088
L28342 14939
" />
<path d="M29586 14088
L29586 14663
" />
<path d="M32602 14101
L32236 14101
" />
<path d="M31358 14101
L31724 14101
" />
<path d="M31358 14101
L31358 14952
" />
<path d="M32602 14101
L32602 14676
" />
<path d="M35374 8754
L35740 8754
" />
<path d="M36618 8754
L36252 8754
" />
<path d="M36618 8754
L36618 7903
" />
<path d="M35374 8754
L35374 8179
" />
<path d="M42431 27512
L42037 27512
" />
<path d="M42037 26977
L42431 26977
" />
<path d="M33992 31380
L33992 30986
" />
<path d="M34527 30986
L34527 31380
" />
<path d="M41362 30023
L41362 29630
" />
<path d="M41897 29630
L41897 30023
" />
<path d="M38182 32137
L38576 32137
" />
<path d="M38576 32672
L38182 32672
" />
<path d="M36333 30397
L35939 30397
" />
<path d="M35939 29862
L36333 29862
" />
<path d="M35182 30981
L35182 31375
" />
<path d="M34647 31375
L34647 30981
" />
<path d="M38961 24802
L38567 24802
" />
<path d="M38567 24267
L38961 24267
" />
<path d="M29747 14486
L29747 14093
" />
<path d="M30282 14093
L30282 14486
" />
<path d="M32773 14500
L32773 14107
" />
<path d="M33308 14107
L33308 14500
" />
<path d="M35772 14531
L35772 14138
" />
<path d="M36307 14138
L36307 14531
" />
<path d="M33465 5756
L33465 5363
" />
<path d="M34000 5363
L34000 5756
" />
<path d="M30450 5757
L30450 5364
" />
<path d="M30985 5364
L30985 5757
" />
<path d="M31885 17223
L32279 17223
" />
<path d="M32279 17759
L31885 17759
" />
<path d="M28127 14079
L28127 14473
" />
<path d="M27592 14473
L27592 14079
" />
<path d="M31123 14108
L31123 14502
" />
<path d="M30588 14502
L30588 14108
" />
<path d="M34084 14126
L34084 14520
" />
<path d="M33549 14520
L33549 14126
" />
<path d="M31810 5344
L31810 5738
" />
<path d="M31275 5738
L31275 5344
" />
<path d="M28785 5355
L28785 5749
" />
<path d="M28250 5749
L28250 5355
" />
<path d="M32294 18394
L31900 18394
" />
<path d="M31900 17858
L32294 17858
" />
<path d="M29134 13675
L28740 13675
" />
<path d="M28740 13140
L29134 13140
" />
<path d="M31748 13134
L32142 13134
" />
<path d="M32142 13669
L31748 13669
" />
<path d="M34716 13162
L35110 13162
" />
<path d="M35110 13697
L34716 13697
" />
<path d="M32443 4375
L32837 4375
" />
<path d="M32837 4910
L32443 4910
" />
<path d="M29408 4396
L29802 4396
" />
<path d="M29802 4931
L29408 4931
" />
<path d="M34782 17225
L34782 16831
" />
<path d="M35317 16831
L35317 17225
" />
<path d="M36769 8451
L36769 8058
" />
<path d="M37304 8058
L37304 8451
" />
<path d="M36232 9192
L36626 9192
" />
<path d="M36626 9727
L36232 9727
" />
</g>
<g style="fill:#000000; fill-opacity:0.0; 
stroke:#000000; stroke-width:59.0551; stroke-opacity:1; 
stroke-linecap:round; stroke-linejoin:round;">
<path d="M37269 23130
L37043 23130
" />
<path d="M37269 28779
L37003 28779
" />
<path d="M31619 28779
L31885 28779
" />
<path d="M31619 23130
L31885 23130
" />
<path d="M37269 23130
L37269 23396
" />
<path d="M31619 23130
L31619 23396
" />
<path d="M31619 28779
L31619 28514
" />
<path d="M37269 28779
L37269 28514
" />
<path d="M37043 23130
L37043 22628
" />
</g>
<g style="fill:#000000; fill-opacity:0.0; 
stroke:#000000; stroke-width:47.2441; stroke-opacity:1; 
stroke-linecap:round; stroke-linejoin:round;">
<path d="M30312 30688
L30312 30322
" />
<path d="M30312 29444
L30312 29810
" />
<path d="M30312 29444
L29462 29444
" />
<path d="M30312 30688
L29737 30688
" />
<path d="M30307 29181
L30307 28815
" />
<path d="M30307 27937
L30307 28303
" />
<path d="M30307 27937
L29457 27937
" />
<path d="M30307 29181
L29732 29181
" />
<path d="M28257 30842
L28651 30842
" />
<path d="M28651 31377
L28257 31377
" />
<path d="M30316 31402
L29922 31402
" />
<path d="M29922 30867
L30316 30867
" />
<path d="M28848 27858
L28061 27858
" />
<path d="M28061 27858
L28061 29374
" />
<path d="M28848 27858
L28848 29374
" />
<path d="M13269 24410
L13269 24292
" />
<path d="M13269 24292
L16182 24292
" />
<path d="M16182 24292
L16182 24410
" />
<path d="M13072 26300
L13269 26300
" />
<path d="M13269 26300
L13269 26418
" />
<path d="M13269 26418
L16182 26418
" />
<path d="M16182 26418
L16182 26300
" />
<path d="M13072 25473
L13269 25473
" />
<path d="M13269 25473
L13269 25237
" />
<path d="M16182 25237
L16182 25473
" />
<path d="M27934 27225
L27816 27225
" />
<path d="M27816 27225
L27816 24312
" />
<path d="M27816 24312
L27934 24312
" />
<path d="M29824 27422
L29824 27225
" />
<path d="M29824 27225
L29942 27225
" />
<path d="M29942 27225
L29942 24312
" />
<path d="M29942 24312
L29824 24312
" />
<path d="M28997 27422
L28997 27225
" />
<path d="M28997 27225
L28761 27225
" />
<path d="M28761 24312
L28997 24312
" />
<path d="M12639 27146
L13112 27146
" />
<path d="M13112 27839
L12639 27839
" />
</g>
<g style="fill:#000000; fill-opacity:1.0; 
stroke:#000000; stroke-width:3.93701; stroke-opacity:1; 
stroke-linecap:round; stroke-linejoin:round;">
<polyline style="fill-rule:evenodd;"
points="38722,4726
38744,4756
38723,4810
38695,4849
38656,4904
38651,4932
38684,4941
38708,4942
38755,4950
38770,4967
38748,4982
38693,4991
38670,4992
38608,4986
38573,4971
38570,4965
38584,4930
38620,4874
38636,4853
38701,4767
38636,4767
38587,4759
38570,4742
38592,4725
38646,4717
38658,4717
38722,4726
" /> 
<polyline style="fill-rule:evenodd;"
points="39269,2158
39278,2167
39295,2205
39314,2282
39335,2386
39355,2507
39374,2635
39389,2761
39399,2872
39404,2960
39401,3014
39397,3025
39386,3061
39377,3142
39372,3260
39370,3411
39370,3419
39370,3786
39432,3802
39494,3834
39565,3894
39632,3966
39677,4035
39686,4059
39693,4080
39705,4095
39731,4106
39777,4112
39851,4115
39960,4117
40112,4117
40115,4117
40275,4116
40393,4113
40475,4108
40528,4099
40561,4086
40571,4079
40590,4066
40619,4058
40663,4057
40732,4062
40831,4075
40968,4094
41060,4108
41262,4140
41413,4170
41516,4199
41568,4226
41571,4254
41524,4281
41427,4310
41280,4341
41083,4374
41048,4379
40886,4403
40766,4420
40682,4430
40627,4433
40593,4429
40575,4420
40566,4408
40551,4393
40524,4382
40475,4374
40398,4370
40286,4368
40132,4368
40125,4368
39708,4368
39642,4476
39552,4580
39433,4652
39299,4687
39162,4682
39082,4657
38957,4578
38868,4474
38816,4351
38801,4227
38927,4227
38928,4262
38962,4380
39030,4471
39123,4532
39230,4559
39341,4548
39448,4496
39485,4465
39563,4360
39593,4249
39574,4135
39506,4022
39487,4001
39393,3929
39289,3900
39183,3908
39084,3949
39003,4018
38947,4112
38927,4227
38801,4227
38801,4220
38823,4090
38884,3968
38984,3865
39025,3837
39119,3779
39119,3416
39118,3261
39113,3141
39104,3060
39093,3025
39087,2992
39089,2919
39098,2819
39111,2699
39128,2571
39148,2446
39168,2332
39188,2241
39205,2183
39212,2170
39240,2143
39269,2158
" /> 
<polyline style="fill-rule:evenodd;"
points="42002,4125
41994,4157
41977,4189
41951,4242
41953,4281
41978,4326
42004,4372
42000,4390
41985,4392
41949,4371
41933,4342
41911,4301
41895,4292
41871,4312
41858,4342
41829,4382
41804,4392
41784,4384
41794,4355
41817,4321
41849,4269
41852,4234
41829,4194
41804,4142
41812,4121
41845,4138
41869,4165
41914,4225
41931,4171
41958,4128
41983,4117
42002,4125
" /> 
<polyline style="fill-rule:evenodd;"
points="39185,1763
39210,1818
39220,1848
39252,1954
39297,1848
39334,1773
39358,1743
39367,1754
39360,1801
39337,1882
39324,1917
39282,2021
39250,2078
39229,2087
39221,2049
39220,2032
39210,1969
39187,1893
39183,1883
39152,1800
39148,1755
39166,1742
39185,1763
" /> 
<polyline style="fill-rule:evenodd;"
points="39309,4138
39353,4187
39370,4242
39351,4299
39307,4348
39258,4367
39214,4350
39184,4327
39152,4275
39145,4242
39164,4184
39209,4136
39258,4117
39309,4138
" /> 
</g>
<g style="fill:#000000; fill-opacity:0.0; 
stroke:#000000; stroke-width:3.93701; stroke-opacity:1; 
stroke-linecap:round; stroke-linejoin:round;">
</g>
<g style="fill:#000000; fill-opacity:0.0; 
stroke:#000000; stroke-width:59.0551; stroke-opacity:1; 
stroke-linecap:round; stroke-linejoin:round;">
<path d="M11030 30814
L10898 30627
" />
<path d="M10805 30814
L10805 30420
L10955 30420
L10992 30439
L11011 30458
L11030 30495
L11030 30552
L11011 30589
L10992 30608
L10955 30627
L10805 30627
" />
<path d="M11198 30608
L11330 30608
" />
<path d="M11386 30814
L11198 30814
L11198 30420
L11386 30420
" />
<path d="M11686 30608
L11555 30608
" />
<path d="M11555 30814
L11555 30420
L11742 30420
" />
<path d="M11948 30420
L11948 30514
" />
<path d="M11855 30477
L11948 30514
L12042 30477
" />
<path d="M11892 30589
L11948 30514
L12005 30589
" />
<path d="M12248 30420
L12248 30514
" />
<path d="M12155 30477
L12248 30514
L12342 30477
" />
<path d="M12192 30589
L12248 30514
L12305 30589
" />
<path d="M40951 30814
L40820 30627
" />
<path d="M40726 30814
L40726 30420
L40876 30420
L40913 30439
L40932 30458
L40951 30495
L40951 30552
L40932 30589
L40913 30608
L40876 30627
L40726 30627
" />
<path d="M41120 30608
L41251 30608
" />
<path d="M41307 30814
L41120 30814
L41120 30420
L41307 30420
" />
<path d="M41607 30608
L41476 30608
" />
<path d="M41476 30814
L41476 30420
L41663 30420
" />
<path d="M41870 30420
L41870 30514
" />
<path d="M41776 30477
L41870 30514
L41963 30477
" />
<path d="M41813 30589
L41870 30514
L41926 30589
" />
<path d="M42170 30420
L42170 30514
" />
<path d="M42076 30477
L42170 30514
L42263 30477
" />
<path d="M42113 30589
L42170 30514
L42226 30589
" />
<path d="M40951 893
L40820 705
" />
<path d="M40726 893
L40726 499
L40876 499
L40913 518
L40932 537
L40951 574
L40951 630
L40932 668
L40913 686
L40876 705
L40726 705
" />
<path d="M41120 686
L41251 686
" />
<path d="M41307 893
L41120 893
L41120 499
L41307 499
" />
<path d="M41607 686
L41476 686
" />
<path d="M41476 893
L41476 499
L41663 499
" />
<path d="M41870 499
L41870 593
" />
<path d="M41776 555
L41870 593
L41963 555
" />
<path d="M41813 668
L41870 593
L41926 668
" />
<path d="M42170 499
L42170 593
" />
<path d="M42076 555
L42170 593
L42263 555
" />
<path d="M42113 668
L42170 593
L42226 668
" />
<path d="M17591 32310
L17572 32328
L17516 32347
L17479 32347
L17422 32328
L17385 32291
L17366 32253
L17347 32178
L17347 32122
L17366 32047
L17385 32010
L17422 31972
L17479 31953
L17516 31953
L17572 31972
L17591 31991
" />
<path d="M17966 32347
L17741 32347
" />
<path d="M17853 32347
L17853 31953
L17816 32010
L17778 32047
L17741 32066
" />
<path d="M13019 29893
L13038 29911
L13057 29968
L13057 30005
L13038 30061
L13000 30099
L12963 30118
L12888 30136
L12832 30136
L12757 30118
L12719 30099
L12682 30061
L12663 30005
L12663 29968
L12682 29911
L12700 29893
" />
<path d="M12700 29743
L12682 29724
L12663 29686
L12663 29593
L12682 29555
L12700 29536
L12738 29518
L12775 29518
L12832 29536
L13057 29761
L13057 29518
" />
<path d="M15306 32064
L15287 32083
L15231 32102
L15194 32102
L15137 32083
L15100 32046
L15081 32008
L15062 31933
L15062 31877
L15081 31802
L15100 31764
L15137 31727
L15194 31708
L15231 31708
L15287 31727
L15306 31746
" />
<path d="M15644 31839
L15644 32102
" />
<path d="M15550 31689
L15456 31971
L15700 31971
" />
<path d="M12325 31057
L12306 31076
L12250 31095
L12212 31095
L12156 31076
L12118 31039
L12100 31001
L12081 30926
L12081 30870
L12100 30795
L12118 30757
L12156 30720
L12212 30701
L12250 30701
L12306 30720
L12325 30739
" />
<path d="M12681 30701
L12493 30701
L12475 30889
L12493 30870
L12531 30851
L12625 30851
L12662 30870
L12681 30889
L12700 30926
L12700 31020
L12681 31057
L12662 31076
L12625 31095
L12531 31095
L12493 31076
L12475 31057
" />
<path d="M15459 27417
L15440 27436
L15384 27455
L15346 27455
L15290 27436
L15252 27399
L15234 27361
L15215 27286
L15215 27230
L15234 27155
L15252 27117
L15290 27080
L15346 27061
L15384 27061
L15440 27080
L15459 27099
" />
<path d="M15590 27061
L15852 27061
L15684 27455
" />
<path d="M15509 24517
L15490 24536
L15434 24555
L15396 24555
L15340 24536
L15302 24499
L15284 24461
L15265 24386
L15265 24330
L15284 24255
L15302 24217
L15340 24180
L15396 24161
L15434 24161
L15490 24180
L15509 24199
" />
<path d="M15734 24330
L15696 24311
L15677 24292
L15659 24255
L15659 24236
L15677 24199
L15696 24180
L15734 24161
L15809 24161
L15846 24180
L15865 24199
L15884 24236
L15884 24255
L15865 24292
L15846 24311
L15809 24330
L15734 24330
L15696 24349
L15677 24367
L15659 24405
L15659 24480
L15677 24517
L15696 24536
L15734 24555
L15809 24555
L15846 24536
L15865 24517
L15884 24480
L15884 24405
L15865 24367
L15846 24349
L15809 24330
" />
<path d="M16609 23517
L16590 23536
L16534 23555
L16496 23555
L16440 23536
L16402 23499
L16384 23461
L16365 23386
L16365 23330
L16384 23255
L16402 23217
L16440 23180
L16496 23161
L16534 23161
L16590 23180
L16609 23199
" />
<path d="M16796 23555
L16871 23555
L16909 23536
L16927 23517
L16965 23461
L16984 23386
L16984 23236
L16965 23199
L16946 23180
L16909 23161
L16834 23161
L16796 23180
L16777 23199
L16759 23236
L16759 23330
L16777 23367
L16796 23386
L16834 23405
L16909 23405
L16946 23386
L16965 23367
L16984 23330
" />
<path d="M17607 24588
L17626 24606
L17644 24663
L17644 24700
L17626 24756
L17588 24794
L17551 24813
L17476 24831
L17419 24831
L17344 24813
L17307 24794
L17269 24756
L17251 24700
L17251 24663
L17269 24606
L17288 24588
" />
<path d="M17644 24213
L17644 24438
" />
<path d="M17644 24325
L17251 24325
L17307 24363
L17344 24400
L17363 24438
" />
<path d="M17251 23969
L17251 23932
L17269 23894
L17288 23875
L17326 23857
L17401 23838
L17494 23838
L17569 23857
L17607 23875
L17626 23894
L17644 23932
L17644 23969
L17626 24007
L17607 24025
L17569 24044
L17494 24063
L17401 24063
L17326 24044
L17288 24025
L17269 24007
L17251 23969
" />
<path d="M24438 27983
L24456 28001
L24475 28058
L24475 28095
L24456 28151
L24419 28189
L24381 28208
L24306 28226
L24250 28226
L24175 28208
L24138 28189
L24100 28151
L24082 28095
L24082 28058
L24100 28001
L24119 27983
" />
<path d="M24475 27608
L24475 27833
" />
<path d="M24475 27720
L24082 27720
L24138 27758
L24175 27795
L24194 27833
" />
<path d="M24475 27233
L24475 27458
" />
<path d="M24475 27345
L24082 27345
L24138 27383
L24175 27420
L24194 27458
" />
<path d="M24981 24712
L24962 24731
L24906 24750
L24869 24750
L24812 24731
L24775 24694
L24756 24656
L24737 24581
L24737 24525
L24756 24450
L24775 24412
L24812 24375
L24869 24356
L24906 24356
L24962 24375
L24981 24394
" />
<path d="M25356 24750
L25131 24750
" />
<path d="M25244 24750
L25244 24356
L25206 24412
L25169 24450
L25131 24469
" />
<path d="M25506 24394
L25525 24375
L25562 24356
L25656 24356
L25694 24375
L25712 24394
L25731 24431
L25731 24469
L25712 24525
L25487 24750
L25731 24750
" />
<path d="M11676 28669
L11676 28276
L11770 28276
L11826 28294
L11864 28332
L11882 28369
L11901 28444
L11901 28501
L11882 28576
L11864 28613
L11826 28651
L11770 28669
L11676 28669
" />
<path d="M12276 28669
L12051 28669
" />
<path d="M12164 28669
L12164 28276
L12126 28332
L12089 28369
L12051 28388
" />
<path d="M12520 28276
L12557 28276
L12595 28294
L12614 28313
L12632 28351
L12651 28426
L12651 28519
L12632 28594
L12614 28632
L12595 28651
L12557 28669
L12520 28669
L12482 28651
L12464 28632
L12445 28594
L12426 28519
L12426 28426
L12445 28351
L12464 28313
L12482 28294
L12520 28276
" />
<path d="M13315 15628
L13315 15234
L13409 15234
L13465 15253
L13502 15290
L13521 15328
L13540 15403
L13540 15459
L13521 15534
L13502 15571
L13465 15609
L13409 15628
L13315 15628
" />
<path d="M13915 15628
L13690 15628
" />
<path d="M13802 15628
L13802 15234
L13765 15290
L13727 15328
L13690 15347
" />
<path d="M14290 15628
L14065 15628
" />
<path d="M14177 15628
L14177 15234
L14140 15290
L14102 15328
L14065 15347
" />
<path d="M13315 14628
L13315 14234
L13409 14234
L13465 14253
L13502 14290
L13521 14328
L13540 14403
L13540 14459
L13521 14534
L13502 14571
L13465 14609
L13409 14628
L13315 14628
" />
<path d="M13915 14628
L13690 14628
" />
<path d="M13802 14628
L13802 14234
L13765 14290
L13727 14328
L13690 14347
" />
<path d="M14065 14272
L14084 14253
L14121 14234
L14215 14234
L14252 14253
L14271 14272
L14290 14309
L14290 14347
L14271 14403
L14046 14628
L14290 14628
" />
<path d="M13315 13728
L13315 13334
L13409 13334
L13465 13353
L13502 13390
L13521 13428
L13540 13503
L13540 13559
L13521 13634
L13502 13671
L13465 13709
L13409 13728
L13315 13728
" />
<path d="M13915 13728
L13690 13728
" />
<path d="M13802 13728
L13802 13334
L13765 13390
L13727 13428
L13690 13447
" />
<path d="M14046 13334
L14290 13334
L14159 13484
L14215 13484
L14252 13503
L14271 13521
L14290 13559
L14290 13653
L14271 13690
L14252 13709
L14215 13728
L14102 13728
L14065 13709
L14046 13690
" />
<path d="M37817 16428
L37817 16034
L37911 16034
L37967 16053
L38005 16090
L38024 16128
L38042 16203
L38042 16259
L38024 16334
L38005 16371
L37967 16409
L37911 16428
L37817 16428
" />
<path d="M38417 16428
L38192 16428
" />
<path d="M38305 16428
L38305 16034
L38267 16090
L38230 16128
L38192 16147
" />
<path d="M38755 16165
L38755 16428
" />
<path d="M38661 16015
L38567 16296
L38811 16296
" />
<path d="M37815 17428
L37815 17034
L37909 17034
L37965 17053
L38002 17090
L38021 17128
L38040 17203
L38040 17259
L38021 17334
L38002 17371
L37965 17409
L37909 17428
L37815 17428
" />
<path d="M38415 17428
L38190 17428
" />
<path d="M38302 17428
L38302 17034
L38265 17090
L38227 17128
L38190 17147
" />
<path d="M38771 17034
L38584 17034
L38565 17221
L38584 17203
L38621 17184
L38715 17184
L38752 17203
L38771 17221
L38790 17259
L38790 17353
L38771 17390
L38752 17409
L38715 17428
L38621 17428
L38584 17409
L38565 17390
" />
<path d="M37815 18428
L37815 18034
L37909 18034
L37965 18053
L38002 18090
L38021 18128
L38040 18203
L38040 18259
L38021 18334
L38002 18371
L37965 18409
L37909 18428
L37815 18428
" />
<path d="M38415 18428
L38190 18428
" />
<path d="M38302 18428
L38302 18034
L38265 18090
L38227 18128
L38190 18147
" />
<path d="M38752 18034
L38677 18034
L38640 18053
L38621 18072
L38584 18128
L38565 18203
L38565 18353
L38584 18390
L38602 18409
L38640 18428
L38715 18428
L38752 18409
L38771 18390
L38790 18353
L38790 18259
L38771 18221
L38752 18203
L38715 18184
L38640 18184
L38602 18203
L38584 18221
L38565 18259
" />
<path d="M37815 15428
L37815 15034
L37909 15034
L37965 15053
L38002 15090
L38021 15128
L38040 15203
L38040 15259
L38021 15334
L38002 15371
L37965 15409
L37909 15428
L37815 15428
" />
<path d="M38415 15428
L38190 15428
" />
<path d="M38302 15428
L38302 15034
L38265 15090
L38227 15128
L38190 15147
" />
<path d="M38640 15203
L38602 15184
L38584 15165
L38565 15128
L38565 15109
L38584 15072
L38602 15053
L38640 15034
L38715 15034
L38752 15053
L38771 15072
L38790 15109
L38790 15128
L38771 15165
L38752 15184
L38715 15203
L38640 15203
L38602 15221
L38584 15240
L38565 15278
L38565 15353
L38584 15390
L38602 15409
L38640 15428
L38715 15428
L38752 15409
L38771 15390
L38790 15353
L38790 15278
L38771 15240
L38752 15221
L38715 15203
" />
<path d="M26174 24130
L25986 24130
L25986 23736
" />
<path d="M26511 24130
L26286 24130
" />
<path d="M26399 24130
L26399 23736
L26361 23792
L26324 23830
L26286 23848
" />
<path d="M25062 14574
L25043 14612
L25006 14649
L24950 14706
L24931 14743
L24931 14781
" />
<path d="M25025 14762
L25006 14799
L24968 14837
L24893 14856
L24762 14856
L24687 14837
L24650 14799
L24631 14762
L24631 14687
L24650 14649
L24687 14612
L24762 14593
L24893 14593
L24968 14612
L25006 14649
L25025 14687
L25025 14762
" />
<path d="M24631 14462
L24631 14218
L24781 14349
L24781 14293
L24800 14256
L24818 14237
L24856 14218
L24950 14218
L24987 14237
L25006 14256
L25025 14293
L25025 14406
L25006 14443
L24987 14462
" />
<path d="M23876 5107
L23857 5145
L23819 5182
L23763 5238
L23744 5276
L23744 5313
" />
<path d="M23838 5295
L23819 5332
L23782 5370
L23707 5388
L23576 5388
L23501 5370
L23463 5332
L23444 5295
L23444 5220
L23463 5182
L23501 5145
L23576 5126
L23707 5126
L23782 5145
L23819 5182
L23838 5220
L23838 5295
" />
<path d="M23576 4788
L23838 4788
" />
<path d="M23426 4882
L23707 4976
L23707 4732
" />
<path d="M20552 5314
L20533 5351
L20495 5389
L20439 5445
L20420 5483
L20420 5520
" />
<path d="M20514 5501
L20495 5539
L20458 5576
L20383 5595
L20252 5595
L20177 5576
L20139 5539
L20120 5501
L20120 5426
L20139 5389
L20177 5351
L20252 5333
L20383 5333
L20458 5351
L20495 5389
L20514 5426
L20514 5501
" />
<path d="M20120 4976
L20120 5164
L20308 5183
L20289 5164
L20270 5126
L20270 5033
L20289 4995
L20308 4976
L20345 4958
L20439 4958
L20477 4976
L20495 4995
L20514 5033
L20514 5126
L20495 5164
L20477 5183
" />
<path d="M21496 17824
L21477 17862
L21439 17899
L21383 17955
L21364 17993
L21364 18030
" />
<path d="M21458 18012
L21439 18049
L21402 18087
L21327 18105
L21196 18105
L21121 18087
L21083 18049
L21064 18012
L21064 17937
L21083 17899
L21121 17862
L21196 17843
L21327 17843
L21402 17862
L21439 17899
L21458 17937
L21458 18012
" />
<path d="M21064 17505
L21064 17580
L21083 17618
L21102 17637
L21158 17674
L21233 17693
L21383 17693
L21421 17674
L21439 17655
L21458 17618
L21458 17543
L21439 17505
L21421 17487
L21383 17468
L21289 17468
L21252 17487
L21233 17505
L21214 17543
L21214 17618
L21233 17655
L21252 17674
L21289 17693
" />
<path d="M22020 14276
L22001 14313
L21964 14351
L21908 14407
L21889 14445
L21889 14482
" />
<path d="M21983 14463
L21964 14501
L21926 14538
L21851 14557
L21720 14557
L21645 14538
L21608 14501
L21589 14463
L21589 14388
L21608 14351
L21645 14313
L21720 14295
L21851 14295
L21926 14313
L21964 14351
L21983 14388
L21983 14463
" />
<path d="M21589 14163
L21589 13901
L21983 14070
" />
<path d="M12686 27767
L12554 27579
" />
<path d="M12461 27767
L12461 27373
L12611 27373
L12648 27392
L12667 27411
L12686 27448
L12686 27504
L12667 27542
L12648 27561
L12611 27579
L12461 27579
" />
<path d="M12836 27411
L12854 27392
L12892 27373
L12985 27373
L13023 27392
L13042 27411
L13060 27448
L13060 27486
L13042 27542
L12817 27767
L13060 27767
" />
<path d="M27639 31074
L27507 30886
" />
<path d="M27414 31074
L27414 30680
L27564 30680
L27601 30699
L27620 30717
L27639 30755
L27639 30811
L27620 30849
L27601 30867
L27564 30886
L27414 30886
" />
<path d="M27995 30680
L27807 30680
L27789 30867
L27807 30849
L27845 30830
L27939 30830
L27976 30849
L27995 30867
L28014 30905
L28014 30999
L27995 31036
L27976 31055
L27939 31074
L27845 31074
L27807 31055
L27789 31036
" />
<path d="M15433 29665
L15246 29796
" />
<path d="M15433 29890
L15039 29890
L15039 29740
L15058 29703
L15077 29684
L15114 29665
L15171 29665
L15208 29684
L15227 29703
L15246 29740
L15246 29890
" />
<path d="M15208 29440
L15189 29478
L15171 29497
L15133 29515
L15114 29515
L15077 29497
L15058 29478
L15039 29440
L15039 29365
L15058 29328
L15077 29309
L15114 29290
L15133 29290
L15171 29309
L15189 29328
L15208 29365
L15208 29440
L15227 29478
L15246 29497
L15283 29515
L15358 29515
L15396 29497
L15414 29478
L15433 29440
L15433 29365
L15414 29328
L15396 29309
L15358 29290
L15283 29290
L15246 29309
L15227 29328
L15208 29365
" />
<path d="M10539 29637
L10408 29449
" />
<path d="M10314 29637
L10314 29243
L10464 29243
L10502 29262
L10520 29281
L10539 29318
L10539 29374
L10520 29412
L10502 29431
L10464 29449
L10314 29449
" />
<path d="M10914 29637
L10689 29637
" />
<path d="M10802 29637
L10802 29243
L10764 29299
L10727 29337
L10689 29356
" />
<path d="M11158 29243
L11195 29243
L11233 29262
L11252 29281
L11270 29318
L11289 29393
L11289 29487
L11270 29562
L11252 29599
L11233 29618
L11195 29637
L11158 29637
L11120 29618
L11102 29599
L11083 29562
L11064 29487
L11064 29393
L11083 29318
L11102 29281
L11120 29262
L11158 29243
" />
<path d="M18523 21855
L18336 21986
" />
<path d="M18523 22080
L18129 22080
L18129 21930
L18148 21892
L18167 21873
L18204 21855
L18261 21855
L18298 21873
L18317 21892
L18336 21930
L18336 22080
" />
<path d="M18523 21480
L18523 21705
" />
<path d="M18523 21592
L18129 21592
L18186 21630
L18223 21667
L18242 21705
" />
<path d="M18261 21142
L18523 21142
" />
<path d="M18111 21236
L18392 21330
L18392 21086
" />
<path d="M26463 27276
L26276 27407
" />
<path d="M26463 27501
L26069 27501
L26069 27351
L26088 27313
L26107 27295
L26144 27276
L26201 27276
L26238 27295
L26257 27313
L26276 27351
L26276 27501
" />
<path d="M26463 26901
L26463 27126
" />
<path d="M26463 27013
L26069 27013
L26126 27051
L26163 27088
L26182 27126
" />
<path d="M26238 26676
L26219 26713
L26201 26732
L26163 26751
L26144 26751
L26107 26732
L26088 26713
L26069 26676
L26069 26601
L26088 26563
L26107 26545
L26144 26526
L26163 26526
L26201 26545
L26219 26563
L26238 26601
L26238 26676
L26257 26713
L26276 26732
L26313 26751
L26388 26751
L26426 26732
L26444 26713
L26463 26676
L26463 26601
L26444 26563
L26426 26545
L26388 26526
L26313 26526
L26276 26545
L26257 26563
L26238 26601
" />
<path d="M21583 18404
L21452 18216
" />
<path d="M21358 18404
L21358 18010
L21508 18010
L21546 18029
L21564 18048
L21583 18085
L21583 18141
L21564 18179
L21546 18198
L21508 18216
L21358 18216
" />
<path d="M21733 18048
L21752 18029
L21789 18010
L21883 18010
L21921 18029
L21939 18048
L21958 18085
L21958 18123
L21939 18179
L21714 18404
L21958 18404
" />
<path d="M22333 18404
L22108 18404
" />
<path d="M22220 18404
L22220 18010
L22183 18066
L22145 18104
L22108 18123
" />
<path d="M20979 13999
L20848 13811
" />
<path d="M20754 13999
L20754 13605
L20904 13605
L20942 13624
L20960 13642
L20979 13680
L20979 13736
L20960 13774
L20942 13792
L20904 13811
L20754 13811
" />
<path d="M21129 13642
L21148 13624
L21185 13605
L21279 13605
L21317 13624
L21335 13642
L21354 13680
L21354 13717
L21335 13774
L21110 13999
L21354 13999
" />
<path d="M21504 13642
L21523 13624
L21560 13605
L21654 13605
L21692 13624
L21710 13642
L21729 13680
L21729 13717
L21710 13774
L21485 13999
L21729 13999
" />
<path d="M22774 12862
L22643 12674
" />
<path d="M22549 12862
L22549 12468
L22699 12468
L22737 12487
L22755 12506
L22774 12543
L22774 12599
L22755 12637
L22737 12656
L22699 12674
L22549 12674
" />
<path d="M22924 12506
L22943 12487
L22980 12468
L23074 12468
L23112 12487
L23130 12506
L23149 12543
L23149 12581
L23130 12637
L22905 12862
L23149 12862
" />
<path d="M23280 12468
L23524 12468
L23393 12618
L23449 12618
L23487 12637
L23505 12656
L23524 12693
L23524 12787
L23505 12824
L23487 12843
L23449 12862
L23337 12862
L23299 12843
L23280 12824
" />
<path d="M23974 5677
L23843 5489
" />
<path d="M23749 5677
L23749 5283
L23899 5283
L23937 5302
L23955 5321
L23974 5358
L23974 5414
L23955 5452
L23937 5471
L23899 5489
L23749 5489
" />
<path d="M24124 5321
L24143 5302
L24180 5283
L24274 5283
L24312 5302
L24330 5321
L24349 5358
L24349 5396
L24330 5452
L24105 5677
L24349 5677
" />
<path d="M24687 5414
L24687 5677
" />
<path d="M24593 5264
L24499 5546
L24743 5546
" />
<path d="M21967 5836
L21780 5967
" />
<path d="M21967 6061
L21574 6061
L21574 5911
L21593 5873
L21611 5854
L21649 5836
L21705 5836
L21742 5854
L21761 5873
L21780 5911
L21780 6061
" />
<path d="M21611 5686
L21593 5667
L21574 5629
L21574 5536
L21593 5498
L21611 5480
L21649 5461
L21686 5461
L21742 5480
L21967 5704
L21967 5461
" />
<path d="M21574 5105
L21574 5292
L21761 5311
L21742 5292
L21724 5255
L21724 5161
L21742 5123
L21761 5105
L21799 5086
L21892 5086
L21930 5105
L21949 5123
L21967 5161
L21967 5255
L21949 5292
L21930 5311
" />
<path d="M20856 17955
L20669 18086
" />
<path d="M20856 18180
L20463 18180
L20463 18030
L20482 17992
L20500 17973
L20538 17955
L20594 17955
L20631 17973
L20650 17992
L20669 18030
L20669 18180
" />
<path d="M20500 17805
L20482 17786
L20463 17748
L20463 17655
L20482 17617
L20500 17599
L20538 17580
L20575 17580
L20631 17599
L20856 17823
L20856 17580
" />
<path d="M20463 17242
L20463 17317
L20482 17355
L20500 17374
L20556 17411
L20631 17430
L20781 17430
L20819 17411
L20838 17392
L20856 17355
L20856 17280
L20838 17242
L20819 17224
L20781 17205
L20688 17205
L20650 17224
L20631 17242
L20613 17280
L20613 17355
L20631 17392
L20650 17411
L20688 17430
" />
<path d="M22573 14586
L22386 14717
" />
<path d="M22573 14811
L22179 14811
L22179 14661
L22198 14623
L22217 14605
L22254 14586
L22311 14586
L22348 14605
L22367 14623
L22386 14661
L22386 14811
" />
<path d="M22217 14436
L22198 14417
L22179 14380
L22179 14286
L22198 14248
L22217 14230
L22254 14211
L22292 14211
L22348 14230
L22573 14455
L22573 14211
" />
<path d="M22179 14080
L22179 13817
L22573 13986
" />
<path d="M25743 14816
L25556 14947
" />
<path d="M25743 15041
L25349 15041
L25349 14891
L25368 14853
L25387 14834
L25424 14816
L25481 14816
L25518 14834
L25537 14853
L25556 14891
L25556 15041
" />
<path d="M25387 14666
L25368 14647
L25349 14609
L25349 14516
L25368 14478
L25387 14460
L25424 14441
L25462 14441
L25518 14460
L25743 14684
L25743 14441
" />
<path d="M25518 14216
L25499 14253
L25481 14272
L25443 14291
L25424 14291
L25387 14272
L25368 14253
L25349 14216
L25349 14141
L25368 14103
L25387 14085
L25424 14066
L25443 14066
L25481 14085
L25499 14103
L25518 14141
L25518 14216
L25537 14253
L25556 14272
L25593 14291
L25668 14291
L25706 14272
L25724 14253
L25743 14216
L25743 14141
L25724 14103
L25706 14085
L25668 14066
L25593 14066
L25556 14085
L25537 14103
L25518 14141
" />
<path d="M23246 5223
L23059 5354
" />
<path d="M23246 5448
L22853 5448
L22853 5298
L22872 5260
L22890 5241
L22928 5223
L22984 5223
L23021 5241
L23040 5260
L23059 5298
L23059 5448
" />
<path d="M22890 5073
L22872 5054
L22853 5016
L22853 4923
L22872 4885
L22890 4867
L22928 4848
L22965 4848
L23021 4867
L23246 5091
L23246 4848
" />
<path d="M23246 4660
L23246 4585
L23228 4548
L23209 4529
L23153 4492
L23078 4473
L22928 4473
L22890 4492
L22872 4510
L22853 4548
L22853 4623
L22872 4660
L22890 4679
L22928 4698
L23021 4698
L23059 4679
L23078 4660
L23096 4623
L23096 4548
L23078 4510
L23059 4492
L23021 4473
" />
<path d="M19922 5434
L19735 5565
" />
<path d="M19922 5659
L19529 5659
L19529 5509
L19548 5471
L19566 5453
L19604 5434
L19660 5434
L19697 5453
L19716 5471
L19735 5509
L19735 5659
" />
<path d="M19529 5303
L19529 5059
L19679 5190
L19679 5134
L19697 5096
L19716 5078
L19754 5059
L19847 5059
L19885 5078
L19904 5096
L19922 5134
L19922 5246
L19904 5284
L19885 5303
" />
<path d="M19529 4815
L19529 4778
L19548 4740
L19566 4721
L19604 4703
L19679 4684
L19772 4684
L19847 4703
L19885 4721
L19904 4740
L19922 4778
L19922 4815
L19904 4853
L19885 4871
L19847 4890
L19772 4909
L19679 4909
L19604 4890
L19566 4871
L19548 4853
L19529 4815
" />
<path d="M22891 18140
L22704 18271
" />
<path d="M22891 18365
L22498 18365
L22498 18215
L22517 18177
L22535 18158
L22573 18140
L22629 18140
L22666 18158
L22685 18177
L22704 18215
L22704 18365
" />
<path d="M22498 18008
L22498 17765
L22648 17896
L22648 17840
L22666 17802
L22685 17784
L22723 17765
L22816 17765
L22854 17784
L22873 17802
L22891 17840
L22891 17952
L22873 17990
L22854 18008
" />
<path d="M22891 17390
L22891 17615
" />
<path d="M22891 17502
L22498 17502
L22554 17540
L22591 17577
L22610 17615
" />
<path d="M20563 14406
L20376 14537
" />
<path d="M20563 14631
L20169 14631
L20169 14481
L20188 14443
L20207 14425
L20244 14406
L20301 14406
L20338 14425
L20357 14443
L20376 14481
L20376 14631
" />
<path d="M20169 14275
L20169 14031
L20319 14162
L20319 14106
L20338 14068
L20357 14050
L20394 14031
L20488 14031
L20526 14050
L20544 14068
L20563 14106
L20563 14218
L20544 14256
L20526 14275
" />
<path d="M20207 13881
L20188 13862
L20169 13825
L20169 13731
L20188 13693
L20207 13675
L20244 13656
L20282 13656
L20338 13675
L20563 13900
L20563 13656
" />
<path d="M23601 14691
L23414 14822
" />
<path d="M23601 14916
L23207 14916
L23207 14766
L23226 14728
L23245 14709
L23282 14691
L23339 14691
L23376 14709
L23395 14728
L23414 14766
L23414 14916
" />
<path d="M23207 14559
L23207 14316
L23357 14447
L23357 14391
L23376 14353
L23395 14334
L23432 14316
L23526 14316
L23564 14334
L23582 14353
L23601 14391
L23601 14503
L23582 14541
L23564 14559
" />
<path d="M23207 14184
L23207 13941
L23357 14072
L23357 14016
L23376 13978
L23395 13959
L23432 13941
L23526 13941
L23564 13959
L23582 13978
L23601 14016
L23601 14128
L23582 14166
L23564 14184
" />
<path d="M24600 4763
L24469 4575
" />
<path d="M24375 4763
L24375 4369
L24525 4369
L24562 4388
L24581 4407
L24600 4444
L24600 4500
L24581 4538
L24562 4556
L24525 4575
L24375 4575
" />
<path d="M24731 4369
L24975 4369
L24844 4519
L24900 4519
L24937 4538
L24956 4556
L24975 4594
L24975 4688
L24956 4725
L24937 4744
L24900 4763
L24787 4763
L24750 4744
L24731 4725
" />
<path d="M25312 4500
L25312 4763
" />
<path d="M25219 4350
L25125 4631
L25369 4631
" />
<path d="M21164 5037
L21033 4849
" />
<path d="M20939 5037
L20939 4643
L21089 4643
L21127 4662
L21145 4680
L21164 4718
L21164 4774
L21145 4812
L21127 4830
L21089 4849
L20939 4849
" />
<path d="M21295 4643
L21539 4643
L21408 4793
L21464 4793
L21502 4812
L21520 4830
L21539 4868
L21539 4962
L21520 4999
L21502 5018
L21464 5037
L21352 5037
L21314 5018
L21295 4999
" />
<path d="M21895 4643
L21708 4643
L21689 4830
L21708 4812
L21745 4793
L21839 4793
L21876 4812
L21895 4830
L21914 4868
L21914 4962
L21895 4999
L21876 5018
L21839 5037
L21745 5037
L21708 5018
L21689 4999
" />
<path d="M24429 26185
L24748 26185
L24785 26166
L24804 26147
L24823 26110
L24823 26035
L24804 25997
L24785 25978
L24748 25960
L24429 25960
" />
<path d="M24429 25810
L24429 25566
L24579 25697
L24579 25641
L24598 25603
L24617 25585
L24654 25566
L24748 25566
L24785 25585
L24804 25603
L24823 25641
L24823 25753
L24804 25791
L24785 25810
" />
<path d="M19403 17285
L19216 17416
" />
<path d="M19403 17510
L19009 17510
L19009 17360
L19028 17322
L19047 17303
L19084 17285
L19141 17285
L19178 17303
L19197 17322
L19216 17360
L19216 17510
" />
<path d="M19141 16947
L19403 16947
" />
<path d="M18991 17041
L19272 17135
L19272 16891
" />
<path d="M19009 16778
L19009 16535
L19159 16666
L19159 16610
L19178 16572
L19197 16553
L19234 16535
L19328 16535
L19366 16553
L19384 16572
L19403 16610
L19403 16722
L19384 16760
L19366 16778
" />
<path d="M8964 27914
L8964 28233
L8983 28270
L9002 28289
L9039 28308
L9114 28308
L9152 28289
L9170 28270
L9189 28233
L9189 27914
" />
<path d="M9358 27952
L9377 27933
L9414 27914
L9508 27914
L9545 27933
L9564 27952
L9583 27989
L9583 28027
L9564 28083
L9339 28308
L9583 28308
" />
<path d="M11059 25887
L11059 25493
L11152 25493
L11209 25512
L11246 25549
L11265 25587
L11284 25662
L11284 25718
L11265 25793
L11246 25830
L11209 25868
L11152 25887
L11059 25887
" />
<path d="M11621 25624
L11621 25887
" />
<path d="M11527 25474
L11434 25755
L11677 25755
" />
<path d="M17904 21975
L17510 21975
L17510 21881
L17529 21825
L17566 21788
L17604 21769
L17679 21750
L17735 21750
L17810 21769
L17847 21788
L17885 21825
L17904 21881
L17904 21975
" />
<path d="M17904 21563
L17904 21488
L17885 21450
L17866 21432
L17810 21394
L17735 21375
L17585 21375
L17547 21394
L17529 21413
L17510 21450
L17510 21525
L17529 21563
L17547 21582
L17585 21600
L17679 21600
L17716 21582
L17735 21563
L17754 21525
L17754 21450
L17735 21413
L17716 21394
L17679 21375
" />
<path d="M40513 11465
L40532 11484
L40551 11540
L40551 11578
L40532 11634
L40495 11671
L40457 11690
L40382 11709
L40326 11709
L40251 11690
L40213 11671
L40176 11634
L40157 11578
L40157 11540
L40176 11484
L40195 11465
" />
<path d="M40157 11221
L40157 11146
L40176 11109
L40213 11071
L40288 11053
L40420 11053
L40495 11071
L40532 11109
L40551 11146
L40551 11221
L40532 11259
L40495 11296
L40420 11315
L40288 11315
L40213 11296
L40176 11259
L40157 11221
" />
<path d="M40551 10884
L40157 10884
L40551 10659
L40157 10659
" />
<path d="M40195 10490
L40176 10472
L40157 10434
L40157 10340
L40176 10303
L40195 10284
L40232 10265
L40270 10265
L40326 10284
L40551 10509
L40551 10265
" />
<path d="M40551 9890
L40551 10115
" />
<path d="M40551 10003
L40157 10003
L40213 10040
L40251 10078
L40270 10115
" />
<path d="M9805 11465
L9823 11484
L9842 11540
L9842 11578
L9823 11634
L9786 11671
L9748 11690
L9673 11709
L9617 11709
L9542 11690
L9505 11671
L9467 11634
L9448 11578
L9448 11540
L9467 11484
L9486 11465
" />
<path d="M9448 11221
L9448 11146
L9467 11109
L9505 11071
L9580 11053
L9711 11053
L9786 11071
L9823 11109
L9842 11146
L9842 11221
L9823 11259
L9786 11296
L9711 11315
L9580 11315
L9505 11296
L9467 11259
L9448 11221
" />
<path d="M9842 10884
L9448 10884
L9842 10659
L9448 10659
" />
<path d="M9842 10265
L9842 10490
" />
<path d="M9842 10378
L9448 10378
L9505 10415
L9542 10453
L9561 10490
" />
<path d="M9842 9890
L9842 10115
" />
<path d="M9842 10003
L9448 10003
L9505 10040
L9542 10078
L9561 10115
" />
<path d="M11030 893
L10898 705
" />
<path d="M10805 893
L10805 499
L10955 499
L10992 518
L11011 537
L11030 574
L11030 630
L11011 668
L10992 686
L10955 705
L10805 705
" />
<path d="M11198 686
L11330 686
" />
<path d="M11386 893
L11198 893
L11198 499
L11386 499
" />
<path d="M11686 686
L11555 686
" />
<path d="M11555 893
L11555 499
L11742 499
" />
<path d="M11948 499
L11948 593
" />
<path d="M11855 555
L11948 593
L12042 555
" />
<path d="M11892 668
L11948 593
L12005 668
" />
<path d="M12248 499
L12248 593
" />
<path d="M12155 555
L12248 593
L12342 555
" />
<path d="M12192 668
L12248 593
L12305 668
" />
<path d="M15632 8617
L15595 8598
L15557 8561
L15501 8504
L15464 8486
L15426 8486
" />
<path d="M15445 8579
L15407 8561
L15370 8523
L15351 8448
L15351 8317
L15370 8242
L15407 8205
L15445 8186
L15520 8186
L15557 8205
L15595 8242
L15614 8317
L15614 8448
L15595 8523
L15557 8561
L15520 8579
L15445 8579
" />
<path d="M15839 8355
L15801 8336
L15782 8317
L15764 8280
L15764 8261
L15782 8223
L15801 8205
L15839 8186
L15914 8186
L15951 8205
L15970 8223
L15989 8261
L15989 8280
L15970 8317
L15951 8336
L15914 8355
L15839 8355
L15801 8373
L15782 8392
L15764 8430
L15764 8504
L15782 8542
L15801 8561
L15839 8579
L15914 8579
L15951 8561
L15970 8542
L15989 8504
L15989 8430
L15970 8392
L15951 8373
L15914 8355
" />
<path d="M13921 9721
L13790 9533
" />
<path d="M13696 9721
L13696 9327
L13846 9327
L13884 9346
L13902 9364
L13921 9402
L13921 9458
L13902 9496
L13884 9514
L13846 9533
L13696 9533
" />
<path d="M14259 9458
L14259 9721
" />
<path d="M14165 9308
L14071 9589
L14315 9589
" />
<path d="M14671 9721
L14446 9721
" />
<path d="M14559 9721
L14559 9327
L14521 9383
L14484 9421
L14446 9439
" />
<path d="M13925 9364
L13794 9176
" />
<path d="M13700 9364
L13700 8970
L13850 8970
L13888 8989
L13906 9008
L13925 9045
L13925 9101
L13906 9139
L13888 9158
L13850 9176
L13700 9176
" />
<path d="M14263 9101
L14263 9364
" />
<path d="M14169 8951
L14075 9233
L14319 9233
" />
<path d="M14450 9008
L14469 8989
L14506 8970
L14600 8970
L14637 8989
L14656 9008
L14675 9045
L14675 9083
L14656 9139
L14431 9364
L14675 9364
" />
<path d="M39929 29815
L39948 29834
L39967 29890
L39967 29928
L39948 29984
L39910 30021
L39873 30040
L39798 30059
L39742 30059
L39667 30040
L39629 30021
L39592 29984
L39573 29928
L39573 29890
L39592 29834
L39610 29815
" />
<path d="M39610 29665
L39592 29646
L39573 29609
L39573 29515
L39592 29478
L39610 29459
L39648 29440
L39685 29440
L39742 29459
L39967 29684
L39967 29440
" />
<path d="M39967 29065
L39967 29290
" />
<path d="M39967 29178
L39573 29178
L39629 29215
L39667 29253
L39685 29290
" />
<path d="M40236 31025
L40254 31044
L40273 31100
L40273 31138
L40254 31194
L40217 31232
L40179 31250
L40104 31269
L40048 31269
L39973 31250
L39936 31232
L39898 31194
L39879 31138
L39879 31100
L39898 31044
L39917 31025
" />
<path d="M39917 30875
L39898 30857
L39879 30819
L39879 30725
L39898 30688
L39917 30669
L39954 30650
L39992 30650
L40048 30669
L40273 30894
L40273 30650
" />
<path d="M39879 30519
L39879 30275
L40029 30407
L40029 30350
L40048 30313
L40067 30294
L40104 30275
L40198 30275
L40236 30294
L40254 30313
L40273 30350
L40273 30463
L40254 30500
L40236 30519
" />
<path d="M38581 32589
L38562 32608
L38506 32627
L38469 32627
L38412 32608
L38375 32571
L38356 32533
L38337 32458
L38337 32402
L38356 32327
L38375 32289
L38412 32252
L38469 32233
L38506 32233
L38562 32252
L38581 32271
" />
<path d="M38731 32271
L38750 32252
L38787 32233
L38881 32233
L38919 32252
L38937 32271
L38956 32308
L38956 32346
L38937 32402
L38712 32627
L38956 32627
" />
<path d="M39312 32233
L39125 32233
L39106 32421
L39125 32402
L39162 32383
L39256 32383
L39294 32402
L39312 32421
L39331 32458
L39331 32552
L39312 32589
L39294 32608
L39256 32627
L39162 32627
L39125 32608
L39106 32589
" />
<path d="M36515 33347
L36496 33366
L36440 33385
L36403 33385
L36346 33366
L36309 33329
L36290 33291
L36271 33216
L36271 33160
L36290 33085
L36309 33047
L36346 33010
L36403 32991
L36440 32991
L36496 33010
L36515 33029
" />
<path d="M36665 33029
L36684 33010
L36721 32991
L36815 32991
L36853 33010
L36871 33029
L36890 33066
L36890 33104
L36871 33160
L36646 33385
L36890 33385
" />
<path d="M37228 32991
L37153 32991
L37115 33010
L37096 33029
L37059 33085
L37040 33160
L37040 33310
L37059 33347
L37078 33366
L37115 33385
L37190 33385
L37228 33366
L37246 33347
L37265 33310
L37265 33216
L37246 33179
L37228 33160
L37190 33141
L37115 33141
L37078 33160
L37059 33179
L37040 33216
" />
<path d="M31087 27462
L31106 27481
L31124 27537
L31124 27575
L31106 27631
L31068 27669
L31031 27687
L30956 27706
L30899 27706
L30824 27687
L30787 27669
L30749 27631
L30731 27575
L30731 27537
L30749 27481
L30768 27462
" />
<path d="M30768 27312
L30749 27294
L30731 27256
L30731 27162
L30749 27125
L30768 27106
L30806 27087
L30843 27087
L30899 27106
L31124 27331
L31124 27087
" />
<path d="M30899 26862
L30881 26900
L30862 26919
L30824 26937
L30806 26937
L30768 26919
L30749 26900
L30731 26862
L30731 26787
L30749 26750
L30768 26731
L30806 26712
L30824 26712
L30862 26731
L30881 26750
L30899 26787
L30899 26862
L30918 26900
L30937 26919
L30974 26937
L31049 26937
L31087 26919
L31106 26900
L31124 26862
L31124 26787
L31106 26750
L31087 26731
L31049 26712
L30974 26712
L30937 26731
L30918 26750
L30899 26787
" />
<path d="M28709 24389
L28690 24408
L28634 24427
L28596 24427
L28540 24408
L28503 24371
L28484 24333
L28465 24258
L28465 24202
L28484 24127
L28503 24089
L28540 24052
L28596 24033
L28634 24033
L28690 24052
L28709 24071
" />
<path d="M28859 24071
L28878 24052
L28915 24033
L29009 24033
L29046 24052
L29065 24071
L29084 24108
L29084 24146
L29065 24202
L28840 24427
L29084 24427
" />
<path d="M29271 24427
L29346 24427
L29384 24408
L29402 24389
L29440 24333
L29459 24258
L29459 24108
L29440 24071
L29421 24052
L29384 24033
L29309 24033
L29271 24052
L29252 24071
L29234 24108
L29234 24202
L29252 24239
L29271 24258
L29309 24277
L29384 24277
L29421 24258
L29440 24239
L29459 24202
" />
<path d="M38471 28007
L38452 28026
L38396 28045
L38359 28045
L38302 28026
L38265 27989
L38246 27951
L38227 27876
L38227 27820
L38246 27745
L38265 27707
L38302 27670
L38359 27651
L38396 27651
L38452 27670
L38471 27689
" />
<path d="M38602 27651
L38846 27651
L38715 27801
L38771 27801
L38809 27820
L38827 27839
L38846 27876
L38846 27970
L38827 28007
L38809 28026
L38771 28045
L38659 28045
L38621 28026
L38602 28007
" />
<path d="M39221 28045
L38996 28045
" />
<path d="M39109 28045
L39109 27651
L39071 27707
L39034 27745
L38996 27764
" />
<path d="M31262 24559
L31281 24577
L31299 24634
L31299 24671
L31281 24727
L31243 24765
L31206 24784
L31131 24802
L31074 24802
L30999 24784
L30962 24765
L30924 24727
L30906 24671
L30906 24634
L30924 24577
L30943 24559
" />
<path d="M30906 24427
L30906 24184
L31056 24315
L31056 24259
L31074 24221
L31093 24202
L31131 24184
L31224 24184
L31262 24202
L31281 24221
L31299 24259
L31299 24371
L31281 24409
L31262 24427
" />
<path d="M30943 24034
L30924 24015
L30906 23978
L30906 23884
L30924 23846
L30943 23828
L30981 23809
L31018 23809
L31074 23828
L31299 24053
L31299 23809
" />
<path d="M38476 24227
L38457 24246
L38401 24265
L38364 24265
L38307 24246
L38270 24209
L38251 24171
L38232 24096
L38232 24040
L38251 23965
L38270 23927
L38307 23890
L38364 23871
L38401 23871
L38457 23890
L38476 23909
" />
<path d="M38607 23871
L38851 23871
L38720 24021
L38776 24021
L38814 24040
L38832 24059
L38851 24096
L38851 24190
L38832 24227
L38814 24246
L38776 24265
L38664 24265
L38626 24246
L38607 24227
" />
<path d="M38982 23871
L39226 23871
L39095 24021
L39151 24021
L39189 24040
L39207 24059
L39226 24096
L39226 24190
L39207 24227
L39189 24246
L39151 24265
L39039 24265
L39001 24246
L38982 24227
" />
<path d="M41666 27522
L41666 27128
L41760 27128
L41816 27147
L41854 27184
L41872 27222
L41891 27297
L41891 27353
L41872 27428
L41854 27465
L41816 27503
L41760 27522
L41666 27522
" />
<path d="M42266 27522
L42041 27522
" />
<path d="M42154 27522
L42154 27128
L42116 27184
L42079 27222
L42041 27240
" />
<path d="M42454 27522
L42529 27522
L42566 27503
L42585 27484
L42622 27428
L42641 27353
L42641 27203
L42622 27165
L42604 27147
L42566 27128
L42491 27128
L42454 27147
L42435 27165
L42416 27203
L42416 27297
L42435 27334
L42454 27353
L42491 27372
L42566 27372
L42604 27353
L42622 27334
L42641 27297
" />
<path d="M34036 30794
L34036 30400
L34130 30400
L34186 30419
L34223 30456
L34242 30494
L34261 30569
L34261 30625
L34242 30700
L34223 30738
L34186 30775
L34130 30794
L34036 30794
" />
<path d="M34411 30438
L34430 30419
L34467 30400
L34561 30400
L34598 30419
L34617 30438
L34636 30475
L34636 30513
L34617 30569
L34392 30794
L34636 30794
" />
<path d="M34879 30400
L34917 30400
L34954 30419
L34973 30438
L34992 30475
L35011 30550
L35011 30644
L34992 30719
L34973 30756
L34954 30775
L34917 30794
L34879 30794
L34842 30775
L34823 30756
L34804 30719
L34786 30644
L34786 30550
L34804 30475
L34823 30438
L34842 30419
L34879 30400
" />
<path d="M43054 30277
L42660 30277
L42660 30184
L42679 30127
L42716 30090
L42754 30071
L42829 30052
L42885 30052
L42960 30071
L42997 30090
L43035 30127
L43054 30184
L43054 30277
" />
<path d="M42697 29902
L42679 29884
L42660 29846
L42660 29752
L42679 29715
L42697 29696
L42735 29677
L42772 29677
L42829 29696
L43054 29921
L43054 29677
" />
<path d="M43054 29302
L43054 29527
" />
<path d="M43054 29415
L42660 29415
L42716 29452
L42754 29490
L42772 29527
" />
<path d="M36201 32874
L36201 32480
L36295 32480
L36351 32499
L36388 32536
L36407 32574
L36426 32649
L36426 32705
L36407 32780
L36388 32818
L36351 32855
L36295 32874
L36201 32874
" />
<path d="M36576 32518
L36595 32499
L36632 32480
L36726 32480
L36763 32499
L36782 32518
L36801 32555
L36801 32593
L36782 32649
L36557 32874
L36801 32874
" />
<path d="M36951 32518
L36969 32499
L37007 32480
L37101 32480
L37138 32499
L37157 32518
L37176 32555
L37176 32593
L37157 32649
L36932 32874
L37176 32874
" />
<path d="M36451 33017
L36451 32623
L36545 32623
L36601 32642
L36639 32679
L36657 32717
L36676 32792
L36676 32848
L36657 32923
L36639 32960
L36601 32998
L36545 33017
L36451 33017
" />
<path d="M36826 32660
L36845 32642
L36882 32623
L36976 32623
L37014 32642
L37032 32660
L37051 32698
L37051 32735
L37032 32792
L36807 33017
L37051 33017
" />
<path d="M37182 32623
L37426 32623
L37295 32773
L37351 32773
L37389 32792
L37407 32810
L37426 32848
L37426 32942
L37407 32979
L37389 32998
L37351 33017
L37239 33017
L37201 32998
L37182 32979
" />
<path d="M34501 33611
L34501 33217
L34595 33217
L34651 33236
L34689 33274
L34707 33311
L34726 33386
L34726 33442
L34707 33517
L34689 33555
L34651 33592
L34595 33611
L34501 33611
" />
<path d="M34876 33255
L34895 33236
L34932 33217
L35026 33217
L35064 33236
L35082 33255
L35101 33292
L35101 33330
L35082 33386
L34857 33611
L35101 33611
" />
<path d="M35326 33386
L35289 33367
L35270 33349
L35251 33311
L35251 33292
L35270 33255
L35289 33236
L35326 33217
L35401 33217
L35439 33236
L35457 33255
L35476 33292
L35476 33311
L35457 33349
L35439 33367
L35401 33386
L35326 33386
L35289 33405
L35270 33424
L35251 33461
L35251 33536
L35270 33574
L35289 33592
L35326 33611
L35401 33611
L35439 33592
L35457 33574
L35476 33536
L35476 33461
L35457 33424
L35439 33405
L35401 33386
" />
<path d="M38716 22415
L38528 22415
L38528 22021
" />
<path d="M38809 22021
L39053 22021
L38922 22171
L38978 22171
L39015 22190
L39034 22208
L39053 22246
L39053 22340
L39034 22377
L39015 22396
L38978 22415
L38866 22415
L38828 22396
L38809 22377
" />
<path d="M40665 26747
L40628 26728
L40590 26691
L40534 26634
L40497 26616
L40459 26616
" />
<path d="M40478 26709
L40440 26691
L40403 26653
L40384 26578
L40384 26447
L40403 26372
L40440 26335
L40478 26316
L40553 26316
L40590 26335
L40628 26372
L40647 26447
L40647 26578
L40628 26653
L40590 26691
L40553 26709
L40478 26709
" />
<path d="M40834 26709
L40909 26709
L40947 26691
L40965 26672
L41003 26616
L41022 26541
L41022 26391
L41003 26353
L40984 26335
L40947 26316
L40872 26316
L40834 26335
L40815 26353
L40797 26391
L40797 26484
L40815 26522
L40834 26541
L40872 26559
L40947 26559
L40984 26541
L41003 26522
L41022 26484
" />
<path d="M34167 14646
L34148 14683
L34110 14721
L34054 14777
L34035 14815
L34035 14852
" />
<path d="M34129 14833
L34110 14871
L34073 14908
L33998 14927
L33867 14927
L33792 14908
L33754 14871
L33735 14833
L33735 14758
L33754 14721
L33792 14683
L33867 14665
L33998 14665
L34073 14683
L34110 14721
L34129 14758
L34129 14833
" />
<path d="M34129 14290
L34129 14515
" />
<path d="M34129 14402
L33735 14402
L33792 14440
L33829 14477
L33848 14515
" />
<path d="M34129 13915
L34129 14140
" />
<path d="M34129 14027
L33735 14027
L33792 14065
L33829 14102
L33848 14140
" />
<path d="M31864 5871
L31845 5909
L31807 5946
L31751 6003
L31732 6040
L31732 6078
" />
<path d="M31826 6059
L31807 6096
L31770 6134
L31695 6153
L31564 6153
L31489 6134
L31451 6096
L31432 6059
L31432 5984
L31451 5946
L31489 5909
L31564 5890
L31695 5890
L31770 5909
L31807 5946
L31826 5984
L31826 6059
" />
<path d="M31826 5515
L31826 5740
" />
<path d="M31826 5628
L31432 5628
L31489 5665
L31526 5703
L31545 5740
" />
<path d="M31470 5365
L31451 5346
L31432 5309
L31432 5215
L31451 5178
L31470 5159
L31507 5140
L31545 5140
L31601 5159
L31826 5384
L31826 5140
" />
<path d="M28869 5887
L28850 5925
L28812 5962
L28756 6019
L28737 6056
L28737 6094
" />
<path d="M28831 6075
L28812 6112
L28775 6150
L28700 6169
L28569 6169
L28494 6150
L28456 6112
L28437 6075
L28437 6000
L28456 5962
L28494 5925
L28569 5906
L28700 5906
L28775 5925
L28812 5962
L28831 6000
L28831 6075
" />
<path d="M28831 5531
L28831 5756
" />
<path d="M28831 5644
L28437 5644
L28494 5681
L28531 5719
L28550 5756
" />
<path d="M28437 5400
L28437 5156
L28587 5287
L28587 5231
L28606 5194
L28625 5175
L28662 5156
L28756 5156
L28794 5175
L28812 5194
L28831 5231
L28831 5344
L28812 5381
L28794 5400
" />
<path d="M28196 14613
L28177 14650
L28139 14688
L28083 14744
L28064 14781
L28064 14819
" />
<path d="M28158 14800
L28139 14838
L28102 14875
L28027 14894
L27896 14894
L27821 14875
L27783 14838
L27764 14800
L27764 14725
L27783 14688
L27821 14650
L27896 14631
L28027 14631
L28102 14650
L28139 14688
L28158 14725
L28158 14800
" />
<path d="M28158 14256
L28158 14481
" />
<path d="M28158 14369
L27764 14369
L27821 14406
L27858 14444
L27877 14481
" />
<path d="M27896 13919
L28158 13919
" />
<path d="M27746 14013
L28027 14106
L28027 13863
" />
<path d="M31212 14625
L31193 14663
L31155 14700
L31099 14757
L31080 14794
L31080 14832
" />
<path d="M31174 14813
L31155 14850
L31118 14888
L31043 14907
L30912 14907
L30837 14888
L30799 14850
L30780 14813
L30780 14738
L30799 14700
L30837 14663
L30912 14644
L31043 14644
L31118 14663
L31155 14700
L31174 14738
L31174 14813
" />
<path d="M31174 14269
L31174 14494
" />
<path d="M31174 14382
L30780 14382
L30837 14419
L30874 14457
L30893 14494
" />
<path d="M30780 13913
L30780 14100
L30968 14119
L30949 14100
L30930 14063
L30930 13969
L30949 13932
L30968 13913
L31005 13894
L31099 13894
L31137 13913
L31155 13932
L31174 13969
L31174 14063
L31155 14100
L31137 14119
" />
<path d="M37196 8680
L37177 8717
L37140 8755
L37084 8811
L37065 8848
L37065 8886
" />
<path d="M37159 8867
L37140 8905
L37102 8942
L37027 8961
L36896 8961
L36821 8942
L36784 8905
L36765 8867
L36765 8792
L36784 8755
L36821 8717
L36896 8698
L37027 8698
L37102 8717
L37140 8755
L37159 8792
L37159 8867
" />
<path d="M37159 8323
L37159 8548
" />
<path d="M37159 8436
L36765 8436
L36821 8473
L36859 8511
L36877 8548
" />
<path d="M36765 7986
L36765 8061
L36784 8098
L36802 8117
L36859 8155
L36934 8173
L37084 8173
L37121 8155
L37140 8136
L37159 8098
L37159 8023
L37140 7986
L37121 7967
L37084 7948
L36990 7948
L36952 7967
L36934 7986
L36915 8023
L36915 8098
L36934 8136
L36952 8155
L36990 8173
" />
<path d="M41981 26852
L41850 26664
" />
<path d="M41756 26852
L41756 26458
L41906 26458
L41944 26477
L41962 26496
L41981 26533
L41981 26589
L41962 26627
L41944 26646
L41906 26664
L41756 26664
" />
<path d="M42319 26589
L42319 26852
" />
<path d="M42225 26439
L42131 26721
L42375 26721
" />
<path d="M42694 26458
L42619 26458
L42581 26477
L42562 26496
L42525 26552
L42506 26627
L42506 26777
L42525 26814
L42544 26833
L42581 26852
L42656 26852
L42694 26833
L42712 26814
L42731 26777
L42731 26683
L42712 26646
L42694 26627
L42656 26608
L42581 26608
L42544 26627
L42525 26646
L42506 26683
" />
<path d="M35008 31436
L34821 31567
" />
<path d="M35008 31661
L34614 31661
L34614 31511
L34633 31473
L34652 31455
L34689 31436
L34746 31436
L34783 31455
L34802 31473
L34821 31511
L34821 31661
" />
<path d="M34746 31098
L35008 31098
" />
<path d="M34596 31192
L34877 31286
L34877 31042
" />
<path d="M34614 30930
L34614 30667
L35008 30836
" />
<path d="M42378 30080
L42191 30211
" />
<path d="M42378 30305
L41984 30305
L41984 30155
L42003 30117
L42022 30098
L42059 30080
L42116 30080
L42153 30098
L42172 30117
L42191 30155
L42191 30305
" />
<path d="M42116 29742
L42378 29742
" />
<path d="M41966 29836
L42247 29930
L42247 29686
" />
<path d="M42153 29480
L42134 29517
L42116 29536
L42078 29555
L42059 29555
L42022 29536
L42003 29517
L41984 29480
L41984 29405
L42003 29367
L42022 29348
L42059 29330
L42078 29330
L42116 29348
L42134 29367
L42153 29405
L42153 29480
L42172 29517
L42191 29536
L42228 29555
L42303 29555
L42341 29536
L42359 29517
L42378 29480
L42378 29405
L42359 29367
L42341 29348
L42303 29330
L42228 29330
L42191 29348
L42172 29367
L42153 29405
" />
<path d="M38126 33154
L37995 32966
" />
<path d="M37901 33154
L37901 32760
L38051 32760
L38089 32779
L38107 32797
L38126 32835
L38126 32891
L38107 32929
L38089 32947
L38051 32966
L37901 32966
" />
<path d="M38482 32760
L38295 32760
L38276 32947
L38295 32929
L38332 32910
L38426 32910
L38464 32929
L38482 32947
L38501 32985
L38501 33079
L38482 33116
L38464 33135
L38426 33154
L38332 33154
L38295 33135
L38276 33116
" />
<path d="M38839 32891
L38839 33154
" />
<path d="M38745 32741
L38651 33022
L38895 33022
" />
<path d="M35883 29737
L35752 29549
" />
<path d="M35658 29737
L35658 29343
L35808 29343
L35846 29362
L35864 29381
L35883 29418
L35883 29474
L35864 29512
L35846 29531
L35808 29549
L35658 29549
" />
<path d="M36239 29343
L36052 29343
L36033 29531
L36052 29512
L36089 29493
L36183 29493
L36221 29512
L36239 29531
L36258 29568
L36258 29662
L36239 29699
L36221 29718
L36183 29737
L36089 29737
L36052 29718
L36033 29699
" />
<path d="M36614 29343
L36427 29343
L36408 29531
L36427 29512
L36464 29493
L36558 29493
L36595 29512
L36614 29531
L36633 29568
L36633 29662
L36614 29699
L36595 29718
L36558 29737
L36464 29737
L36427 29718
L36408 29699
" />
<path d="M34521 31431
L34334 31562
" />
<path d="M34521 31656
L34128 31656
L34128 31506
L34147 31468
L34165 31450
L34203 31431
L34259 31431
L34296 31450
L34315 31468
L34334 31506
L34334 31656
" />
<path d="M34128 31075
L34128 31262
L34315 31281
L34296 31262
L34278 31225
L34278 31131
L34296 31093
L34315 31075
L34353 31056
L34446 31056
L34484 31075
L34503 31093
L34521 31131
L34521 31225
L34503 31262
L34484 31281
" />
<path d="M34128 30718
L34128 30793
L34147 30831
L34165 30850
L34221 30887
L34296 30906
L34446 30906
L34484 30887
L34503 30868
L34521 30831
L34521 30756
L34503 30718
L34484 30700
L34446 30681
L34353 30681
L34315 30700
L34296 30718
L34278 30756
L34278 30831
L34296 30868
L34315 30887
L34353 30906
" />
<path d="M38511 24142
L38380 23954
" />
<path d="M38286 24142
L38286 23748
L38436 23748
L38474 23767
L38492 23786
L38511 23823
L38511 23879
L38492 23917
L38474 23936
L38436 23954
L38286 23954
" />
<path d="M38849 23748
L38774 23748
L38736 23767
L38717 23786
L38680 23842
L38661 23917
L38661 24067
L38680 24104
L38699 24123
L38736 24142
L38811 24142
L38849 24123
L38867 24104
L38886 24067
L38886 23973
L38867 23936
L38849 23917
L38811 23898
L38736 23898
L38699 23917
L38680 23936
L38661 23973
" />
<path d="M39017 23748
L39261 23748
L39130 23898
L39186 23898
L39224 23917
L39242 23936
L39261 23973
L39261 24067
L39242 24104
L39224 24123
L39186 24142
L39074 24142
L39036 24123
L39017 24104
" />
<path d="M30763 14543
L30576 14674
" />
<path d="M30763 14768
L30369 14768
L30369 14618
L30388 14580
L30407 14561
L30444 14543
L30501 14543
L30538 14561
L30557 14580
L30576 14618
L30576 14768
" />
<path d="M30369 14205
L30369 14280
L30388 14318
L30407 14336
L30463 14374
L30538 14393
L30688 14393
L30726 14374
L30744 14355
L30763 14318
L30763 14243
L30744 14205
L30726 14186
L30688 14168
L30594 14168
L30557 14186
L30538 14205
L30519 14243
L30519 14318
L30538 14355
L30557 14374
L30594 14393
" />
<path d="M30501 13830
L30763 13830
" />
<path d="M30351 13924
L30632 14018
L30632 13774
" />
<path d="M33789 14557
L33602 14688
" />
<path d="M33789 14782
L33395 14782
L33395 14632
L33414 14594
L33433 14575
L33470 14557
L33527 14557
L33564 14575
L33583 14594
L33602 14632
L33602 14782
" />
<path d="M33395 14219
L33395 14294
L33414 14332
L33433 14350
L33489 14388
L33564 14407
L33714 14407
L33752 14388
L33770 14369
L33789 14332
L33789 14257
L33770 14219
L33752 14200
L33714 14182
L33620 14182
L33583 14200
L33564 14219
L33545 14257
L33545 14332
L33564 14369
L33583 14388
L33620 14407
" />
<path d="M33395 13825
L33395 14013
L33583 14032
L33564 14013
L33545 13975
L33545 13882
L33564 13844
L33583 13825
L33620 13807
L33714 13807
L33752 13825
L33770 13844
L33789 13882
L33789 13975
L33770 14013
L33752 14032
" />
<path d="M36788 14588
L36601 14719
" />
<path d="M36788 14813
L36394 14813
L36394 14663
L36413 14625
L36432 14606
L36469 14588
L36526 14588
L36563 14606
L36582 14625
L36601 14663
L36601 14813
" />
<path d="M36394 14250
L36394 14325
L36413 14363
L36432 14381
L36488 14419
L36563 14438
L36713 14438
L36751 14419
L36769 14400
L36788 14363
L36788 14288
L36769 14250
L36751 14232
L36713 14213
L36619 14213
L36582 14232
L36563 14250
L36544 14288
L36544 14363
L36563 14400
L36582 14419
L36619 14438
" />
<path d="M36394 13875
L36394 13950
L36413 13988
L36432 14007
L36488 14044
L36563 14063
L36713 14063
L36751 14044
L36769 14025
L36788 13988
L36788 13913
L36769 13875
L36751 13857
L36713 13838
L36619 13838
L36582 13857
L36563 13875
L36544 13913
L36544 13988
L36563 14025
L36582 14044
L36619 14063
" />
<path d="M34481 5813
L34294 5944
" />
<path d="M34481 6038
L34087 6038
L34087 5888
L34106 5850
L34125 5831
L34162 5813
L34219 5813
L34256 5831
L34275 5850
L34294 5888
L34294 6038
" />
<path d="M34087 5475
L34087 5550
L34106 5588
L34125 5606
L34181 5644
L34256 5663
L34406 5663
L34444 5644
L34462 5625
L34481 5588
L34481 5513
L34462 5475
L34444 5456
L34406 5438
L34312 5438
L34275 5456
L34256 5475
L34237 5513
L34237 5588
L34256 5625
L34275 5644
L34312 5663
" />
<path d="M34087 5306
L34087 5044
L34481 5213
" />
<path d="M31466 5814
L31279 5945
" />
<path d="M31466 6039
L31072 6039
L31072 5889
L31091 5851
L31110 5832
L31147 5814
L31204 5814
L31241 5832
L31260 5851
L31279 5889
L31279 6039
" />
<path d="M31072 5476
L31072 5551
L31091 5589
L31110 5607
L31166 5645
L31241 5664
L31391 5664
L31429 5645
L31447 5626
L31466 5589
L31466 5514
L31447 5476
L31429 5457
L31391 5439
L31297 5439
L31260 5457
L31241 5476
L31222 5514
L31222 5589
L31241 5626
L31260 5645
L31297 5664
" />
<path d="M31241 5214
L31222 5251
L31204 5270
L31166 5289
L31147 5289
L31110 5270
L31091 5251
L31072 5214
L31072 5139
L31091 5101
L31110 5082
L31147 5064
L31166 5064
L31204 5082
L31222 5101
L31241 5139
L31241 5214
L31260 5251
L31279 5270
L31316 5289
L31391 5289
L31429 5270
L31447 5251
L31466 5214
L31466 5139
L31447 5101
L31429 5082
L31391 5064
L31316 5064
L31279 5082
L31260 5101
L31241 5139
" />
<path d="M31829 18240
L31698 18052
" />
<path d="M31604 18240
L31604 17846
L31754 17846
L31792 17865
L31810 17884
L31829 17921
L31829 17977
L31810 18015
L31792 18034
L31754 18052
L31604 18052
" />
<path d="M32167 17846
L32092 17846
L32054 17865
L32035 17884
L31998 17940
L31979 18015
L31979 18165
L31998 18202
L32017 18221
L32054 18240
L32129 18240
L32167 18221
L32185 18202
L32204 18165
L32204 18071
L32185 18034
L32167 18015
L32129 17996
L32054 17996
L32017 18015
L31998 18034
L31979 18071
" />
<path d="M32392 18240
L32467 18240
L32504 18221
L32523 18202
L32560 18146
L32579 18071
L32579 17921
L32560 17884
L32542 17865
L32504 17846
L32429 17846
L32392 17865
L32373 17884
L32354 17921
L32354 18015
L32373 18052
L32392 18071
L32429 18090
L32504 18090
L32542 18071
L32560 18052
L32579 18015
" />
<path d="M27466 14529
L27279 14660
" />
<path d="M27466 14754
L27073 14754
L27073 14604
L27092 14566
L27110 14548
L27148 14529
L27204 14529
L27241 14548
L27260 14566
L27279 14604
L27279 14754
" />
<path d="M27073 14398
L27073 14135
L27466 14304
" />
<path d="M27466 13779
L27466 14004
" />
<path d="M27466 13891
L27073 13891
L27129 13929
L27166 13966
L27185 14004
" />
<path d="M30462 14558
L30275 14689
" />
<path d="M30462 14783
L30069 14783
L30069 14633
L30088 14595
L30106 14577
L30144 14558
L30200 14558
L30237 14577
L30256 14595
L30275 14633
L30275 14783
" />
<path d="M30069 14427
L30069 14164
L30462 14333
" />
<path d="M30106 14033
L30088 14014
L30069 13977
L30069 13883
L30088 13845
L30106 13827
L30144 13808
L30181 13808
L30237 13827
L30462 14052
L30462 13808
" />
<path d="M33423 14576
L33236 14707
" />
<path d="M33423 14801
L33030 14801
L33030 14651
L33049 14613
L33067 14595
L33105 14576
L33161 14576
L33198 14595
L33217 14613
L33236 14651
L33236 14801
" />
<path d="M33030 14445
L33030 14182
L33423 14351
" />
<path d="M33030 14070
L33030 13826
L33180 13957
L33180 13901
L33198 13863
L33217 13845
L33255 13826
L33348 13826
L33386 13845
L33405 13863
L33423 13901
L33423 14013
L33405 14051
L33386 14070
" />
<path d="M31149 5794
L30962 5925
" />
<path d="M31149 6019
L30756 6019
L30756 5869
L30775 5831
L30793 5813
L30831 5794
L30887 5794
L30924 5813
L30943 5831
L30962 5869
L30962 6019
" />
<path d="M30756 5663
L30756 5400
L31149 5569
" />
<path d="M30887 5081
L31149 5081
" />
<path d="M30737 5175
L31018 5269
L31018 5025
" />
<path d="M28124 5805
L27937 5936
" />
<path d="M28124 6030
L27731 6030
L27731 5880
L27750 5842
L27768 5824
L27806 5805
L27862 5805
L27899 5824
L27918 5842
L27937 5880
L27937 6030
" />
<path d="M27731 5674
L27731 5411
L28124 5580
" />
<path d="M27731 5074
L27731 5261
L27918 5280
L27899 5261
L27881 5224
L27881 5130
L27899 5092
L27918 5074
L27956 5055
L28049 5055
L28087 5074
L28106 5092
L28124 5130
L28124 5224
L28106 5261
L28087 5280
" />
<path d="M31844 17733
L31713 17546
" />
<path d="M31619 17733
L31619 17340
L31769 17340
L31807 17358
L31825 17377
L31844 17414
L31844 17471
L31825 17508
L31807 17527
L31769 17546
L31619 17546
" />
<path d="M31975 17340
L32238 17340
L32069 17733
" />
<path d="M32557 17340
L32482 17340
L32444 17358
L32425 17377
L32388 17433
L32369 17508
L32369 17658
L32388 17696
L32407 17714
L32444 17733
L32519 17733
L32557 17714
L32575 17696
L32594 17658
L32594 17564
L32575 17527
L32557 17508
L32519 17489
L32444 17489
L32407 17508
L32388 17527
L32369 17564
" />
<path d="M28684 13015
L28553 12827
" />
<path d="M28459 13015
L28459 12621
L28609 12621
L28647 12640
L28665 12659
L28684 12696
L28684 12752
L28665 12790
L28647 12809
L28609 12827
L28459 12827
" />
<path d="M28815 12621
L29078 12621
L28909 13015
" />
<path d="M29284 12790
L29247 12771
L29228 12752
L29209 12715
L29209 12696
L29228 12659
L29247 12640
L29284 12621
L29359 12621
L29397 12640
L29415 12659
L29434 12696
L29434 12715
L29415 12752
L29397 12771
L29359 12790
L29284 12790
L29247 12809
L29228 12827
L29209 12865
L29209 12940
L29228 12977
L29247 12996
L29284 13015
L29359 13015
L29397 12996
L29415 12977
L29434 12940
L29434 12865
L29415 12827
L29397 12809
L29359 12790
" />
<path d="M31692 14151
L31561 13963
" />
<path d="M31467 14151
L31467 13757
L31617 13757
L31655 13776
L31673 13794
L31692 13832
L31692 13888
L31673 13926
L31655 13944
L31617 13963
L31467 13963
" />
<path d="M31823 13757
L32086 13757
L31917 14151
" />
<path d="M32255 14151
L32330 14151
L32367 14132
L32386 14113
L32423 14057
L32442 13982
L32442 13832
L32423 13794
L32405 13776
L32367 13757
L32292 13757
L32255 13776
L32236 13794
L32217 13832
L32217 13926
L32236 13963
L32255 13982
L32292 14001
L32367 14001
L32405 13982
L32423 13963
L32442 13926
" />
<path d="M34660 14179
L34529 13991
" />
<path d="M34435 14179
L34435 13785
L34585 13785
L34623 13804
L34641 13822
L34660 13860
L34660 13916
L34641 13954
L34623 13972
L34585 13991
L34435 13991
" />
<path d="M34885 13954
L34848 13935
L34829 13916
L34810 13879
L34810 13860
L34829 13822
L34848 13804
L34885 13785
L34960 13785
L34998 13804
L35016 13822
L35035 13860
L35035 13879
L35016 13916
L34998 13935
L34960 13954
L34885 13954
L34848 13972
L34829 13991
L34810 14029
L34810 14104
L34829 14141
L34848 14160
L34885 14179
L34960 14179
L34998 14160
L35016 14141
L35035 14104
L35035 14029
L35016 13991
L34998 13972
L34960 13954
" />
<path d="M35279 13785
L35316 13785
L35354 13804
L35372 13822
L35391 13860
L35410 13935
L35410 14029
L35391 14104
L35372 14141
L35354 14160
L35316 14179
L35279 14179
L35241 14160
L35222 14141
L35204 14104
L35185 14029
L35185 13935
L35204 13860
L35222 13822
L35241 13804
L35279 13785
" />
<path d="M32387 5392
L32256 5204
" />
<path d="M32162 5392
L32162 4998
L32312 4998
L32350 5017
L32368 5035
L32387 5073
L32387 5129
L32368 5167
L32350 5185
L32312 5204
L32162 5204
" />
<path d="M32612 5167
L32575 5148
L32556 5129
L32537 5092
L32537 5073
L32556 5035
L32575 5017
L32612 4998
L32687 4998
L32725 5017
L32743 5035
L32762 5073
L32762 5092
L32743 5129
L32725 5148
L32687 5167
L32612 5167
L32575 5185
L32556 5204
L32537 5242
L32537 5317
L32556 5354
L32575 5373
L32612 5392
L32687 5392
L32725 5373
L32743 5354
L32762 5317
L32762 5242
L32743 5204
L32725 5185
L32687 5167
" />
<path d="M33137 5392
L32912 5392
" />
<path d="M33025 5392
L33025 4998
L32987 5054
L32950 5092
L32912 5110
" />
<path d="M29352 5413
L29221 5225
" />
<path d="M29127 5413
L29127 5019
L29277 5019
L29315 5038
L29333 5056
L29352 5094
L29352 5150
L29333 5188
L29315 5206
L29277 5225
L29127 5225
" />
<path d="M29577 5188
L29540 5169
L29521 5150
L29502 5113
L29502 5094
L29521 5056
L29540 5038
L29577 5019
L29652 5019
L29690 5038
L29708 5056
L29727 5094
L29727 5113
L29708 5150
L29690 5169
L29652 5188
L29577 5188
L29540 5206
L29521 5225
L29502 5263
L29502 5338
L29521 5375
L29540 5394
L29577 5413
L29652 5413
L29690 5394
L29708 5375
L29727 5338
L29727 5263
L29708 5225
L29690 5206
L29652 5188
" />
<path d="M29877 5056
L29896 5038
L29933 5019
L30027 5019
L30065 5038
L30083 5056
L30102 5094
L30102 5131
L30083 5188
L29858 5413
L30102 5413
" />
<path d="M35798 17281
L35611 17412
" />
<path d="M35798 17506
L35404 17506
L35404 17356
L35423 17318
L35442 17300
L35479 17281
L35536 17281
L35573 17300
L35592 17318
L35611 17356
L35611 17506
" />
<path d="M35573 17056
L35554 17093
L35536 17112
L35498 17131
L35479 17131
L35442 17112
L35423 17093
L35404 17056
L35404 16981
L35423 16943
L35442 16925
L35479 16906
L35498 16906
L35536 16925
L35554 16943
L35573 16981
L35573 17056
L35592 17093
L35611 17112
L35648 17131
L35723 17131
L35761 17112
L35779 17093
L35798 17056
L35798 16981
L35779 16943
L35761 16925
L35723 16906
L35648 16906
L35611 16925
L35592 16943
L35573 16981
" />
<path d="M35404 16775
L35404 16531
L35554 16662
L35554 16606
L35573 16568
L35592 16550
L35629 16531
L35723 16531
L35761 16550
L35779 16568
L35798 16606
L35798 16718
L35779 16756
L35761 16775
" />
<path d="M37785 8508
L37598 8639
" />
<path d="M37785 8733
L37391 8733
L37391 8583
L37410 8545
L37429 8526
L37466 8508
L37523 8508
L37560 8526
L37579 8545
L37598 8583
L37598 8733
" />
<path d="M37560 8283
L37541 8320
L37523 8339
L37485 8358
L37466 8358
L37429 8339
L37410 8320
L37391 8283
L37391 8208
L37410 8170
L37429 8152
L37466 8133
L37485 8133
L37523 8152
L37541 8170
L37560 8208
L37560 8283
L37579 8320
L37598 8339
L37635 8358
L37710 8358
L37748 8339
L37766 8320
L37785 8283
L37785 8208
L37766 8170
L37748 8152
L37710 8133
L37635 8133
L37598 8152
L37579 8170
L37560 8208
" />
<path d="M37785 7945
L37785 7870
L37766 7833
L37748 7814
L37691 7777
L37616 7758
L37466 7758
L37429 7777
L37410 7795
L37391 7833
L37391 7908
L37410 7945
L37429 7964
L37466 7983
L37560 7983
L37598 7964
L37616 7945
L37635 7908
L37635 7833
L37616 7795
L37598 7777
L37560 7758
" />
<path d="M36176 10209
L36045 10021
" />
<path d="M35951 10209
L35951 9815
L36101 9815
L36139 9834
L36157 9852
L36176 9890
L36176 9946
L36157 9984
L36139 10002
L36101 10021
L35951 10021
" />
<path d="M36364 10209
L36439 10209
L36476 10190
L36495 10171
L36532 10115
L36551 10040
L36551 9890
L36532 9852
L36514 9834
L36476 9815
L36401 9815
L36364 9834
L36345 9852
L36326 9890
L36326 9984
L36345 10021
L36364 10040
L36401 10059
L36476 10059
L36514 10040
L36532 10021
L36551 9984
" />
<path d="M36795 9815
L36832 9815
L36870 9834
L36889 9852
L36907 9890
L36926 9965
L36926 10059
L36907 10134
L36889 10171
L36870 10190
L36832 10209
L36795 10209
L36757 10190
L36739 10171
L36720 10134
L36701 10059
L36701 9965
L36720 9890
L36739 9852
L36757 9834
L36795 9815
" />
<path d="M36604 29886
L36922 29886
L36960 29867
L36979 29848
L36997 29811
L36997 29736
L36979 29698
L36960 29680
L36922 29661
L36604 29661
" />
<path d="M36604 29511
L36604 29249
L36997 29417
" />
<path d="M37949 26255
L38268 26255
L38305 26236
L38324 26217
L38343 26180
L38343 26105
L38324 26067
L38305 26048
L38268 26030
L37949 26030
" />
<path d="M38118 25786
L38099 25823
L38080 25842
L38043 25861
L38024 25861
L37987 25842
L37968 25823
L37949 25786
L37949 25711
L37968 25673
L37987 25655
L38024 25636
L38043 25636
L38080 25655
L38099 25673
L38118 25711
L38118 25786
L38137 25823
L38155 25842
L38193 25861
L38268 25861
L38305 25842
L38324 25823
L38343 25786
L38343 25711
L38324 25673
L38305 25655
L38268 25636
L38193 25636
L38155 25655
L38137 25673
L38118 25711
" />
<path d="M29788 29297
L29750 29278
L29713 29241
L29657 29184
L29619 29166
L29582 29166
" />
<path d="M29600 29259
L29563 29241
L29525 29203
L29507 29128
L29507 28997
L29525 28922
L29563 28885
L29600 28866
L29675 28866
L29713 28885
L29750 28922
L29769 28997
L29769 29128
L29750 29203
L29713 29241
L29675 29259
L29600 29259
" />
<path d="M30144 29259
L29919 29259
" />
<path d="M30032 29259
L30032 28866
L29994 28922
L29957 28959
L29919 28978
" />
<path d="M30275 28866
L30538 28866
L30369 29259
" />
<path d="M29783 27790
L29745 27771
L29708 27734
L29652 27677
L29614 27659
L29577 27659
" />
<path d="M29595 27752
L29558 27734
L29520 27696
L29502 27621
L29502 27490
L29520 27415
L29558 27378
L29595 27359
L29670 27359
L29708 27378
L29745 27415
L29764 27490
L29764 27621
L29745 27696
L29708 27734
L29670 27752
L29595 27752
" />
<path d="M30139 27752
L29914 27752
" />
<path d="M30027 27752
L30027 27359
L29989 27415
L29952 27453
L29914 27471
" />
<path d="M30364 27528
L30327 27509
L30308 27490
L30289 27453
L30289 27434
L30308 27396
L30327 27378
L30364 27359
L30439 27359
L30477 27378
L30495 27396
L30514 27434
L30514 27453
L30495 27490
L30477 27509
L30439 27528
L30364 27528
L30327 27546
L30308 27565
L30289 27603
L30289 27677
L30308 27715
L30327 27734
L30364 27752
L30439 27752
L30477 27734
L30495 27715
L30514 27677
L30514 27603
L30495 27565
L30477 27546
L30439 27528
" />
<path d="M28201 31859
L28070 31671
" />
<path d="M27976 31859
L27976 31465
L28126 31465
L28164 31484
L28182 31502
L28201 31540
L28201 31596
L28182 31634
L28164 31652
L28126 31671
L27976 31671
" />
<path d="M28389 31859
L28464 31859
L28501 31840
L28520 31821
L28557 31765
L28576 31690
L28576 31540
L28557 31502
L28539 31484
L28501 31465
L28426 31465
L28389 31484
L28370 31502
L28351 31540
L28351 31634
L28370 31671
L28389 31690
L28426 31709
L28501 31709
L28539 31690
L28557 31671
L28576 31634
" />
<path d="M28951 31859
L28726 31859
" />
<path d="M28839 31859
L28839 31465
L28801 31521
L28764 31559
L28726 31577
" />
<path d="M29866 30742
L29735 30554
" />
<path d="M29641 30742
L29641 30348
L29791 30348
L29829 30367
L29847 30386
L29866 30423
L29866 30479
L29847 30517
L29829 30536
L29791 30554
L29641 30554
" />
<path d="M30054 30742
L30129 30742
L30166 30723
L30185 30704
L30222 30648
L30241 30573
L30241 30423
L30222 30386
L30204 30367
L30166 30348
L30091 30348
L30054 30367
L30035 30386
L30016 30423
L30016 30517
L30035 30554
L30054 30573
L30091 30592
L30166 30592
L30204 30573
L30222 30554
L30241 30517
" />
<path d="M30391 30386
L30410 30367
L30447 30348
L30541 30348
L30579 30367
L30597 30386
L30616 30423
L30616 30461
L30597 30517
L30372 30742
L30616 30742
" />
<path d="M29382 29153
L28989 29153
L28989 29059
L29007 29003
L29045 28965
L29082 28946
L29157 28928
L29214 28928
L29289 28946
L29326 28965
L29364 29003
L29382 29059
L29382 29153
" />
<path d="M28989 28796
L28989 28553
L29139 28684
L29139 28628
L29157 28590
L29176 28572
L29214 28553
L29307 28553
L29345 28572
L29364 28590
L29382 28628
L29382 28740
L29364 28778
L29345 28796
" />
<path d="M28989 28422
L28989 28178
L29139 28309
L29139 28253
L29157 28215
L29176 28197
L29214 28178
L29307 28178
L29345 28197
L29364 28215
L29382 28253
L29382 28365
L29364 28403
L29345 28422
" />
<path d="M14538 23889
L14538 24076
" />
<path d="M14407 23683
L14538 23889
L14669 23683
" />
<path d="M15007 24076
L14782 24076
" />
<path d="M14894 24076
L14894 23683
L14857 23739
L14819 23776
L14782 23795
" />
<path d="M27413 25956
L27601 25956
" />
<path d="M27207 26087
L27413 25956
L27207 25825
" />
<path d="M27244 25712
L27226 25693
L27207 25656
L27207 25562
L27226 25525
L27244 25506
L27282 25487
L27319 25487
L27376 25506
L27601 25731
L27601 25487
" />
<path d="M12622 28340
L12491 28153
" />
<path d="M12397 28340
L12397 27946
L12547 27946
L12585 27965
L12603 27984
L12622 28021
L12622 28078
L12603 28115
L12585 28134
L12547 28153
L12397 28153
" />
<path d="M12997 28340
L12772 28340
" />
<path d="M12885 28340
L12885 27946
L12847 28003
L12810 28040
L12772 28059
" />
<path d="M13353 27946
L13166 27946
L13147 28134
L13166 28115
L13203 28096
L13297 28096
L13335 28115
L13353 28134
L13372 28171
L13372 28265
L13353 28303
L13335 28321
L13297 28340
L13203 28340
L13166 28321
L13147 28303
" />
<path d="M16763 28963
L16631 28963
" />
<path d="M16631 29169
L16631 28775
L16819 28775
" />
<path d="M16969 29169
L16969 28775
" />
<path d="M17156 29169
L17156 28775
L17250 28775
L17306 28794
L17344 28831
L17362 28869
L17381 28944
L17381 29000
L17362 29075
L17344 29113
L17306 29150
L17250 29169
L17156 29169
" />
<path d="M17756 29169
L17531 29169
" />
<path d="M17644 29169
L17644 28775
L17606 28831
L17569 28869
L17531 28888
" />
<path d="M37263 29313
L37131 29313
" />
<path d="M37131 29519
L37131 29125
L37319 29125
" />
<path d="M37469 29519
L37469 29125
" />
<path d="M37656 29519
L37656 29125
L37750 29125
L37806 29144
L37844 29181
L37862 29219
L37881 29294
L37881 29350
L37862 29425
L37844 29463
L37806 29500
L37750 29519
L37656 29519
" />
<path d="M38031 29163
L38050 29144
L38087 29125
L38181 29125
L38219 29144
L38237 29163
L38256 29200
L38256 29238
L38237 29294
L38012 29519
L38256 29519
" />
<path d="M27163 2463
L27031 2463
" />
<path d="M27031 2669
L27031 2275
L27219 2275
" />
<path d="M27369 2669
L27369 2275
" />
<path d="M27556 2669
L27556 2275
L27650 2275
L27706 2294
L27744 2331
L27762 2369
L27781 2444
L27781 2500
L27762 2575
L27744 2613
L27706 2650
L27650 2669
L27556 2669
" />
<path d="M27912 2275
L28156 2275
L28025 2425
L28081 2425
L28119 2444
L28137 2463
L28156 2500
L28156 2594
L28137 2631
L28119 2650
L28081 2669
L27969 2669
L27931 2650
L27912 2631
" />
<circle cx="39537.2" cy="12847.6" r="656.168" /> 
<path d="M38552 12847
L40521 12847
" />
<path d="M39537 11863
L39537 13831
" />
<circle cx="39210.4" cy="12847.6" r="656.168" /> 
<path d="M38226 12847
L40194 12847
" />
<path d="M39210 11863
L39210 13831
" />
<circle cx="47627.8" cy="10851.5" r="656.168" /> 
<path d="M46643 10851
L48612 10851
" />
<path d="M47627 9867
L47627 11835
" />
<circle cx="39253.7" cy="12788.5" r="656.168" /> 
<path d="M38269 12788
L40237 12788
" />
<path d="M39253 11804
L39253 13772
" />
<circle cx="39253.7" cy="12788.5" r="656.168" /> 
<path d="M38269 12788
L40237 12788
" />
<path d="M39253 11804
L39253 13772
" />
<circle cx="39253.7" cy="12788.5" r="656.168" /> 
<path d="M38269 12788
L40237 12788
" />
<path d="M39253 11804
L39253 13772
" />
<circle cx="39253.7" cy="12788.5" r="656.168" /> 
<path d="M38269 12788
L40237 12788
" />
<path d="M39253 11804
L39253 13772
" />
<circle cx="39253.7" cy="12788.5" r="656.168" /> 
<path d="M38269 12788
L40237 12788
" />
<path d="M39253 11804
L39253 13772
" />
<circle cx="12993.9" cy="3422.4" r="656.168" /> 
<path d="M12009 3422
L13978 3422
" />
<path d="M12993 2438
L12993 4406
" />
<circle cx="15206.5" cy="3485.39" r="656.168" /> 
<path d="M14222 3485
L16190 3485
" />
<path d="M15206 2501
L15206 4469
" />
<path d="M9783 34065
L43248 34065
" />
<path d="M43248 600
L9783 600
" />
<path d="M43248 34065
L43248 600
" />
<path d="M9783 600
L9783 34065
" />
</g> 
</svg>
