<?xml version="1.0" standalone="no"?>
 <!DOCTYPE svg PUBLIC "-//W3C//DTD SVG 1.1//EN" 
 "http://www.w3.org/Graphics/SVG/1.1/DTD/svg11.dtd"> 
<svg xmlns="http://www.w3.org/2000/svg" version="1.1" 
    width="29.7002cm" height="21.0007cm" viewBox="0 0 116930 82680 ">
<title>SVG Picture created as cubesatFunkmodul-F.Fab.svg date 2017/12/19 00:48:15 </title>
  <desc>Picture generated by PCBNEW </desc>
<g style="fill:#000000; fill-opacity:1;stroke:#000000; stroke-opacity:1;
stroke-linecap:round; stroke-linejoin:round; "
 transform="translate(0 0) scale(1 1)">
</g>
<g style="fill:#000000; fill-opacity:0.0; 
stroke:#000000; stroke-width:-0.000393701; stroke-opacity:1; 
stroke-linecap:round; stroke-linejoin:round;">
</g>
<g style="fill:#000000; fill-opacity:0.0; 
stroke:#000000; stroke-width:78.7402; stroke-opacity:1; 
stroke-linecap:round; stroke-linejoin:round;">
<path d="M36822 13385
L36822 46849
" />
</g>
<g style="fill:#000000; fill-opacity:0.0; 
stroke:#000000; stroke-width:39.3701; stroke-opacity:1; 
stroke-linecap:round; stroke-linejoin:round;">
<path d="M28582 43576
L28582 44560
" />
<path d="M27322 43576
L28582 43576
" />
<path d="M27322 44560
L27322 43576
" />
<path d="M28582 44560
L27322 44560
" />
<path d="M24552 43242
L23567 43242
" />
<path d="M24552 41982
L24552 43242
" />
<path d="M23567 41982
L24552 41982
" />
<path d="M23567 43242
L23567 41982
" />
<path d="M25037 46087
L25037 45102
" />
<path d="M26297 46087
L25037 46087
" />
<path d="M26297 45102
L26297 46087
" />
<path d="M25037 45102
L26297 45102
" />
<path d="M23000 43052
L23000 43367
" />
<path d="M22371 43052
L23000 43052
" />
<path d="M22371 43367
L22371 43052
" />
<path d="M23000 43367
L22371 43367
" />
<path d="M26134 39412
L26134 39727
" />
<path d="M25505 39412
L26134 39412
" />
<path d="M25505 39727
L25505 39412
" />
<path d="M26134 39727
L25505 39727
" />
<path d="M26184 36512
L26184 36827
" />
<path d="M25555 36512
L26184 36512
" />
<path d="M25555 36827
L25555 36512
" />
<path d="M26184 36827
L25555 36827
" />
<path d="M27284 35512
L27284 35827
" />
<path d="M26655 35512
L27284 35512
" />
<path d="M26655 35827
L26655 35512
" />
<path d="M27284 35827
L26655 35827
" />
<path d="M27112 36805
L27427 36805
" />
<path d="M27112 37434
L27112 36805
" />
<path d="M27427 37434
L27112 37434
" />
<path d="M27427 36805
L27427 37434
" />
<path d="M35242 40829
L34927 40829
" />
<path d="M35242 40200
L35242 40829
" />
<path d="M34927 40200
L35242 40200
" />
<path d="M34927 40829
L34927 40200
" />
<path d="M35844 36707
L35844 37022
" />
<path d="M35215 36707
L35844 36707
" />
<path d="M35215 37022
L35215 36707
" />
<path d="M35844 37022
L35215 37022
" />
<path d="M22528 42005
L22627 42005
" />
<path d="M22528 42142
L22331 42005
" />
<path d="M22528 41867
L22528 42142
" />
<path d="M22331 42005
L22528 41867
" />
<path d="M22331 42005
L22253 42005
" />
<path d="M22331 41867
L22331 42142
" />
<path d="M22095 42280
L22095 41729
" />
<path d="M22804 42280
L22095 42280
" />
<path d="M22804 41729
L22804 42280
" />
<path d="M22095 41729
L22804 41729
" />
<path d="M24237 28985
L24434 28985
" />
<path d="M24237 29142
L24001 28985
" />
<path d="M24237 28827
L24237 29142
" />
<path d="M24001 28985
L24237 28827
" />
<path d="M24001 28985
L24001 29201
" />
<path d="M24001 28985
L24001 28768
" />
<path d="M23843 28985
L24001 28985
" />
<path d="M23587 29339
L23587 28630
" />
<path d="M24690 29339
L23587 29339
" />
<path d="M24690 28630
L24690 29339
" />
<path d="M23587 28630
L24690 28630
" />
<path d="M24237 27985
L24434 27985
" />
<path d="M24237 28142
L24001 27985
" />
<path d="M24237 27827
L24237 28142
" />
<path d="M24001 27985
L24237 27827
" />
<path d="M24001 27985
L24001 28201
" />
<path d="M24001 27985
L24001 27768
" />
<path d="M23843 27985
L24001 27985
" />
<path d="M23587 28339
L23587 27630
" />
<path d="M24690 28339
L23587 28339
" />
<path d="M24690 27630
L24690 28339
" />
<path d="M23587 27630
L24690 27630
" />
<path d="M24237 27085
L24434 27085
" />
<path d="M24237 27242
L24001 27085
" />
<path d="M24237 26927
L24237 27242
" />
<path d="M24001 27085
L24237 26927
" />
<path d="M24001 27085
L24001 27301
" />
<path d="M24001 27085
L24001 26868
" />
<path d="M23843 27085
L24001 27085
" />
<path d="M23587 27439
L23587 26730
" />
<path d="M24690 27439
L23587 27439
" />
<path d="M24690 26730
L24690 27439
" />
<path d="M23587 26730
L24690 26730
" />
<path d="M48442 28285
L48245 28285
" />
<path d="M48442 28127
L48678 28285
" />
<path d="M48442 28442
L48442 28127
" />
<path d="M48678 28285
L48442 28442
" />
<path d="M48678 28285
L48678 28068
" />
<path d="M48678 28285
L48678 28501
" />
<path d="M48836 28285
L48678 28285
" />
<path d="M49092 27930
L49092 28639
" />
<path d="M47990 27930
L49092 27930
" />
<path d="M47990 28639
L47990 27930
" />
<path d="M49092 28639
L47990 28639
" />
<path d="M48440 29285
L48243 29285
" />
<path d="M48440 29127
L48676 29285
" />
<path d="M48440 29442
L48440 29127
" />
<path d="M48676 29285
L48440 29442
" />
<path d="M48676 29285
L48676 29068
" />
<path d="M48676 29285
L48676 29501
" />
<path d="M48834 29285
L48676 29285
" />
<path d="M49090 28930
L49090 29639
" />
<path d="M47987 28930
L49090 28930
" />
<path d="M47987 29639
L47987 28930
" />
<path d="M49090 29639
L47987 29639
" />
<path d="M48440 30285
L48243 30285
" />
<path d="M48440 30127
L48676 30285
" />
<path d="M48440 30442
L48440 30127
" />
<path d="M48676 30285
L48440 30442
" />
<path d="M48676 30285
L48676 30068
" />
<path d="M48676 30285
L48676 30501
" />
<path d="M48834 30285
L48676 30285
" />
<path d="M49090 29930
L49090 30639
" />
<path d="M47987 29930
L49090 29930
" />
<path d="M47987 30639
L47987 29930
" />
<path d="M49090 30639
L47987 30639
" />
<path d="M48440 27285
L48243 27285
" />
<path d="M48440 27127
L48676 27285
" />
<path d="M48440 27442
L48440 27127
" />
<path d="M48676 27285
L48440 27442
" />
<path d="M48676 27285
L48676 27068
" />
<path d="M48676 27285
L48676 27501
" />
<path d="M48834 27285
L48676 27285
" />
<path d="M49090 26930
L49090 27639
" />
<path d="M47987 26930
L49090 26930
" />
<path d="M47987 27639
L47987 26930
" />
<path d="M49090 27639
L47987 27639
" />
<path d="M36220 37642
L36220 37327
" />
<path d="M36849 37642
L36220 37642
" />
<path d="M36849 37327
L36849 37642
" />
<path d="M36220 37327
L36849 37327
" />
<path d="M34532 27046
L33567 27046
" />
<path d="M34756 27263
L34756 27597
" />
<path d="M34532 27046
L34756 27263
" />
<path d="M34756 27597
L33559 27597
" />
<path d="M33559 27046
L33559 27597
" />
<path d="M34565 18130
L35530 18130
" />
<path d="M34341 17914
L34341 17579
" />
<path d="M34565 18130
L34341 17914
" />
<path d="M34341 17579
L35538 17579
" />
<path d="M35538 18130
L35538 17579
" />
<path d="M31241 18337
L32206 18337
" />
<path d="M31017 18120
L31017 17786
" />
<path d="M31241 18337
L31017 18120
" />
<path d="M31017 17786
L32214 17786
" />
<path d="M32214 18337
L32214 17786
" />
<path d="M32185 30847
L33150 30847
" />
<path d="M31961 30631
L31961 30296
" />
<path d="M32185 30847
L31961 30631
" />
<path d="M31961 30296
L33158 30296
" />
<path d="M33158 30847
L33158 30296
" />
<path d="M31490 26748
L30525 26748
" />
<path d="M31714 26964
L31714 27299
" />
<path d="M31490 26748
L31714 26964
" />
<path d="M31714 27299
L30517 27299
" />
<path d="M30517 26748
L30517 27299
" />
<path d="M22731 41102
L22731 40787
" />
<path d="M23361 41102
L22731 41102
" />
<path d="M23361 40787
L23361 41102
" />
<path d="M22731 40787
L23361 40787
" />
<path d="M38314 42952
L38314 43267
" />
<path d="M37685 42952
L38314 42952
" />
<path d="M37685 43267
L37685 42952
" />
<path d="M38314 43267
L37685 43267
" />
<path d="M24822 42070
L25137 42070
" />
<path d="M24822 42699
L24822 42070
" />
<path d="M25137 42699
L24822 42699
" />
<path d="M25137 42070
L25137 42699
" />
<path d="M20773 42972
L20773 42657
" />
<path d="M21403 42972
L20773 42972
" />
<path d="M21403 42657
L21403 42972
" />
<path d="M20773 42657
L21403 42657
" />
<path d="M27912 34071
L28227 34071
" />
<path d="M27912 34701
L27912 34071
" />
<path d="M28227 34701
L27912 34701
" />
<path d="M28227 34071
L28227 34701
" />
<path d="M35852 39493
L36167 39493
" />
<path d="M35852 40123
L35852 39493
" />
<path d="M36167 40123
L35852 40123
" />
<path d="M36167 39493
L36167 40123
" />
<path d="M31816 31739
L31816 31424
" />
<path d="M32446 31739
L31816 31739
" />
<path d="M32446 31424
L32446 31739
" />
<path d="M31816 31424
L32446 31424
" />
<path d="M31843 25877
L31843 26192
" />
<path d="M31213 25877
L31843 25877
" />
<path d="M31213 26192
L31213 25877
" />
<path d="M31843 26192
L31213 26192
" />
<path d="M33008 26197
L33008 25882
" />
<path d="M33638 26197
L33008 26197
" />
<path d="M33638 25882
L33638 26197
" />
<path d="M33008 25882
L33638 25882
" />
<path d="M34208 19012
L34208 18697
" />
<path d="M34838 19012
L34208 19012
" />
<path d="M34838 18697
L34838 19012
" />
<path d="M34208 18697
L34838 18697
" />
<path d="M32813 18682
L32498 18682
" />
<path d="M32813 18053
L32813 18682
" />
<path d="M32498 18053
L32813 18053
" />
<path d="M32498 18682
L32498 18053
" />
<path d="M31702 30801
L31387 30801
" />
<path d="M31702 30172
L31702 30801
" />
<path d="M31387 30172
L31702 30172
" />
<path d="M31387 30801
L31387 30172
" />
<path d="M31962 26803
L32277 26803
" />
<path d="M31962 27433
L31962 26803
" />
<path d="M32277 27433
L31962 27433
" />
<path d="M32277 26803
L32277 27433
" />
<path d="M35132 27033
L35447 27033
" />
<path d="M35132 27662
L35132 27033
" />
<path d="M35447 27662
L35132 27662
" />
<path d="M35447 27033
L35447 27662
" />
<path d="M34092 18069
L33777 18069
" />
<path d="M34092 17440
L34092 18069
" />
<path d="M33777 17440
L34092 17440
" />
<path d="M33777 18069
L33777 17440
" />
<path d="M30768 18281
L30453 18281
" />
<path d="M30768 17651
L30768 18281
" />
<path d="M30453 17651
L30768 17651
" />
<path d="M30453 18281
L30453 17651
" />
<path d="M33737 30986
L33422 30986
" />
<path d="M33737 30357
L33737 30986
" />
<path d="M33422 30357
L33737 30357
" />
<path d="M33422 30986
L33422 30357
" />
<path d="M29952 26623
L30267 26623
" />
<path d="M29952 27253
L29952 26623
" />
<path d="M30267 27253
L29952 27253
" />
<path d="M30267 26623
L30267 27253
" />
<path d="M32990 26907
L33305 26907
" />
<path d="M32990 27537
L32990 26907
" />
<path d="M33305 27537
L32990 27537
" />
<path d="M33305 26907
L33305 27537
" />
<path d="M35346 16717
L35346 17032
" />
<path d="M34716 16717
L35346 16717
" />
<path d="M34716 17032
L34716 16717
" />
<path d="M35346 17032
L34716 17032
" />
<path d="M32027 16915
L32027 17230
" />
<path d="M31397 16915
L32027 16915
" />
<path d="M31397 17230
L31397 16915
" />
<path d="M32027 17230
L31397 17230
" />
</g>
<g style="fill:#000000; fill-opacity:0.0; 
stroke:#000000; stroke-width:59.0551; stroke-opacity:1; 
stroke-linecap:round; stroke-linejoin:round;">
<path d="M33975 36307
L33975 41425
" />
<path d="M33975 41425
L28464 41425
" />
<path d="M28464 41425
L28464 35914
" />
<path d="M28464 35914
L33582 35914
" />
<path d="M33582 35914
L33975 36307
" />
</g>
<g style="fill:#000000; fill-opacity:0.0; 
stroke:#000000; stroke-width:39.3701; stroke-opacity:1; 
stroke-linecap:round; stroke-linejoin:round;">
<path d="M28792 29501
L29107 29501
" />
<path d="M28792 30131
L28792 29501
" />
<path d="M29107 30131
L28792 30131
" />
<path d="M29107 29501
L29107 30131
" />
</g>
<g style="fill:#000000; fill-opacity:0.0; 
stroke:#000000; stroke-width:59.0551; stroke-opacity:1; 
stroke-linecap:round; stroke-linejoin:round;">
<path d="M21720 40455
L21720 41655
" />
<path d="M20520 40455
L21720 40455
" />
<path d="M20520 41655
L20520 40455
" />
<path d="M21720 41655
L20520 41655
" />
</g>
<g style="fill:#000000; fill-opacity:0.0; 
stroke:#000000; stroke-width:39.3701; stroke-opacity:1; 
stroke-linecap:round; stroke-linejoin:round;">
<path d="M21723 39045
L21802 39045
" />
<path d="M21605 39045
L21526 39045
" />
<path d="M21605 38966
L21605 39123
" />
<path d="M21723 39123
L21723 38966
" />
<path d="M21605 39045
L21723 39123
" />
<path d="M21723 38966
L21605 39045
" />
<path d="M21330 39222
L21330 38867
" />
<path d="M21959 39222
L21330 39222
" />
<path d="M21959 38867
L21959 39222
" />
<path d="M21330 38867
L21959 38867
" />
<path d="M27470 34548
L27470 34627
" />
<path d="M27470 34430
L27470 34351
" />
<path d="M27548 34430
L27391 34430
" />
<path d="M27391 34548
L27548 34548
" />
<path d="M27470 34430
L27391 34548
" />
<path d="M27548 34548
L27470 34430
" />
<path d="M27292 34155
L27647 34155
" />
<path d="M27292 34784
L27292 34155
" />
<path d="M27647 34784
L27292 34784
" />
<path d="M27647 34155
L27647 34784
" />
<path d="M25690 21797
L25690 22761
" />
<path d="M25906 21572
L26241 21572
" />
<path d="M25690 21797
L25906 21572
" />
<path d="M26241 21572
L26241 22769
" />
<path d="M25690 22769
L26241 22769
" />
<path d="M24785 21599
L24785 21914
" />
<path d="M24155 21599
L24785 21599
" />
<path d="M24155 21914
L24155 21599
" />
<path d="M24785 21914
L24155 21914
" />
<path d="M24158 22699
L24158 22384
" />
<path d="M24788 22699
L24158 22699
" />
<path d="M24788 22384
L24788 22699
" />
<path d="M24158 22384
L24788 22384
" />
<path d="M51462 42977
L50477 42977
" />
<path d="M51462 41717
L51462 42977
" />
<path d="M50477 41717
L51462 41717
" />
<path d="M50477 42977
L50477 41717
" />
<path d="M49012 42927
L49997 42927
" />
<path d="M49012 44187
L49012 42927
" />
<path d="M49997 44187
L49012 44187
" />
<path d="M49997 42927
L49997 44187
" />
<path d="M48500 46612
L48500 45627
" />
<path d="M49759 46612
L48500 46612
" />
<path d="M49759 45627
L49759 46612
" />
<path d="M48500 45627
L49759 45627
" />
<path d="M47378 45342
L47378 45657
" />
<path d="M46749 45342
L47378 45342
" />
<path d="M46749 45657
L46749 45342
" />
<path d="M47378 45657
L46749 45657
" />
<path d="M40592 39679
L40907 39679
" />
<path d="M40592 40309
L40592 39679
" />
<path d="M40907 40309
L40592 40309
" />
<path d="M40907 39679
L40907 40309
" />
<path d="M39572 36384
L39572 36699
" />
<path d="M38942 36384
L39572 36384
" />
<path d="M38942 36699
L38942 36384
" />
<path d="M39572 36699
L38942 36699
" />
<path d="M49334 40002
L49334 40317
" />
<path d="M48705 40002
L49334 40002
" />
<path d="M48705 40317
L48705 40002
" />
<path d="M49334 40317
L48705 40317
" />
<path d="M40767 36776
L41082 36776
" />
<path d="M40767 37405
L40767 36776
" />
<path d="M41082 37405
L40767 37405
" />
<path d="M41082 36776
L41082 37405
" />
<path d="M49339 36222
L49339 36537
" />
<path d="M48710 36222
L49339 36222
" />
<path d="M48710 36537
L48710 36222
" />
<path d="M49339 36537
L48710 36537
" />
<path d="M52518 40680
L52597 40680
" />
<path d="M52400 40680
L52321 40680
" />
<path d="M52400 40601
L52400 40758
" />
<path d="M52518 40758
L52518 40601
" />
<path d="M52400 40680
L52518 40758
" />
<path d="M52518 40601
L52400 40680
" />
<path d="M52125 40857
L52125 40502
" />
<path d="M52754 40857
L52125 40857
" />
<path d="M52754 40502
L52754 40857
" />
<path d="M52125 40502
L52754 40502
" />
<path d="M44730 42850
L44652 42850
" />
<path d="M44849 42850
L44927 42850
" />
<path d="M44849 42928
L44849 42771
" />
<path d="M44730 42771
L44730 42928
" />
<path d="M44849 42850
L44730 42771
" />
<path d="M44730 42928
L44849 42850
" />
<path d="M45124 42672
L45124 43027
" />
<path d="M44494 42672
L45124 42672
" />
<path d="M44494 43027
L44494 42672
" />
<path d="M45124 43027
L44494 43027
" />
<path d="M52620 42663
L52620 42742
" />
<path d="M52620 42545
L52620 42466
" />
<path d="M52698 42545
L52541 42545
" />
<path d="M52541 42663
L52698 42663
" />
<path d="M52620 42545
L52541 42663
" />
<path d="M52698 42663
L52620 42545
" />
<path d="M52442 42269
L52797 42269
" />
<path d="M52442 42899
L52442 42269
" />
<path d="M52797 42899
L52442 42899
" />
<path d="M52797 42269
L52797 42899
" />
<path d="M46895 44930
L46817 44930
" />
<path d="M47014 44930
L47092 44930
" />
<path d="M47014 45008
L47014 44851
" />
<path d="M46895 44851
L46895 45008
" />
<path d="M47014 44930
L46895 44851
" />
<path d="M46895 45008
L47014 44930
" />
<path d="M47289 44752
L47289 45107
" />
<path d="M46659 44752
L47289 44752
" />
<path d="M46659 45107
L46659 44752
" />
<path d="M47289 45107
L46659 45107
" />
<path d="M47303 46175
L47382 46175
" />
<path d="M47185 46175
L47106 46175
" />
<path d="M47185 46096
L47185 46253
" />
<path d="M47303 46253
L47303 46096
" />
<path d="M47185 46175
L47303 46253
" />
<path d="M47303 46096
L47185 46175
" />
<path d="M46910 46352
L46910 45997
" />
<path d="M47539 46352
L46910 46352
" />
<path d="M47539 45997
L47539 46352
" />
<path d="M46910 45997
L47539 45997
" />
<path d="M45196 45490
L45097 45490
" />
<path d="M45196 45352
L45393 45490
" />
<path d="M45196 45627
L45196 45352
" />
<path d="M45393 45490
L45196 45627
" />
<path d="M45393 45490
L45471 45490
" />
<path d="M45393 45627
L45393 45352
" />
<path d="M45629 45214
L45629 45765
" />
<path d="M44920 45214
L45629 45214
" />
<path d="M44920 45765
L44920 45214
" />
<path d="M45629 45765
L44920 45765
" />
<path d="M48761 35927
L48761 35612
" />
<path d="M49391 35927
L48761 35927
" />
<path d="M49391 35612
L49391 35927
" />
<path d="M48761 35612
L49391 35612
" />
<path d="M50723 39926
L50723 40891
" />
<path d="M50939 39702
L51274 39702
" />
<path d="M50723 39926
L50939 39702
" />
<path d="M51274 39702
L51274 40899
" />
<path d="M50723 40899
L51274 40899
" />
<path d="M44857 27481
L45821 27481
" />
<path d="M44632 27265
L44632 26930
" />
<path d="M44857 27481
L44632 27265
" />
<path d="M44632 26930
L45829 26930
" />
<path d="M45829 27481
L45829 26930
" />
<path d="M42553 18707
L43518 18707
" />
<path d="M42329 18490
L42329 18156
" />
<path d="M42553 18707
L42329 18490
" />
<path d="M42329 18156
L43526 18156
" />
<path d="M43526 18707
L43526 18156
" />
<path d="M39558 18723
L40523 18723
" />
<path d="M39334 18506
L39334 18172
" />
<path d="M39558 18723
L39334 18506
" />
<path d="M39334 18172
L40531 18172
" />
<path d="M40531 18723
L40531 18172
" />
<path d="M38885 27448
L39850 27448
" />
<path d="M38661 27232
L38661 26897
" />
<path d="M38885 27448
L38661 27232
" />
<path d="M38661 26897
L39858 26897
" />
<path d="M39858 27448
L39858 26897
" />
<path d="M41901 27461
L42866 27461
" />
<path d="M41677 27244
L41677 26910
" />
<path d="M41901 27461
L41677 27244
" />
<path d="M41677 26910
L42874 26910
" />
<path d="M42874 27461
L42874 26910
" />
<path d="M46666 20964
L45701 20964
" />
<path d="M46890 21180
L46890 21515
" />
<path d="M46666 20964
L46890 21180
" />
<path d="M46890 21515
L45693 21515
" />
<path d="M45693 20964
L45693 21515
" />
<path d="M52215 40187
L52215 39872
" />
<path d="M52844 40187
L52215 40187
" />
<path d="M52844 39872
L52844 40187
" />
<path d="M52215 39872
L52844 39872
" />
<path d="M44397 43653
L44712 43653
" />
<path d="M44397 44283
L44397 43653
" />
<path d="M44712 44283
L44397 44283
" />
<path d="M44712 43653
L44712 44283
" />
<path d="M51767 42296
L52082 42296
" />
<path d="M51767 42926
L51767 42296
" />
<path d="M52082 42926
L51767 42926
" />
<path d="M52082 42296
L52082 42926
" />
<path d="M48989 45032
L48989 45347
" />
<path d="M48360 45032
L48989 45032
" />
<path d="M48360 45347
L48360 45032
" />
<path d="M48989 45347
L48360 45347
" />
<path d="M46116 43072
L46116 42757
" />
<path d="M46746 43072
L46116 43072
" />
<path d="M46746 42757
L46746 43072
" />
<path d="M46116 42757
L46746 42757
" />
<path d="M45367 44278
L45052 44278
" />
<path d="M45367 43648
L45367 44278
" />
<path d="M45052 43648
L45367 43648
" />
<path d="M45052 44278
L45052 43648
" />
<path d="M48745 37477
L48745 37162
" />
<path d="M49374 37477
L48745 37477
" />
<path d="M49374 37162
L49374 37477
" />
<path d="M48745 37162
L49374 37162
" />
<path d="M40152 26759
L40467 26759
" />
<path d="M40152 27389
L40152 26759
" />
<path d="M40467 27389
L40152 27389
" />
<path d="M40467 26759
L40467 27389
" />
<path d="M43178 26773
L43493 26773
" />
<path d="M43178 27403
L43178 26773
" />
<path d="M43493 27403
L43178 27403
" />
<path d="M43493 26773
L43493 27403
" />
<path d="M46177 26805
L46492 26805
" />
<path d="M46177 27434
L46177 26805
" />
<path d="M46492 27434
L46177 27434
" />
<path d="M46492 26805
L46492 27434
" />
<path d="M43870 18029
L44185 18029
" />
<path d="M43870 18659
L43870 18029
" />
<path d="M44185 18659
L43870 18659
" />
<path d="M44185 18029
L44185 18659
" />
<path d="M40855 18030
L41170 18030
" />
<path d="M40855 18660
L40855 18030
" />
<path d="M41170 18660
L40855 18660
" />
<path d="M41170 18030
L41170 18660
" />
<path d="M42692 30118
L42692 30433
" />
<path d="M42063 30118
L42692 30118
" />
<path d="M42063 30433
L42063 30118
" />
<path d="M42692 30433
L42063 30433
" />
<path d="M38312 27376
L37997 27376
" />
<path d="M38312 26746
L38312 27376
" />
<path d="M37997 26746
L38312 26746
" />
<path d="M37997 27376
L37997 26746
" />
<path d="M41308 27405
L40993 27405
" />
<path d="M41308 26775
L41308 27405
" />
<path d="M40993 26775
L41308 26775
" />
<path d="M40993 27405
L40993 26775
" />
<path d="M44269 27423
L43954 27423
" />
<path d="M44269 26793
L44269 27423
" />
<path d="M43954 26793
L44269 26793
" />
<path d="M43954 27423
L43954 26793
" />
<path d="M41995 18641
L41680 18641
" />
<path d="M41995 18011
L41995 18641
" />
<path d="M41680 18011
L41995 18011
" />
<path d="M41680 18641
L41680 18011
" />
<path d="M38970 18652
L38655 18652
" />
<path d="M38970 18022
L38970 18652
" />
<path d="M38655 18022
L38970 18022
" />
<path d="M38655 18652
L38655 18022
" />
<path d="M42078 31068
L42078 30753
" />
<path d="M42707 31068
L42078 31068
" />
<path d="M42707 30753
L42707 31068
" />
<path d="M42078 30753
L42707 30753
" />
<path d="M38918 26350
L38918 26035
" />
<path d="M39548 26350
L38918 26350
" />
<path d="M39548 26035
L39548 26350
" />
<path d="M38918 26035
L39548 26035
" />
<path d="M42555 26029
L42555 26344
" />
<path d="M41926 26029
L42555 26029
" />
<path d="M41926 26344
L41926 26029
" />
<path d="M42555 26344
L41926 26344
" />
<path d="M45523 26057
L45523 26372
" />
<path d="M44893 26057
L45523 26057
" />
<path d="M44893 26372
L44893 26057
" />
<path d="M45523 26372
L44893 26372
" />
<path d="M43251 17270
L43251 17585
" />
<path d="M42621 17270
L43251 17270
" />
<path d="M42621 17585
L42621 17270
" />
<path d="M43251 17585
L42621 17585
" />
<path d="M40216 17291
L40216 17606
" />
<path d="M39586 17291
L40216 17291
" />
<path d="M39586 17606
L39586 17291
" />
<path d="M40216 17606
L39586 17606
" />
<path d="M45187 29498
L45502 29498
" />
<path d="M45187 30128
L45187 29498
" />
<path d="M45502 30128
L45187 30128
" />
<path d="M45502 29498
L45502 30128
" />
<path d="M47174 20725
L47489 20725
" />
<path d="M47174 21354
L47174 20725
" />
<path d="M47489 21354
L47174 21354
" />
<path d="M47489 20725
L47489 21354
" />
<path d="M47040 22087
L47040 22402
" />
<path d="M46410 22087
L47040 22087
" />
<path d="M46410 22402
L46410 22087
" />
<path d="M47040 22402
L46410 22402
" />
</g>
<g style="fill:#000000; fill-opacity:0.0; 
stroke:#000000; stroke-width:59.0551; stroke-opacity:1; 
stroke-linecap:round; stroke-linejoin:round;">
<path d="M47575 44532
L46374 44532
" />
<path d="M47575 43331
L47575 44532
" />
<path d="M46374 43331
L47575 43331
" />
<path d="M46374 44532
L46374 43331
" />
<path d="M47495 36377
L47495 41495
" />
<path d="M47495 41495
L41984 41495
" />
<path d="M41984 41495
L41984 35984
" />
<path d="M41984 35984
L47102 35984
" />
<path d="M47102 35984
L47495 36377
" />
</g>
<g style="fill:#000000; fill-opacity:0.0; 
stroke:#000000; stroke-width:39.3701; stroke-opacity:1; 
stroke-linecap:round; stroke-linejoin:round;">
<path d="M40033 42476
L40033 43441
" />
<path d="M40249 42252
L40584 42252
" />
<path d="M40033 42476
L40249 42252
" />
<path d="M40584 42252
L40584 43449
" />
<path d="M40033 43449
L40584 43449
" />
<path d="M40028 40970
L40028 41934
" />
<path d="M40244 40745
L40579 40745
" />
<path d="M40028 40970
L40244 40745
" />
<path d="M40579 40745
L40579 41942
" />
<path d="M40028 41942
L40579 41942
" />
<path d="M39064 43737
L39064 44052
" />
<path d="M38435 43737
L39064 43737
" />
<path d="M38435 44052
L38435 43737
" />
<path d="M39064 44052
L38435 44052
" />
<path d="M40100 44077
L40100 43762
" />
<path d="M40729 44077
L40100 44077
" />
<path d="M40729 43762
L40729 44077
" />
<path d="M40100 43762
L40729 43762
" />
<path d="M38750 41608
L38750 41805
" />
<path d="M38592 41608
L38750 41372
" />
<path d="M38907 41608
L38592 41608
" />
<path d="M38750 41372
L38907 41608
" />
<path d="M38750 41372
L38533 41372
" />
<path d="M38750 41372
L38966 41372
" />
<path d="M38750 41214
L38750 41372
" />
<path d="M38395 40958
L39104 40958
" />
<path d="M38395 42061
L38395 40958
" />
<path d="M39104 42061
L38395 42061
" />
<path d="M39104 40958
L39104 42061
" />
<path d="M23722 37156
L26320 37156
" />
<path d="M26320 37156
L26399 37234
" />
<path d="M26399 37234
L26399 39045
" />
<path d="M26399 39045
L26320 39124
" />
<path d="M26320 39124
L23722 39124
" />
<path d="M23722 39124
L23643 39045
" />
<path d="M23643 39045
L23643 37234
" />
<path d="M23643 37234
L23722 37156
" />
<path d="M23643 38730
L24037 39124
" />
<path d="M38190 39852
L38190 37254
" />
<path d="M38190 37254
L38269 37175
" />
<path d="M38269 37175
L40080 37175
" />
<path d="M40080 37175
L40159 37254
" />
<path d="M40159 37254
L40159 39852
" />
<path d="M40159 39852
L40080 39931
" />
<path d="M40080 39931
L38269 39931
" />
<path d="M38269 39931
L38190 39852
" />
<path d="M39765 39931
L40159 39537
" />
<path d="M23564 40034
L23564 40522
" />
<path d="M22777 40034
L23564 40034
" />
<path d="M22777 40522
L22777 40034
" />
<path d="M23564 40522
L22777 40522
" />
<circle cx="27480.1" cy="42366.7" r="196.85" /> 
<circle cx="47980.1" cy="42716.7" r="196.85" /> 
<circle cx="37880.1" cy="15866.7" r="196.85" /> 
</g>
<g style="fill:#000000; fill-opacity:0.0; 
stroke:#000000; stroke-width:59.0551; stroke-opacity:1; 
stroke-linecap:round; stroke-linejoin:round;">
<path d="M21443 45252
L21312 45065
" />
<path d="M21218 45252
L21218 44859
L21368 44859
L21406 44877
L21424 44896
L21443 44934
L21443 44990
L21424 45027
L21406 45046
L21368 45065
L21218 45065
" />
<path d="M21612 45046
L21743 45046
" />
<path d="M21799 45252
L21612 45252
L21612 44859
L21799 44859
" />
<path d="M22099 45046
L21968 45046
" />
<path d="M21968 45252
L21968 44859
L22155 44859
" />
<path d="M22362 44859
L22362 44952
" />
<path d="M22268 44915
L22362 44952
L22455 44915
" />
<path d="M22305 45027
L22362 44952
L22418 45027
" />
<path d="M22662 44859
L22662 44952
" />
<path d="M22568 44915
L22662 44952
L22755 44915
" />
<path d="M22605 45027
L22662 44952
L22718 45027
" />
<path d="M51364 45252
L51233 45065
" />
<path d="M51139 45252
L51139 44859
L51289 44859
L51327 44877
L51346 44896
L51364 44934
L51364 44990
L51346 45027
L51327 45046
L51289 45065
L51139 45065
" />
<path d="M51533 45046
L51664 45046
" />
<path d="M51721 45252
L51533 45252
L51533 44859
L51721 44859
" />
<path d="M52020 45046
L51889 45046
" />
<path d="M51889 45252
L51889 44859
L52077 44859
" />
<path d="M52283 44859
L52283 44952
" />
<path d="M52189 44915
L52283 44952
L52377 44915
" />
<path d="M52227 45027
L52283 44952
L52339 45027
" />
<path d="M52583 44859
L52583 44952
" />
<path d="M52489 44915
L52583 44952
L52677 44915
" />
<path d="M52527 45027
L52583 44952
L52639 45027
" />
<path d="M51364 15331
L51233 15144
" />
<path d="M51139 15331
L51139 14937
L51289 14937
L51327 14956
L51346 14975
L51364 15012
L51364 15069
L51346 15106
L51327 15125
L51289 15144
L51139 15144
" />
<path d="M51533 15125
L51664 15125
" />
<path d="M51721 15331
L51533 15331
L51533 14937
L51721 14937
" />
<path d="M52020 15125
L51889 15125
" />
<path d="M51889 15331
L51889 14937
L52077 14937
" />
<path d="M52283 14937
L52283 15031
" />
<path d="M52189 14994
L52283 15031
L52377 14994
" />
<path d="M52227 15106
L52283 15031
L52339 15106
" />
<path d="M52583 14937
L52583 15031
" />
<path d="M52489 14994
L52583 15031
L52677 14994
" />
<path d="M52527 15106
L52583 15031
L52639 15106
" />
<path d="M27921 44266
L27902 44285
L27846 44303
L27809 44303
L27752 44285
L27715 44247
L27696 44210
L27677 44135
L27677 44078
L27696 44003
L27715 43966
L27752 43928
L27809 43910
L27846 43910
L27902 43928
L27921 43947
" />
<path d="M28296 44303
L28071 44303
" />
<path d="M28183 44303
L28183 43910
L28146 43966
L28108 44003
L28071 44022
" />
<path d="M24210 42693
L24229 42712
L24248 42768
L24248 42805
L24229 42862
L24191 42899
L24154 42918
L24079 42937
L24023 42937
L23948 42918
L23910 42899
L23873 42862
L23854 42805
L23854 42768
L23873 42712
L23892 42693
" />
<path d="M23892 42543
L23873 42524
L23854 42487
L23854 42393
L23873 42355
L23892 42337
L23929 42318
L23967 42318
L24023 42337
L24248 42562
L24248 42318
" />
<path d="M25613 45764
L25594 45783
L25538 45801
L25501 45801
L25444 45783
L25407 45745
L25388 45708
L25369 45633
L25369 45576
L25388 45501
L25407 45464
L25444 45426
L25501 45408
L25538 45408
L25594 45426
L25613 45445
" />
<path d="M25950 45539
L25950 45801
" />
<path d="M25857 45389
L25763 45670
L26007 45670
" />
<path d="M22620 43842
L22601 43861
L22545 43880
L22507 43880
L22451 43861
L22414 43823
L22395 43786
L22376 43711
L22376 43655
L22395 43580
L22414 43542
L22451 43505
L22507 43486
L22545 43486
L22601 43505
L22620 43524
" />
<path d="M22976 43486
L22789 43486
L22770 43674
L22789 43655
L22826 43636
L22920 43636
L22957 43655
L22976 43674
L22995 43711
L22995 43805
L22976 43842
L22957 43861
L22920 43880
L22826 43880
L22789 43861
L22770 43842
" />
<path d="M25754 40202
L25735 40221
L25679 40240
L25641 40240
L25585 40221
L25548 40183
L25529 40146
L25510 40071
L25510 40015
L25529 39940
L25548 39902
L25585 39865
L25641 39846
L25679 39846
L25735 39865
L25754 39884
" />
<path d="M25885 39846
L26148 39846
L25979 40240
" />
<path d="M25743 36338
L25724 36357
L25668 36375
L25631 36375
L25574 36357
L25537 36319
L25518 36282
L25499 36207
L25499 36150
L25518 36075
L25537 36038
L25574 36000
L25631 35982
L25668 35982
L25724 36000
L25743 36019
" />
<path d="M25968 36150
L25930 36132
L25912 36113
L25893 36075
L25893 36057
L25912 36019
L25930 36000
L25968 35982
L26043 35982
L26080 36000
L26099 36019
L26118 36057
L26118 36075
L26099 36113
L26080 36132
L26043 36150
L25968 36150
L25930 36169
L25912 36188
L25893 36225
L25893 36300
L25912 36338
L25930 36357
L25968 36375
L26043 36375
L26080 36357
L26099 36338
L26118 36300
L26118 36225
L26099 36188
L26080 36169
L26043 36150
" />
<path d="M26904 36302
L26885 36321
L26829 36340
L26791 36340
L26735 36321
L26698 36283
L26679 36246
L26660 36171
L26660 36115
L26679 36040
L26698 36002
L26735 35965
L26791 35946
L26829 35946
L26885 35965
L26904 35984
" />
<path d="M27091 36340
L27166 36340
L27204 36321
L27223 36302
L27260 36246
L27279 36171
L27279 36021
L27260 35984
L27241 35965
L27204 35946
L27129 35946
L27091 35965
L27073 35984
L27054 36021
L27054 36115
L27073 36152
L27091 36171
L27129 36190
L27204 36190
L27241 36171
L27260 36152
L27279 36115
" />
<path d="M27473 38580
L27492 38599
L27511 38655
L27511 38693
L27492 38749
L27454 38787
L27417 38805
L27342 38824
L27286 38824
L27211 38805
L27173 38787
L27136 38749
L27117 38693
L27117 38655
L27136 38599
L27155 38580
" />
<path d="M27511 38205
L27511 38430
" />
<path d="M27511 38318
L27117 38318
L27173 38355
L27211 38393
L27230 38430
" />
<path d="M27117 37962
L27117 37924
L27136 37887
L27155 37868
L27192 37849
L27267 37830
L27361 37830
L27436 37849
L27473 37868
L27492 37887
L27511 37924
L27511 37962
L27492 37999
L27473 38018
L27436 38037
L27361 38055
L27267 38055
L27192 38037
L27155 38018
L27136 37999
L27117 37962
" />
<path d="M34733 40768
L34752 40786
L34770 40843
L34770 40880
L34752 40936
L34714 40974
L34677 40993
L34602 41011
L34546 41011
L34471 40993
L34433 40974
L34396 40936
L34377 40880
L34377 40843
L34396 40786
L34414 40768
" />
<path d="M34770 40393
L34770 40618
" />
<path d="M34770 40505
L34377 40505
L34433 40543
L34471 40580
L34489 40618
" />
<path d="M34770 40018
L34770 40243
" />
<path d="M34770 40130
L34377 40130
L34433 40168
L34471 40205
L34489 40243
" />
<path d="M35276 37497
L35258 37516
L35201 37535
L35164 37535
L35108 37516
L35070 37478
L35051 37441
L35033 37366
L35033 37310
L35051 37235
L35070 37197
L35108 37160
L35164 37141
L35201 37141
L35258 37160
L35276 37179
" />
<path d="M35651 37535
L35426 37535
" />
<path d="M35539 37535
L35539 37141
L35501 37197
L35464 37235
L35426 37254
" />
<path d="M35801 37179
L35820 37160
L35858 37141
L35951 37141
L35989 37160
L36008 37179
L36026 37216
L36026 37254
L36008 37310
L35783 37535
L36026 37535
" />
<path d="M21989 42762
L21989 42369
L22082 42369
L22139 42387
L22176 42425
L22195 42462
L22214 42537
L22214 42594
L22195 42669
L22176 42706
L22139 42744
L22082 42762
L21989 42762
" />
<path d="M22588 42762
L22364 42762
" />
<path d="M22476 42762
L22476 42369
L22438 42425
L22401 42462
L22364 42481
" />
<path d="M22832 42369
L22870 42369
L22907 42387
L22926 42406
L22945 42444
L22963 42519
L22963 42612
L22945 42687
L22926 42725
L22907 42744
L22870 42762
L22832 42762
L22795 42744
L22776 42725
L22757 42687
L22738 42612
L22738 42519
L22757 42444
L22776 42406
L22795 42387
L22832 42369
" />
<path d="M23695 29865
L23695 29472
L23788 29472
L23845 29490
L23882 29528
L23901 29565
L23920 29640
L23920 29697
L23901 29772
L23882 29809
L23845 29847
L23788 29865
L23695 29865
" />
<path d="M24294 29865
L24070 29865
" />
<path d="M24182 29865
L24182 29472
L24144 29528
L24107 29565
L24070 29584
" />
<path d="M24669 29865
L24444 29865
" />
<path d="M24557 29865
L24557 29472
L24519 29528
L24482 29565
L24444 29584
" />
<path d="M25098 28171
L25098 27778
L25191 27778
L25248 27796
L25285 27834
L25304 27871
L25323 27946
L25323 28003
L25304 28078
L25285 28115
L25248 28153
L25191 28171
L25098 28171
" />
<path d="M25697 28171
L25473 28171
" />
<path d="M25585 28171
L25585 27778
L25547 27834
L25510 27871
L25473 27890
" />
<path d="M25847 27815
L25866 27796
L25904 27778
L25997 27778
L26035 27796
L26054 27815
L26072 27853
L26072 27890
L26054 27946
L25829 28171
L26072 28171
" />
<path d="M23610 26513
L23610 26119
L23704 26119
L23760 26138
L23798 26175
L23816 26213
L23835 26288
L23835 26344
L23816 26419
L23798 26456
L23760 26494
L23704 26513
L23610 26513
" />
<path d="M24210 26513
L23985 26513
" />
<path d="M24098 26513
L24098 26119
L24060 26175
L24023 26213
L23985 26231
" />
<path d="M24341 26119
L24585 26119
L24454 26269
L24510 26269
L24548 26288
L24566 26306
L24585 26344
L24585 26438
L24566 26475
L24548 26494
L24510 26513
L24398 26513
L24360 26494
L24341 26475
" />
<path d="M46729 28445
L46729 28052
L46822 28052
L46879 28070
L46916 28108
L46935 28145
L46954 28220
L46954 28277
L46935 28352
L46916 28389
L46879 28427
L46822 28445
L46729 28445
" />
<path d="M47328 28445
L47104 28445
" />
<path d="M47216 28445
L47216 28052
L47178 28108
L47141 28145
L47104 28164
" />
<path d="M47666 28183
L47666 28445
" />
<path d="M47572 28033
L47478 28314
L47722 28314
" />
<path d="M46700 29455
L46700 29062
L46793 29062
L46850 29080
L46887 29118
L46906 29155
L46925 29230
L46925 29287
L46906 29362
L46887 29399
L46850 29437
L46793 29455
L46700 29455
" />
<path d="M47299 29455
L47075 29455
" />
<path d="M47187 29455
L47187 29062
L47149 29118
L47112 29155
L47075 29174
" />
<path d="M47656 29062
L47468 29062
L47449 29249
L47468 29230
L47506 29212
L47599 29212
L47637 29230
L47656 29249
L47674 29287
L47674 29380
L47656 29418
L47637 29437
L47599 29455
L47506 29455
L47468 29437
L47449 29418
" />
<path d="M48110 31213
L48110 30819
L48204 30819
L48260 30838
L48298 30875
L48316 30913
L48335 30988
L48335 31044
L48316 31119
L48298 31156
L48260 31194
L48204 31213
L48110 31213
" />
<path d="M48710 31213
L48485 31213
" />
<path d="M48598 31213
L48598 30819
L48560 30875
L48523 30913
L48485 30931
" />
<path d="M49048 30819
L48973 30819
L48935 30838
L48916 30856
L48879 30913
L48860 30988
L48860 31138
L48879 31175
L48898 31194
L48935 31213
L49010 31213
L49048 31194
L49066 31175
L49085 31138
L49085 31044
L49066 31006
L49048 30988
L49010 30969
L48935 30969
L48898 30988
L48879 31006
L48860 31044
" />
<path d="M47970 26786
L47970 26393
L48063 26393
L48120 26411
L48157 26449
L48176 26486
L48195 26561
L48195 26618
L48176 26693
L48157 26730
L48120 26768
L48063 26786
L47970 26786
" />
<path d="M48569 26786
L48345 26786
" />
<path d="M48457 26786
L48457 26393
L48419 26449
L48382 26486
L48345 26505
" />
<path d="M48794 26561
L48757 26543
L48738 26524
L48719 26486
L48719 26468
L48738 26430
L48757 26411
L48794 26393
L48869 26393
L48907 26411
L48926 26430
L48944 26468
L48944 26486
L48926 26524
L48907 26543
L48869 26561
L48794 26561
L48757 26580
L48738 26599
L48719 26636
L48719 26711
L48738 26749
L48757 26768
L48794 26786
L48869 26786
L48907 26768
L48926 26749
L48944 26711
L48944 26636
L48926 26599
L48907 26580
L48869 26561
" />
</g>
<g style="fill:#000000; fill-opacity:0.0; 
stroke:#000000; stroke-width:29.5276; stroke-opacity:1; 
stroke-linecap:round; stroke-linejoin:round;">
<path d="M36508 37556
L36433 37556
L36433 37398
" />
<path d="M36643 37556
L36553 37556
" />
<path d="M36598 37556
L36598 37398
L36583 37421
L36568 37436
L36553 37443
" />
<path d="M34156 27440
L34137 27431
L34118 27412
L34090 27384
L34071 27375
L34053 27375
" />
<path d="M34062 27421
L34043 27412
L34025 27393
L34015 27356
L34015 27290
L34025 27253
L34043 27234
L34062 27225
L34100 27225
L34118 27234
L34137 27253
L34146 27290
L34146 27356
L34137 27393
L34118 27412
L34100 27421
L34062 27421
" />
<path d="M34212 27225
L34334 27225
L34268 27300
L34296 27300
L34315 27309
L34325 27318
L34334 27337
L34334 27384
L34325 27403
L34315 27412
L34296 27421
L34240 27421
L34221 27412
L34212 27403
" />
<path d="M34921 17972
L34902 17962
L34883 17944
L34855 17915
L34836 17906
L34818 17906
" />
<path d="M34827 17953
L34808 17944
L34790 17925
L34780 17887
L34780 17822
L34790 17784
L34808 17765
L34827 17756
L34865 17756
L34883 17765
L34902 17784
L34911 17822
L34911 17887
L34902 17925
L34883 17944
L34865 17953
L34827 17953
" />
<path d="M35080 17822
L35080 17953
" />
<path d="M35033 17747
L34986 17887
L35108 17887
" />
<path d="M31597 18169
L31578 18160
L31559 18141
L31531 18113
L31512 18103
L31494 18103
" />
<path d="M31503 18150
L31484 18141
L31466 18122
L31456 18085
L31456 18019
L31466 17982
L31484 17963
L31503 17953
L31541 17953
L31559 17963
L31578 17982
L31587 18019
L31587 18085
L31578 18122
L31559 18141
L31541 18150
L31503 18150
" />
<path d="M31765 17953
L31672 17953
L31662 18047
L31672 18038
L31690 18028
L31737 18028
L31756 18038
L31765 18047
L31775 18066
L31775 18113
L31765 18132
L31756 18141
L31737 18150
L31690 18150
L31672 18141
L31662 18132
" />
<path d="M32541 30679
L32522 30670
L32503 30651
L32475 30623
L32456 30614
L32438 30614
" />
<path d="M32447 30661
L32428 30651
L32410 30632
L32400 30595
L32400 30529
L32410 30492
L32428 30473
L32447 30464
L32485 30464
L32503 30473
L32522 30492
L32531 30529
L32531 30595
L32522 30632
L32503 30651
L32485 30661
L32447 30661
" />
<path d="M32700 30464
L32663 30464
L32644 30473
L32634 30482
L32616 30511
L32606 30548
L32606 30623
L32616 30642
L32625 30651
L32644 30661
L32681 30661
L32700 30651
L32709 30642
L32719 30623
L32719 30576
L32709 30557
L32700 30548
L32681 30539
L32644 30539
L32625 30548
L32616 30557
L32606 30576
" />
<path d="M31097 27131
L31078 27122
L31059 27103
L31031 27075
L31012 27065
L30994 27065
" />
<path d="M31003 27112
L30984 27103
L30966 27084
L30956 27047
L30956 26981
L30966 26944
L30984 26925
L31003 26915
L31040 26915
L31059 26925
L31078 26944
L31087 26981
L31087 27047
L31078 27084
L31059 27103
L31040 27112
L31003 27112
" />
<path d="M31153 26915
L31284 26915
L31200 27112
" />
<path d="M23019 41014
L22967 40939
" />
<path d="M22929 41014
L22929 40856
L22989 40856
L23004 40864
L23012 40871
L23019 40886
L23019 40909
L23012 40924
L23004 40931
L22989 40939
L22929 40939
" />
<path d="M23079 40871
L23086 40864
L23101 40856
L23139 40856
L23154 40864
L23161 40871
L23169 40886
L23169 40901
L23161 40924
L23071 41014
L23169 41014
" />
<path d="M37973 43181
L37921 43106
" />
<path d="M37883 43181
L37883 43023
L37943 43023
L37958 43031
L37966 43038
L37973 43053
L37973 43076
L37966 43091
L37958 43098
L37943 43106
L37883 43106
" />
<path d="M38116 43023
L38041 43023
L38033 43098
L38041 43091
L38056 43083
L38093 43083
L38108 43091
L38116 43098
L38123 43113
L38123 43151
L38116 43166
L38108 43173
L38093 43181
L38056 43181
L38041 43173
L38033 43166
" />
<path d="M25051 42411
L24976 42463
" />
<path d="M25051 42501
L24893 42501
L24893 42441
L24901 42426
L24908 42418
L24923 42411
L24946 42411
L24961 42418
L24968 42426
L24976 42441
L24976 42501
" />
<path d="M24961 42321
L24953 42336
L24946 42343
L24931 42351
L24923 42351
L24908 42343
L24901 42336
L24893 42321
L24893 42291
L24901 42276
L24908 42268
L24923 42261
L24931 42261
L24946 42268
L24953 42276
L24961 42291
L24961 42321
L24968 42336
L24976 42343
L24991 42351
L25021 42351
L25036 42343
L25043 42336
L25051 42321
L25051 42291
L25043 42276
L25036 42268
L25021 42261
L24991 42261
L24976 42268
L24968 42276
L24961 42291
" />
<path d="M20986 42886
L20934 42811
" />
<path d="M20896 42886
L20896 42728
L20956 42728
L20971 42736
L20979 42743
L20986 42758
L20986 42781
L20979 42796
L20971 42803
L20956 42811
L20896 42811
" />
<path d="M21136 42886
L21046 42886
" />
<path d="M21091 42886
L21091 42728
L21076 42751
L21061 42766
L21046 42773
" />
<path d="M21234 42728
L21249 42728
L21264 42736
L21271 42743
L21279 42758
L21286 42788
L21286 42826
L21279 42856
L21271 42871
L21264 42878
L21249 42886
L21234 42886
L21219 42878
L21211 42871
L21204 42856
L21196 42826
L21196 42788
L21204 42758
L21211 42743
L21219 42736
L21234 42728
" />
<path d="M28141 34488
L28066 34540
" />
<path d="M28141 34578
L27983 34578
L27983 34518
L27991 34503
L27998 34495
L28013 34488
L28036 34488
L28051 34495
L28058 34503
L28066 34518
L28066 34578
" />
<path d="M28141 34338
L28141 34428
" />
<path d="M28141 34383
L27983 34383
L28006 34398
L28021 34413
L28028 34428
" />
<path d="M28036 34203
L28141 34203
" />
<path d="M27976 34240
L28088 34278
L28088 34180
" />
<path d="M36081 39909
L36006 39961
" />
<path d="M36081 39999
L35923 39999
L35923 39939
L35931 39924
L35938 39916
L35953 39909
L35976 39909
L35991 39916
L35998 39924
L36006 39939
L36006 39999
" />
<path d="M36081 39759
L36081 39849
" />
<path d="M36081 39804
L35923 39804
L35946 39819
L35961 39834
L35968 39849
" />
<path d="M35991 39669
L35983 39684
L35976 39691
L35961 39699
L35953 39699
L35938 39691
L35931 39684
L35923 39669
L35923 39639
L35931 39624
L35938 39616
L35953 39609
L35961 39609
L35976 39616
L35983 39624
L35991 39639
L35991 39669
L35998 39684
L36006 39691
L36021 39699
L36051 39699
L36066 39691
L36073 39684
L36081 39669
L36081 39639
L36073 39624
L36066 39616
L36051 39609
L36021 39609
L36006 39616
L35998 39624
L35991 39639
" />
<path d="M32044 31676
L31992 31601
" />
<path d="M31954 31676
L31954 31518
L32014 31518
L32029 31526
L32037 31533
L32044 31548
L32044 31571
L32037 31586
L32029 31593
L32014 31601
L31954 31601
" />
<path d="M32104 31533
L32112 31526
L32127 31518
L32164 31518
L32179 31526
L32186 31533
L32194 31548
L32194 31563
L32186 31586
L32097 31676
L32194 31676
" />
<path d="M32344 31676
L32254 31676
" />
<path d="M32299 31676
L32299 31518
L32284 31541
L32269 31556
L32254 31563
" />
<path d="M31426 26106
L31374 26031
" />
<path d="M31336 26106
L31336 25948
L31396 25948
L31411 25956
L31419 25963
L31426 25978
L31426 26001
L31419 26016
L31411 26023
L31396 26031
L31336 26031
" />
<path d="M31486 25963
L31494 25956
L31509 25948
L31546 25948
L31561 25956
L31569 25963
L31576 25978
L31576 25993
L31569 26016
L31479 26106
L31576 26106
" />
<path d="M31636 25963
L31644 25956
L31659 25948
L31696 25948
L31711 25956
L31719 25963
L31726 25978
L31726 25993
L31719 26016
L31629 26106
L31726 26106
" />
<path d="M33221 26111
L33169 26036
" />
<path d="M33131 26111
L33131 25953
L33191 25953
L33206 25961
L33214 25968
L33221 25983
L33221 26006
L33214 26021
L33206 26028
L33191 26036
L33131 26036
" />
<path d="M33281 25968
L33289 25961
L33304 25953
L33341 25953
L33356 25961
L33364 25968
L33371 25983
L33371 25998
L33364 26021
L33274 26111
L33371 26111
" />
<path d="M33424 25953
L33521 25953
L33469 26013
L33491 26013
L33506 26021
L33514 26028
L33521 26043
L33521 26081
L33514 26096
L33506 26103
L33491 26111
L33446 26111
L33431 26103
L33424 26096
" />
<path d="M34421 18926
L34369 18851
" />
<path d="M34331 18926
L34331 18768
L34391 18768
L34406 18776
L34414 18783
L34421 18798
L34421 18821
L34414 18836
L34406 18843
L34391 18851
L34331 18851
" />
<path d="M34481 18783
L34489 18776
L34504 18768
L34541 18768
L34556 18776
L34564 18783
L34571 18798
L34571 18813
L34564 18836
L34474 18926
L34571 18926
" />
<path d="M34706 18821
L34706 18926
" />
<path d="M34669 18761
L34631 18873
L34729 18873
" />
<path d="M32727 18469
L32652 18521
" />
<path d="M32727 18559
L32569 18559
L32569 18499
L32577 18484
L32584 18476
L32599 18469
L32622 18469
L32637 18476
L32644 18484
L32652 18499
L32652 18559
" />
<path d="M32584 18409
L32577 18401
L32569 18386
L32569 18349
L32577 18334
L32584 18326
L32599 18319
L32614 18319
L32637 18326
L32727 18416
L32727 18319
" />
<path d="M32569 18176
L32569 18251
L32644 18259
L32637 18251
L32629 18236
L32629 18199
L32637 18184
L32644 18176
L32659 18169
L32697 18169
L32712 18176
L32719 18184
L32727 18199
L32727 18236
L32719 18251
L32712 18259
" />
<path d="M31616 30588
L31541 30640
" />
<path d="M31616 30678
L31458 30678
L31458 30618
L31466 30603
L31473 30595
L31488 30588
L31511 30588
L31526 30595
L31533 30603
L31541 30618
L31541 30678
" />
<path d="M31473 30528
L31466 30520
L31458 30505
L31458 30468
L31466 30453
L31473 30445
L31488 30438
L31503 30438
L31526 30445
L31616 30535
L31616 30438
" />
<path d="M31458 30303
L31458 30333
L31466 30348
L31473 30355
L31496 30370
L31526 30378
L31586 30378
L31601 30370
L31608 30363
L31616 30348
L31616 30318
L31608 30303
L31601 30295
L31586 30288
L31548 30288
L31533 30295
L31526 30303
L31518 30318
L31518 30348
L31526 30363
L31533 30370
L31548 30378
" />
<path d="M32191 27219
L32116 27271
" />
<path d="M32191 27309
L32033 27309
L32033 27249
L32041 27234
L32048 27226
L32063 27219
L32086 27219
L32101 27226
L32108 27234
L32116 27249
L32116 27309
" />
<path d="M32048 27159
L32041 27151
L32033 27136
L32033 27099
L32041 27084
L32048 27076
L32063 27069
L32078 27069
L32101 27076
L32191 27166
L32191 27069
" />
<path d="M32033 27016
L32033 26911
L32191 26979
" />
<path d="M35361 27449
L35286 27501
" />
<path d="M35361 27539
L35203 27539
L35203 27479
L35211 27464
L35218 27456
L35233 27449
L35256 27449
L35271 27456
L35278 27464
L35286 27479
L35286 27539
" />
<path d="M35218 27389
L35211 27381
L35203 27366
L35203 27329
L35211 27314
L35218 27306
L35233 27299
L35248 27299
L35271 27306
L35361 27396
L35361 27299
" />
<path d="M35271 27209
L35263 27224
L35256 27231
L35241 27239
L35233 27239
L35218 27231
L35211 27224
L35203 27209
L35203 27179
L35211 27164
L35218 27156
L35233 27149
L35241 27149
L35256 27156
L35263 27164
L35271 27179
L35271 27209
L35278 27224
L35286 27231
L35301 27239
L35331 27239
L35346 27231
L35353 27224
L35361 27209
L35361 27179
L35353 27164
L35346 27156
L35331 27149
L35301 27149
L35286 27156
L35278 27164
L35271 27179
" />
<path d="M34006 17847
L33931 17899
" />
<path d="M34006 17937
L33848 17937
L33848 17877
L33856 17862
L33863 17854
L33878 17847
L33901 17847
L33916 17854
L33923 17862
L33931 17877
L33931 17937
" />
<path d="M33863 17787
L33856 17779
L33848 17764
L33848 17727
L33856 17712
L33863 17704
L33878 17697
L33893 17697
L33916 17704
L34006 17794
L34006 17697
" />
<path d="M34006 17622
L34006 17592
L33998 17577
L33991 17569
L33968 17554
L33938 17547
L33878 17547
L33863 17554
L33856 17562
L33848 17577
L33848 17607
L33856 17622
L33863 17629
L33878 17637
L33916 17637
L33931 17629
L33938 17622
L33946 17607
L33946 17577
L33938 17562
L33931 17554
L33916 17547
" />
<path d="M30682 18067
L30607 18119
" />
<path d="M30682 18157
L30524 18157
L30524 18097
L30532 18082
L30539 18074
L30554 18067
L30577 18067
L30592 18074
L30599 18082
L30607 18097
L30607 18157
" />
<path d="M30524 18014
L30524 17917
L30584 17969
L30584 17947
L30592 17932
L30599 17924
L30614 17917
L30652 17917
L30667 17924
L30674 17932
L30682 17947
L30682 17992
L30674 18007
L30667 18014
" />
<path d="M30524 17819
L30524 17804
L30532 17789
L30539 17782
L30554 17774
L30584 17767
L30622 17767
L30652 17774
L30667 17782
L30674 17789
L30682 17804
L30682 17819
L30674 17834
L30667 17842
L30652 17849
L30622 17857
L30584 17857
L30554 17849
L30539 17842
L30532 17834
L30524 17819
" />
<path d="M33651 30773
L33576 30825
" />
<path d="M33651 30863
L33493 30863
L33493 30803
L33501 30788
L33508 30780
L33523 30773
L33546 30773
L33561 30780
L33568 30788
L33576 30803
L33576 30863
" />
<path d="M33493 30720
L33493 30623
L33553 30675
L33553 30653
L33561 30638
L33568 30630
L33583 30623
L33621 30623
L33636 30630
L33643 30638
L33651 30653
L33651 30698
L33643 30713
L33636 30720
" />
<path d="M33651 30473
L33651 30563
" />
<path d="M33651 30518
L33493 30518
L33516 30533
L33531 30548
L33538 30563
" />
<path d="M30181 27039
L30106 27091
" />
<path d="M30181 27129
L30023 27129
L30023 27069
L30031 27054
L30038 27046
L30053 27039
L30076 27039
L30091 27046
L30098 27054
L30106 27069
L30106 27129
" />
<path d="M30023 26986
L30023 26889
L30083 26941
L30083 26919
L30091 26904
L30098 26896
L30113 26889
L30151 26889
L30166 26896
L30173 26904
L30181 26919
L30181 26964
L30173 26979
L30166 26986
" />
<path d="M30038 26829
L30031 26821
L30023 26806
L30023 26769
L30031 26754
L30038 26746
L30053 26739
L30068 26739
L30091 26746
L30181 26836
L30181 26739
" />
<path d="M33219 27324
L33144 27376
" />
<path d="M33219 27414
L33061 27414
L33061 27354
L33069 27339
L33076 27331
L33091 27324
L33114 27324
L33129 27331
L33136 27339
L33144 27354
L33144 27414
" />
<path d="M33061 27271
L33061 27174
L33121 27226
L33121 27204
L33129 27189
L33136 27181
L33151 27174
L33189 27174
L33204 27181
L33211 27189
L33219 27204
L33219 27249
L33211 27264
L33204 27271
" />
<path d="M33061 27121
L33061 27024
L33121 27076
L33121 27054
L33129 27039
L33136 27031
L33151 27024
L33189 27024
L33204 27031
L33211 27039
L33219 27054
L33219 27099
L33211 27114
L33204 27121
" />
<path d="M34930 16946
L34878 16871
" />
<path d="M34840 16946
L34840 16788
L34900 16788
L34915 16796
L34923 16803
L34930 16818
L34930 16841
L34923 16856
L34915 16863
L34900 16871
L34840 16871
" />
<path d="M34983 16788
L35080 16788
L35028 16848
L35050 16848
L35065 16856
L35073 16863
L35080 16878
L35080 16916
L35073 16931
L35065 16938
L35050 16946
L35005 16946
L34990 16938
L34983 16931
" />
<path d="M35215 16841
L35215 16946
" />
<path d="M35178 16781
L35140 16893
L35238 16893
" />
<path d="M31611 17144
L31559 17069
" />
<path d="M31521 17144
L31521 16986
L31581 16986
L31596 16994
L31604 17001
L31611 17016
L31611 17039
L31604 17054
L31596 17061
L31581 17069
L31521 17069
" />
<path d="M31664 16986
L31761 16986
L31709 17046
L31731 17046
L31746 17054
L31754 17061
L31761 17076
L31761 17114
L31754 17129
L31746 17136
L31731 17144
L31686 17144
L31671 17136
L31664 17129
" />
<path d="M31904 16986
L31829 16986
L31821 17061
L31829 17054
L31844 17046
L31881 17046
L31896 17054
L31904 17061
L31911 17076
L31911 17114
L31904 17129
L31896 17136
L31881 17144
L31844 17144
L31829 17136
L31821 17129
" />
</g>
<g style="fill:#000000; fill-opacity:0.0; 
stroke:#000000; stroke-width:59.0551; stroke-opacity:1; 
stroke-linecap:round; stroke-linejoin:round;">
<path d="M31194 38900
L31512 38900
L31550 38881
L31569 38862
L31587 38825
L31587 38750
L31569 38712
L31550 38694
L31512 38675
L31194 38675
" />
<path d="M31194 38525
L31194 38281
L31344 38412
L31344 38356
L31362 38319
L31381 38300
L31419 38281
L31512 38281
L31550 38300
L31569 38319
L31587 38356
L31587 38469
L31569 38506
L31550 38525
" />
</g>
<g style="fill:#000000; fill-opacity:0.0; 
stroke:#000000; stroke-width:29.5276; stroke-opacity:1; 
stroke-linecap:round; stroke-linejoin:round;">
<path d="M29021 29918
L28946 29970
" />
<path d="M29021 30008
L28863 30008
L28863 29948
L28871 29933
L28878 29925
L28893 29918
L28916 29918
L28931 29925
L28938 29933
L28946 29948
L28946 30008
" />
<path d="M28916 29783
L29021 29783
" />
<path d="M28856 29820
L28968 29858
L28968 29760
" />
<path d="M28863 29715
L28863 29618
L28923 29670
L28923 29648
L28931 29633
L28938 29625
L28953 29618
L28991 29618
L29006 29625
L29013 29633
L29021 29648
L29021 29693
L29013 29708
L29006 29715
" />
</g>
<g style="fill:#000000; fill-opacity:0.0; 
stroke:#000000; stroke-width:59.0551; stroke-opacity:1; 
stroke-linecap:round; stroke-linejoin:round;">
<path d="M21354 38671
L21354 38278
L21448 38278
L21504 38296
L21541 38334
L21560 38371
L21579 38446
L21579 38503
L21560 38578
L21541 38615
L21504 38653
L21448 38671
L21354 38671
" />
<path d="M21916 38409
L21916 38671
" />
<path d="M21823 38259
L21729 38540
L21973 38540
" />
<path d="M27120 34789
L26726 34789
L26726 34695
L26745 34639
L26782 34601
L26820 34583
L26895 34564
L26951 34564
L27026 34583
L27063 34601
L27101 34639
L27120 34695
L27120 34789
" />
<path d="M27120 34376
L27120 34301
L27101 34264
L27082 34245
L27026 34208
L26951 34189
L26801 34189
L26764 34208
L26745 34226
L26726 34264
L26726 34339
L26745 34376
L26764 34395
L26801 34414
L26895 34414
L26932 34395
L26951 34376
L26970 34339
L26970 34264
L26951 34226
L26932 34208
L26895 34189
" />
<path d="M21443 15331
L21312 15144
" />
<path d="M21218 15331
L21218 14937
L21368 14937
L21406 14956
L21424 14975
L21443 15012
L21443 15069
L21424 15106
L21406 15125
L21368 15144
L21218 15144
" />
<path d="M21612 15125
L21743 15125
" />
<path d="M21799 15331
L21612 15331
L21612 14937
L21799 14937
" />
<path d="M22099 15125
L21968 15125
" />
<path d="M21968 15331
L21968 14937
L22155 14937
" />
<path d="M22362 14937
L22362 15031
" />
<path d="M22268 14994
L22362 15031
L22455 14994
" />
<path d="M22305 15106
L22362 15031
L22418 15106
" />
<path d="M22662 14937
L22662 15031
" />
<path d="M22568 14994
L22662 15031
L22755 14994
" />
<path d="M22605 15106
L22662 15031
L22718 15106
" />
</g>
<g style="fill:#000000; fill-opacity:0.0; 
stroke:#000000; stroke-width:29.5276; stroke-opacity:1; 
stroke-linecap:round; stroke-linejoin:round;">
<path d="M26073 22189
L26064 22208
L26045 22227
L26017 22255
L26007 22274
L26007 22292
" />
<path d="M26054 22283
L26045 22302
L26026 22320
L25989 22330
L25923 22330
L25886 22320
L25867 22302
L25857 22283
L25857 22246
L25867 22227
L25886 22208
L25923 22199
L25989 22199
L26026 22208
L26045 22227
L26054 22246
L26054 22283
" />
<path d="M25942 22086
L25932 22105
L25923 22114
L25904 22124
L25895 22124
L25876 22114
L25867 22105
L25857 22086
L25857 22049
L25867 22030
L25876 22021
L25895 22011
L25904 22011
L25923 22021
L25932 22030
L25942 22049
L25942 22086
L25951 22105
L25961 22114
L25979 22124
L26017 22124
L26036 22114
L26045 22105
L26054 22086
L26054 22049
L26045 22030
L26036 22021
L26017 22011
L25979 22011
L25961 22021
L25951 22030
L25942 22049
" />
<path d="M24368 21828
L24316 21753
" />
<path d="M24278 21828
L24278 21670
L24338 21670
L24353 21678
L24361 21685
L24368 21700
L24368 21723
L24361 21738
L24353 21745
L24338 21753
L24278 21753
" />
<path d="M24503 21723
L24503 21828
" />
<path d="M24466 21663
L24428 21775
L24526 21775
" />
<path d="M24668 21828
L24578 21828
" />
<path d="M24623 21828
L24623 21670
L24608 21693
L24593 21708
L24578 21715
" />
<path d="M24372 22613
L24320 22538
" />
<path d="M24282 22613
L24282 22455
L24342 22455
L24357 22463
L24365 22470
L24372 22485
L24372 22508
L24365 22523
L24357 22530
L24342 22538
L24282 22538
" />
<path d="M24507 22508
L24507 22613
" />
<path d="M24470 22448
L24432 22560
L24530 22560
" />
<path d="M24582 22470
L24590 22463
L24605 22455
L24642 22455
L24657 22463
L24665 22470
L24672 22485
L24672 22500
L24665 22523
L24575 22613
L24672 22613
" />
</g>
<g style="fill:#000000; fill-opacity:0.0; 
stroke:#000000; stroke-width:59.0551; stroke-opacity:1; 
stroke-linecap:round; stroke-linejoin:round;">
<path d="M51104 42567
L51123 42586
L51142 42642
L51142 42680
L51123 42736
L51085 42774
L51048 42792
L50973 42811
L50917 42811
L50842 42792
L50804 42774
L50767 42736
L50748 42680
L50748 42642
L50767 42586
L50786 42567
" />
<path d="M50786 42417
L50767 42399
L50748 42361
L50748 42267
L50767 42230
L50786 42211
L50823 42192
L50861 42192
L50917 42211
L51142 42436
L51142 42192
" />
<path d="M51142 41817
L51142 42042
" />
<path d="M51142 41930
L50748 41930
L50804 41967
L50842 42005
L50861 42042
" />
<path d="M49681 43798
L49700 43817
L49719 43873
L49719 43911
L49700 43967
L49662 44005
L49625 44023
L49550 44042
L49494 44042
L49419 44023
L49381 44005
L49344 43967
L49325 43911
L49325 43873
L49344 43817
L49363 43798
" />
<path d="M49363 43648
L49344 43630
L49325 43592
L49325 43498
L49344 43461
L49363 43442
L49400 43423
L49438 43423
L49494 43442
L49719 43667
L49719 43423
" />
<path d="M49325 43292
L49325 43048
L49475 43180
L49475 43123
L49494 43086
L49512 43067
L49550 43048
L49644 43048
L49681 43067
L49700 43086
L49719 43123
L49719 43236
L49700 43273
L49681 43292
" />
<path d="M48887 46265
L48868 46284
L48812 46302
L48774 46302
L48718 46284
L48680 46246
L48662 46209
L48643 46134
L48643 46077
L48662 46002
L48680 45965
L48718 45927
L48774 45909
L48812 45909
L48868 45927
L48887 45946
" />
<path d="M49037 45946
L49055 45927
L49093 45909
L49186 45909
L49224 45927
L49243 45946
L49261 45984
L49261 46021
L49243 46077
L49018 46302
L49261 46302
" />
<path d="M49618 45909
L49430 45909
L49411 46096
L49430 46077
L49468 46059
L49561 46059
L49599 46077
L49618 46096
L49636 46134
L49636 46227
L49618 46265
L49599 46284
L49561 46302
L49468 46302
L49430 46284
L49411 46265
" />
<path d="M46989 45914
L46978 45925
L46944 45936
L46921 45936
L46888 45925
L46865 45902
L46854 45880
L46843 45835
L46843 45801
L46854 45756
L46865 45734
L46888 45711
L46921 45700
L46944 45700
L46978 45711
L46989 45722
" />
<path d="M47079 45722
L47090 45711
L47112 45700
L47169 45700
L47191 45711
L47202 45722
L47214 45745
L47214 45767
L47202 45801
L47068 45936
L47214 45936
" />
<path d="M47416 45700
L47371 45700
L47349 45711
L47337 45722
L47315 45756
L47304 45801
L47304 45891
L47315 45914
L47326 45925
L47349 45936
L47394 45936
L47416 45925
L47427 45914
L47439 45891
L47439 45835
L47427 45812
L47416 45801
L47394 45790
L47349 45790
L47326 45801
L47315 45812
L47304 45835
" />
<path d="M40943 39031
L40962 39050
L40981 39106
L40981 39144
L40962 39200
L40924 39238
L40887 39256
L40812 39275
L40756 39275
L40681 39256
L40643 39238
L40606 39200
L40587 39144
L40587 39106
L40606 39050
L40625 39031
" />
<path d="M40625 38881
L40606 38863
L40587 38825
L40587 38731
L40606 38694
L40625 38675
L40662 38656
L40700 38656
L40756 38675
L40981 38900
L40981 38656
" />
<path d="M40756 38431
L40737 38469
L40718 38488
L40681 38506
L40662 38506
L40625 38488
L40606 38469
L40587 38431
L40587 38356
L40606 38319
L40625 38300
L40662 38281
L40681 38281
L40718 38300
L40737 38319
L40756 38356
L40756 38431
L40774 38469
L40793 38488
L40831 38506
L40906 38506
L40943 38488
L40962 38469
L40981 38431
L40981 38356
L40962 38319
L40943 38300
L40906 38281
L40831 38281
L40793 38300
L40774 38319
L40756 38356
" />
<path d="M38990 36202
L38971 36221
L38915 36239
L38877 36239
L38821 36221
L38783 36183
L38765 36146
L38746 36071
L38746 36014
L38765 35939
L38783 35902
L38821 35864
L38877 35846
L38915 35846
L38971 35864
L38990 35883
" />
<path d="M39140 35883
L39158 35864
L39196 35846
L39289 35846
L39327 35864
L39346 35883
L39364 35921
L39364 35958
L39346 36014
L39121 36239
L39364 36239
" />
<path d="M39552 36239
L39627 36239
L39664 36221
L39683 36202
L39721 36146
L39739 36071
L39739 35921
L39721 35883
L39702 35864
L39664 35846
L39589 35846
L39552 35864
L39533 35883
L39514 35921
L39514 36014
L39533 36052
L39552 36071
L39589 36089
L39664 36089
L39702 36071
L39721 36052
L39739 36014
" />
<path d="M48766 40792
L48748 40811
L48691 40830
L48654 40830
L48598 40811
L48560 40773
L48541 40736
L48523 40661
L48523 40605
L48541 40530
L48560 40492
L48598 40455
L48654 40436
L48691 40436
L48748 40455
L48766 40474
" />
<path d="M48898 40436
L49141 40436
L49010 40586
L49066 40586
L49104 40605
L49123 40624
L49141 40661
L49141 40755
L49123 40792
L49104 40811
L49066 40830
L48954 40830
L48916 40811
L48898 40792
" />
<path d="M49516 40830
L49291 40830
" />
<path d="M49404 40830
L49404 40436
L49366 40492
L49329 40530
L49291 40549
" />
<path d="M41037 36085
L41056 36104
L41075 36160
L41075 36198
L41056 36254
L41018 36292
L40981 36310
L40906 36329
L40850 36329
L40775 36310
L40737 36292
L40700 36254
L40681 36198
L40681 36160
L40700 36104
L40719 36085
" />
<path d="M40681 35954
L40681 35710
L40831 35842
L40831 35785
L40850 35748
L40868 35729
L40906 35710
L41000 35710
L41037 35729
L41056 35748
L41075 35785
L41075 35898
L41056 35935
L41037 35954
" />
<path d="M40719 35560
L40700 35542
L40681 35504
L40681 35410
L40700 35373
L40719 35354
L40756 35335
L40794 35335
L40850 35354
L41075 35579
L41075 35335
" />
<path d="M48771 37012
L48753 37031
L48696 37050
L48659 37050
L48603 37031
L48565 36993
L48546 36956
L48528 36881
L48528 36825
L48546 36750
L48565 36712
L48603 36675
L48659 36656
L48696 36656
L48753 36675
L48771 36694
" />
<path d="M48903 36656
L49146 36656
L49015 36806
L49071 36806
L49109 36825
L49128 36844
L49146 36881
L49146 36975
L49128 37012
L49109 37031
L49071 37050
L48959 37050
L48921 37031
L48903 37012
" />
<path d="M49278 36656
L49521 36656
L49390 36806
L49446 36806
L49484 36825
L49503 36844
L49521 36881
L49521 36975
L49503 37012
L49484 37031
L49446 37050
L49334 37050
L49296 37031
L49278 37012
" />
<path d="M51948 41349
L51948 40956
L52041 40956
L52098 40974
L52135 41012
L52154 41049
L52173 41124
L52173 41181
L52154 41256
L52135 41293
L52098 41331
L52041 41349
L51948 41349
" />
<path d="M52547 41349
L52323 41349
" />
<path d="M52435 41349
L52435 40956
L52397 41012
L52360 41049
L52323 41068
" />
<path d="M52735 41349
L52810 41349
L52847 41331
L52866 41312
L52904 41256
L52922 41181
L52922 41031
L52904 40993
L52885 40974
L52847 40956
L52772 40956
L52735 40974
L52716 40993
L52697 41031
L52697 41124
L52716 41162
L52735 41181
L52772 41199
L52847 41199
L52885 41181
L52904 41162
L52922 41124
" />
<path d="M43210 43033
L43210 42640
L43303 42640
L43360 42658
L43397 42696
L43416 42733
L43435 42808
L43435 42865
L43416 42940
L43397 42977
L43360 43015
L43303 43033
L43210 43033
" />
<path d="M43585 42677
L43603 42658
L43641 42640
L43734 42640
L43772 42658
L43791 42677
L43809 42715
L43809 42752
L43791 42808
L43566 43033
L43809 43033
" />
<path d="M44053 42640
L44091 42640
L44128 42658
L44147 42677
L44166 42715
L44184 42790
L44184 42883
L44166 42958
L44147 42996
L44128 43015
L44091 43033
L44053 43033
L44016 43015
L43997 42996
L43978 42958
L43959 42883
L43959 42790
L43978 42715
L43997 42677
L44016 42658
L44053 42640
" />
<path d="M53349 43062
L52955 43062
L52955 42968
L52974 42912
L53011 42875
L53049 42856
L53124 42837
L53180 42837
L53255 42856
L53293 42875
L53330 42912
L53349 42968
L53349 43062
" />
<path d="M52993 42687
L52974 42669
L52955 42631
L52955 42537
L52974 42500
L52993 42481
L53030 42462
L53068 42462
L53124 42481
L53349 42706
L53349 42462
" />
<path d="M53349 42087
L53349 42312
" />
<path d="M53349 42200
L52955 42200
L53011 42237
L53049 42275
L53068 42312
" />
<path d="M45423 45110
L45423 44717
L45516 44717
L45573 44735
L45610 44773
L45629 44810
L45648 44885
L45648 44942
L45629 45017
L45610 45054
L45573 45092
L45516 45110
L45423 45110
" />
<path d="M45798 44754
L45816 44735
L45854 44717
L45947 44717
L45985 44735
L46004 44754
L46022 44792
L46022 44829
L46004 44885
L45779 45110
L46022 45110
" />
<path d="M46172 44754
L46191 44735
L46229 44717
L46322 44717
L46360 44735
L46379 44754
L46397 44792
L46397 44829
L46379 44885
L46154 45110
L46397 45110
" />
<path d="M45725 46391
L45725 45998
L45818 45998
L45875 46016
L45912 46054
L45931 46091
L45950 46166
L45950 46223
L45931 46298
L45912 46335
L45875 46373
L45818 46391
L45725 46391
" />
<path d="M46100 46035
L46118 46016
L46156 45998
L46249 45998
L46287 46016
L46306 46035
L46324 46073
L46324 46110
L46306 46166
L46081 46391
L46324 46391
" />
<path d="M46456 45998
L46699 45998
L46568 46148
L46624 46148
L46662 46166
L46681 46185
L46699 46223
L46699 46316
L46681 46354
L46662 46373
L46624 46391
L46512 46391
L46474 46373
L46456 46354
" />
<path d="M43637 45686
L43637 45293
L43730 45293
L43787 45311
L43824 45349
L43843 45386
L43862 45461
L43862 45518
L43843 45593
L43824 45630
L43787 45668
L43730 45686
L43637 45686
" />
<path d="M44012 45330
L44030 45311
L44068 45293
L44161 45293
L44199 45311
L44218 45330
L44236 45368
L44236 45405
L44218 45461
L43993 45686
L44236 45686
" />
<path d="M44461 45461
L44424 45443
L44405 45424
L44386 45386
L44386 45368
L44405 45330
L44424 45311
L44461 45293
L44536 45293
L44574 45311
L44593 45330
L44611 45368
L44611 45386
L44593 45424
L44574 45443
L44536 45461
L44461 45461
L44424 45480
L44405 45499
L44386 45536
L44386 45611
L44405 45649
L44424 45668
L44461 45686
L44536 45686
L44574 45668
L44593 45649
L44611 45611
L44611 45536
L44593 45499
L44574 45480
L44536 45461
" />
</g>
<g style="fill:#000000; fill-opacity:0.0; 
stroke:#000000; stroke-width:29.5276; stroke-opacity:1; 
stroke-linecap:round; stroke-linejoin:round;">
<path d="M49050 35841
L48975 35841
L48975 35683
" />
<path d="M49088 35683
L49185 35683
L49133 35743
L49155 35743
L49170 35751
L49178 35758
L49185 35773
L49185 35811
L49178 35826
L49170 35833
L49155 35841
L49110 35841
L49095 35833
L49088 35826
" />
<path d="M51106 40319
L51097 40338
L51078 40357
L51050 40385
L51040 40404
L51040 40422
" />
<path d="M51087 40413
L51078 40432
L51059 40450
L51022 40460
L50956 40460
L50919 40450
L50900 40432
L50890 40413
L50890 40375
L50900 40357
L50919 40338
L50956 40329
L51022 40329
L51059 40338
L51078 40357
L51087 40375
L51087 40413
" />
<path d="M51087 40235
L51087 40197
L51078 40179
L51069 40169
L51040 40151
L51003 40141
L50928 40141
L50909 40151
L50900 40160
L50890 40179
L50890 40216
L50900 40235
L50909 40244
L50928 40254
L50975 40254
L50994 40244
L51003 40235
L51012 40216
L51012 40179
L51003 40160
L50994 40151
L50975 40141
" />
<path d="M45118 27314
L45099 27304
L45081 27285
L45052 27257
L45034 27248
L45015 27248
" />
<path d="M45024 27295
L45006 27285
L44987 27267
L44977 27229
L44977 27164
L44987 27126
L45006 27107
L45024 27098
L45062 27098
L45081 27107
L45099 27126
L45109 27164
L45109 27229
L45099 27267
L45081 27285
L45062 27295
L45024 27295
" />
<path d="M45296 27295
L45184 27295
" />
<path d="M45240 27295
L45240 27098
L45221 27126
L45202 27145
L45184 27154
" />
<path d="M45484 27295
L45371 27295
" />
<path d="M45427 27295
L45427 27098
L45409 27126
L45390 27145
L45371 27154
" />
<path d="M42815 18539
L42796 18530
L42778 18511
L42749 18483
L42731 18473
L42712 18473
" />
<path d="M42721 18520
L42703 18511
L42684 18492
L42674 18455
L42674 18389
L42684 18352
L42703 18333
L42721 18323
L42759 18323
L42778 18333
L42796 18352
L42806 18389
L42806 18455
L42796 18492
L42778 18511
L42759 18520
L42721 18520
" />
<path d="M42993 18520
L42881 18520
" />
<path d="M42937 18520
L42937 18323
L42918 18352
L42899 18370
L42881 18380
" />
<path d="M43068 18342
L43077 18333
L43096 18323
L43143 18323
L43162 18333
L43171 18342
L43181 18361
L43181 18380
L43171 18408
L43059 18520
L43181 18520
" />
<path d="M39820 18555
L39801 18546
L39783 18527
L39754 18499
L39736 18489
L39717 18489
" />
<path d="M39726 18536
L39708 18527
L39689 18508
L39679 18471
L39679 18405
L39689 18368
L39708 18349
L39726 18339
L39764 18339
L39783 18349
L39801 18368
L39811 18405
L39811 18471
L39801 18508
L39783 18527
L39764 18536
L39726 18536
" />
<path d="M39998 18536
L39886 18536
" />
<path d="M39942 18536
L39942 18339
L39923 18368
L39904 18386
L39886 18396
" />
<path d="M40064 18339
L40186 18339
L40120 18414
L40148 18414
L40167 18424
L40176 18433
L40186 18452
L40186 18499
L40176 18518
L40167 18527
L40148 18536
L40092 18536
L40073 18527
L40064 18518
" />
<path d="M39147 27280
L39128 27271
L39110 27252
L39081 27224
L39063 27215
L39044 27215
" />
<path d="M39053 27262
L39035 27252
L39016 27233
L39006 27196
L39006 27130
L39016 27093
L39035 27074
L39053 27065
L39091 27065
L39110 27074
L39128 27093
L39138 27130
L39138 27196
L39128 27233
L39110 27252
L39091 27262
L39053 27262
" />
<path d="M39325 27262
L39213 27262
" />
<path d="M39269 27262
L39269 27065
L39250 27093
L39231 27112
L39213 27121
" />
<path d="M39494 27130
L39494 27262
" />
<path d="M39447 27055
L39400 27196
L39522 27196
" />
<path d="M42163 27293
L42144 27284
L42126 27265
L42097 27237
L42079 27227
L42060 27227
" />
<path d="M42069 27274
L42051 27265
L42032 27246
L42022 27209
L42022 27143
L42032 27106
L42051 27087
L42069 27077
L42107 27077
L42126 27087
L42144 27106
L42154 27143
L42154 27209
L42144 27246
L42126 27265
L42107 27274
L42069 27274
" />
<path d="M42341 27274
L42229 27274
" />
<path d="M42285 27274
L42285 27077
L42266 27106
L42247 27124
L42229 27134
" />
<path d="M42519 27077
L42425 27077
L42416 27171
L42425 27162
L42444 27152
L42491 27152
L42510 27162
L42519 27171
L42529 27190
L42529 27237
L42519 27256
L42510 27265
L42491 27274
L42444 27274
L42425 27265
L42416 27256
" />
<path d="M46179 21347
L46160 21338
L46142 21319
L46113 21291
L46095 21282
L46076 21282
" />
<path d="M46085 21329
L46067 21319
L46048 21300
L46038 21263
L46038 21197
L46048 21160
L46067 21141
L46085 21132
L46123 21132
L46142 21141
L46160 21160
L46170 21197
L46170 21263
L46160 21300
L46142 21319
L46123 21329
L46085 21329
" />
<path d="M46357 21329
L46245 21329
" />
<path d="M46301 21329
L46301 21132
L46282 21160
L46263 21179
L46245 21188
" />
<path d="M46526 21132
L46488 21132
L46470 21141
L46460 21150
L46441 21179
L46432 21216
L46432 21291
L46441 21310
L46451 21319
L46470 21329
L46507 21329
L46526 21319
L46535 21310
L46545 21291
L46545 21244
L46535 21225
L46526 21216
L46507 21207
L46470 21207
L46451 21216
L46441 21225
L46432 21244
" />
<path d="M52428 40101
L52376 40026
" />
<path d="M52338 40101
L52338 39943
L52398 39943
L52413 39951
L52421 39958
L52428 39973
L52428 39996
L52421 40011
L52413 40018
L52398 40026
L52338 40026
" />
<path d="M52563 39996
L52563 40101
" />
<path d="M52526 39936
L52488 40048
L52586 40048
" />
<path d="M52713 39943
L52683 39943
L52668 39951
L52661 39958
L52646 39981
L52638 40011
L52638 40071
L52646 40086
L52653 40093
L52668 40101
L52698 40101
L52713 40093
L52721 40086
L52728 40071
L52728 40033
L52721 40018
L52713 40011
L52698 40003
L52668 40003
L52653 40011
L52646 40018
L52638 40033
" />
<path d="M44626 44069
L44551 44121
" />
<path d="M44626 44159
L44468 44159
L44468 44099
L44476 44084
L44483 44076
L44498 44069
L44521 44069
L44536 44076
L44543 44084
L44551 44099
L44551 44159
" />
<path d="M44521 43934
L44626 43934
" />
<path d="M44461 43971
L44573 44009
L44573 43911
" />
<path d="M44468 43866
L44468 43761
L44626 43829
" />
<path d="M51996 42713
L51921 42765
" />
<path d="M51996 42803
L51838 42803
L51838 42743
L51846 42728
L51853 42720
L51868 42713
L51891 42713
L51906 42720
L51913 42728
L51921 42743
L51921 42803
" />
<path d="M51891 42578
L51996 42578
" />
<path d="M51831 42615
L51943 42653
L51943 42555
" />
<path d="M51906 42473
L51898 42488
L51891 42495
L51876 42503
L51868 42503
L51853 42495
L51846 42488
L51838 42473
L51838 42443
L51846 42428
L51853 42420
L51868 42413
L51876 42413
L51891 42420
L51898 42428
L51906 42443
L51906 42473
L51913 42488
L51921 42495
L51936 42503
L51966 42503
L51981 42495
L51988 42488
L51996 42473
L51996 42443
L51988 42428
L51981 42420
L51966 42413
L51936 42413
L51921 42420
L51913 42428
L51906 42443
" />
<path d="M48573 45261
L48521 45186
" />
<path d="M48483 45261
L48483 45103
L48543 45103
L48558 45111
L48566 45118
L48573 45133
L48573 45156
L48566 45171
L48558 45178
L48543 45186
L48483 45186
" />
<path d="M48716 45103
L48641 45103
L48633 45178
L48641 45171
L48656 45163
L48693 45163
L48708 45171
L48716 45178
L48723 45193
L48723 45231
L48716 45246
L48708 45253
L48693 45261
L48656 45261
L48641 45253
L48633 45246
" />
<path d="M48858 45156
L48858 45261
" />
<path d="M48821 45096
L48783 45208
L48881 45208
" />
<path d="M46330 42986
L46278 42911
" />
<path d="M46240 42986
L46240 42828
L46300 42828
L46315 42836
L46323 42843
L46330 42858
L46330 42881
L46323 42896
L46315 42903
L46300 42911
L46240 42911
" />
<path d="M46473 42828
L46398 42828
L46390 42903
L46398 42896
L46413 42888
L46450 42888
L46465 42896
L46473 42903
L46480 42918
L46480 42956
L46473 42971
L46465 42978
L46450 42986
L46413 42986
L46398 42978
L46390 42971
" />
<path d="M46623 42828
L46548 42828
L46540 42903
L46548 42896
L46563 42888
L46600 42888
L46615 42896
L46623 42903
L46630 42918
L46630 42956
L46623 42971
L46615 42978
L46600 42986
L46563 42986
L46548 42978
L46540 42971
" />
<path d="M45281 44064
L45206 44116
" />
<path d="M45281 44154
L45123 44154
L45123 44094
L45131 44079
L45138 44071
L45153 44064
L45176 44064
L45191 44071
L45198 44079
L45206 44094
L45206 44154
" />
<path d="M45123 43921
L45123 43996
L45198 44004
L45191 43996
L45183 43981
L45183 43944
L45191 43929
L45198 43921
L45213 43914
L45251 43914
L45266 43921
L45273 43929
L45281 43944
L45281 43981
L45273 43996
L45266 44004
" />
<path d="M45123 43779
L45123 43809
L45131 43824
L45138 43831
L45161 43846
L45191 43854
L45251 43854
L45266 43846
L45273 43839
L45281 43824
L45281 43794
L45273 43779
L45266 43771
L45251 43764
L45213 43764
L45198 43771
L45191 43779
L45183 43794
L45183 43824
L45191 43839
L45198 43846
L45213 43854
" />
<path d="M48958 37391
L48906 37316
" />
<path d="M48868 37391
L48868 37233
L48928 37233
L48943 37241
L48951 37248
L48958 37263
L48958 37286
L48951 37301
L48943 37308
L48928 37316
L48868 37316
" />
<path d="M49093 37233
L49063 37233
L49048 37241
L49041 37248
L49026 37271
L49018 37301
L49018 37361
L49026 37376
L49033 37383
L49048 37391
L49078 37391
L49093 37383
L49101 37376
L49108 37361
L49108 37323
L49101 37308
L49093 37301
L49078 37293
L49048 37293
L49033 37301
L49026 37308
L49018 37323
" />
<path d="M49161 37233
L49258 37233
L49206 37293
L49228 37293
L49243 37301
L49251 37308
L49258 37323
L49258 37361
L49251 37376
L49243 37383
L49228 37391
L49183 37391
L49168 37383
L49161 37376
" />
<path d="M40381 27176
L40306 27228
" />
<path d="M40381 27266
L40223 27266
L40223 27206
L40231 27191
L40238 27183
L40253 27176
L40276 27176
L40291 27183
L40298 27191
L40306 27206
L40306 27266
" />
<path d="M40223 27041
L40223 27071
L40231 27086
L40238 27093
L40261 27108
L40291 27116
L40351 27116
L40366 27108
L40373 27101
L40381 27086
L40381 27056
L40373 27041
L40366 27033
L40351 27026
L40313 27026
L40298 27033
L40291 27041
L40283 27056
L40283 27086
L40291 27101
L40298 27108
L40313 27116
" />
<path d="M40276 26891
L40381 26891
" />
<path d="M40216 26928
L40328 26966
L40328 26868
" />
<path d="M43407 27190
L43332 27242
" />
<path d="M43407 27280
L43249 27280
L43249 27220
L43257 27205
L43264 27197
L43279 27190
L43302 27190
L43317 27197
L43324 27205
L43332 27220
L43332 27280
" />
<path d="M43249 27055
L43249 27085
L43257 27100
L43264 27107
L43287 27122
L43317 27130
L43377 27130
L43392 27122
L43399 27115
L43407 27100
L43407 27070
L43399 27055
L43392 27047
L43377 27040
L43339 27040
L43324 27047
L43317 27055
L43309 27070
L43309 27100
L43317 27115
L43324 27122
L43339 27130
" />
<path d="M43249 26897
L43249 26972
L43324 26980
L43317 26972
L43309 26957
L43309 26920
L43317 26905
L43324 26897
L43339 26890
L43377 26890
L43392 26897
L43399 26905
L43407 26920
L43407 26957
L43399 26972
L43392 26980
" />
<path d="M46406 27221
L46331 27273
" />
<path d="M46406 27311
L46248 27311
L46248 27251
L46256 27236
L46263 27228
L46278 27221
L46301 27221
L46316 27228
L46323 27236
L46331 27251
L46331 27311
" />
<path d="M46248 27086
L46248 27116
L46256 27131
L46263 27138
L46286 27153
L46316 27161
L46376 27161
L46391 27153
L46398 27146
L46406 27131
L46406 27101
L46398 27086
L46391 27078
L46376 27071
L46338 27071
L46323 27078
L46316 27086
L46308 27101
L46308 27131
L46316 27146
L46323 27153
L46338 27161
" />
<path d="M46248 26936
L46248 26966
L46256 26981
L46263 26988
L46286 27003
L46316 27011
L46376 27011
L46391 27003
L46398 26996
L46406 26981
L46406 26951
L46398 26936
L46391 26928
L46376 26921
L46338 26921
L46323 26928
L46316 26936
L46308 26951
L46308 26981
L46316 26996
L46323 27003
L46338 27011
" />
<path d="M44099 18446
L44024 18498
" />
<path d="M44099 18536
L43941 18536
L43941 18476
L43949 18461
L43956 18453
L43971 18446
L43994 18446
L44009 18453
L44016 18461
L44024 18476
L44024 18536
" />
<path d="M43941 18311
L43941 18341
L43949 18356
L43956 18363
L43979 18378
L44009 18386
L44069 18386
L44084 18378
L44091 18371
L44099 18356
L44099 18326
L44091 18311
L44084 18303
L44069 18296
L44031 18296
L44016 18303
L44009 18311
L44001 18326
L44001 18356
L44009 18371
L44016 18378
L44031 18386
" />
<path d="M43941 18243
L43941 18138
L44099 18206
" />
<path d="M41084 18447
L41009 18499
" />
<path d="M41084 18537
L40926 18537
L40926 18477
L40934 18462
L40941 18454
L40956 18447
L40979 18447
L40994 18454
L41001 18462
L41009 18477
L41009 18537
" />
<path d="M40926 18312
L40926 18342
L40934 18357
L40941 18364
L40964 18379
L40994 18387
L41054 18387
L41069 18379
L41076 18372
L41084 18357
L41084 18327
L41076 18312
L41069 18304
L41054 18297
L41016 18297
L41001 18304
L40994 18312
L40986 18327
L40986 18357
L40994 18372
L41001 18379
L41016 18387
" />
<path d="M40994 18207
L40986 18222
L40979 18229
L40964 18237
L40956 18237
L40941 18229
L40934 18222
L40926 18207
L40926 18177
L40934 18162
L40941 18154
L40956 18147
L40964 18147
L40979 18154
L40986 18162
L40994 18177
L40994 18207
L41001 18222
L41009 18229
L41024 18237
L41054 18237
L41069 18229
L41076 18222
L41084 18207
L41084 18177
L41076 18162
L41069 18154
L41054 18147
L41024 18147
L41009 18154
L41001 18162
L40994 18177
" />
<path d="M42276 30347
L42224 30272
" />
<path d="M42186 30347
L42186 30190
L42246 30190
L42261 30197
L42269 30205
L42276 30220
L42276 30242
L42269 30257
L42261 30265
L42246 30272
L42186 30272
" />
<path d="M42411 30190
L42381 30190
L42366 30197
L42359 30205
L42344 30227
L42336 30257
L42336 30317
L42344 30332
L42351 30340
L42366 30347
L42396 30347
L42411 30340
L42419 30332
L42426 30317
L42426 30280
L42419 30265
L42411 30257
L42396 30250
L42366 30250
L42351 30257
L42344 30265
L42336 30280
" />
<path d="M42501 30347
L42531 30347
L42546 30340
L42554 30332
L42569 30310
L42576 30280
L42576 30220
L42569 30205
L42561 30197
L42546 30190
L42516 30190
L42501 30197
L42494 30205
L42486 30220
L42486 30257
L42494 30272
L42501 30280
L42516 30287
L42546 30287
L42561 30280
L42569 30272
L42576 30257
" />
<path d="M38226 27162
L38151 27214
" />
<path d="M38226 27252
L38068 27252
L38068 27192
L38076 27177
L38083 27169
L38098 27162
L38121 27162
L38136 27169
L38143 27177
L38151 27192
L38151 27252
" />
<path d="M38068 27109
L38068 27004
L38226 27072
" />
<path d="M38226 26862
L38226 26952
" />
<path d="M38226 26907
L38068 26907
L38091 26922
L38106 26937
L38113 26952
" />
<path d="M41222 27191
L41147 27243
" />
<path d="M41222 27281
L41064 27281
L41064 27221
L41072 27206
L41079 27198
L41094 27191
L41117 27191
L41132 27198
L41139 27206
L41147 27221
L41147 27281
" />
<path d="M41064 27138
L41064 27033
L41222 27101
" />
<path d="M41079 26981
L41072 26973
L41064 26958
L41064 26921
L41072 26906
L41079 26898
L41094 26891
L41109 26891
L41132 26898
L41222 26988
L41222 26891
" />
<path d="M44183 27209
L44108 27261
" />
<path d="M44183 27299
L44025 27299
L44025 27239
L44033 27224
L44040 27216
L44055 27209
L44078 27209
L44093 27216
L44100 27224
L44108 27239
L44108 27299
" />
<path d="M44025 27156
L44025 27051
L44183 27119
" />
<path d="M44025 27006
L44025 26909
L44085 26961
L44085 26939
L44093 26924
L44100 26916
L44115 26909
L44153 26909
L44168 26916
L44175 26924
L44183 26939
L44183 26984
L44175 26999
L44168 27006
" />
<path d="M41909 18427
L41834 18479
" />
<path d="M41909 18517
L41751 18517
L41751 18457
L41759 18442
L41766 18434
L41781 18427
L41804 18427
L41819 18434
L41826 18442
L41834 18457
L41834 18517
" />
<path d="M41751 18374
L41751 18269
L41909 18337
" />
<path d="M41804 18142
L41909 18142
" />
<path d="M41744 18179
L41856 18217
L41856 18119
" />
<path d="M38884 18438
L38809 18490
" />
<path d="M38884 18528
L38726 18528
L38726 18468
L38734 18453
L38741 18445
L38756 18438
L38779 18438
L38794 18445
L38801 18453
L38809 18468
L38809 18528
" />
<path d="M38726 18385
L38726 18280
L38884 18348
" />
<path d="M38726 18145
L38726 18220
L38801 18228
L38794 18220
L38786 18205
L38786 18168
L38794 18153
L38801 18145
L38816 18138
L38854 18138
L38869 18145
L38876 18153
L38884 18168
L38884 18205
L38876 18220
L38869 18228
" />
<path d="M42291 30982
L42239 30907
" />
<path d="M42201 30982
L42201 30825
L42261 30825
L42276 30832
L42284 30840
L42291 30855
L42291 30877
L42284 30892
L42276 30900
L42261 30907
L42201 30907
" />
<path d="M42344 30825
L42449 30825
L42381 30982
" />
<path d="M42576 30825
L42546 30825
L42531 30832
L42524 30840
L42509 30862
L42501 30892
L42501 30952
L42509 30967
L42516 30975
L42531 30982
L42561 30982
L42576 30975
L42584 30967
L42591 30952
L42591 30915
L42584 30900
L42576 30892
L42561 30885
L42531 30885
L42516 30892
L42509 30900
L42501 30915
" />
<path d="M39131 26264
L39079 26189
" />
<path d="M39041 26264
L39041 26106
L39101 26106
L39116 26114
L39124 26121
L39131 26136
L39131 26159
L39124 26174
L39116 26181
L39101 26189
L39041 26189
" />
<path d="M39184 26106
L39289 26106
L39221 26264
" />
<path d="M39371 26174
L39356 26166
L39349 26159
L39341 26144
L39341 26136
L39349 26121
L39356 26114
L39371 26106
L39401 26106
L39416 26114
L39424 26121
L39431 26136
L39431 26144
L39424 26159
L39416 26166
L39401 26174
L39371 26174
L39356 26181
L39349 26189
L39341 26204
L39341 26234
L39349 26249
L39356 26256
L39371 26264
L39401 26264
L39416 26256
L39424 26249
L39431 26234
L39431 26204
L39424 26189
L39416 26181
L39401 26174
" />
<path d="M42139 26258
L42087 26183
" />
<path d="M42049 26258
L42049 26100
L42109 26100
L42124 26108
L42132 26115
L42139 26130
L42139 26153
L42132 26168
L42124 26175
L42109 26183
L42049 26183
" />
<path d="M42192 26100
L42297 26100
L42229 26258
" />
<path d="M42364 26258
L42394 26258
L42409 26250
L42417 26243
L42432 26220
L42439 26190
L42439 26130
L42432 26115
L42424 26108
L42409 26100
L42379 26100
L42364 26108
L42357 26115
L42349 26130
L42349 26168
L42357 26183
L42364 26190
L42379 26198
L42409 26198
L42424 26190
L42432 26183
L42439 26168
" />
<path d="M45107 26286
L45055 26211
" />
<path d="M45017 26286
L45017 26128
L45077 26128
L45092 26136
L45100 26143
L45107 26158
L45107 26181
L45100 26196
L45092 26203
L45077 26211
L45017 26211
" />
<path d="M45197 26196
L45182 26188
L45175 26181
L45167 26166
L45167 26158
L45175 26143
L45182 26136
L45197 26128
L45227 26128
L45242 26136
L45250 26143
L45257 26158
L45257 26166
L45250 26181
L45242 26188
L45227 26196
L45197 26196
L45182 26203
L45175 26211
L45167 26226
L45167 26256
L45175 26271
L45182 26278
L45197 26286
L45227 26286
L45242 26278
L45250 26271
L45257 26256
L45257 26226
L45250 26211
L45242 26203
L45227 26196
" />
<path d="M45355 26128
L45370 26128
L45385 26136
L45392 26143
L45400 26158
L45407 26188
L45407 26226
L45400 26256
L45392 26271
L45385 26278
L45370 26286
L45355 26286
L45340 26278
L45332 26271
L45325 26256
L45317 26226
L45317 26188
L45325 26158
L45332 26143
L45340 26136
L45355 26128
" />
<path d="M42834 17499
L42782 17424
" />
<path d="M42744 17499
L42744 17341
L42804 17341
L42819 17349
L42827 17356
L42834 17371
L42834 17394
L42827 17409
L42819 17416
L42804 17424
L42744 17424
" />
<path d="M42924 17409
L42909 17401
L42902 17394
L42894 17379
L42894 17371
L42902 17356
L42909 17349
L42924 17341
L42954 17341
L42969 17349
L42977 17356
L42984 17371
L42984 17379
L42977 17394
L42969 17401
L42954 17409
L42924 17409
L42909 17416
L42902 17424
L42894 17439
L42894 17469
L42902 17484
L42909 17491
L42924 17499
L42954 17499
L42969 17491
L42977 17484
L42984 17469
L42984 17439
L42977 17424
L42969 17416
L42954 17409
" />
<path d="M43134 17499
L43044 17499
" />
<path d="M43089 17499
L43089 17341
L43074 17364
L43059 17379
L43044 17386
" />
<path d="M39799 17520
L39747 17445
" />
<path d="M39709 17520
L39709 17362
L39769 17362
L39784 17370
L39792 17377
L39799 17392
L39799 17415
L39792 17430
L39784 17437
L39769 17445
L39709 17445
" />
<path d="M39889 17430
L39874 17422
L39867 17415
L39859 17400
L39859 17392
L39867 17377
L39874 17370
L39889 17362
L39919 17362
L39934 17370
L39942 17377
L39949 17392
L39949 17400
L39942 17415
L39934 17422
L39919 17430
L39889 17430
L39874 17437
L39867 17445
L39859 17460
L39859 17490
L39867 17505
L39874 17512
L39889 17520
L39919 17520
L39934 17512
L39942 17505
L39949 17490
L39949 17460
L39942 17445
L39934 17437
L39919 17430
" />
<path d="M40009 17377
L40017 17370
L40032 17362
L40069 17362
L40084 17370
L40092 17377
L40099 17392
L40099 17407
L40092 17430
L40002 17520
L40099 17520
" />
<path d="M45416 29914
L45341 29966
" />
<path d="M45416 30004
L45258 30004
L45258 29944
L45266 29929
L45273 29921
L45288 29914
L45311 29914
L45326 29921
L45333 29929
L45341 29944
L45341 30004
" />
<path d="M45326 29824
L45318 29839
L45311 29846
L45296 29854
L45288 29854
L45273 29846
L45266 29839
L45258 29824
L45258 29794
L45266 29779
L45273 29771
L45288 29764
L45296 29764
L45311 29771
L45318 29779
L45326 29794
L45326 29824
L45333 29839
L45341 29846
L45356 29854
L45386 29854
L45401 29846
L45408 29839
L45416 29824
L45416 29794
L45408 29779
L45401 29771
L45386 29764
L45356 29764
L45341 29771
L45333 29779
L45326 29794
" />
<path d="M45258 29711
L45258 29614
L45318 29666
L45318 29644
L45326 29629
L45333 29621
L45348 29614
L45386 29614
L45401 29621
L45408 29629
L45416 29644
L45416 29689
L45408 29704
L45401 29711
" />
<path d="M47403 21141
L47328 21193
" />
<path d="M47403 21231
L47245 21231
L47245 21171
L47253 21156
L47260 21148
L47275 21141
L47298 21141
L47313 21148
L47320 21156
L47328 21171
L47328 21231
" />
<path d="M47313 21051
L47305 21066
L47298 21073
L47283 21081
L47275 21081
L47260 21073
L47253 21066
L47245 21051
L47245 21021
L47253 21006
L47260 20998
L47275 20991
L47283 20991
L47298 20998
L47305 21006
L47313 21021
L47313 21051
L47320 21066
L47328 21073
L47343 21081
L47373 21081
L47388 21073
L47395 21066
L47403 21051
L47403 21021
L47395 21006
L47388 20998
L47373 20991
L47343 20991
L47328 20998
L47320 21006
L47313 21021
" />
<path d="M47403 20916
L47403 20886
L47395 20871
L47388 20863
L47365 20848
L47335 20841
L47275 20841
L47260 20848
L47253 20856
L47245 20871
L47245 20901
L47253 20916
L47260 20923
L47275 20931
L47313 20931
L47328 20923
L47335 20916
L47343 20901
L47343 20871
L47335 20856
L47328 20848
L47313 20841
" />
<path d="M46623 22316
L46571 22241
" />
<path d="M46533 22316
L46533 22158
L46593 22158
L46608 22166
L46616 22173
L46623 22188
L46623 22211
L46616 22226
L46608 22233
L46593 22241
L46533 22241
" />
<path d="M46698 22316
L46728 22316
L46743 22308
L46751 22301
L46766 22278
L46773 22248
L46773 22188
L46766 22173
L46758 22166
L46743 22158
L46713 22158
L46698 22166
L46691 22173
L46683 22188
L46683 22226
L46691 22241
L46698 22248
L46713 22256
L46743 22256
L46758 22248
L46766 22241
L46773 22226
" />
<path d="M46871 22158
L46886 22158
L46901 22166
L46908 22173
L46916 22188
L46923 22218
L46923 22256
L46916 22286
L46908 22301
L46901 22308
L46886 22316
L46871 22316
L46856 22308
L46848 22301
L46841 22286
L46833 22256
L46833 22218
L46841 22188
L46848 22173
L46856 22166
L46871 22158
" />
</g>
<g style="fill:#000000; fill-opacity:0.0; 
stroke:#000000; stroke-width:59.0551; stroke-opacity:1; 
stroke-linecap:round; stroke-linejoin:round;">
<path d="M44524 39039
L44843 39039
L44880 39021
L44899 39002
L44918 38964
L44918 38889
L44899 38852
L44880 38833
L44843 38814
L44524 38814
" />
<path d="M44693 38571
L44674 38608
L44655 38627
L44618 38646
L44599 38646
L44561 38627
L44543 38608
L44524 38571
L44524 38496
L44543 38458
L44561 38440
L44599 38421
L44618 38421
L44655 38440
L44674 38458
L44693 38496
L44693 38571
L44711 38608
L44730 38627
L44768 38646
L44843 38646
L44880 38627
L44899 38608
L44918 38571
L44918 38496
L44899 38458
L44880 38440
L44843 38421
L44768 38421
L44730 38440
L44711 38458
L44693 38496
" />
</g>
<g style="fill:#000000; fill-opacity:0.0; 
stroke:#000000; stroke-width:29.5276; stroke-opacity:1; 
stroke-linecap:round; stroke-linejoin:round;">
<path d="M40416 42963
L40407 42982
L40388 43000
L40360 43029
L40350 43047
L40350 43066
" />
<path d="M40397 43057
L40388 43075
L40369 43094
L40332 43104
L40266 43104
L40229 43094
L40210 43075
L40200 43057
L40200 43019
L40210 43000
L40229 42982
L40266 42972
L40332 42972
L40369 42982
L40388 43000
L40397 43019
L40397 43057
" />
<path d="M40397 42785
L40397 42897
" />
<path d="M40397 42841
L40200 42841
L40229 42860
L40247 42879
L40257 42897
" />
<path d="M40200 42719
L40200 42588
L40397 42672
" />
<path d="M40411 41456
L40402 41475
L40383 41493
L40355 41522
L40345 41540
L40345 41559
" />
<path d="M40392 41550
L40383 41568
L40364 41587
L40327 41597
L40261 41597
L40224 41587
L40205 41568
L40195 41550
L40195 41512
L40205 41493
L40224 41475
L40261 41465
L40327 41465
L40364 41475
L40383 41493
L40392 41512
L40392 41550
" />
<path d="M40392 41278
L40392 41390
" />
<path d="M40392 41334
L40195 41334
L40224 41353
L40242 41372
L40252 41390
" />
<path d="M40280 41165
L40270 41184
L40261 41194
L40242 41203
L40233 41203
L40214 41194
L40205 41184
L40195 41165
L40195 41128
L40205 41109
L40214 41100
L40233 41090
L40242 41090
L40261 41100
L40270 41109
L40280 41128
L40280 41165
L40289 41184
L40299 41194
L40317 41203
L40355 41203
L40374 41194
L40383 41184
L40392 41165
L40392 41128
L40383 41109
L40374 41100
L40355 41090
L40317 41090
L40299 41100
L40289 41109
L40280 41128
" />
<path d="M38648 43966
L38596 43891
" />
<path d="M38558 43966
L38558 43808
L38618 43808
L38633 43816
L38641 43823
L38648 43838
L38648 43861
L38641 43876
L38633 43883
L38618 43891
L38558 43891
" />
<path d="M38723 43966
L38753 43966
L38768 43958
L38776 43951
L38791 43928
L38798 43898
L38798 43838
L38791 43823
L38783 43816
L38768 43808
L38738 43808
L38723 43816
L38716 43823
L38708 43838
L38708 43876
L38716 43891
L38723 43898
L38738 43906
L38768 43906
L38783 43898
L38791 43891
L38798 43876
" />
<path d="M38948 43966
L38858 43966
" />
<path d="M38903 43966
L38903 43808
L38888 43831
L38873 43846
L38858 43853
" />
<path d="M40313 43991
L40261 43916
" />
<path d="M40223 43991
L40223 43833
L40283 43833
L40298 43841
L40306 43848
L40313 43863
L40313 43886
L40306 43901
L40298 43908
L40283 43916
L40223 43916
" />
<path d="M40388 43991
L40418 43991
L40433 43983
L40441 43976
L40456 43953
L40463 43923
L40463 43863
L40456 43848
L40448 43841
L40433 43833
L40403 43833
L40388 43841
L40381 43848
L40373 43863
L40373 43901
L40381 43916
L40388 43923
L40403 43931
L40433 43931
L40448 43923
L40456 43916
L40463 43901
" />
<path d="M40523 43848
L40531 43841
L40546 43833
L40583 43833
L40598 43841
L40606 43848
L40613 43863
L40613 43878
L40606 43901
L40516 43991
L40613 43991
" />
</g>
<g style="fill:#000000; fill-opacity:0.0; 
stroke:#000000; stroke-width:59.0551; stroke-opacity:1; 
stroke-linecap:round; stroke-linejoin:round;">
<path d="M39678 41938
L39284 41938
L39284 41844
L39303 41788
L39340 41750
L39378 41731
L39453 41713
L39509 41713
L39584 41731
L39621 41750
L39659 41788
L39678 41844
L39678 41938
" />
<path d="M39284 41581
L39284 41338
L39434 41469
L39434 41413
L39453 41375
L39471 41356
L39509 41338
L39603 41338
L39640 41356
L39659 41375
L39678 41413
L39678 41525
L39659 41563
L39640 41581
" />
<path d="M39284 41206
L39284 40963
L39434 41094
L39434 41038
L39453 41000
L39471 40981
L39509 40963
L39603 40963
L39640 40981
L39659 41000
L39678 41038
L39678 41150
L39659 41188
L39640 41206
" />
<path d="M24833 38130
L24833 38318
" />
<path d="M24702 37924
L24833 38130
L24965 37924
" />
<path d="M25302 38318
L25077 38318
" />
<path d="M25190 38318
L25190 37924
L25152 37980
L25115 38018
L25077 38037
" />
<path d="M39165 38741
L39353 38741
" />
<path d="M38959 38872
L39165 38741
L38959 38609
" />
<path d="M38996 38497
L38978 38478
L38959 38441
L38959 38347
L38978 38310
L38996 38291
L39034 38272
L39071 38272
L39128 38291
L39353 38516
L39353 38272
" />
</g>
<g style="fill:#000000; fill-opacity:0.0; 
stroke:#000000; stroke-width:29.5276; stroke-opacity:1; 
stroke-linecap:round; stroke-linejoin:round;">
<path d="M23044 40367
L22978 40273
" />
<path d="M22932 40367
L22932 40170
L23007 40170
L23025 40179
L23035 40189
L23044 40207
L23044 40235
L23035 40254
L23025 40264
L23007 40273
L22932 40273
" />
<path d="M23231 40367
L23119 40367
" />
<path d="M23175 40367
L23175 40170
L23157 40198
L23138 40217
L23119 40226
" />
<path d="M23410 40170
L23316 40170
L23306 40264
L23316 40254
L23335 40245
L23381 40245
L23400 40254
L23410 40264
L23419 40282
L23419 40329
L23410 40348
L23400 40357
L23381 40367
L23335 40367
L23316 40357
L23306 40348
" />
</g>
<g style="fill:#000000; fill-opacity:0.0; 
stroke:#000000; stroke-width:15.748; stroke-opacity:1; 
stroke-linecap:round; stroke-linejoin:round;">
<path d="M27395 42361
L27369 42361
" />
<path d="M27369 42402
L27369 42323
L27407 42323
" />
<path d="M27436 42402
L27436 42323
" />
<path d="M27474 42402
L27474 42323
L27493 42323
L27504 42327
L27511 42334
L27515 42342
L27519 42357
L27519 42368
L27515 42383
L27511 42391
L27504 42398
L27493 42402
L27474 42402
" />
<path d="M27594 42402
L27549 42402
" />
<path d="M27571 42402
L27571 42323
L27564 42334
L27556 42342
L27549 42346
" />
<path d="M47895 42711
L47869 42711
" />
<path d="M47869 42752
L47869 42673
L47907 42673
" />
<path d="M47936 42752
L47936 42673
" />
<path d="M47974 42752
L47974 42673
L47993 42673
L48004 42677
L48011 42684
L48015 42692
L48019 42707
L48019 42718
L48015 42733
L48011 42741
L48004 42748
L47993 42752
L47974 42752
" />
<path d="M48049 42681
L48053 42677
L48060 42673
L48079 42673
L48086 42677
L48090 42681
L48094 42688
L48094 42696
L48090 42707
L48045 42752
L48094 42752
" />
<path d="M37795 15861
L37769 15861
" />
<path d="M37769 15902
L37769 15823
L37807 15823
" />
<path d="M37836 15902
L37836 15823
" />
<path d="M37874 15902
L37874 15823
L37893 15823
L37904 15827
L37911 15834
L37915 15842
L37919 15857
L37919 15868
L37915 15883
L37911 15891
L37904 15898
L37893 15902
L37874 15902
" />
<path d="M37945 15823
L37994 15823
L37968 15853
L37979 15853
L37986 15857
L37990 15861
L37994 15868
L37994 15887
L37990 15894
L37986 15898
L37979 15902
L37956 15902
L37949 15898
L37945 15894
" />
</g> 
</svg>
